#VRML V2.0 utf8
# 3D model generated by easyeda2kicad.py (https://github.com/uPesy/easyeda2kicad.py)

Shape{
    appearance Appearance {
        material  Material 	{
            diffuseColor 0.7529411764705882 0.7529411764705882 0.7529411764705882
            specularColor 0.3764705882352941 0.3764705882352941 0.3764705882352941
            ambientIntensity 0.7529
            transparency 0.0
            shininess 0.5
        }
    }
    geometry IndexedFaceSet {
        ccw TRUE
        solid FALSE
        coord DEF co Coordinate {
            point [
                0.2362 0.8091 0.0, 0.2362 -0.8051 0.0, 0.2362 0.8091 0.0394, 0.2362 -0.8051 0.0394, 0.7283 0.8091 0.0, 0.7283 0.8091 0.0394, 0.7487 0.8064 0.0394, 0.7487 0.8064 0.0, 0.7677 0.7985 0.0394, 0.7677 0.7985 0.0, 0.784 0.786 0.0394, 0.784 0.786 0.0, 0.7965 0.7697 0.0394, 0.7965 0.7697 0.0, 0.8044 0.7507 0.0394, 0.8044 0.7507 0.0, 0.8071 0.7303 0.0394, 0.8071 0.7303 0.0, 0.8071 -0.7264 0.0, 0.8071 -0.7264 0.0394, 0.8044 -0.7468 0.0394, 0.8044 -0.7468 0.0, 0.7965 -0.7657 0.0394, 0.7965 -0.7657 0.0, 0.784 -0.7821 0.0394, 0.784 -0.7821 0.0, 0.7677 -0.7946 0.0394, 0.7677 -0.7946 0.0, 0.7487 -0.8024 0.0394, 0.7487 -0.8024 0.0, 0.7283 -0.8051 0.0394, 0.7283 -0.8051 0.0, -0.2362 -0.8051 0.0, -0.2362 0.8091 0.0, -0.2362 -0.8051 0.0394, -0.2362 0.8091 0.0394, -0.7283 0.8091 0.0, -0.7283 0.8091 0.0394, -0.8071 0.7303 0.0, -0.8071 0.7303 0.0394, -0.8044 0.7507 0.0394, -0.8044 0.7507 0.0, -0.7965 0.7697 0.0394, -0.7965 0.7697 0.0, -0.784 0.786 0.0394, -0.784 0.786 0.0, -0.7677 0.7985 0.0394, -0.7677 0.7985 0.0, -0.7487 0.8064 0.0394, -0.7487 0.8064 0.0, -0.8071 -0.7264 0.0, -0.8071 -0.7264 0.0394, -0.7283 -0.8051 0.0, -0.7283 -0.8051 0.0394, -0.7487 -0.8024 0.0394, -0.7487 -0.8024 0.0, -0.7677 -0.7946 0.0394, -0.7677 -0.7946 0.0, -0.784 -0.7821 0.0394, -0.784 -0.7821 0.0, -0.7965 -0.7657 0.0394, -0.7965 -0.7657 0.0, -0.8044 -0.7468 0.0394, -0.8044 -0.7468 0.0
            ]
        }
        coordIndex [
            0,1,2,-1,2,1,3,-1,4,0,5,-1,5,0,2,-1,4,5,6,-1,4,6,7,-1,7,6,8,-1,7,8,9,-1,9,8,10,-1,9,10,11,-1,11,10,12,-1,11,12,13,-1,13,12,14,-1,13,14,15,-1,15,14,16,-1,15,16,17,-1,18,17,19,-1,19,17,16,-1,18,19,20,-1,18,20,21,-1,21,20,22,-1,21,22,23,-1,23,22,24,-1,23,24,25,-1,25,24,26,-1,25,26,27,-1,27,26,28,-1,27,28,29,-1,29,28,30,-1,29,30,31,-1,1,31,3,-1,3,31,30,-1,1,0,31,-1,31,0,4,-1,21,23,25,-1,4,17,31,-1,31,17,18,-1,31,18,29,-1,9,11,13,-1,21,25,18,-1,18,25,27,-1,18,27,29,-1,4,7,17,-1,17,7,9,-1,17,9,15,-1,15,9,13,-1,20,19,30,-1,28,26,24,-1,6,5,16,-1,16,5,19,-1,30,19,3,-1,3,19,5,-1,3,5,2,-1,12,10,8,-1,28,24,30,-1,30,24,22,-1,30,22,20,-1,6,16,8,-1,8,16,14,-1,8,14,12,-1,32,33,34,-1,34,33,35,-1,33,36,35,-1,35,36,37,-1,38,39,40,-1,38,40,41,-1,41,40,42,-1,41,42,43,-1,43,42,44,-1,43,44,45,-1,45,44,46,-1,45,46,47,-1,47,46,48,-1,47,48,49,-1,49,48,37,-1,49,37,36,-1,38,50,39,-1,39,50,51,-1,52,53,54,-1,52,54,55,-1,55,54,56,-1,55,56,57,-1,57,56,58,-1,57,58,59,-1,59,58,60,-1,59,60,61,-1,61,60,62,-1,61,62,63,-1,63,62,51,-1,63,51,50,-1,52,32,53,-1,53,32,34,-1,36,33,38,-1,33,32,38,-1,38,32,52,-1,38,52,50,-1,43,45,47,-1,57,59,61,-1,38,41,36,-1,36,41,43,-1,36,43,49,-1,49,43,47,-1,52,55,50,-1,50,55,57,-1,50,57,63,-1,63,57,61,-1,40,39,37,-1,46,44,42,-1,54,53,51,-1,51,53,39,-1,37,39,35,-1,35,39,53,-1,35,53,34,-1,60,58,56,-1,40,37,42,-1,42,37,48,-1,42,48,46,-1,54,51,56,-1,56,51,62,-1,56,62,60,-1,
        ]
    }
}
Shape{
    appearance Appearance {
        material  Material 	{
            diffuseColor 0.25098039215686274 0.25098039215686274 0.25098039215686274
            specularColor 0.12549019607843137 0.12549019607843137 0.12549019607843137
            ambientIntensity 0.251
            transparency 0.0
            shininess 0.5
        }
    }
    geometry IndexedFaceSet {
        ccw TRUE
        solid FALSE
        coord DEF co Coordinate {
            point [
                0.0122 -0.8051 0.1886, 0.0122 -0.8051 0.1674, 0.0636 -0.8051 0.1674, 0.0122 -0.8051 0.2733, 0.0122 -0.8051 0.2576, 0.0636 -0.8051 0.2576, 0.084 -0.8051 0.327, 0.088 -0.8051 0.3275, 0.0668 -0.8051 0.3275, 0.0977 -0.8051 0.2736, 0.0943 -0.8051 0.2733, 0.112 -0.8051 0.2733, 0.1219 -0.8051 0.3209, 0.1219 -0.8051 0.3039, 0.1364 -0.8051 0.3039, 0.1253 -0.8051 0.1889, 0.123 -0.8051 0.1886, 0.1364 -0.8051 0.1886, 0.1136 -0.8051 0.1887, 0.112 -0.8051 0.1893, 0.112 -0.8051 0.1886, 0.1888 -0.8051 0.2131, 0.1888 -0.8051 0.1951, 0.1988 -0.8051 0.1951, -0.2516 -0.8051 0.2538, -0.2508 -0.8051 0.2576, -0.4901 -0.8051 0.2576, -0.0336 -0.8051 0.2852, -0.0234 -0.8051 0.2764, 0.0122 -0.8051 0.3275, -0.0764 -0.8051 0.3275, -0.0677 -0.8051 0.3217, -0.0553 -0.8051 0.3074, -0.0472 -0.8051 0.2917, -0.0449 -0.8051 0.2909, -0.1037 -0.8051 0.3398, -0.0846 -0.8051 0.3331, 0.0122 -0.8051 0.7677, -0.1557 -0.8051 0.3323, -0.1382 -0.8051 0.3391, -0.4901 -0.8051 0.7677, -0.1193 -0.8051 0.3414, -0.2339 -0.8051 0.2925, -0.2305 -0.8051 0.2957, -0.4901 -0.8051 0.3275, -0.1634 -0.8051 0.3275, -0.1649 -0.8051 0.3266, -0.2177 -0.8051 0.3042, -0.2035 -0.8051 0.3092, -0.1903 -0.8051 0.3107, -0.1738 -0.8051 0.319, -0.1859 -0.8051 0.3104, -0.1816 -0.8051 0.3099, -0.4901 -0.8051 0.2733, -0.2486 -0.8051 0.2687, -0.2464 -0.8051 0.2733, -0.2422 -0.8051 0.2822, -0.2055 -0.8051 0.1896, -0.2121 -0.8051 0.1917, -0.4901 -0.8051 0.1886, -0.2256 -0.8051 0.1988, -0.2358 -0.8051 0.2078, -0.2373 -0.8051 0.2095, -0.2453 -0.8051 0.2218, -0.2503 -0.8051 0.236, -0.2518 -0.8051 0.2492, -0.196 -0.8051 0.1745, -0.2017 -0.8051 0.1815, -0.205 -0.8051 0.1886, -0.1537 -0.8051 0.1674, -0.1603 -0.8051 0.1649, 0.0122 -0.8051 0.0394, -0.1694 -0.8051 0.1638, -0.4901 -0.8051 0.0394, -0.1709 -0.8051 0.1638, -0.1799 -0.8051 0.1652, -0.4901 -0.8051 0.1674, -0.1851 -0.8051 0.1674, -0.1886 -0.8051 0.1689, -0.1339 -0.8051 0.1886, -0.1339 -0.8051 0.1885, -0.1384 -0.8051 0.18, -0.1442 -0.8051 0.1734, -0.1518 -0.8051 0.1682, -0.0237 -0.8051 0.2059, -0.0345 -0.8051 0.1968, -0.0165 -0.8051 0.2158, -0.141 -0.8051 0.2272, -0.0901 -0.8051 0.2537, -0.1476 -0.8051 0.2332, -0.1556 -0.8051 0.2375, -0.0334 -0.8051 0.2449, -0.0351 -0.8051 0.2522, -0.038 -0.8051 0.2576, -0.2269 -0.8051 0.2576, -0.0826 -0.8051 0.212, -0.0783 -0.8051 0.2336, -0.0852 -0.8051 0.2111, -0.0876 -0.8051 0.2094, -0.0824 -0.8051 0.1891, -0.0849 -0.8051 0.19, -0.0875 -0.8051 0.1917, -0.0887 -0.8051 0.1929, -0.2247 -0.8051 0.2349, -0.2202 -0.8051 0.2271, -0.2009 -0.8051 0.2232, -0.2134 -0.8051 0.2201, -0.2051 -0.8051 0.215, -0.1868 -0.8051 0.2358, -0.1946 -0.8051 0.2304, -0.2279 -0.8051 0.2499, -0.2274 -0.8051 0.2442, -0.0113 -0.8051 0.2539, -0.0096 -0.8051 0.242, -0.0097 -0.8051 0.2402, -0.0116 -0.8051 0.2278, -0.0462 -0.8051 0.1913, -0.0582 -0.8051 0.1888, -0.0806 -0.8051 0.1888, -0.1785 -0.8051 0.239, -0.1694 -0.8051 0.2401, -0.1648 -0.8051 0.2398, -0.0799 -0.8051 0.2124, -0.0795 -0.8051 0.2123, -0.0783 -0.8051 0.2121, -0.0916 -0.8051 0.2006, -0.0916 -0.8051 0.2017, -0.1315 -0.8051 0.2055, -0.0909 -0.8051 0.2046, -0.0896 -0.8051 0.2072, -0.0903 -0.8051 0.1953, -0.0913 -0.8051 0.1979, -0.1317 -0.8051 0.1979, -0.1315 -0.8051 0.2017, -0.0409 -0.8051 0.2215, -0.0367 -0.8051 0.2275, -0.0341 -0.8051 0.2342, -0.0332 -0.8051 0.2416, -0.0776 -0.8051 0.212, -0.0605 -0.8051 0.212, -0.0537 -0.8051 0.2133, -0.047 -0.8051 0.2164, -0.0414 -0.8051 0.221, -0.0658 -0.8051 0.2712, -0.2235 -0.8051 0.2676, -0.2267 -0.8051 0.2591, -0.0628 -0.8051 0.2712, -0.0386 -0.8051 0.2587, -0.0431 -0.8051 0.2637, -0.049 -0.8051 0.2678, -0.0556 -0.8051 0.2703, -0.2196 -0.8051 0.2733, -0.1698 -0.8051 0.2822, -0.1726 -0.8051 0.2837, -0.0728 -0.8051 0.292, -0.0809 -0.8051 0.3026, -0.0841 -0.8051 0.3056, -0.0948 -0.8051 0.3128, -0.1068 -0.8051 0.3172, -0.1811 -0.8051 0.2868, -0.1899 -0.8051 0.2879, -0.1938 -0.8051 0.2877, -0.0662 -0.8051 0.2733, -0.0675 -0.8051 0.2796, -0.1189 -0.8051 0.3186, -0.1206 -0.8051 0.3186, -0.1645 -0.8051 0.2935, -0.1332 -0.8051 0.3168, -0.1561 -0.8051 0.3038, -0.1456 -0.8051 0.3116, -0.2032 -0.8051 0.2855, -0.2116 -0.8051 0.281, -0.2182 -0.8051 0.2751, -0.0212 -0.8051 0.2733, -0.0158 -0.8051 0.2655, -0.0127 -0.8051 0.2576, 0.2106 -0.8051 0.1951, 0.2106 -0.8051 0.189, 0.2157 -0.8051 0.1886, 0.1988 -0.8051 0.1886, 0.2157 -0.8051 0.2576, 0.2094 -0.8051 0.2424, 0.2094 -0.8051 0.2363, 0.2079 -0.8051 0.2192, 0.2079 -0.8051 0.2131, 0.1988 -0.8051 0.2131, 0.1988 -0.8051 0.2363, 0.1988 -0.8051 0.2192, 0.1888 -0.8051 0.2363, 0.1888 -0.8051 0.2192, 0.1988 -0.8051 0.189, 0.1819 -0.8051 0.189, 0.1783 -0.8051 0.1886, 0.1819 -0.8051 0.2424, 0.0719 -0.8051 0.2072, 0.0729 -0.8051 0.218, 0.0705 -0.8051 0.2053, 0.0696 -0.8051 0.2029, 0.0898 -0.8051 0.191, 0.0873 -0.8051 0.1894, 0.0931 -0.8051 0.189, 0.0849 -0.8051 0.1886, 0.0998 -0.8051 0.189, 0.0668 -0.8051 0.1886, 0.0704 -0.8051 0.1939, 0.0695 -0.8051 0.1961, 0.0877 -0.8051 0.2223, 0.0854 -0.8051 0.2226, 0.0818 -0.8051 0.2117, 0.0668 -0.8051 0.1674, 0.0774 -0.8051 0.1886, 0.0772 -0.8051 0.1886, 0.0747 -0.8051 0.1896, 0.0739 -0.8051 0.209, 0.0768 -0.8051 0.2104, 0.0775 -0.8051 0.2209, 0.0817 -0.8051 0.2222, 0.0725 -0.8051 0.1911, 0.0718 -0.8051 0.1918, 0.1119 -0.8051 0.2097, 0.1089 -0.8051 0.1973, 0.112 -0.8051 0.2096, 0.1113 -0.8051 0.1958, 0.112 -0.8051 0.1955, 0.0792 -0.8051 0.2272, 0.0668 -0.8051 0.2576, 0.0743 -0.8051 0.2253, 0.0729 -0.8051 0.2245, 0.0931 -0.8051 0.1949, 0.0929 -0.8051 0.1949, 0.0919 -0.8051 0.1933, 0.1108 -0.8051 0.2108, 0.0998 -0.8051 0.2136, 0.1089 -0.8051 0.1904, 0.0692 -0.8051 0.1992, 0.0692 -0.8051 0.2, 0.0931 -0.8051 0.2133, 0.0929 -0.8051 0.2162, 0.0922 -0.8051 0.2186, 0.0914 -0.8051 0.22, 0.0968 -0.8051 0.2239, 0.0982 -0.8051 0.2217, 0.1099 -0.8051 0.2212, 0.0993 -0.8051 0.2187, 0.1091 -0.8051 0.219, 0.086 -0.8051 0.228, 0.09 -0.8051 0.2277, 0.0928 -0.8051 0.2268, 0.0904 -0.8051 0.221, 0.0892 -0.8051 0.2218, 0.1101 -0.8051 0.212, 0.1093 -0.8051 0.214, 0.1089 -0.8051 0.2169, 0.1149 -0.8051 0.1886, 0.112 -0.8051 0.1674, 0.1192 -0.8051 0.1881, 0.1328 -0.8051 0.2263, 0.1328 -0.8051 0.2198, 0.1336 -0.8051 0.1948, 0.1324 -0.8051 0.193, 0.1344 -0.8051 0.197, 0.1111 -0.8051 0.223, 0.112 -0.8051 0.2239, 0.112 -0.8051 0.2576, 0.1132 -0.8051 0.225, 0.1148 -0.8051 0.226, 0.1303 -0.8051 0.1912, 0.1288 -0.8051 0.1902, 0.1184 -0.8051 0.2274, 0.1238 -0.8051 0.228, 0.1364 -0.8051 0.2576, 0.1285 -0.8051 0.2276, 0.1324 -0.8051 0.2057, 0.1336 -0.8051 0.2039, 0.1343 -0.8051 0.2019, 0.1346 -0.8051 0.1994, 0.1231 -0.8051 0.2226, 0.1211 -0.8051 0.2224, 0.1158 -0.8051 0.2175, 0.1193 -0.8051 0.222, 0.1178 -0.8051 0.2212, 0.1159 -0.8051 0.2166, 0.1161 -0.8051 0.2155, 0.1166 -0.8051 0.2146, 0.1173 -0.8051 0.2139, 0.1196 -0.8051 0.2124, 0.1278 -0.8051 0.222, 0.1238 -0.8051 0.2106, 0.1316 -0.8051 0.2206, 0.1263 -0.8051 0.2096, 0.1308 -0.8051 0.2071, 0.1168 -0.8051 0.2203, 0.1163 -0.8051 0.2194, 0.1159 -0.8051 0.2185, 0.1155 -0.8051 0.1941, 0.119 -0.8051 0.2058, 0.1151 -0.8051 0.2076, 0.1199 -0.8051 0.1936, 0.1202 -0.8051 0.1936, 0.1234 -0.8051 0.2039, 0.1236 -0.8051 0.194, 0.1278 -0.8051 0.1987, 0.1277 -0.8051 0.1996, 0.1253 -0.8051 0.1946, 0.1259 -0.8051 0.195, 0.1267 -0.8051 0.1957, 0.1273 -0.8051 0.1965, 0.1276 -0.8051 0.1975, 0.1274 -0.8051 0.2006, 0.1269 -0.8051 0.2015, 0.126 -0.8051 0.2024, 0.2352 -0.8051 0.2883, 0.2157 -0.8051 0.2883, 0.2407 -0.8051 0.2737, 0.2157 -0.8051 0.2733, 0.2483 -0.8051 0.2737, 0.7283 -0.8051 0.2733, 0.7283 -0.8051 0.3275, 0.228 -0.8051 0.3271, 0.2157 -0.8051 0.3275, 0.213 -0.8051 0.2883, 0.2079 -0.8051 0.2737, 0.1988 -0.8051 0.2733, 0.2003 -0.8051 0.2737, 0.1988 -0.8051 0.3275, 0.2157 -0.8051 0.3141, 0.2206 -0.8051 0.3271, 0.1783 -0.8051 0.2733, 0.1777 -0.8051 0.2748, 0.1685 -0.8051 0.2737, 0.1538 -0.8051 0.2737, 0.1538 -0.8051 0.3271, 0.1488 -0.8051 0.3275, 0.1691 -0.8051 0.3271, 0.1783 -0.8051 0.3275, 0.1488 -0.8051 0.2733, 0.1959 -0.8051 0.2914, 0.1932 -0.8051 0.2859, 0.1911 -0.8051 0.3182, 0.1944 -0.8051 0.3136, 0.1893 -0.8051 0.2812, 0.1837 -0.8051 0.2772, 0.1783 -0.8051 0.2751, 0.1893 -0.8051 0.32, 0.1772 -0.8051 0.3262, 0.1783 -0.8051 0.3258, 0.1837 -0.8051 0.3238, 0.1964 -0.8051 0.3085, 0.1973 -0.8051 0.3011, 0.1971 -0.8051 0.2977, 0.1438 -0.8051 0.2798, 0.1438 -0.8051 0.2737, 0.1364 -0.8051 0.2733, 0.1364 -0.8051 0.3275, 0.1425 -0.8051 0.3271, 0.1364 -0.8051 0.3271, 0.1425 -0.8051 0.3209, 0.141 -0.8051 0.2978, 0.1364 -0.8051 0.2978, 0.1364 -0.8051 0.2798, 0.1219 -0.8051 0.2978, 0.1219 -0.8051 0.2798, 0.141 -0.8051 0.3039, 0.1364 -0.8051 0.3209, 0.1151 -0.8051 0.3271, 0.112 -0.8051 0.3275, 0.1151 -0.8051 0.2737, 0.1044 -0.8051 0.3258, 0.0988 -0.8051 0.3274, 0.0974 -0.8051 0.3275, 0.1364 -0.8051 0.2737, 0.1044 -0.8051 0.3186, 0.1035 -0.8051 0.2755, 0.0931 -0.8051 0.279, 0.0991 -0.8051 0.2802, 0.1044 -0.8051 0.2825, 0.1044 -0.8051 0.2759, 0.0984 -0.8051 0.321, 0.0918 -0.8051 0.3218, 0.0716 -0.8051 0.2998, 0.0743 -0.8051 0.2882, 0.0769 -0.8051 0.2846, 0.0779 -0.8051 0.2835, 0.0814 -0.8051 0.2811, 0.0852 -0.8051 0.2796, 0.0906 -0.8051 0.2789, 0.0772 -0.8051 0.3158, 0.0743 -0.8051 0.3118, 0.0809 -0.8051 0.3188, 0.0851 -0.8051 0.3208, 0.0897 -0.8051 0.3217, 0.0725 -0.8051 0.3072, 0.1038 -0.8051 0.3189, 0.0717 -0.8051 0.2978, 0.0725 -0.8051 0.2925, 0.0917 -0.8051 0.328, 0.0668 -0.8051 0.7677, 0.112 -0.8051 0.7677, 0.0918 -0.8051 0.328, 0.0682 -0.8051 0.3151, 0.0721 -0.8051 0.3201, 0.0734 -0.8051 0.3214, 0.0784 -0.8051 0.3249, 0.0668 -0.8051 0.2873, 0.0655 -0.8051 0.2906, 0.0636 -0.8051 0.2733, 0.0644 -0.8051 0.2994, 0.0645 -0.8051 0.3022, 0.0636 -0.8051 0.3275, 0.0657 -0.8051 0.3091, 0.0668 -0.8051 0.3117, 0.0756 -0.8051 0.2765, 0.0713 -0.8051 0.2801, 0.0668 -0.8051 0.2733, 0.0677 -0.8051 0.2851, 0.0896 -0.8051 0.2728, 0.0864 -0.8051 0.273, 0.0849 -0.8051 0.2733, 0.0806 -0.8051 0.2742, 0.0951 -0.8051 0.2256, 0.0846 -0.8051 0.1885, 0.0813 -0.8051 0.1881, 0.1678 -0.8051 0.2272, 0.1747 -0.8051 0.2272, 0.1783 -0.8051 0.2576, 0.1988 -0.8051 0.2424, 0.1988 -0.8051 0.2576, 0.1595 -0.8051 0.1886, 0.1555 -0.8051 0.1985, 0.1564 -0.8051 0.1954, 0.1565 -0.8051 0.1954, 0.1488 -0.8051 0.2576, 0.1488 -0.8051 0.2179, 0.1574 -0.8051 0.1984, 0.1568 -0.8051 0.1967, 0.1488 -0.8051 0.1886, 0.1488 -0.8051 0.1999, 0.1381 -0.8051 0.2272, 0.1456 -0.8051 0.2272, 0.1531 -0.8051 0.1891, 0.1528 -0.8051 0.1886, 0.1501 -0.8051 0.1822, 0.1364 -0.8051 0.1674, 0.1395 -0.8051 0.1716, 0.1395 -0.8051 0.1776, 0.1408 -0.8051 0.1771, 0.1433 -0.8051 0.1768, 0.1446 -0.8051 0.1769, 0.146 -0.8051 0.1774, 0.1473 -0.8051 0.1781, 0.1488 -0.8051 0.1723, 0.1467 -0.8051 0.1714, 0.1488 -0.8051 0.1674, 0.1438 -0.8051 0.1711, 0.1423 -0.8051 0.1711, 0.1486 -0.8051 0.1795, 0.1488 -0.8051 0.1798, 0.1783 -0.8051 0.1674, 0.1516 -0.8051 0.1741, 0.1493 -0.8051 0.1725, 0.1574 -0.8051 0.1833, 0.1543 -0.8051 0.1773, -0.7283 -0.8051 0.0394, -0.7283 -0.8051 0.1674, -0.7283 -0.8051 0.1886, -0.7283 -0.8051 0.2576, -0.7283 -0.8051 0.2733, -0.7283 -0.8051 0.3275, -0.7283 -0.8051 0.7677, 0.0622 -0.8051 0.2798, 0.0622 -0.8051 0.2737, 0.0341 -0.8051 0.2737, 0.041 -0.8051 0.3271, 0.041 -0.8051 0.2798, 0.0341 -0.8051 0.3271, 0.0636 -0.8051 0.1886, 0.0628 -0.8051 0.189, 0.0341 -0.8051 0.189, 0.0628 -0.8051 0.1951, 0.0616 -0.8051 0.2363, 0.041 -0.8051 0.2131, 0.041 -0.8051 0.1951, 0.0601 -0.8051 0.2131, 0.0601 -0.8051 0.2192, 0.041 -0.8051 0.2192, 0.041 -0.8051 0.2363, 0.0341 -0.8051 0.2424, 0.0616 -0.8051 0.2424, 0.0636 -0.8051 0.7677, 0.1364 -0.8051 0.7677, 0.1488 -0.8051 0.7677, 0.1783 -0.8051 0.7677, 0.1988 -0.8051 0.7677, 0.2157 -0.8051 0.7677, 0.7283 -0.8051 0.7677, 0.2207 -0.8051 0.189, 0.2207 -0.8051 0.2424, 0.2354 -0.8051 0.189, 0.3075 -0.8051 0.189, 0.3151 -0.8051 0.189, 0.7283 -0.8051 0.1886, 0.2948 -0.8051 0.2424, 0.7283 -0.8051 0.2576, 0.3021 -0.8051 0.2036, 0.2799 -0.8051 0.2036, 0.2747 -0.8051 0.189, 0.2671 -0.8051 0.189, 0.2874 -0.8051 0.2424, 0.2601 -0.8051 0.2012, 0.2561 -0.8051 0.1965, 0.2506 -0.8051 0.1925, 0.2445 -0.8051 0.1902, 0.2561 -0.8051 0.2353, 0.258 -0.8051 0.2335, 0.2613 -0.8051 0.2289, 0.2633 -0.8051 0.2238, 0.2359 -0.8051 0.2424, 0.2441 -0.8051 0.2415, 0.2505 -0.8051 0.2392, 0.2642 -0.8051 0.2164, 0.264 -0.8051 0.213, 0.2627 -0.8051 0.2068, 0.1988 -0.8051 0.1674, 0.2157 -0.8051 0.1674, 0.7283 -0.8051 0.1674, 0.0636 -0.8051 0.0394, 0.0668 -0.8051 0.0394, 0.112 -0.8051 0.0394, 0.1364 -0.8051 0.0394, 0.1488 -0.8051 0.0394, 0.1783 -0.8051 0.0394, 0.1988 -0.8051 0.0394, 0.2157 -0.8051 0.0394, 0.7283 -0.8051 0.0394, 0.8071 -0.7264 0.7677, 0.8071 -0.7264 0.0394, 0.8071 0.7303 0.7677, 0.8071 0.7303 0.0394, 0.7283 0.8091 0.7677, 0.7283 0.8091 0.0394, -0.7283 0.8091 0.7677, -0.7283 0.8091 0.0394, -0.8071 0.7303 0.7677, -0.8071 0.7303 0.0394, -0.8071 -0.7264 0.7677, -0.8071 -0.7264 0.0394, -0.7795 0.7598 0.7874, -0.7854 0.7456 0.7874, -0.7874 0.7303 0.7874, -0.7795 -0.7559 0.7874, -0.7701 -0.7681 0.7874, -0.7283 -0.7854 0.7874, -0.7579 -0.7775 0.7874, -0.7436 -0.7834 0.7874, 0.7283 -0.7854 0.7874, 0.7874 -0.7264 0.7874, 0.7874 0.7303 0.7874, -0.7874 -0.7264 0.7874, -0.7854 -0.7417 0.7874, 0.7283 0.7894 0.7874, 0.7854 0.7456 0.7874, 0.7579 -0.7775 0.7874, 0.7701 -0.7681 0.7874, 0.7436 -0.7834 0.7874, 0.7795 -0.7559 0.7874, 0.7854 -0.7417 0.7874, 0.7579 0.7815 0.7874, 0.7436 0.7874 0.7874, 0.7701 0.7721 0.7874, 0.7795 0.7598 0.7874, -0.7283 0.7894 0.7874, -0.7436 0.7874 0.7874, -0.7579 0.7815 0.7874, -0.7701 0.7721 0.7874, 0.7487 -0.8024 0.0394, 0.7965 -0.7657 0.0394, 0.784 -0.7821 0.0394, 0.7677 -0.7946 0.0394, -0.7487 0.8064 0.0394, -0.8044 -0.7468 0.0394, -0.7677 -0.7946 0.0394, -0.784 -0.7821 0.0394, -0.7965 -0.7657 0.0394, -0.7965 0.7697 0.0394, -0.784 0.786 0.0394, -0.7677 0.7985 0.0394, 0.8044 -0.7468 0.0394, 0.8044 0.7507 0.0394, 0.7677 0.7985 0.0394, 0.784 0.786 0.0394, 0.7965 0.7697 0.0394, -0.7487 -0.8024 0.0394, -0.8044 0.7507 0.0394, 0.7487 0.8064 0.0394, -0.8044 -0.7468 0.7677, -0.7965 -0.7657 0.7677, -0.784 -0.7821 0.7677, -0.7677 -0.7946 0.7677, -0.7487 -0.8024 0.7677, 0.7487 -0.8024 0.7677, 0.7677 -0.7946 0.7677, 0.784 -0.7821 0.7677, 0.7965 -0.7657 0.7677, 0.8044 -0.7468 0.7677, 0.8044 0.7507 0.7677, 0.7965 0.7697 0.7677, 0.784 0.786 0.7677, 0.7677 0.7985 0.7677, 0.7487 0.8064 0.7677, -0.7487 0.8064 0.7677, -0.7677 0.7985 0.7677, -0.784 0.786 0.7677, -0.7965 0.7697 0.7677, -0.8044 0.7507 0.7677, 0.7925 -0.7264 0.7867, 0.7903 -0.743 0.7867, 0.7972 -0.7264 0.7848, 0.7949 -0.7442 0.7848, 0.8013 -0.7264 0.7816, 0.7988 -0.7453 0.7816, 0.8044 -0.7264 0.7776, 0.8019 -0.7461 0.7776, 0.8064 -0.7264 0.7728, 0.8038 -0.7466 0.7728, 0.7839 -0.7585 0.7867, 0.788 -0.7608 0.7848, 0.7915 -0.7629 0.7816, 0.7943 -0.7644 0.7776, 0.796 -0.7654 0.7728, 0.7737 -0.7717 0.7867, 0.7771 -0.7751 0.7848, 0.7799 -0.778 0.7816, 0.7822 -0.7802 0.7776, 0.7835 -0.7816 0.7728, 0.7604 -0.7819 0.7867, 0.7628 -0.786 0.7848, 0.7648 -0.7896 0.7816, 0.7664 -0.7923 0.7776, 0.7674 -0.794 0.7728, 0.7449 -0.7883 0.7867, 0.7462 -0.7929 0.7848, 0.7472 -0.7969 0.7816, 0.748 -0.7999 0.7776, 0.7486 -0.8018 0.7728, 0.7283 -0.7905 0.7867, 0.7283 -0.7953 0.7848, 0.7283 -0.7994 0.7816, 0.7283 -0.8025 0.7776, 0.7283 -0.8044 0.7728, 0.7925 0.7303 0.7867, 0.7972 0.7303 0.7848, 0.8013 0.7303 0.7816, 0.8044 0.7303 0.7776, 0.8064 0.7303 0.7728, -0.7283 -0.7905 0.7867, -0.7283 -0.7953 0.7848, -0.7283 -0.7994 0.7816, -0.7283 -0.8025 0.7776, -0.7283 -0.8044 0.7728, 0.7283 0.7945 0.7867, 0.7449 0.7923 0.7867, 0.7283 0.7992 0.7848, 0.7462 0.7969 0.7848, 0.7283 0.8033 0.7816, 0.7472 0.8008 0.7816, 0.7283 0.8064 0.7776, 0.748 0.8038 0.7776, 0.7283 0.8084 0.7728, 0.7486 0.8057 0.7728, 0.7604 0.7859 0.7867, 0.7628 0.79 0.7848, 0.7648 0.7935 0.7816, 0.7664 0.7962 0.7776, 0.7674 0.7979 0.7728, 0.7737 0.7757 0.7867, 0.7771 0.779 0.7848, 0.7799 0.7819 0.7816, 0.7822 0.7841 0.7776, 0.7835 0.7855 0.7728, 0.7839 0.7624 0.7867, 0.788 0.7648 0.7848, 0.7915 0.7668 0.7816, 0.7943 0.7684 0.7776, 0.796 0.7693 0.7728, 0.7903 0.7469 0.7867, 0.7949 0.7481 0.7848, 0.7988 0.7492 0.7816, 0.8019 0.75 0.7776, 0.8038 0.7505 0.7728, -0.7449 -0.7883 0.7867, -0.7462 -0.7929 0.7848, -0.7472 -0.7969 0.7816, -0.748 -0.7999 0.7776, -0.7486 -0.8018 0.7728, -0.7604 -0.7819 0.7867, -0.7628 -0.786 0.7848, -0.7648 -0.7896 0.7816, -0.7664 -0.7923 0.7776, -0.7674 -0.794 0.7728, -0.7737 -0.7717 0.7867, -0.7771 -0.7751 0.7848, -0.7799 -0.778 0.7816, -0.7822 -0.7802 0.7776, -0.7835 -0.7816 0.7728, -0.7839 -0.7585 0.7867, -0.788 -0.7608 0.7848, -0.7915 -0.7629 0.7816, -0.7943 -0.7644 0.7776, -0.796 -0.7654 0.7728, -0.7903 -0.743 0.7867, -0.7949 -0.7442 0.7848, -0.7988 -0.7453 0.7816, -0.8019 -0.7461 0.7776, -0.8038 -0.7466 0.7728, -0.7925 -0.7264 0.7867, -0.7972 -0.7264 0.7848, -0.8013 -0.7264 0.7816, -0.8044 -0.7264 0.7776, -0.8064 -0.7264 0.7728, -0.7283 0.7945 0.7867, -0.7283 0.7992 0.7848, -0.7283 0.8033 0.7816, -0.7283 0.8064 0.7776, -0.7283 0.8084 0.7728, -0.7925 0.7303 0.7867, -0.7972 0.7303 0.7848, -0.8013 0.7303 0.7816, -0.8044 0.7303 0.7776, -0.8064 0.7303 0.7728, -0.7903 0.7469 0.7867, -0.7949 0.7481 0.7848, -0.7988 0.7492 0.7816, -0.8019 0.75 0.7776, -0.8038 0.7505 0.7728, -0.7839 0.7624 0.7867, -0.788 0.7648 0.7848, -0.7915 0.7668 0.7816, -0.7943 0.7684 0.7776, -0.796 0.7693 0.7728, -0.7737 0.7757 0.7867, -0.7771 0.779 0.7848, -0.7799 0.7819 0.7816, -0.7822 0.7841 0.7776, -0.7835 0.7855 0.7728, -0.7604 0.7859 0.7867, -0.7628 0.79 0.7848, -0.7648 0.7935 0.7816, -0.7664 0.7962 0.7776, -0.7674 0.7979 0.7728, -0.7449 0.7923 0.7867, -0.7462 0.7969 0.7848, -0.7472 0.8008 0.7816, -0.748 0.8038 0.7776, -0.7486 0.8057 0.7728
            ]
        }
        coordIndex [
            0,1,2,-1,3,4,5,-1,6,7,8,-1,9,10,11,-1,12,13,14,-1,15,16,17,-1,18,19,20,-1,21,22,23,-1,24,25,26,-1,27,28,29,-1,29,28,3,-1,30,31,29,-1,29,31,32,-1,32,33,29,-1,29,33,34,-1,29,34,27,-1,35,36,37,-1,38,39,40,-1,40,39,37,-1,37,39,41,-1,37,41,35,-1,42,43,44,-1,38,40,45,-1,45,40,44,-1,45,44,46,-1,43,47,44,-1,44,47,48,-1,44,48,46,-1,46,48,49,-1,46,49,50,-1,50,49,51,-1,50,51,52,-1,26,25,53,-1,25,54,53,-1,53,54,55,-1,53,55,44,-1,44,55,56,-1,44,56,42,-1,57,58,59,-1,58,60,59,-1,59,60,61,-1,59,61,62,-1,62,63,59,-1,59,63,64,-1,59,64,26,-1,26,64,65,-1,26,65,24,-1,66,67,59,-1,59,67,68,-1,59,68,57,-1,69,70,71,-1,71,70,72,-1,71,72,73,-1,72,74,73,-1,73,74,75,-1,73,75,76,-1,76,75,77,-1,76,77,59,-1,59,77,78,-1,59,78,66,-1,0,79,1,-1,1,79,80,-1,1,80,81,-1,81,82,1,-1,1,82,83,-1,1,83,69,-1,84,85,0,-1,84,0,86,-1,87,88,89,-1,89,88,90,-1,91,92,88,-1,88,92,93,-1,88,93,94,-1,95,96,97,-1,97,96,98,-1,99,100,79,-1,79,100,101,-1,79,101,102,-1,103,104,105,-1,105,104,106,-1,105,106,107,-1,108,94,109,-1,109,94,110,-1,109,110,105,-1,105,110,111,-1,105,111,103,-1,112,113,4,-1,4,113,114,-1,4,114,0,-1,0,114,115,-1,0,115,86,-1,85,116,0,-1,0,116,117,-1,0,117,79,-1,79,117,118,-1,79,118,99,-1,108,119,94,-1,94,119,120,-1,94,120,88,-1,88,120,121,-1,88,121,90,-1,95,122,96,-1,96,122,123,-1,96,123,124,-1,125,126,127,-1,127,126,128,-1,127,128,96,-1,96,128,129,-1,96,129,98,-1,102,130,79,-1,79,130,131,-1,79,131,132,-1,132,131,125,-1,132,125,133,-1,133,125,127,-1,134,135,96,-1,96,135,136,-1,96,136,88,-1,88,136,137,-1,88,137,91,-1,124,138,96,-1,96,138,139,-1,96,139,140,-1,140,141,96,-1,96,141,142,-1,96,142,134,-1,143,144,145,-1,145,94,143,-1,143,94,93,-1,143,93,146,-1,146,93,147,-1,147,148,146,-1,146,148,149,-1,146,149,150,-1,151,152,153,-1,154,155,152,-1,155,156,152,-1,152,156,157,-1,152,157,158,-1,153,159,151,-1,151,159,160,-1,151,160,161,-1,144,143,151,-1,151,143,162,-1,151,162,152,-1,152,162,163,-1,152,163,154,-1,158,164,152,-1,152,164,165,-1,152,165,166,-1,166,165,167,-1,166,167,168,-1,168,167,169,-1,170,171,161,-1,161,171,172,-1,161,172,151,-1,28,173,3,-1,3,173,174,-1,3,174,4,-1,4,174,175,-1,4,175,112,-1,176,177,178,-1,178,177,179,-1,180,181,182,-1,183,184,176,-1,176,184,23,-1,23,184,185,-1,23,185,21,-1,182,186,187,-1,187,186,188,-1,187,188,189,-1,177,190,179,-1,179,190,191,-1,179,191,192,-1,192,191,193,-1,194,195,196,-1,196,195,197,-1,198,199,200,-1,200,199,201,-1,200,201,202,-1,203,204,205,-1,206,207,208,-1,209,210,203,-1,203,210,211,-1,203,211,212,-1,194,213,195,-1,195,213,214,-1,195,214,215,-1,215,214,208,-1,215,208,216,-1,216,208,207,-1,212,217,203,-1,203,217,218,-1,203,218,204,-1,219,220,221,-1,221,220,222,-1,221,222,223,-1,224,225,226,-1,226,225,227,-1,228,229,200,-1,200,229,230,-1,200,230,198,-1,219,231,220,-1,220,231,232,-1,220,232,233,-1,233,232,202,-1,233,202,19,-1,205,234,203,-1,203,234,235,-1,203,235,225,-1,225,235,197,-1,225,197,227,-1,227,197,195,-1,236,237,208,-1,208,237,238,-1,208,238,239,-1,240,241,242,-1,242,241,243,-1,242,243,244,-1,224,245,225,-1,225,245,246,-1,225,246,247,-1,239,248,208,-1,208,248,249,-1,208,249,206,-1,231,250,232,-1,232,250,251,-1,232,251,243,-1,243,251,252,-1,243,252,244,-1,18,20,253,-1,253,20,254,-1,253,254,255,-1,256,257,17,-1,258,259,17,-1,258,17,260,-1,261,262,263,-1,263,262,264,-1,263,264,265,-1,259,266,17,-1,17,266,267,-1,17,267,15,-1,265,268,263,-1,263,268,269,-1,263,269,270,-1,270,269,271,-1,270,271,256,-1,272,273,257,-1,257,273,274,-1,257,274,17,-1,17,274,275,-1,17,275,260,-1,276,277,278,-1,278,277,279,-1,278,279,280,-1,278,281,276,-1,276,281,282,-1,276,282,283,-1,283,284,276,-1,276,284,285,-1,276,285,286,-1,286,285,287,-1,286,287,288,-1,288,287,289,-1,288,289,257,-1,257,289,290,-1,257,290,272,-1,291,292,280,-1,280,292,293,-1,280,293,278,-1,294,295,223,-1,223,295,296,-1,223,296,221,-1,294,297,295,-1,295,297,298,-1,295,298,299,-1,299,298,300,-1,299,301,302,-1,300,303,299,-1,299,303,304,-1,299,304,305,-1,305,306,299,-1,299,306,307,-1,299,307,301,-1,302,308,299,-1,299,308,309,-1,299,309,310,-1,311,312,313,-1,313,312,314,-1,313,314,315,-1,316,317,318,-1,318,317,319,-1,312,320,314,-1,314,320,321,-1,314,321,322,-1,322,321,323,-1,322,323,324,-1,324,323,325,-1,324,325,319,-1,319,325,326,-1,319,326,318,-1,327,328,329,-1,330,331,332,-1,332,331,333,-1,332,333,334,-1,327,329,335,-1,336,337,322,-1,338,339,324,-1,337,340,322,-1,322,340,341,-1,322,341,327,-1,327,341,342,-1,327,342,328,-1,338,324,343,-1,333,344,334,-1,334,344,345,-1,334,345,324,-1,324,345,346,-1,324,346,343,-1,339,347,324,-1,324,347,348,-1,324,348,322,-1,322,348,349,-1,322,349,336,-1,350,351,335,-1,335,351,352,-1,332,353,354,-1,354,353,355,-1,329,330,335,-1,335,330,332,-1,335,332,356,-1,356,332,354,-1,357,358,359,-1,359,358,360,-1,359,360,361,-1,359,350,357,-1,357,350,335,-1,357,335,362,-1,362,335,356,-1,362,356,14,-1,14,356,363,-1,14,363,12,-1,355,353,364,-1,364,353,365,-1,364,365,366,-1,367,365,368,-1,368,365,369,-1,351,370,352,-1,352,370,366,-1,352,366,11,-1,11,366,365,-1,11,365,371,-1,371,365,367,-1,9,11,372,-1,373,374,371,-1,371,374,375,-1,371,375,11,-1,11,375,376,-1,11,376,372,-1,377,378,379,-1,380,381,371,-1,371,381,382,-1,371,382,383,-1,383,384,371,-1,371,384,385,-1,371,385,373,-1,386,387,388,-1,388,387,389,-1,378,390,379,-1,379,390,389,-1,379,389,391,-1,391,389,387,-1,377,379,392,-1,392,379,393,-1,392,393,371,-1,371,393,394,-1,371,394,380,-1,7,395,396,-1,396,395,397,-1,397,395,398,-1,397,398,369,-1,8,399,400,-1,400,401,8,-1,8,401,402,-1,8,402,6,-1,403,404,405,-1,406,407,408,-1,408,407,409,-1,408,409,8,-1,8,409,410,-1,8,410,399,-1,411,412,413,-1,413,412,414,-1,415,416,225,-1,225,416,417,-1,225,417,413,-1,413,417,418,-1,413,418,411,-1,10,415,263,-1,263,415,225,-1,263,225,261,-1,261,225,247,-1,261,247,242,-1,242,247,419,-1,242,419,240,-1,19,202,20,-1,20,202,201,-1,20,201,254,-1,254,201,420,-1,254,420,209,-1,209,420,421,-1,209,421,210,-1,422,423,424,-1,181,180,425,-1,425,180,426,-1,425,426,193,-1,193,426,424,-1,193,424,192,-1,192,424,423,-1,192,423,427,-1,428,429,430,-1,424,431,422,-1,422,431,432,-1,422,432,433,-1,433,432,428,-1,433,428,434,-1,434,428,430,-1,435,436,17,-1,17,436,437,-1,256,17,270,-1,270,17,437,-1,270,437,431,-1,431,437,438,-1,431,438,432,-1,439,436,440,-1,440,436,435,-1,440,435,441,-1,442,443,444,-1,255,254,16,-1,16,254,442,-1,16,442,17,-1,17,442,444,-1,17,444,435,-1,435,444,445,-1,435,445,446,-1,446,447,435,-1,435,447,448,-1,435,448,449,-1,450,451,452,-1,452,451,453,-1,452,453,442,-1,442,453,454,-1,442,454,443,-1,449,455,435,-1,435,455,456,-1,435,456,441,-1,457,458,452,-1,452,458,459,-1,452,459,450,-1,427,460,457,-1,457,460,461,-1,457,461,458,-1,462,73,463,-1,463,73,76,-1,463,76,464,-1,464,76,59,-1,464,59,465,-1,465,59,26,-1,465,26,466,-1,466,26,53,-1,466,53,467,-1,467,53,44,-1,467,44,468,-1,468,44,40,-1,469,470,405,-1,405,470,471,-1,472,408,29,-1,404,406,405,-1,405,406,408,-1,405,408,469,-1,469,408,472,-1,469,472,473,-1,5,405,3,-1,3,405,471,-1,3,471,29,-1,29,471,474,-1,29,474,472,-1,475,476,477,-1,476,475,478,-1,478,475,5,-1,478,5,479,-1,480,481,482,-1,482,481,478,-1,482,478,483,-1,483,478,479,-1,483,479,484,-1,484,479,485,-1,2,475,0,-1,0,475,477,-1,0,477,4,-1,4,477,486,-1,4,486,5,-1,5,486,487,-1,5,487,479,-1,7,396,8,-1,8,396,488,-1,8,488,408,-1,408,488,37,-1,408,37,29,-1,29,37,36,-1,29,36,30,-1,2,209,475,-1,475,209,203,-1,475,203,5,-1,5,203,225,-1,5,225,405,-1,405,225,413,-1,405,413,403,-1,403,413,414,-1,10,263,11,-1,11,263,270,-1,11,270,352,-1,352,270,431,-1,352,431,335,-1,335,431,424,-1,335,424,327,-1,327,424,426,-1,327,426,322,-1,322,426,180,-1,322,180,314,-1,369,365,397,-1,397,365,353,-1,397,353,489,-1,489,353,332,-1,489,332,490,-1,490,332,334,-1,490,334,491,-1,491,334,324,-1,491,324,492,-1,492,324,319,-1,492,319,493,-1,493,319,317,-1,493,317,494,-1,495,496,180,-1,187,183,182,-1,182,183,176,-1,182,176,180,-1,180,176,178,-1,180,178,495,-1,495,178,497,-1,498,178,499,-1,499,178,500,-1,499,500,501,-1,501,500,502,-1,503,504,498,-1,498,504,505,-1,498,505,178,-1,178,505,506,-1,178,506,497,-1,318,315,316,-1,316,315,314,-1,316,314,502,-1,502,314,180,-1,502,180,501,-1,501,180,507,-1,506,508,509,-1,509,510,506,-1,506,510,511,-1,506,511,497,-1,512,513,507,-1,507,513,514,-1,507,514,515,-1,496,516,180,-1,180,516,517,-1,180,517,507,-1,507,517,518,-1,507,518,512,-1,515,519,507,-1,507,519,520,-1,507,520,506,-1,506,520,521,-1,506,521,508,-1,427,457,192,-1,192,457,522,-1,192,522,179,-1,179,522,523,-1,179,523,178,-1,178,523,524,-1,178,524,500,-1,69,71,1,-1,1,71,525,-1,1,525,2,-1,2,525,526,-1,2,526,209,-1,209,526,527,-1,209,527,254,-1,254,527,528,-1,254,528,442,-1,442,528,529,-1,442,529,452,-1,452,529,530,-1,452,530,457,-1,457,530,531,-1,457,531,522,-1,522,531,532,-1,522,532,523,-1,523,532,533,-1,523,533,524,-1,534,535,536,-1,536,535,537,-1,538,539,540,-1,540,539,541,-1,542,543,544,-1,544,543,545,-1,546,547,548,-1,549,550,551,-1,551,550,552,-1,551,552,553,-1,551,554,555,-1,556,548,555,-1,555,548,557,-1,555,557,551,-1,551,557,558,-1,551,558,549,-1,559,556,560,-1,561,562,563,-1,563,562,564,-1,563,564,554,-1,554,564,565,-1,554,565,555,-1,566,567,568,-1,568,567,559,-1,568,559,569,-1,569,559,560,-1,556,559,548,-1,548,559,570,-1,548,570,571,-1,571,572,548,-1,548,572,573,-1,548,573,546,-1,574,533,535,-1,575,576,577,-1,578,541,543,-1,535,545,537,-1,537,545,543,-1,535,533,545,-1,545,533,462,-1,545,462,579,-1,580,581,582,-1,583,584,585,-1,574,535,577,-1,577,535,586,-1,577,586,575,-1,543,541,537,-1,537,541,539,-1,537,539,587,-1,588,589,590,-1,579,462,582,-1,582,462,591,-1,582,591,580,-1,578,543,585,-1,585,543,592,-1,585,592,583,-1,587,539,590,-1,590,539,593,-1,590,593,588,-1,544,545,579,-1,544,579,594,-1,594,579,582,-1,594,582,595,-1,595,582,581,-1,595,581,596,-1,596,581,580,-1,596,580,597,-1,597,580,591,-1,597,591,598,-1,598,591,462,-1,598,462,468,-1,494,533,574,-1,494,574,599,-1,599,574,577,-1,599,577,600,-1,600,577,576,-1,600,576,601,-1,601,576,575,-1,601,575,602,-1,602,575,586,-1,602,586,603,-1,603,586,535,-1,603,535,534,-1,536,537,587,-1,536,587,604,-1,604,587,590,-1,604,590,605,-1,605,590,589,-1,605,589,606,-1,606,589,588,-1,606,588,607,-1,607,588,593,-1,607,593,608,-1,608,593,539,-1,608,539,538,-1,540,541,578,-1,540,578,609,-1,609,578,585,-1,609,585,610,-1,610,585,584,-1,610,584,611,-1,611,584,583,-1,611,583,612,-1,612,583,592,-1,612,592,613,-1,613,592,543,-1,613,543,542,-1,555,565,614,-1,614,565,615,-1,614,615,616,-1,616,615,617,-1,616,617,618,-1,618,617,619,-1,618,619,620,-1,620,619,621,-1,620,621,622,-1,622,621,623,-1,622,623,534,-1,534,623,603,-1,565,564,615,-1,615,564,624,-1,615,624,617,-1,617,624,625,-1,617,625,619,-1,619,625,626,-1,619,626,621,-1,621,626,627,-1,621,627,623,-1,623,627,628,-1,623,628,603,-1,603,628,602,-1,564,562,624,-1,624,562,629,-1,624,629,625,-1,625,629,630,-1,625,630,626,-1,626,630,631,-1,626,631,627,-1,627,631,632,-1,627,632,628,-1,628,632,633,-1,628,633,602,-1,602,633,601,-1,562,561,629,-1,629,561,634,-1,629,634,630,-1,630,634,635,-1,630,635,631,-1,631,635,636,-1,631,636,632,-1,632,636,637,-1,632,637,633,-1,633,637,638,-1,633,638,601,-1,601,638,600,-1,561,563,634,-1,634,563,639,-1,634,639,635,-1,635,639,640,-1,635,640,636,-1,636,640,641,-1,636,641,637,-1,637,641,642,-1,637,642,638,-1,638,642,643,-1,638,643,600,-1,600,643,599,-1,563,554,639,-1,639,554,644,-1,639,644,640,-1,640,644,645,-1,640,645,641,-1,641,645,646,-1,641,646,642,-1,642,646,647,-1,642,647,643,-1,643,647,648,-1,643,648,599,-1,599,648,494,-1,556,555,614,-1,556,614,649,-1,649,614,616,-1,649,616,650,-1,650,616,618,-1,650,618,651,-1,651,618,620,-1,651,620,652,-1,652,620,622,-1,652,622,653,-1,653,622,534,-1,653,534,536,-1,554,551,654,-1,554,654,644,-1,644,654,655,-1,644,655,645,-1,645,655,656,-1,645,656,646,-1,646,656,657,-1,646,657,647,-1,647,657,658,-1,647,658,648,-1,648,658,468,-1,648,468,494,-1,559,567,659,-1,659,567,660,-1,659,660,661,-1,661,660,662,-1,661,662,663,-1,663,662,664,-1,663,664,665,-1,665,664,666,-1,665,666,667,-1,667,666,668,-1,667,668,538,-1,538,668,608,-1,567,566,660,-1,660,566,669,-1,660,669,662,-1,662,669,670,-1,662,670,664,-1,664,670,671,-1,664,671,666,-1,666,671,672,-1,666,672,668,-1,668,672,673,-1,668,673,608,-1,608,673,607,-1,566,568,669,-1,669,568,674,-1,669,674,670,-1,670,674,675,-1,670,675,671,-1,671,675,676,-1,671,676,672,-1,672,676,677,-1,672,677,673,-1,673,677,678,-1,673,678,607,-1,607,678,606,-1,568,569,674,-1,674,569,679,-1,674,679,675,-1,675,679,680,-1,675,680,676,-1,676,680,681,-1,676,681,677,-1,677,681,682,-1,677,682,678,-1,678,682,683,-1,678,683,606,-1,606,683,605,-1,569,560,679,-1,679,560,684,-1,679,684,680,-1,680,684,685,-1,680,685,681,-1,681,685,686,-1,681,686,682,-1,682,686,687,-1,682,687,683,-1,683,687,688,-1,683,688,605,-1,605,688,604,-1,560,556,684,-1,684,556,649,-1,684,649,685,-1,685,649,650,-1,685,650,686,-1,686,650,651,-1,686,651,687,-1,687,651,652,-1,687,652,688,-1,688,652,653,-1,688,653,604,-1,604,653,536,-1,551,553,654,-1,654,553,689,-1,654,689,655,-1,655,689,690,-1,655,690,656,-1,656,690,691,-1,656,691,657,-1,657,691,692,-1,657,692,658,-1,658,692,693,-1,658,693,468,-1,468,693,598,-1,553,552,689,-1,689,552,694,-1,689,694,690,-1,690,694,695,-1,690,695,691,-1,691,695,696,-1,691,696,692,-1,692,696,697,-1,692,697,693,-1,693,697,698,-1,693,698,598,-1,598,698,597,-1,552,550,694,-1,694,550,699,-1,694,699,695,-1,695,699,700,-1,695,700,696,-1,696,700,701,-1,696,701,697,-1,697,701,702,-1,697,702,698,-1,698,702,703,-1,698,703,597,-1,597,703,596,-1,550,549,699,-1,699,549,704,-1,699,704,700,-1,700,704,705,-1,700,705,701,-1,701,705,706,-1,701,706,702,-1,702,706,707,-1,702,707,703,-1,703,707,708,-1,703,708,596,-1,596,708,595,-1,549,558,704,-1,704,558,709,-1,704,709,705,-1,705,709,710,-1,705,710,706,-1,706,710,711,-1,706,711,707,-1,707,711,712,-1,707,712,708,-1,708,712,713,-1,708,713,595,-1,595,713,594,-1,558,557,709,-1,709,557,714,-1,709,714,710,-1,710,714,715,-1,710,715,711,-1,711,715,716,-1,711,716,712,-1,712,716,717,-1,712,717,713,-1,713,717,718,-1,713,718,594,-1,594,718,544,-1,570,559,659,-1,570,659,719,-1,719,659,661,-1,719,661,720,-1,720,661,663,-1,720,663,721,-1,721,663,665,-1,721,665,722,-1,722,665,667,-1,722,667,723,-1,723,667,538,-1,723,538,540,-1,557,548,724,-1,557,724,714,-1,714,724,725,-1,714,725,715,-1,715,725,726,-1,715,726,716,-1,716,726,727,-1,716,727,717,-1,717,727,728,-1,717,728,718,-1,718,728,542,-1,718,542,544,-1,548,547,724,-1,724,547,729,-1,724,729,725,-1,725,729,730,-1,725,730,726,-1,726,730,731,-1,726,731,727,-1,727,731,732,-1,727,732,728,-1,728,732,733,-1,728,733,542,-1,542,733,613,-1,547,546,729,-1,729,546,734,-1,729,734,730,-1,730,734,735,-1,730,735,731,-1,731,735,736,-1,731,736,732,-1,732,736,737,-1,732,737,733,-1,733,737,738,-1,733,738,613,-1,613,738,612,-1,546,573,734,-1,734,573,739,-1,734,739,735,-1,735,739,740,-1,735,740,736,-1,736,740,741,-1,736,741,737,-1,737,741,742,-1,737,742,738,-1,738,742,743,-1,738,743,612,-1,612,743,611,-1,573,572,739,-1,739,572,744,-1,739,744,740,-1,740,744,745,-1,740,745,741,-1,741,745,746,-1,741,746,742,-1,742,746,747,-1,742,747,743,-1,743,747,748,-1,743,748,611,-1,611,748,610,-1,572,571,744,-1,744,571,749,-1,744,749,745,-1,745,749,750,-1,745,750,746,-1,746,750,751,-1,746,751,747,-1,747,751,752,-1,747,752,748,-1,748,752,753,-1,748,753,610,-1,610,753,609,-1,571,570,749,-1,749,570,719,-1,749,719,750,-1,750,719,720,-1,750,720,751,-1,751,720,721,-1,751,721,752,-1,752,721,722,-1,752,722,753,-1,753,722,723,-1,753,723,609,-1,609,723,540,-1,
        ]
    }
}
Shape{
    appearance Appearance {
        material  Material 	{
            diffuseColor 1.0 1.0 1.0
            specularColor 0.5019607843137255 0.5019607843137255 0.5019607843137255
            ambientIntensity 1.0
            transparency 0.0
            shininess 0.5
        }
    }
    geometry IndexedFaceSet {
        ccw TRUE
        solid FALSE
        coord DEF co Coordinate {
            point [
                0.0622 -0.8091 0.2798, 0.0622 -0.8091 0.2737, 0.0622 -0.8051 0.2798, 0.0622 -0.8051 0.2737, 0.041 -0.8091 0.2798, 0.041 -0.8051 0.2798, 0.041 -0.8091 0.3271, 0.041 -0.8051 0.3271, 0.0341 -0.8091 0.3271, 0.0341 -0.8051 0.3271, 0.0341 -0.8091 0.2737, 0.0341 -0.8051 0.2737, 0.0896 -0.8091 0.2728, 0.0896 -0.8051 0.2728, 0.0977 -0.8091 0.2736, 0.0943 -0.8051 0.2733, 0.0977 -0.8051 0.2736, 0.1035 -0.8051 0.2755, 0.1035 -0.8091 0.2755, 0.1044 -0.8051 0.2759, 0.1044 -0.8091 0.2759, 0.1044 -0.8091 0.2825, 0.1044 -0.8051 0.2825, 0.0991 -0.8051 0.2802, 0.0991 -0.8091 0.2802, 0.0931 -0.8051 0.279, 0.0931 -0.8091 0.279, 0.0906 -0.8051 0.2789, 0.0906 -0.8091 0.2789, 0.0852 -0.8051 0.2796, 0.0852 -0.8091 0.2796, 0.0814 -0.8051 0.2811, 0.0814 -0.8091 0.2811, 0.0779 -0.8051 0.2835, 0.0779 -0.8091 0.2835, 0.0769 -0.8051 0.2846, 0.0769 -0.8091 0.2846, 0.0743 -0.8051 0.2882, 0.0743 -0.8091 0.2882, 0.0725 -0.8051 0.2925, 0.0725 -0.8091 0.2925, 0.0717 -0.8051 0.2978, 0.0717 -0.8091 0.2978, 0.0716 -0.8051 0.2998, 0.0716 -0.8091 0.2998, 0.0725 -0.8051 0.3072, 0.0725 -0.8091 0.3072, 0.0743 -0.8051 0.3118, 0.0743 -0.8091 0.3118, 0.0772 -0.8051 0.3158, 0.0772 -0.8091 0.3158, 0.0809 -0.8051 0.3188, 0.0809 -0.8091 0.3188, 0.0851 -0.8051 0.3208, 0.0851 -0.8091 0.3208, 0.0897 -0.8051 0.3217, 0.0897 -0.8091 0.3217, 0.0918 -0.8051 0.3218, 0.0918 -0.8091 0.3218, 0.0984 -0.8051 0.321, 0.0984 -0.8091 0.321, 0.1038 -0.8051 0.3189, 0.1038 -0.8091 0.3189, 0.1044 -0.8051 0.3186, 0.1044 -0.8091 0.3186, 0.1044 -0.8091 0.3258, 0.1044 -0.8051 0.3258, 0.0917 -0.8051 0.328, 0.0917 -0.8091 0.328, 0.0918 -0.8091 0.328, 0.0988 -0.8051 0.3274, 0.0988 -0.8091 0.3274, 0.0974 -0.8051 0.3275, 0.0918 -0.8051 0.328, 0.088 -0.8051 0.3275, 0.084 -0.8091 0.327, 0.084 -0.8051 0.327, 0.0784 -0.8051 0.3249, 0.0784 -0.8091 0.3249, 0.0734 -0.8051 0.3214, 0.0734 -0.8091 0.3214, 0.0721 -0.8051 0.3201, 0.0721 -0.8091 0.3201, 0.0682 -0.8051 0.3151, 0.0668 -0.8051 0.3117, 0.0657 -0.8091 0.3091, 0.0682 -0.8091 0.3151, 0.0657 -0.8051 0.3091, 0.0645 -0.8051 0.3022, 0.0645 -0.8091 0.3022, 0.0644 -0.8051 0.2994, 0.0644 -0.8091 0.2994, 0.0655 -0.8051 0.2906, 0.0668 -0.8051 0.2873, 0.0677 -0.8091 0.2851, 0.0655 -0.8091 0.2906, 0.0677 -0.8051 0.2851, 0.0713 -0.8051 0.2801, 0.0713 -0.8091 0.2801, 0.0864 -0.8091 0.273, 0.0756 -0.8051 0.2765, 0.0756 -0.8091 0.2765, 0.0806 -0.8051 0.2742, 0.0806 -0.8091 0.2742, 0.0849 -0.8051 0.2733, 0.0864 -0.8051 0.273, 0.1438 -0.8091 0.2798, 0.1438 -0.8091 0.2737, 0.1438 -0.8051 0.2798, 0.1438 -0.8051 0.2737, 0.1219 -0.8051 0.2798, 0.1219 -0.8091 0.2798, 0.1364 -0.8051 0.2798, 0.1219 -0.8091 0.2978, 0.1219 -0.8051 0.2978, 0.141 -0.8091 0.2978, 0.1364 -0.8051 0.2978, 0.141 -0.8051 0.2978, 0.141 -0.8091 0.3039, 0.141 -0.8051 0.3039, 0.1219 -0.8051 0.3039, 0.1219 -0.8091 0.3039, 0.1364 -0.8051 0.3039, 0.1219 -0.8091 0.3209, 0.1219 -0.8051 0.3209, 0.1425 -0.8091 0.3209, 0.1364 -0.8051 0.3209, 0.1425 -0.8051 0.3209, 0.1425 -0.8091 0.3271, 0.1425 -0.8051 0.3271, 0.1151 -0.8051 0.3271, 0.1151 -0.8091 0.3271, 0.1364 -0.8051 0.3271, 0.1151 -0.8091 0.2737, 0.1151 -0.8051 0.2737, 0.1364 -0.8051 0.2737, 0.187 -0.8091 0.2887, 0.1844 -0.8091 0.2854, 0.1893 -0.8091 0.2812, 0.1834 -0.8091 0.2845, 0.1837 -0.8091 0.2772, 0.1798 -0.8091 0.2822, 0.1777 -0.8091 0.2748, 0.1753 -0.8091 0.2805, 0.1685 -0.8091 0.2737, 0.1685 -0.8091 0.2798, 0.1538 -0.8091 0.2737, 0.1607 -0.8091 0.2798, 0.1538 -0.8091 0.3271, 0.1607 -0.8091 0.3209, 0.1691 -0.8091 0.3271, 0.1688 -0.8091 0.3209, 0.1772 -0.8091 0.3262, 0.1757 -0.8091 0.3202, 0.1837 -0.8091 0.3238, 0.1803 -0.8091 0.3185, 0.1893 -0.8091 0.32, 0.1842 -0.8091 0.3159, 0.1911 -0.8091 0.3182, 0.186 -0.8091 0.3142, 0.1944 -0.8091 0.3136, 0.188 -0.8091 0.3111, 0.1964 -0.8091 0.3085, 0.1894 -0.8091 0.307, 0.1973 -0.8091 0.3011, 0.1901 -0.8091 0.3009, 0.1971 -0.8091 0.2977, 0.1899 -0.8091 0.2975, 0.1959 -0.8091 0.2914, 0.1889 -0.8091 0.2926, 0.1932 -0.8091 0.2859, 0.1685 -0.8051 0.2737, 0.1538 -0.8051 0.2737, 0.1893 -0.8051 0.2812, 0.1777 -0.8051 0.2748, 0.1783 -0.8051 0.2751, 0.1837 -0.8051 0.2772, 0.1932 -0.8051 0.2859, 0.1959 -0.8051 0.2914, 0.1971 -0.8051 0.2977, 0.1973 -0.8051 0.3011, 0.1964 -0.8051 0.3085, 0.1944 -0.8051 0.3136, 0.1911 -0.8051 0.3182, 0.1893 -0.8051 0.32, 0.1691 -0.8051 0.3271, 0.1837 -0.8051 0.3238, 0.1783 -0.8051 0.3258, 0.1772 -0.8051 0.3262, 0.1538 -0.8051 0.3271, 0.1688 -0.8051 0.3209, 0.1607 -0.8051 0.3209, 0.1607 -0.8051 0.2798, 0.1685 -0.8051 0.2798, 0.1844 -0.8051 0.2854, 0.1834 -0.8051 0.2845, 0.1798 -0.8051 0.2822, 0.1753 -0.8051 0.2805, 0.1901 -0.8051 0.3009, 0.1899 -0.8051 0.2975, 0.1889 -0.8051 0.2926, 0.187 -0.8051 0.2887, 0.1842 -0.8051 0.3159, 0.186 -0.8051 0.3142, 0.188 -0.8051 0.3111, 0.1894 -0.8051 0.307, 0.1757 -0.8051 0.3202, 0.1803 -0.8051 0.3185
            ]
        }
        coordIndex [
            0,1,2,-1,2,1,3,-1,4,0,5,-1,5,0,2,-1,6,4,7,-1,7,4,5,-1,8,6,9,-1,9,6,7,-1,10,8,11,-1,11,8,9,-1,1,10,3,-1,3,10,11,-1,6,8,4,-1,4,8,10,-1,4,10,0,-1,0,10,1,-1,12,13,14,-1,14,13,15,-1,15,16,14,-1,14,16,17,-1,14,17,18,-1,18,17,19,-1,18,19,20,-1,21,20,22,-1,22,20,19,-1,21,22,23,-1,21,23,24,-1,24,23,25,-1,24,25,26,-1,26,25,27,-1,26,27,28,-1,28,27,29,-1,28,29,30,-1,30,29,31,-1,30,31,32,-1,32,31,33,-1,32,33,34,-1,34,33,35,-1,34,35,36,-1,36,35,37,-1,36,37,38,-1,38,37,39,-1,38,39,40,-1,40,39,41,-1,40,41,42,-1,42,41,43,-1,42,43,44,-1,44,43,45,-1,44,45,46,-1,46,45,47,-1,46,47,48,-1,48,47,49,-1,48,49,50,-1,50,49,51,-1,50,51,52,-1,52,51,53,-1,52,53,54,-1,54,53,55,-1,54,55,56,-1,56,55,57,-1,56,57,58,-1,58,57,59,-1,58,59,60,-1,60,59,61,-1,60,61,62,-1,62,61,63,-1,62,63,64,-1,65,64,66,-1,66,64,63,-1,67,68,69,-1,65,66,70,-1,65,70,71,-1,71,70,72,-1,71,72,69,-1,69,72,73,-1,69,73,67,-1,68,67,74,-1,68,74,75,-1,74,76,75,-1,75,76,77,-1,75,77,78,-1,78,77,79,-1,78,79,80,-1,80,79,81,-1,80,81,82,-1,82,81,83,-1,84,85,83,-1,83,85,86,-1,83,86,82,-1,84,87,85,-1,85,87,88,-1,85,88,89,-1,89,88,90,-1,89,90,91,-1,91,90,92,-1,93,94,92,-1,92,94,95,-1,92,95,91,-1,93,96,94,-1,94,96,97,-1,94,97,98,-1,13,12,99,-1,98,97,100,-1,98,100,101,-1,101,100,102,-1,101,102,103,-1,103,102,104,-1,103,104,99,-1,99,104,105,-1,99,105,13,-1,62,64,65,-1,52,80,50,-1,50,80,82,-1,50,82,48,-1,48,82,86,-1,48,86,46,-1,62,65,60,-1,60,65,71,-1,60,71,58,-1,58,71,69,-1,58,69,56,-1,56,69,68,-1,56,68,54,-1,54,68,75,-1,54,75,52,-1,52,75,78,-1,52,78,80,-1,91,44,89,-1,89,44,46,-1,89,46,85,-1,85,46,86,-1,20,21,18,-1,18,21,24,-1,18,24,14,-1,14,24,26,-1,14,26,12,-1,12,26,28,-1,12,28,99,-1,99,28,30,-1,99,30,103,-1,103,30,32,-1,103,32,101,-1,101,32,34,-1,101,34,98,-1,98,34,36,-1,98,36,94,-1,94,36,38,-1,94,38,95,-1,95,38,40,-1,95,40,91,-1,91,40,42,-1,91,42,44,-1,106,107,108,-1,108,107,109,-1,110,111,112,-1,112,111,106,-1,112,106,108,-1,113,111,114,-1,114,111,110,-1,113,114,115,-1,115,114,116,-1,115,116,117,-1,118,115,119,-1,119,115,117,-1,120,121,122,-1,122,121,118,-1,122,118,119,-1,123,121,124,-1,124,121,120,-1,123,124,125,-1,125,124,126,-1,125,126,127,-1,128,125,129,-1,129,125,127,-1,130,131,132,-1,132,131,128,-1,132,128,129,-1,133,131,134,-1,134,131,130,-1,133,134,107,-1,107,134,135,-1,107,135,109,-1,133,107,106,-1,106,111,133,-1,133,111,113,-1,133,113,131,-1,125,128,123,-1,123,128,131,-1,123,131,121,-1,121,131,113,-1,121,113,118,-1,118,113,115,-1,136,137,138,-1,138,137,139,-1,138,139,140,-1,140,139,141,-1,140,141,142,-1,142,141,143,-1,142,143,144,-1,144,143,145,-1,144,145,146,-1,146,145,147,-1,146,147,148,-1,148,147,149,-1,148,149,150,-1,150,149,151,-1,150,151,152,-1,152,151,153,-1,152,153,154,-1,154,153,155,-1,154,155,156,-1,156,155,157,-1,156,157,158,-1,158,157,159,-1,158,159,160,-1,160,159,161,-1,160,161,162,-1,162,161,163,-1,162,163,164,-1,164,163,165,-1,164,165,166,-1,166,165,167,-1,166,167,168,-1,168,167,169,-1,168,169,170,-1,170,169,136,-1,170,136,138,-1,144,146,171,-1,171,146,172,-1,173,138,140,-1,144,171,174,-1,144,174,142,-1,142,174,175,-1,142,175,140,-1,140,175,176,-1,140,176,173,-1,138,173,177,-1,138,177,170,-1,170,177,178,-1,170,178,168,-1,168,178,179,-1,168,179,166,-1,166,179,180,-1,166,180,164,-1,164,180,181,-1,164,181,162,-1,162,181,182,-1,162,182,160,-1,160,182,183,-1,160,183,158,-1,158,183,184,-1,158,184,156,-1,185,150,152,-1,156,184,186,-1,156,186,154,-1,154,186,187,-1,154,187,152,-1,152,187,188,-1,152,188,185,-1,148,150,189,-1,189,150,185,-1,146,148,172,-1,172,148,189,-1,151,149,190,-1,190,149,191,-1,149,147,191,-1,191,147,192,-1,147,145,192,-1,192,145,193,-1,137,194,195,-1,137,195,139,-1,139,195,196,-1,139,196,141,-1,141,196,197,-1,141,197,143,-1,143,197,193,-1,143,193,145,-1,165,198,199,-1,165,199,167,-1,167,199,200,-1,167,200,169,-1,169,200,201,-1,169,201,136,-1,136,201,194,-1,136,194,137,-1,157,202,203,-1,157,203,159,-1,159,203,204,-1,159,204,161,-1,161,204,205,-1,161,205,163,-1,163,205,198,-1,163,198,165,-1,151,190,206,-1,151,206,153,-1,153,206,207,-1,153,207,155,-1,155,207,202,-1,155,202,157,-1,
        ]
    }
}
Shape{
    appearance Appearance {
        material  Material 	{
            diffuseColor 0.25098039215686274 0.25098039215686274 0.25098039215686274
            specularColor 0.12549019607843137 0.12549019607843137 0.12549019607843137
            ambientIntensity 0.251
            transparency 0.0
            shininess 0.5
        }
    }
    geometry IndexedFaceSet {
        ccw TRUE
        solid FALSE
        coord DEF co Coordinate {
            point [
                0.1607 -0.8051 0.3209, 0.1607 -0.8051 0.2798, 0.1688 -0.8051 0.3209, 0.1685 -0.8051 0.2798, 0.1753 -0.8051 0.2805, 0.1798 -0.8051 0.2822, 0.1834 -0.8051 0.2845, 0.1844 -0.8051 0.2854, 0.187 -0.8051 0.2887, 0.1889 -0.8051 0.2926, 0.1899 -0.8051 0.2975, 0.1901 -0.8051 0.3009, 0.1894 -0.8051 0.307, 0.188 -0.8051 0.3111, 0.186 -0.8051 0.3142, 0.1842 -0.8051 0.3159, 0.1757 -0.8051 0.3202, 0.1803 -0.8051 0.3185
            ]
        }
        coordIndex [
            0,1,2,-1,2,1,3,-1,2,3,4,-1,4,5,2,-1,2,5,6,-1,2,6,7,-1,7,8,2,-1,2,8,9,-1,2,9,10,-1,10,11,2,-1,2,11,12,-1,2,12,13,-1,13,14,2,-1,2,14,15,-1,2,15,16,-1,16,15,17,-1,
        ]
    }
}
Shape{
    appearance Appearance {
        material  Material 	{
            diffuseColor 1.0 1.0 1.0
            specularColor 0.5019607843137255 0.5019607843137255 0.5019607843137255
            ambientIntensity 1.0
            transparency 0.0
            shininess 0.5
        }
    }
    geometry IndexedFaceSet {
        ccw TRUE
        solid FALSE
        coord DEF co Coordinate {
            point [
                0.2152 -0.8091 0.2943, 0.213 -0.8091 0.2883, 0.2331 -0.8091 0.2943, 0.2352 -0.8091 0.2883, 0.2232 -0.8091 0.3165, 0.2206 -0.8091 0.3271, 0.2003 -0.8091 0.2737, 0.2079 -0.8091 0.2737, 0.2236 -0.8091 0.3181, 0.2241 -0.8091 0.3203, 0.228 -0.8091 0.3271, 0.2242 -0.8091 0.3203, 0.2246 -0.8091 0.318, 0.225 -0.8091 0.3165, 0.2483 -0.8091 0.2737, 0.2407 -0.8091 0.2737, 0.228 -0.8051 0.3271, 0.2483 -0.8051 0.2737, 0.2206 -0.8051 0.3271, 0.2003 -0.8051 0.2737, 0.2157 -0.8051 0.3141, 0.2079 -0.8051 0.2737, 0.213 -0.8051 0.2883, 0.2352 -0.8051 0.2883, 0.2157 -0.8051 0.2883, 0.2407 -0.8051 0.2737, 0.2152 -0.8051 0.2943, 0.2331 -0.8051 0.2943, 0.225 -0.8051 0.3165, 0.2242 -0.8051 0.3203, 0.2246 -0.8051 0.318, 0.2241 -0.8051 0.3203, 0.2232 -0.8051 0.3165, 0.2236 -0.8051 0.3181
            ]
        }
        coordIndex [
            0,1,2,-1,2,1,3,-1,4,5,0,-1,0,5,6,-1,0,6,1,-1,1,6,7,-1,4,8,5,-1,5,8,9,-1,5,9,10,-1,10,9,11,-1,10,11,12,-1,12,13,10,-1,10,13,2,-1,10,2,14,-1,14,2,3,-1,14,3,15,-1,10,14,16,-1,16,14,17,-1,5,10,18,-1,18,10,16,-1,19,6,20,-1,20,6,5,-1,20,5,18,-1,7,6,21,-1,21,6,19,-1,1,7,22,-1,22,7,21,-1,23,3,24,-1,24,3,1,-1,24,1,22,-1,15,3,25,-1,25,3,23,-1,14,15,17,-1,17,15,25,-1,0,2,26,-1,26,2,27,-1,2,13,27,-1,27,13,28,-1,11,29,30,-1,11,30,12,-1,12,30,28,-1,12,28,13,-1,11,9,29,-1,29,9,31,-1,4,32,33,-1,4,33,8,-1,8,33,31,-1,8,31,9,-1,4,0,32,-1,32,0,26,-1,
        ]
    }
}
Shape{
    appearance Appearance {
        material  Material 	{
            diffuseColor 0.25098039215686274 0.25098039215686274 0.25098039215686274
            specularColor 0.12549019607843137 0.12549019607843137 0.12549019607843137
            ambientIntensity 0.251
            transparency 0.0
            shininess 0.5
        }
    }
    geometry IndexedFaceSet {
        ccw TRUE
        solid FALSE
        coord DEF co Coordinate {
            point [
                0.2242 -0.8051 0.3203, 0.2241 -0.8051 0.3203, 0.2246 -0.8051 0.318, 0.2236 -0.8051 0.3181, 0.225 -0.8051 0.3165, 0.2232 -0.8051 0.3165, 0.2331 -0.8051 0.2943, 0.2152 -0.8051 0.2943
            ]
        }
        coordIndex [
            0,1,2,-1,2,1,3,-1,2,3,4,-1,4,3,5,-1,4,5,6,-1,6,5,7,-1,
        ]
    }
}
Shape{
    appearance Appearance {
        material  Material 	{
            diffuseColor 1.0 1.0 1.0
            specularColor 0.5019607843137255 0.5019607843137255 0.5019607843137255
            ambientIntensity 1.0
            transparency 0.0
            shininess 0.5
        }
    }
    geometry IndexedFaceSet {
        ccw TRUE
        solid FALSE
        coord DEF co Coordinate {
            point [
                0.0628 -0.8091 0.1951, 0.0628 -0.8091 0.189, 0.0628 -0.8051 0.1951, 0.0628 -0.8051 0.189, 0.041 -0.8091 0.1951, 0.041 -0.8051 0.1951, 0.041 -0.8091 0.2131, 0.041 -0.8051 0.2131, 0.0601 -0.8091 0.2131, 0.0601 -0.8051 0.2131, 0.0601 -0.8091 0.2192, 0.0601 -0.8051 0.2192, 0.041 -0.8091 0.2192, 0.041 -0.8051 0.2192, 0.041 -0.8091 0.2363, 0.041 -0.8051 0.2363, 0.0616 -0.8091 0.2363, 0.0616 -0.8051 0.2363, 0.0616 -0.8091 0.2424, 0.0616 -0.8051 0.2424, 0.0341 -0.8091 0.2424, 0.0341 -0.8051 0.2424, 0.0341 -0.8091 0.189, 0.0341 -0.8051 0.189, 0.0998 -0.8091 0.2136, 0.0931 -0.8091 0.2082, 0.0931 -0.8091 0.2045, 0.0929 -0.8091 0.1949, 0.0931 -0.8091 0.1949, 0.0928 -0.8091 0.2013, 0.0931 -0.8091 0.189, 0.0998 -0.8091 0.189, 0.076 -0.8091 0.2008, 0.0763 -0.8091 0.2024, 0.0705 -0.8091 0.2053, 0.0918 -0.8091 0.1989, 0.0903 -0.8091 0.1967, 0.0919 -0.8091 0.1933, 0.0894 -0.8091 0.1959, 0.0898 -0.8091 0.191, 0.0875 -0.8091 0.1946, 0.0873 -0.8091 0.1894, 0.0855 -0.8091 0.1939, 0.0846 -0.8091 0.1885, 0.083 -0.8091 0.1936, 0.0813 -0.8091 0.1881, 0.0807 -0.8091 0.1939, 0.0772 -0.8091 0.1886, 0.0792 -0.8091 0.1944, 0.0747 -0.8091 0.1896, 0.0779 -0.8091 0.1953, 0.0725 -0.8091 0.1911, 0.0773 -0.8091 0.1959, 0.0719 -0.8091 0.2072, 0.0769 -0.8091 0.2036, 0.0739 -0.8091 0.209, 0.0777 -0.8091 0.2046, 0.0768 -0.8091 0.2104, 0.0786 -0.8091 0.2053, 0.0802 -0.8091 0.206, 0.0818 -0.8091 0.2117, 0.0842 -0.8091 0.207, 0.0931 -0.8091 0.2133, 0.0696 -0.8091 0.2029, 0.0692 -0.8091 0.2, 0.076 -0.8091 0.1998, 0.0692 -0.8091 0.1992, 0.0761 -0.8091 0.1982, 0.0695 -0.8091 0.1961, 0.0766 -0.8091 0.197, 0.0704 -0.8091 0.1939, 0.0718 -0.8091 0.1918, 0.0729 -0.8091 0.2245, 0.0729 -0.8091 0.218, 0.0743 -0.8091 0.2253, 0.0775 -0.8091 0.2209, 0.0792 -0.8091 0.2272, 0.0817 -0.8091 0.2222, 0.086 -0.8091 0.228, 0.0854 -0.8091 0.2226, 0.09 -0.8091 0.2277, 0.0877 -0.8091 0.2223, 0.0928 -0.8091 0.2268, 0.0892 -0.8091 0.2218, 0.0951 -0.8091 0.2256, 0.0904 -0.8091 0.221, 0.0968 -0.8091 0.2239, 0.0914 -0.8091 0.22, 0.0982 -0.8091 0.2217, 0.0922 -0.8091 0.2186, 0.0993 -0.8091 0.2187, 0.0929 -0.8091 0.2162, 0.086 -0.8051 0.228, 0.0792 -0.8051 0.2272, 0.0743 -0.8051 0.2253, 0.0729 -0.8051 0.2245, 0.0729 -0.8051 0.218, 0.0775 -0.8051 0.2209, 0.0817 -0.8051 0.2222, 0.0854 -0.8051 0.2226, 0.0877 -0.8051 0.2223, 0.0892 -0.8051 0.2218, 0.0904 -0.8051 0.221, 0.0914 -0.8051 0.22, 0.0922 -0.8051 0.2186, 0.0929 -0.8051 0.2162, 0.0931 -0.8051 0.2133, 0.0818 -0.8051 0.2117, 0.0768 -0.8051 0.2104, 0.0739 -0.8051 0.209, 0.0719 -0.8051 0.2072, 0.0705 -0.8051 0.2053, 0.0696 -0.8051 0.2029, 0.0692 -0.8051 0.2, 0.0692 -0.8051 0.1992, 0.0695 -0.8051 0.1961, 0.0704 -0.8051 0.1939, 0.0718 -0.8051 0.1918, 0.0725 -0.8051 0.1911, 0.0813 -0.8051 0.1881, 0.0774 -0.8051 0.1886, 0.0772 -0.8051 0.1886, 0.0747 -0.8051 0.1896, 0.0846 -0.8051 0.1885, 0.0849 -0.8051 0.1886, 0.0873 -0.8051 0.1894, 0.0898 -0.8051 0.191, 0.0919 -0.8051 0.1933, 0.0929 -0.8051 0.1949, 0.0931 -0.8051 0.1949, 0.0931 -0.8051 0.189, 0.0998 -0.8051 0.189, 0.0998 -0.8051 0.2136, 0.0993 -0.8051 0.2187, 0.0982 -0.8051 0.2217, 0.0968 -0.8051 0.2239, 0.0951 -0.8051 0.2256, 0.0928 -0.8051 0.2268, 0.09 -0.8051 0.2277, 0.0777 -0.8051 0.2046, 0.0786 -0.8051 0.2053, 0.0802 -0.8051 0.206, 0.0842 -0.8051 0.207, 0.076 -0.8051 0.1998, 0.076 -0.8051 0.2008, 0.0763 -0.8051 0.2024, 0.0769 -0.8051 0.2036, 0.0779 -0.8051 0.1953, 0.0773 -0.8051 0.1959, 0.0766 -0.8051 0.197, 0.0761 -0.8051 0.1982, 0.083 -0.8051 0.1936, 0.0807 -0.8051 0.1939, 0.0792 -0.8051 0.1944, 0.0903 -0.8051 0.1967, 0.0894 -0.8051 0.1959, 0.0875 -0.8051 0.1946, 0.0855 -0.8051 0.1939, 0.0931 -0.8051 0.2045, 0.0928 -0.8051 0.2013, 0.0918 -0.8051 0.1989, 0.0931 -0.8051 0.2082
            ]
        }
        coordIndex [
            0,1,2,-1,2,1,3,-1,4,0,5,-1,5,0,2,-1,6,4,7,-1,7,4,5,-1,8,6,9,-1,9,6,7,-1,10,8,11,-1,11,8,9,-1,12,10,13,-1,13,10,11,-1,14,12,15,-1,15,12,13,-1,16,14,17,-1,17,14,15,-1,18,16,19,-1,19,16,17,-1,20,18,21,-1,21,18,19,-1,22,20,23,-1,23,20,21,-1,1,22,3,-1,3,22,23,-1,22,1,0,-1,0,4,22,-1,22,4,6,-1,22,6,20,-1,16,18,14,-1,14,18,20,-1,14,20,12,-1,12,20,6,-1,12,6,10,-1,10,6,8,-1,24,25,26,-1,27,28,29,-1,30,31,28,-1,28,31,24,-1,28,24,29,-1,29,24,26,-1,32,33,34,-1,29,35,27,-1,27,35,36,-1,27,36,37,-1,37,36,38,-1,37,38,39,-1,39,38,40,-1,39,40,41,-1,41,40,42,-1,41,42,43,-1,43,42,44,-1,43,44,45,-1,45,44,46,-1,45,46,47,-1,47,46,48,-1,47,48,49,-1,49,48,50,-1,49,50,51,-1,51,50,52,-1,34,33,53,-1,53,33,54,-1,53,54,55,-1,55,54,56,-1,55,56,57,-1,56,58,57,-1,57,58,59,-1,57,59,60,-1,60,59,61,-1,60,61,62,-1,34,63,32,-1,32,63,64,-1,32,64,65,-1,65,64,66,-1,65,66,67,-1,67,66,68,-1,67,68,69,-1,69,68,70,-1,69,70,52,-1,52,70,71,-1,52,71,51,-1,72,73,74,-1,74,73,75,-1,74,75,76,-1,76,75,77,-1,76,77,78,-1,78,77,79,-1,78,79,80,-1,80,79,81,-1,80,81,82,-1,82,81,83,-1,82,83,84,-1,84,83,85,-1,84,85,86,-1,86,85,87,-1,86,87,88,-1,88,87,89,-1,88,89,90,-1,90,89,91,-1,90,91,24,-1,24,91,62,-1,24,62,25,-1,25,62,61,-1,78,92,93,-1,78,93,76,-1,76,93,94,-1,76,94,74,-1,74,94,95,-1,74,95,72,-1,73,72,96,-1,96,72,95,-1,73,96,97,-1,73,97,75,-1,75,97,98,-1,75,98,77,-1,77,98,99,-1,77,99,79,-1,79,99,100,-1,79,100,81,-1,81,100,101,-1,81,101,83,-1,83,101,102,-1,83,102,85,-1,85,102,103,-1,85,103,87,-1,87,103,104,-1,87,104,89,-1,89,104,105,-1,89,105,91,-1,91,105,106,-1,91,106,62,-1,60,62,107,-1,107,62,106,-1,60,107,108,-1,60,108,57,-1,57,108,109,-1,57,109,55,-1,55,109,110,-1,55,110,53,-1,53,110,111,-1,53,111,34,-1,34,111,112,-1,34,112,63,-1,63,112,113,-1,63,113,64,-1,64,113,114,-1,64,114,66,-1,66,114,115,-1,66,115,68,-1,68,115,116,-1,68,116,70,-1,70,116,117,-1,70,117,71,-1,71,117,118,-1,71,118,51,-1,119,45,120,-1,120,45,47,-1,120,47,121,-1,121,47,49,-1,121,49,122,-1,122,49,51,-1,122,51,118,-1,45,119,123,-1,45,123,43,-1,43,123,124,-1,43,124,41,-1,124,125,41,-1,41,125,126,-1,41,126,39,-1,39,126,127,-1,39,127,37,-1,37,127,128,-1,37,128,27,-1,28,27,129,-1,129,27,128,-1,30,28,130,-1,130,28,129,-1,31,30,131,-1,131,30,130,-1,24,31,132,-1,132,31,131,-1,24,132,133,-1,24,133,90,-1,90,133,134,-1,90,134,88,-1,88,134,135,-1,88,135,86,-1,86,135,136,-1,86,136,84,-1,84,136,137,-1,84,137,82,-1,82,137,138,-1,82,138,80,-1,80,138,92,-1,80,92,78,-1,56,139,140,-1,56,140,58,-1,58,140,141,-1,58,141,59,-1,59,141,142,-1,59,142,61,-1,65,143,144,-1,65,144,32,-1,32,144,145,-1,32,145,33,-1,33,145,146,-1,33,146,54,-1,54,146,139,-1,54,139,56,-1,50,147,148,-1,50,148,52,-1,52,148,149,-1,52,149,69,-1,69,149,150,-1,69,150,67,-1,67,150,143,-1,67,143,65,-1,44,151,152,-1,44,152,46,-1,46,152,153,-1,46,153,48,-1,48,153,147,-1,48,147,50,-1,36,154,155,-1,36,155,38,-1,38,155,156,-1,38,156,40,-1,40,156,157,-1,40,157,42,-1,42,157,151,-1,42,151,44,-1,26,158,159,-1,26,159,29,-1,29,159,160,-1,29,160,35,-1,35,160,154,-1,35,154,36,-1,26,25,158,-1,158,25,161,-1,25,61,161,-1,161,61,142,-1,
        ]
    }
}
Shape{
    appearance Appearance {
        material  Material 	{
            diffuseColor 0.25098039215686274 0.25098039215686274 0.25098039215686274
            specularColor 0.12549019607843137 0.12549019607843137 0.12549019607843137
            ambientIntensity 0.251
            transparency 0.0
            shininess 0.5
        }
    }
    geometry IndexedFaceSet {
        ccw TRUE
        solid FALSE
        coord DEF co Coordinate {
            point [
                0.0931 -0.8051 0.2045, 0.0931 -0.8051 0.2082, 0.0842 -0.8051 0.207, 0.0894 -0.8051 0.1959, 0.0903 -0.8051 0.1967, 0.0802 -0.8051 0.206, 0.0786 -0.8051 0.2053, 0.0855 -0.8051 0.1939, 0.0875 -0.8051 0.1946, 0.0918 -0.8051 0.1989, 0.0928 -0.8051 0.2013, 0.0777 -0.8051 0.2046, 0.0769 -0.8051 0.2036, 0.0763 -0.8051 0.2024, 0.076 -0.8051 0.2008, 0.076 -0.8051 0.1998, 0.0761 -0.8051 0.1982, 0.0792 -0.8051 0.1944, 0.0807 -0.8051 0.1939, 0.0779 -0.8051 0.1953, 0.083 -0.8051 0.1936, 0.0766 -0.8051 0.197, 0.0773 -0.8051 0.1959
            ]
        }
        coordIndex [
            0,1,2,-1,3,4,2,-1,5,6,7,-1,5,7,2,-1,2,7,8,-1,2,8,3,-1,4,9,2,-1,2,9,10,-1,2,10,0,-1,6,11,7,-1,7,11,12,-1,7,12,13,-1,13,14,7,-1,7,14,15,-1,7,15,16,-1,17,18,19,-1,19,18,20,-1,19,20,7,-1,16,21,7,-1,7,21,22,-1,7,22,19,-1,
        ]
    }
}
Shape{
    appearance Appearance {
        material  Material 	{
            diffuseColor 1.0 1.0 1.0
            specularColor 0.5019607843137255 0.5019607843137255 0.5019607843137255
            ambientIntensity 1.0
            transparency 0.0
            shininess 0.5
        }
    }
    geometry IndexedFaceSet {
        ccw TRUE
        solid FALSE
        coord DEF co Coordinate {
            point [
                0.1089 -0.8051 0.1973, 0.1089 -0.8091 0.1973, 0.1113 -0.8091 0.1958, 0.1199 -0.8091 0.1936, 0.1199 -0.8051 0.1936, 0.1155 -0.8051 0.1941, 0.1155 -0.8091 0.1941, 0.112 -0.8051 0.1955, 0.1113 -0.8051 0.1958, 0.1089 -0.8091 0.1904, 0.1089 -0.8051 0.1904, 0.112 -0.8051 0.1893, 0.1136 -0.8091 0.1887, 0.1192 -0.8051 0.1881, 0.1192 -0.8091 0.1881, 0.1149 -0.8051 0.1886, 0.1136 -0.8051 0.1887, 0.1253 -0.8091 0.1889, 0.123 -0.8051 0.1886, 0.1253 -0.8051 0.1889, 0.1288 -0.8051 0.1902, 0.1288 -0.8091 0.1902, 0.1303 -0.8051 0.1912, 0.1303 -0.8091 0.1912, 0.1324 -0.8051 0.193, 0.1324 -0.8091 0.193, 0.1336 -0.8051 0.1948, 0.1336 -0.8091 0.1948, 0.1344 -0.8051 0.197, 0.1344 -0.8091 0.197, 0.1346 -0.8051 0.1994, 0.1346 -0.8091 0.1994, 0.1343 -0.8051 0.2019, 0.1343 -0.8091 0.2019, 0.1336 -0.8051 0.2039, 0.1336 -0.8091 0.2039, 0.1324 -0.8051 0.2057, 0.1324 -0.8091 0.2057, 0.1308 -0.8051 0.2071, 0.1308 -0.8091 0.2071, 0.1263 -0.8051 0.2096, 0.1263 -0.8091 0.2096, 0.1238 -0.8051 0.2106, 0.1238 -0.8091 0.2106, 0.1196 -0.8051 0.2124, 0.1196 -0.8091 0.2124, 0.1173 -0.8051 0.2139, 0.1173 -0.8091 0.2139, 0.1166 -0.8051 0.2146, 0.1166 -0.8091 0.2146, 0.1161 -0.8051 0.2155, 0.1161 -0.8091 0.2155, 0.1159 -0.8051 0.2166, 0.1159 -0.8091 0.2166, 0.1158 -0.8051 0.2175, 0.1158 -0.8091 0.2175, 0.1159 -0.8051 0.2185, 0.1159 -0.8091 0.2185, 0.1163 -0.8051 0.2194, 0.1163 -0.8091 0.2194, 0.1168 -0.8051 0.2203, 0.1168 -0.8091 0.2203, 0.1178 -0.8051 0.2212, 0.1178 -0.8091 0.2212, 0.1193 -0.8051 0.222, 0.1193 -0.8091 0.222, 0.1211 -0.8051 0.2224, 0.1211 -0.8091 0.2224, 0.1231 -0.8051 0.2226, 0.1231 -0.8091 0.2226, 0.1278 -0.8051 0.222, 0.1278 -0.8091 0.222, 0.1316 -0.8051 0.2206, 0.1316 -0.8091 0.2206, 0.1328 -0.8051 0.2198, 0.1328 -0.8091 0.2198, 0.1328 -0.8091 0.2263, 0.1328 -0.8051 0.2263, 0.1285 -0.8051 0.2276, 0.1285 -0.8091 0.2276, 0.1238 -0.8051 0.228, 0.1238 -0.8091 0.228, 0.1184 -0.8051 0.2274, 0.1184 -0.8091 0.2274, 0.1148 -0.8051 0.226, 0.1148 -0.8091 0.226, 0.1132 -0.8051 0.225, 0.1132 -0.8091 0.225, 0.112 -0.8051 0.2239, 0.1111 -0.8091 0.223, 0.1111 -0.8051 0.223, 0.1099 -0.8051 0.2212, 0.1099 -0.8091 0.2212, 0.1091 -0.8051 0.219, 0.1091 -0.8091 0.219, 0.1089 -0.8051 0.2169, 0.1089 -0.8091 0.2169, 0.1093 -0.8051 0.214, 0.1093 -0.8091 0.214, 0.1101 -0.8051 0.212, 0.1101 -0.8091 0.212, 0.1108 -0.8051 0.2108, 0.1108 -0.8091 0.2108, 0.119 -0.8051 0.2058, 0.119 -0.8091 0.2058, 0.1151 -0.8091 0.2076, 0.1119 -0.8051 0.2097, 0.1119 -0.8091 0.2097, 0.112 -0.8051 0.2096, 0.1151 -0.8051 0.2076, 0.1234 -0.8051 0.2039, 0.1234 -0.8091 0.2039, 0.126 -0.8051 0.2024, 0.126 -0.8091 0.2024, 0.1269 -0.8051 0.2015, 0.1269 -0.8091 0.2015, 0.1274 -0.8051 0.2006, 0.1274 -0.8091 0.2006, 0.1277 -0.8051 0.1996, 0.1277 -0.8091 0.1996, 0.1278 -0.8051 0.1987, 0.1278 -0.8091 0.1987, 0.1276 -0.8051 0.1975, 0.1276 -0.8091 0.1975, 0.1273 -0.8051 0.1965, 0.1273 -0.8091 0.1965, 0.1267 -0.8051 0.1957, 0.1267 -0.8091 0.1957, 0.1259 -0.8051 0.195, 0.1259 -0.8091 0.195, 0.1253 -0.8051 0.1946, 0.1253 -0.8091 0.1946, 0.1236 -0.8051 0.194, 0.1236 -0.8091 0.194, 0.1202 -0.8051 0.1936, 0.1202 -0.8091 0.1936, 0.1678 -0.8091 0.2272, 0.1747 -0.8091 0.2272, 0.1678 -0.8051 0.2272, 0.1747 -0.8051 0.2272, 0.1574 -0.8091 0.1984, 0.1574 -0.8051 0.1984, 0.1568 -0.8051 0.1967, 0.1568 -0.8091 0.1967, 0.1565 -0.8051 0.1954, 0.1565 -0.8091 0.1954, 0.1564 -0.8091 0.1954, 0.1564 -0.8051 0.1954, 0.1555 -0.8091 0.1985, 0.1555 -0.8051 0.1985, 0.1456 -0.8091 0.2272, 0.1488 -0.8051 0.2179, 0.1456 -0.8051 0.2272, 0.1381 -0.8091 0.2272, 0.1381 -0.8051 0.2272, 0.1531 -0.8091 0.1891, 0.1488 -0.8051 0.1999, 0.1531 -0.8051 0.1891, 0.1501 -0.8051 0.1822, 0.1501 -0.8091 0.1822, 0.1528 -0.8051 0.1886, 0.1488 -0.8051 0.1798, 0.1486 -0.8091 0.1795, 0.1486 -0.8051 0.1795, 0.1473 -0.8051 0.1781, 0.1473 -0.8091 0.1781, 0.146 -0.8051 0.1774, 0.146 -0.8091 0.1774, 0.1446 -0.8051 0.1769, 0.1446 -0.8091 0.1769, 0.1433 -0.8051 0.1768, 0.1433 -0.8091 0.1768, 0.1408 -0.8051 0.1771, 0.1408 -0.8091 0.1771, 0.1395 -0.8051 0.1776, 0.1395 -0.8091 0.1776, 0.1395 -0.8091 0.1716, 0.1395 -0.8051 0.1716, 0.1423 -0.8051 0.1711, 0.1423 -0.8091 0.1711, 0.1438 -0.8051 0.1711, 0.1438 -0.8091 0.1711, 0.1467 -0.8051 0.1714, 0.1467 -0.8091 0.1714, 0.1488 -0.8051 0.1723, 0.1493 -0.8091 0.1725, 0.1493 -0.8051 0.1725, 0.1516 -0.8051 0.1741, 0.1516 -0.8091 0.1741, 0.1543 -0.8051 0.1773, 0.1543 -0.8091 0.1773, 0.1574 -0.8051 0.1833, 0.1574 -0.8091 0.1833, 0.1595 -0.8051 0.1886, 0.2106 -0.8091 0.1951, 0.2106 -0.8091 0.189, 0.2106 -0.8051 0.1951, 0.2106 -0.8051 0.189, 0.1888 -0.8091 0.1951, 0.1988 -0.8051 0.1951, 0.1888 -0.8051 0.1951, 0.1888 -0.8091 0.2131, 0.1888 -0.8051 0.2131, 0.2079 -0.8091 0.2131, 0.1988 -0.8051 0.2131, 0.2079 -0.8051 0.2131, 0.2079 -0.8091 0.2192, 0.2079 -0.8051 0.2192, 0.1888 -0.8051 0.2192, 0.1888 -0.8091 0.2192, 0.1988 -0.8051 0.2192, 0.1888 -0.8091 0.2363, 0.1888 -0.8051 0.2363, 0.2094 -0.8051 0.2363, 0.2094 -0.8091 0.2363, 0.1988 -0.8051 0.2363, 0.2094 -0.8091 0.2424, 0.2094 -0.8051 0.2424, 0.1819 -0.8051 0.2424, 0.1819 -0.8091 0.2424, 0.1988 -0.8051 0.2424, 0.1819 -0.8091 0.189, 0.1819 -0.8051 0.189, 0.1988 -0.8051 0.189, 0.2539 -0.8091 0.204, 0.2512 -0.8091 0.2007, 0.2561 -0.8091 0.1965, 0.2502 -0.8091 0.1998, 0.2506 -0.8091 0.1925, 0.2467 -0.8091 0.1975, 0.2445 -0.8091 0.1902, 0.2421 -0.8091 0.1958, 0.2354 -0.8091 0.189, 0.2353 -0.8091 0.1951, 0.2207 -0.8091 0.189, 0.2276 -0.8091 0.1951, 0.2207 -0.8091 0.2424, 0.2276 -0.8091 0.2363, 0.2359 -0.8091 0.2424, 0.2357 -0.8091 0.2363, 0.2441 -0.8091 0.2415, 0.2425 -0.8091 0.2355, 0.2505 -0.8091 0.2392, 0.2472 -0.8091 0.2338, 0.2561 -0.8091 0.2353, 0.2511 -0.8091 0.2312, 0.258 -0.8091 0.2335, 0.2528 -0.8091 0.2295, 0.2613 -0.8091 0.2289, 0.2548 -0.8091 0.2264, 0.2633 -0.8091 0.2238, 0.2562 -0.8091 0.2224, 0.2642 -0.8091 0.2164, 0.2569 -0.8091 0.2162, 0.264 -0.8091 0.213, 0.2567 -0.8091 0.2128, 0.2627 -0.8091 0.2068, 0.2557 -0.8091 0.2079, 0.2601 -0.8091 0.2012, 0.2354 -0.8051 0.189, 0.2207 -0.8051 0.189, 0.2445 -0.8051 0.1902, 0.2506 -0.8051 0.1925, 0.2561 -0.8051 0.1965, 0.2601 -0.8051 0.2012, 0.2627 -0.8051 0.2068, 0.264 -0.8051 0.213, 0.2642 -0.8051 0.2164, 0.2633 -0.8051 0.2238, 0.2613 -0.8051 0.2289, 0.258 -0.8051 0.2335, 0.2561 -0.8051 0.2353, 0.2505 -0.8051 0.2392, 0.2441 -0.8051 0.2415, 0.2359 -0.8051 0.2424, 0.2207 -0.8051 0.2424, 0.2357 -0.8051 0.2363, 0.2276 -0.8051 0.2363, 0.2276 -0.8051 0.1951, 0.2353 -0.8051 0.1951, 0.2512 -0.8051 0.2007, 0.2502 -0.8051 0.1998, 0.2467 -0.8051 0.1975, 0.2421 -0.8051 0.1958, 0.2569 -0.8051 0.2162, 0.2567 -0.8051 0.2128, 0.2557 -0.8051 0.2079, 0.2539 -0.8051 0.204, 0.2511 -0.8051 0.2312, 0.2528 -0.8051 0.2295, 0.2548 -0.8051 0.2264, 0.2562 -0.8051 0.2224, 0.2425 -0.8051 0.2355, 0.2472 -0.8051 0.2338
            ]
        }
        coordIndex [
            0,1,2,-1,3,4,5,-1,3,5,6,-1,6,5,7,-1,6,7,2,-1,2,7,8,-1,2,8,0,-1,9,1,10,-1,10,1,0,-1,10,11,9,-1,9,11,12,-1,13,14,15,-1,15,14,12,-1,15,12,16,-1,16,12,11,-1,14,13,17,-1,17,13,18,-1,18,19,17,-1,17,19,20,-1,17,20,21,-1,21,20,22,-1,21,22,23,-1,23,22,24,-1,23,24,25,-1,25,24,26,-1,25,26,27,-1,27,26,28,-1,27,28,29,-1,29,28,30,-1,29,30,31,-1,31,30,32,-1,31,32,33,-1,33,32,34,-1,33,34,35,-1,35,34,36,-1,35,36,37,-1,37,36,38,-1,37,38,39,-1,39,38,40,-1,39,40,41,-1,41,40,42,-1,41,42,43,-1,43,42,44,-1,43,44,45,-1,45,44,46,-1,45,46,47,-1,47,46,48,-1,47,48,49,-1,49,48,50,-1,49,50,51,-1,51,50,52,-1,51,52,53,-1,53,52,54,-1,53,54,55,-1,55,54,56,-1,55,56,57,-1,57,56,58,-1,57,58,59,-1,59,58,60,-1,59,60,61,-1,61,60,62,-1,61,62,63,-1,63,62,64,-1,63,64,65,-1,65,64,66,-1,65,66,67,-1,67,66,68,-1,67,68,69,-1,69,68,70,-1,69,70,71,-1,71,70,72,-1,71,72,73,-1,73,72,74,-1,73,74,75,-1,76,75,77,-1,77,75,74,-1,76,77,78,-1,76,78,79,-1,79,78,80,-1,79,80,81,-1,81,80,82,-1,81,82,83,-1,83,82,84,-1,83,84,85,-1,85,84,86,-1,85,86,87,-1,86,88,87,-1,87,88,89,-1,88,90,89,-1,89,90,91,-1,89,91,92,-1,92,91,93,-1,92,93,94,-1,94,93,95,-1,94,95,96,-1,96,95,97,-1,96,97,98,-1,98,97,99,-1,98,99,100,-1,100,99,101,-1,100,101,102,-1,103,104,105,-1,102,101,106,-1,102,106,107,-1,107,106,108,-1,107,108,105,-1,105,108,109,-1,105,109,103,-1,104,103,110,-1,104,110,111,-1,111,110,112,-1,111,112,113,-1,113,112,114,-1,113,114,115,-1,115,114,116,-1,115,116,117,-1,117,116,118,-1,117,118,119,-1,119,118,120,-1,119,120,121,-1,121,120,122,-1,121,122,123,-1,123,122,124,-1,123,124,125,-1,125,124,126,-1,125,126,127,-1,127,126,128,-1,127,128,129,-1,129,128,130,-1,129,130,131,-1,131,130,132,-1,131,132,133,-1,133,132,134,-1,133,134,135,-1,135,134,4,-1,135,4,3,-1,59,61,87,-1,87,61,85,-1,85,61,63,-1,85,63,83,-1,125,25,27,-1,111,43,104,-1,104,43,45,-1,96,98,51,-1,51,98,100,-1,51,100,49,-1,49,100,102,-1,49,102,47,-1,47,102,107,-1,47,107,45,-1,45,107,105,-1,45,105,104,-1,125,27,123,-1,123,27,29,-1,123,29,121,-1,121,29,31,-1,121,31,119,-1,119,31,33,-1,119,33,117,-1,117,33,35,-1,117,35,115,-1,115,35,37,-1,115,37,113,-1,113,37,39,-1,113,39,111,-1,111,39,41,-1,111,41,43,-1,25,125,23,-1,23,125,127,-1,23,127,21,-1,14,3,12,-1,12,3,6,-1,12,6,9,-1,9,6,2,-1,9,2,1,-1,63,65,83,-1,83,65,67,-1,83,67,81,-1,81,67,69,-1,81,69,79,-1,79,69,71,-1,79,71,76,-1,76,71,73,-1,76,73,75,-1,127,129,21,-1,21,129,131,-1,21,131,17,-1,17,131,133,-1,17,133,14,-1,14,133,135,-1,14,135,3,-1,87,89,59,-1,59,89,92,-1,59,92,57,-1,57,92,94,-1,57,94,55,-1,55,94,96,-1,55,96,53,-1,53,96,51,-1,136,137,138,-1,138,137,139,-1,140,136,141,-1,141,136,138,-1,140,141,142,-1,140,142,143,-1,143,142,144,-1,143,144,145,-1,146,145,147,-1,147,145,144,-1,148,146,149,-1,149,146,147,-1,148,149,150,-1,150,149,151,-1,150,151,152,-1,153,150,154,-1,154,150,152,-1,153,154,155,-1,155,154,156,-1,155,156,157,-1,158,159,160,-1,160,159,155,-1,160,155,157,-1,158,161,159,-1,159,161,162,-1,161,163,162,-1,162,163,164,-1,162,164,165,-1,165,164,166,-1,165,166,167,-1,167,166,168,-1,167,168,169,-1,169,168,170,-1,169,170,171,-1,171,170,172,-1,171,172,173,-1,173,172,174,-1,173,174,175,-1,176,175,177,-1,177,175,174,-1,176,177,178,-1,176,178,179,-1,179,178,180,-1,179,180,181,-1,181,180,182,-1,181,182,183,-1,183,182,184,-1,183,184,185,-1,184,186,185,-1,185,186,187,-1,185,187,188,-1,188,187,189,-1,188,189,190,-1,190,189,191,-1,190,191,192,-1,139,137,193,-1,193,137,192,-1,193,192,191,-1,143,145,192,-1,137,136,192,-1,192,136,140,-1,192,140,143,-1,150,153,148,-1,148,153,155,-1,148,155,146,-1,145,146,192,-1,192,146,155,-1,192,155,190,-1,155,159,190,-1,190,159,162,-1,190,162,188,-1,188,162,165,-1,188,165,185,-1,185,165,167,-1,185,167,183,-1,183,167,169,-1,183,169,181,-1,181,169,171,-1,181,171,179,-1,179,171,173,-1,179,173,176,-1,176,173,175,-1,194,195,196,-1,196,195,197,-1,194,196,198,-1,198,196,199,-1,198,199,200,-1,201,198,202,-1,202,198,200,-1,201,202,203,-1,203,202,204,-1,203,204,205,-1,206,203,207,-1,207,203,205,-1,208,209,210,-1,210,209,206,-1,210,206,207,-1,211,209,212,-1,212,209,208,-1,213,214,215,-1,215,214,211,-1,215,211,212,-1,216,214,217,-1,217,214,213,-1,218,219,220,-1,220,219,216,-1,220,216,217,-1,221,219,222,-1,222,219,218,-1,221,222,195,-1,195,222,223,-1,195,223,197,-1,221,195,194,-1,194,198,221,-1,221,198,201,-1,221,201,219,-1,214,216,211,-1,211,216,219,-1,211,219,209,-1,209,219,201,-1,209,201,206,-1,206,201,203,-1,224,225,226,-1,226,225,227,-1,226,227,228,-1,228,227,229,-1,228,229,230,-1,230,229,231,-1,230,231,232,-1,232,231,233,-1,232,233,234,-1,234,233,235,-1,234,235,236,-1,236,235,237,-1,236,237,238,-1,238,237,239,-1,238,239,240,-1,240,239,241,-1,240,241,242,-1,242,241,243,-1,242,243,244,-1,244,243,245,-1,244,245,246,-1,246,245,247,-1,246,247,248,-1,248,247,249,-1,248,249,250,-1,250,249,251,-1,250,251,252,-1,252,251,253,-1,252,253,254,-1,254,253,255,-1,254,255,256,-1,256,255,257,-1,256,257,258,-1,258,257,224,-1,258,224,226,-1,232,234,259,-1,259,234,260,-1,232,259,261,-1,232,261,230,-1,230,261,262,-1,230,262,228,-1,228,262,263,-1,228,263,226,-1,226,263,264,-1,226,264,258,-1,258,264,265,-1,258,265,256,-1,256,265,266,-1,256,266,254,-1,254,266,267,-1,254,267,252,-1,252,267,268,-1,252,268,250,-1,250,268,269,-1,250,269,248,-1,248,269,270,-1,248,270,246,-1,246,270,271,-1,246,271,244,-1,244,271,272,-1,244,272,242,-1,242,272,273,-1,242,273,240,-1,240,273,274,-1,240,274,238,-1,236,238,275,-1,275,238,274,-1,234,236,260,-1,260,236,275,-1,239,237,276,-1,276,237,277,-1,237,235,277,-1,277,235,278,-1,235,233,278,-1,278,233,279,-1,225,280,281,-1,225,281,227,-1,227,281,282,-1,227,282,229,-1,229,282,283,-1,229,283,231,-1,231,283,279,-1,231,279,233,-1,253,284,285,-1,253,285,255,-1,255,285,286,-1,255,286,257,-1,257,286,287,-1,257,287,224,-1,224,287,280,-1,224,280,225,-1,245,288,289,-1,245,289,247,-1,247,289,290,-1,247,290,249,-1,249,290,291,-1,249,291,251,-1,251,291,284,-1,251,284,253,-1,239,276,292,-1,239,292,241,-1,241,292,293,-1,241,293,243,-1,243,293,288,-1,243,288,245,-1,
        ]
    }
}
Shape{
    appearance Appearance {
        material  Material 	{
            diffuseColor 0.25098039215686274 0.25098039215686274 0.25098039215686274
            specularColor 0.12549019607843137 0.12549019607843137 0.12549019607843137
            ambientIntensity 0.251
            transparency 0.0
            shininess 0.5
        }
    }
    geometry IndexedFaceSet {
        ccw TRUE
        solid FALSE
        coord DEF co Coordinate {
            point [
                0.2276 -0.8051 0.2363, 0.2276 -0.8051 0.1951, 0.2357 -0.8051 0.2363, 0.2353 -0.8051 0.1951, 0.2421 -0.8051 0.1958, 0.2467 -0.8051 0.1975, 0.2502 -0.8051 0.1998, 0.2512 -0.8051 0.2007, 0.2539 -0.8051 0.204, 0.2557 -0.8051 0.2079, 0.2567 -0.8051 0.2128, 0.2569 -0.8051 0.2162, 0.2562 -0.8051 0.2224, 0.2548 -0.8051 0.2264, 0.2528 -0.8051 0.2295, 0.2511 -0.8051 0.2312, 0.2425 -0.8051 0.2355, 0.2472 -0.8051 0.2338
            ]
        }
        coordIndex [
            0,1,2,-1,2,1,3,-1,2,3,4,-1,4,5,2,-1,2,5,6,-1,2,6,7,-1,7,8,2,-1,2,8,9,-1,2,9,10,-1,10,11,2,-1,2,11,12,-1,2,12,13,-1,13,14,2,-1,2,14,15,-1,2,15,16,-1,16,15,17,-1,
        ]
    }
}
Shape{
    appearance Appearance {
        material  Material 	{
            diffuseColor 1.0 1.0 1.0
            specularColor 0.5019607843137255 0.5019607843137255 0.5019607843137255
            ambientIntensity 1.0
            transparency 0.0
            shininess 0.5
        }
    }
    geometry IndexedFaceSet {
        ccw TRUE
        solid FALSE
        coord DEF co Coordinate {
            point [
                0.282 -0.8091 0.2097, 0.2799 -0.8091 0.2036, 0.3 -0.8091 0.2097, 0.3021 -0.8091 0.2036, 0.29 -0.8091 0.2318, 0.2874 -0.8091 0.2424, 0.2671 -0.8091 0.189, 0.2747 -0.8091 0.189, 0.2905 -0.8091 0.2334, 0.2909 -0.8091 0.2356, 0.2948 -0.8091 0.2424, 0.2911 -0.8091 0.2356, 0.2915 -0.8091 0.2333, 0.2919 -0.8091 0.2318, 0.3151 -0.8091 0.189, 0.3075 -0.8091 0.189, 0.2948 -0.8051 0.2424, 0.3151 -0.8051 0.189, 0.2874 -0.8051 0.2424, 0.2671 -0.8051 0.189, 0.2747 -0.8051 0.189, 0.2799 -0.8051 0.2036, 0.3021 -0.8051 0.2036, 0.3075 -0.8051 0.189, 0.282 -0.8051 0.2097, 0.3 -0.8051 0.2097, 0.2919 -0.8051 0.2318, 0.2911 -0.8051 0.2356, 0.2915 -0.8051 0.2333, 0.2909 -0.8051 0.2356, 0.29 -0.8051 0.2318, 0.2905 -0.8051 0.2334
            ]
        }
        coordIndex [
            0,1,2,-1,2,1,3,-1,4,5,0,-1,0,5,6,-1,0,6,1,-1,1,6,7,-1,4,8,5,-1,5,8,9,-1,5,9,10,-1,10,9,11,-1,10,11,12,-1,12,13,10,-1,10,13,2,-1,10,2,14,-1,14,2,3,-1,14,3,15,-1,10,14,16,-1,16,14,17,-1,5,10,18,-1,18,10,16,-1,6,5,19,-1,19,5,18,-1,7,6,20,-1,20,6,19,-1,1,7,21,-1,21,7,20,-1,3,1,22,-1,22,1,21,-1,15,3,23,-1,23,3,22,-1,14,15,17,-1,17,15,23,-1,0,2,24,-1,24,2,25,-1,2,13,25,-1,25,13,26,-1,11,27,28,-1,11,28,12,-1,12,28,26,-1,12,26,13,-1,11,9,27,-1,27,9,29,-1,4,30,31,-1,4,31,8,-1,8,31,29,-1,8,29,9,-1,4,0,30,-1,30,0,24,-1,
        ]
    }
}
Shape{
    appearance Appearance {
        material  Material 	{
            diffuseColor 0.25098039215686274 0.25098039215686274 0.25098039215686274
            specularColor 0.12549019607843137 0.12549019607843137 0.12549019607843137
            ambientIntensity 0.251
            transparency 0.0
            shininess 0.5
        }
    }
    geometry IndexedFaceSet {
        ccw TRUE
        solid FALSE
        coord DEF co Coordinate {
            point [
                0.2911 -0.8051 0.2356, 0.2909 -0.8051 0.2356, 0.2915 -0.8051 0.2333, 0.2905 -0.8051 0.2334, 0.2919 -0.8051 0.2318, 0.29 -0.8051 0.2318, 0.3 -0.8051 0.2097, 0.282 -0.8051 0.2097
            ]
        }
        coordIndex [
            0,1,2,-1,2,1,3,-1,2,3,4,-1,4,3,5,-1,4,5,6,-1,6,5,7,-1,
        ]
    }
}
Shape{
    appearance Appearance {
        material  Material 	{
            diffuseColor 1.0 1.0 1.0
            specularColor 0.5019607843137255 0.5019607843137255 0.5019607843137255
            ambientIntensity 1.0
            transparency 0.0
            shininess 0.5
        }
    }
    geometry IndexedFaceSet {
        ccw TRUE
        solid FALSE
        coord DEF co Coordinate {
            point [
                -0.2017 -0.8091 0.1815, -0.196 -0.8091 0.1745, -0.2051 -0.8091 0.215, -0.1384 -0.8091 0.18, -0.1339 -0.8091 0.1885, -0.1317 -0.8091 0.1979, -0.1796 -0.8091 0.1903, -0.1766 -0.8091 0.1882, -0.1886 -0.8091 0.1689, -0.1731 -0.8091 0.1869, -0.0332 -0.8091 0.2416, -0.0341 -0.8091 0.2342, -0.0116 -0.8091 0.2278, -0.0783 -0.8091 0.2336, -0.0901 -0.8091 0.2537, -0.1315 -0.8091 0.2055, -0.141 -0.8091 0.2272, -0.1315 -0.8091 0.2017, -0.1518 -0.8091 0.1682, -0.1442 -0.8091 0.1734, -0.2134 -0.8091 0.2201, -0.2121 -0.8091 0.1917, -0.2055 -0.8091 0.1896, -0.0658 -0.8091 0.2712, -0.0628 -0.8091 0.2712, -0.0472 -0.8091 0.2917, -0.0556 -0.8091 0.2703, -0.0449 -0.8091 0.2909, -0.049 -0.8091 0.2678, -0.0336 -0.8091 0.2852, -0.0234 -0.8091 0.2764, -0.1726 -0.8091 0.2837, -0.1698 -0.8091 0.2822, -0.1816 -0.8091 0.3099, -0.1645 -0.8091 0.2935, -0.1738 -0.8091 0.319, -0.1561 -0.8091 0.3038, -0.1649 -0.8091 0.3266, -0.1456 -0.8091 0.3116, -0.1557 -0.8091 0.3323, -0.1799 -0.8091 0.1652, -0.1709 -0.8091 0.1638, -0.1698 -0.8091 0.1866, -0.1694 -0.8091 0.1638, -0.1666 -0.8091 0.1869, -0.1603 -0.8091 0.1649, -0.1633 -0.8091 0.1881, -0.1603 -0.8091 0.19, -0.1578 -0.8091 0.1927, -0.0165 -0.8091 0.2158, -0.0367 -0.8091 0.2275, -0.0237 -0.8091 0.2059, -0.1382 -0.8091 0.3391, -0.1332 -0.8091 0.3168, -0.1193 -0.8091 0.3414, -0.0677 -0.8091 0.3217, -0.0809 -0.8091 0.3026, -0.0553 -0.8091 0.3074, -0.0728 -0.8091 0.292, -0.0675 -0.8091 0.2796, -0.2202 -0.8091 0.2271, -0.2358 -0.8091 0.2078, -0.2256 -0.8091 0.1988, -0.2267 -0.8091 0.2591, -0.2516 -0.8091 0.2538, -0.2279 -0.8091 0.2499, -0.2518 -0.8091 0.2492, -0.2274 -0.8091 0.2442, -0.2503 -0.8091 0.236, -0.2247 -0.8091 0.2349, -0.2453 -0.8091 0.2218, -0.2373 -0.8091 0.2095, -0.1821 -0.8091 0.1931, -0.1837 -0.8091 0.1962, -0.1845 -0.8091 0.1997, -0.156 -0.8091 0.2067, -0.1551 -0.8091 0.2032, -0.1551 -0.8091 0.1996, -0.156 -0.8091 0.196, -0.0431 -0.8091 0.2637, -0.0386 -0.8091 0.2587, -0.0158 -0.8091 0.2655, -0.0351 -0.8091 0.2522, -0.0113 -0.8091 0.2539, -0.0334 -0.8091 0.2449, -0.0096 -0.8091 0.242, -0.0097 -0.8091 0.2402, -0.0409 -0.8091 0.2215, -0.0414 -0.8091 0.221, -0.0345 -0.8091 0.1968, -0.047 -0.8091 0.2164, -0.0462 -0.8091 0.1913, -0.0537 -0.8091 0.2133, -0.0582 -0.8091 0.1888, -0.0605 -0.8091 0.212, -0.0806 -0.8091 0.1888, -0.0776 -0.8091 0.212, -0.0824 -0.8091 0.1891, -0.1811 -0.8091 0.2868, -0.1859 -0.8091 0.3104, -0.1899 -0.8091 0.2879, -0.1903 -0.8091 0.3107, -0.1938 -0.8091 0.2877, -0.2035 -0.8091 0.3092, -0.2032 -0.8091 0.2855, -0.2177 -0.8091 0.3042, -0.2116 -0.8091 0.281, -0.2305 -0.8091 0.2957, -0.2182 -0.8091 0.2751, -0.2339 -0.8091 0.2925, -0.2235 -0.8091 0.2676, -0.2422 -0.8091 0.2822, -0.2486 -0.8091 0.2687, -0.1206 -0.8091 0.3186, -0.1189 -0.8091 0.3186, -0.1037 -0.8091 0.3398, -0.1068 -0.8091 0.3172, -0.0846 -0.8091 0.3331, -0.0948 -0.8091 0.3128, -0.0841 -0.8091 0.3056, -0.1845 -0.8091 0.203, -0.1836 -0.8091 0.2067, -0.2009 -0.8091 0.2232, -0.1818 -0.8091 0.21, -0.1946 -0.8091 0.2304, -0.1793 -0.8091 0.2127, -0.1868 -0.8091 0.2358, -0.1763 -0.8091 0.2147, -0.1785 -0.8091 0.239, -0.173 -0.8091 0.2158, -0.1694 -0.8091 0.2401, -0.1698 -0.8091 0.2162, -0.1648 -0.8091 0.2398, -0.1667 -0.8091 0.2158, -0.1556 -0.8091 0.2375, -0.1632 -0.8091 0.2146, -0.1476 -0.8091 0.2332, -0.1601 -0.8091 0.2125, -0.1577 -0.8091 0.2098, -0.0795 -0.8091 0.2123, -0.0887 -0.8091 0.1929, -0.0875 -0.8091 0.1917, -0.0826 -0.8091 0.212, -0.0852 -0.8091 0.2111, -0.0916 -0.8091 0.2017, -0.0916 -0.8091 0.2006, -0.0913 -0.8091 0.1979, -0.0903 -0.8091 0.1953, -0.0783 -0.8091 0.2121, -0.0849 -0.8091 0.19, -0.0799 -0.8091 0.2124, -0.0876 -0.8091 0.2094, -0.0896 -0.8091 0.2072, -0.0909 -0.8091 0.2046, -0.0212 -0.8051 0.2733, -0.0158 -0.8051 0.2655, -0.0127 -0.8051 0.2576, -0.0113 -0.8051 0.2539, -0.0096 -0.8051 0.242, -0.0234 -0.8051 0.2764, -0.0336 -0.8051 0.2852, -0.0449 -0.8051 0.2909, -0.0472 -0.8051 0.2917, -0.0553 -0.8051 0.3074, -0.0677 -0.8051 0.3217, -0.0764 -0.8051 0.3275, -0.0846 -0.8051 0.3331, -0.1037 -0.8051 0.3398, -0.1193 -0.8051 0.3414, -0.1649 -0.8051 0.3266, -0.1634 -0.8051 0.3275, -0.1557 -0.8051 0.3323, -0.1382 -0.8051 0.3391, -0.1738 -0.8051 0.319, -0.1816 -0.8051 0.3099, -0.1859 -0.8051 0.3104, -0.1903 -0.8051 0.3107, -0.2035 -0.8051 0.3092, -0.2177 -0.8051 0.3042, -0.2305 -0.8051 0.2957, -0.2339 -0.8051 0.2925, -0.2422 -0.8051 0.2822, -0.2464 -0.8051 0.2733, -0.2486 -0.8051 0.2687, -0.2508 -0.8051 0.2576, -0.2516 -0.8051 0.2538, -0.2518 -0.8051 0.2492, -0.2503 -0.8051 0.236, -0.2453 -0.8051 0.2218, -0.2373 -0.8051 0.2095, -0.2358 -0.8051 0.2078, -0.2256 -0.8051 0.1988, -0.2121 -0.8051 0.1917, -0.2055 -0.8051 0.1896, -0.205 -0.8051 0.1886, -0.2017 -0.8051 0.1815, -0.196 -0.8051 0.1745, -0.1886 -0.8051 0.1689, -0.1851 -0.8051 0.1674, -0.1799 -0.8051 0.1652, -0.1709 -0.8051 0.1638, -0.1694 -0.8051 0.1638, -0.1315 -0.8051 0.2017, -0.1603 -0.8051 0.1649, -0.1537 -0.8051 0.1674, -0.1518 -0.8051 0.1682, -0.1442 -0.8051 0.1734, -0.1384 -0.8051 0.18, -0.1339 -0.8051 0.1885, -0.1339 -0.8051 0.1886, -0.1317 -0.8051 0.1979, -0.1315 -0.8051 0.2055, -0.0783 -0.8051 0.2336, -0.0901 -0.8051 0.2537, -0.141 -0.8051 0.2272, -0.1476 -0.8051 0.2332, -0.1556 -0.8051 0.2375, -0.1648 -0.8051 0.2398, -0.1694 -0.8051 0.2401, -0.1785 -0.8051 0.239, -0.1868 -0.8051 0.2358, -0.1946 -0.8051 0.2304, -0.2009 -0.8051 0.2232, -0.2051 -0.8051 0.215, -0.2134 -0.8051 0.2201, -0.2202 -0.8051 0.2271, -0.2247 -0.8051 0.2349, -0.2274 -0.8051 0.2442, -0.2279 -0.8051 0.2499, -0.2269 -0.8051 0.2576, -0.2267 -0.8051 0.2591, -0.2235 -0.8051 0.2676, -0.2196 -0.8051 0.2733, -0.2182 -0.8051 0.2751, -0.2116 -0.8051 0.281, -0.2032 -0.8051 0.2855, -0.1938 -0.8051 0.2877, -0.1899 -0.8051 0.2879, -0.1811 -0.8051 0.2868, -0.1726 -0.8051 0.2837, -0.1698 -0.8051 0.2822, -0.1645 -0.8051 0.2935, -0.1561 -0.8051 0.3038, -0.1456 -0.8051 0.3116, -0.1332 -0.8051 0.3168, -0.1206 -0.8051 0.3186, -0.1189 -0.8051 0.3186, -0.0658 -0.8051 0.2712, -0.0662 -0.8051 0.2733, -0.0675 -0.8051 0.2796, -0.0728 -0.8051 0.292, -0.0809 -0.8051 0.3026, -0.0841 -0.8051 0.3056, -0.0948 -0.8051 0.3128, -0.1068 -0.8051 0.3172, -0.0628 -0.8051 0.2712, -0.0556 -0.8051 0.2703, -0.049 -0.8051 0.2678, -0.0431 -0.8051 0.2637, -0.0386 -0.8051 0.2587, -0.038 -0.8051 0.2576, -0.0351 -0.8051 0.2522, -0.0334 -0.8051 0.2449, -0.0332 -0.8051 0.2416, -0.0341 -0.8051 0.2342, -0.0367 -0.8051 0.2275, -0.0409 -0.8051 0.2215, -0.0414 -0.8051 0.221, -0.047 -0.8051 0.2164, -0.0537 -0.8051 0.2133, -0.0605 -0.8051 0.212, -0.0776 -0.8051 0.212, -0.0783 -0.8051 0.2121, -0.0795 -0.8051 0.2123, -0.0799 -0.8051 0.2124, -0.0826 -0.8051 0.212, -0.0852 -0.8051 0.2111, -0.0876 -0.8051 0.2094, -0.0896 -0.8051 0.2072, -0.0909 -0.8051 0.2046, -0.0916 -0.8051 0.2017, -0.0916 -0.8051 0.2006, -0.0913 -0.8051 0.1979, -0.0903 -0.8051 0.1953, -0.0887 -0.8051 0.1929, -0.0875 -0.8051 0.1917, -0.0849 -0.8051 0.19, -0.0824 -0.8051 0.1891, -0.0806 -0.8051 0.1888, -0.0582 -0.8051 0.1888, -0.0462 -0.8051 0.1913, -0.0345 -0.8051 0.1968, -0.0237 -0.8051 0.2059, -0.0165 -0.8051 0.2158, -0.0116 -0.8051 0.2278, -0.0097 -0.8051 0.2402, -0.1698 -0.8051 0.2162, -0.1667 -0.8051 0.2158, -0.1632 -0.8051 0.2146, -0.1601 -0.8051 0.2125, -0.1577 -0.8051 0.2098, -0.156 -0.8051 0.2067, -0.1551 -0.8051 0.2032, -0.1551 -0.8051 0.1996, -0.156 -0.8051 0.196, -0.1578 -0.8051 0.1927, -0.1603 -0.8051 0.19, -0.1633 -0.8051 0.1881, -0.1666 -0.8051 0.1869, -0.1698 -0.8051 0.1866, -0.1731 -0.8051 0.1869, -0.1766 -0.8051 0.1882, -0.1796 -0.8051 0.1903, -0.1821 -0.8051 0.1931, -0.1837 -0.8051 0.1962, -0.1845 -0.8051 0.1997, -0.1845 -0.8051 0.203, -0.1836 -0.8051 0.2067, -0.1818 -0.8051 0.21, -0.1793 -0.8051 0.2127, -0.1763 -0.8051 0.2147, -0.173 -0.8051 0.2158
            ]
        }
        coordIndex [
            0,1,2,-1,3,4,5,-1,6,1,7,-1,7,1,8,-1,7,8,9,-1,10,11,12,-1,13,14,15,-1,15,14,16,-1,15,16,17,-1,17,16,18,-1,17,18,5,-1,5,18,19,-1,5,19,3,-1,20,21,2,-1,2,21,22,-1,2,22,0,-1,23,24,25,-1,25,24,26,-1,25,26,27,-1,27,26,28,-1,27,28,29,-1,29,28,30,-1,31,32,33,-1,33,32,34,-1,33,34,35,-1,35,34,36,-1,35,36,37,-1,37,36,38,-1,37,38,39,-1,8,40,9,-1,9,40,41,-1,9,41,42,-1,42,41,43,-1,42,43,44,-1,44,43,45,-1,44,45,46,-1,46,45,18,-1,46,18,47,-1,47,18,48,-1,12,11,49,-1,49,11,50,-1,49,50,51,-1,39,38,52,-1,52,38,53,-1,52,53,54,-1,55,56,57,-1,57,56,58,-1,57,58,25,-1,25,58,59,-1,25,59,23,-1,60,61,20,-1,20,61,62,-1,20,62,21,-1,63,64,65,-1,65,64,66,-1,65,66,67,-1,67,66,68,-1,67,68,69,-1,69,68,70,-1,69,70,60,-1,60,70,71,-1,60,71,61,-1,6,72,1,-1,1,72,73,-1,1,73,2,-1,2,73,74,-1,75,76,16,-1,16,76,77,-1,16,77,18,-1,18,77,78,-1,18,78,48,-1,28,79,30,-1,30,79,80,-1,30,80,81,-1,81,80,82,-1,81,82,83,-1,83,82,84,-1,83,84,85,-1,85,84,10,-1,85,10,86,-1,86,10,12,-1,50,87,51,-1,51,87,88,-1,51,88,89,-1,89,88,90,-1,89,90,91,-1,91,90,92,-1,91,92,93,-1,93,92,94,-1,93,94,95,-1,95,94,96,-1,95,96,97,-1,31,33,98,-1,98,33,99,-1,98,99,100,-1,100,99,101,-1,100,101,102,-1,102,101,103,-1,102,103,104,-1,104,103,105,-1,104,105,106,-1,106,105,107,-1,106,107,108,-1,108,107,109,-1,108,109,110,-1,110,109,111,-1,110,111,63,-1,63,111,112,-1,63,112,64,-1,53,113,54,-1,54,113,114,-1,54,114,115,-1,115,114,116,-1,115,116,117,-1,117,116,118,-1,117,118,55,-1,55,118,119,-1,55,119,56,-1,74,120,2,-1,2,120,121,-1,2,121,122,-1,122,121,123,-1,122,123,124,-1,124,123,125,-1,124,125,126,-1,126,125,127,-1,126,127,128,-1,128,127,129,-1,128,129,130,-1,130,129,131,-1,130,131,132,-1,132,131,133,-1,132,133,134,-1,134,133,135,-1,134,135,136,-1,136,135,137,-1,136,137,16,-1,16,137,138,-1,16,138,75,-1,139,140,141,-1,142,143,144,-1,145,146,139,-1,139,146,147,-1,139,147,140,-1,96,148,97,-1,97,148,139,-1,97,139,149,-1,149,139,141,-1,145,139,144,-1,144,139,150,-1,144,150,142,-1,143,151,144,-1,144,151,152,-1,144,152,153,-1,154,30,155,-1,155,30,81,-1,155,81,156,-1,156,81,83,-1,156,83,157,-1,157,83,85,-1,157,85,158,-1,154,159,30,-1,30,159,160,-1,30,160,29,-1,29,160,161,-1,29,161,27,-1,27,161,162,-1,27,162,25,-1,25,162,163,-1,25,163,57,-1,57,163,164,-1,57,164,55,-1,55,164,117,-1,117,164,165,-1,165,166,117,-1,117,166,167,-1,117,167,115,-1,115,167,168,-1,115,168,54,-1,169,37,170,-1,170,37,39,-1,170,39,171,-1,171,39,52,-1,171,52,172,-1,172,52,54,-1,172,54,168,-1,37,169,173,-1,37,173,35,-1,35,173,174,-1,35,174,33,-1,33,174,175,-1,33,175,99,-1,99,175,176,-1,99,176,101,-1,101,176,177,-1,101,177,103,-1,103,177,178,-1,103,178,105,-1,105,178,179,-1,105,179,107,-1,107,179,180,-1,107,180,109,-1,112,111,181,-1,181,111,109,-1,181,109,180,-1,181,182,112,-1,112,182,183,-1,112,183,64,-1,64,183,184,-1,184,185,64,-1,64,185,186,-1,64,186,66,-1,66,186,187,-1,66,187,68,-1,68,187,188,-1,68,188,70,-1,70,188,189,-1,70,189,71,-1,71,189,190,-1,71,190,61,-1,61,190,191,-1,61,191,62,-1,62,191,192,-1,62,192,21,-1,21,192,193,-1,21,193,22,-1,22,193,194,-1,22,194,0,-1,194,195,0,-1,0,195,196,-1,0,196,1,-1,1,196,197,-1,1,197,8,-1,8,197,198,-1,8,198,40,-1,198,199,40,-1,40,199,200,-1,40,200,41,-1,41,200,201,-1,41,201,43,-1,202,17,5,-1,43,201,203,-1,43,203,45,-1,45,203,204,-1,45,204,18,-1,204,205,18,-1,18,205,206,-1,18,206,19,-1,19,206,207,-1,19,207,3,-1,3,207,208,-1,3,208,4,-1,4,208,209,-1,4,209,5,-1,5,209,210,-1,5,210,202,-1,15,17,211,-1,211,17,202,-1,13,15,212,-1,212,15,211,-1,14,13,213,-1,213,13,212,-1,16,14,214,-1,214,14,213,-1,16,214,215,-1,16,215,136,-1,136,215,216,-1,136,216,134,-1,134,216,217,-1,134,217,132,-1,132,217,218,-1,132,218,130,-1,130,218,219,-1,130,219,128,-1,128,219,220,-1,128,220,126,-1,126,220,221,-1,126,221,124,-1,124,221,222,-1,124,222,122,-1,122,222,223,-1,122,223,2,-1,2,223,224,-1,2,224,20,-1,20,224,225,-1,20,225,60,-1,60,225,226,-1,60,226,69,-1,69,226,227,-1,69,227,67,-1,67,227,228,-1,67,228,65,-1,65,228,229,-1,65,229,63,-1,63,229,230,-1,63,230,231,-1,232,108,231,-1,231,108,110,-1,231,110,63,-1,232,233,108,-1,108,233,234,-1,108,234,106,-1,106,234,235,-1,106,235,104,-1,104,235,236,-1,104,236,102,-1,102,236,237,-1,102,237,100,-1,100,237,238,-1,100,238,98,-1,98,238,239,-1,98,239,31,-1,31,239,240,-1,31,240,32,-1,32,240,241,-1,32,241,34,-1,34,241,242,-1,34,242,36,-1,36,242,243,-1,36,243,38,-1,38,243,244,-1,38,244,53,-1,53,244,245,-1,53,245,113,-1,113,245,246,-1,113,246,114,-1,247,23,248,-1,248,23,59,-1,248,59,249,-1,249,59,58,-1,249,58,250,-1,250,58,56,-1,250,56,251,-1,251,56,119,-1,251,119,252,-1,252,119,118,-1,252,118,253,-1,253,118,116,-1,253,116,254,-1,254,116,114,-1,254,114,246,-1,24,23,255,-1,255,23,247,-1,24,255,256,-1,24,256,26,-1,26,256,257,-1,26,257,28,-1,28,257,258,-1,28,258,79,-1,79,258,259,-1,79,259,80,-1,80,259,260,-1,80,260,82,-1,260,261,82,-1,82,261,262,-1,82,262,84,-1,84,262,263,-1,84,263,10,-1,10,263,264,-1,10,264,11,-1,11,264,265,-1,11,265,50,-1,50,265,266,-1,50,266,87,-1,87,266,267,-1,87,267,88,-1,88,267,268,-1,88,268,90,-1,90,268,269,-1,90,269,92,-1,92,269,270,-1,92,270,94,-1,96,94,271,-1,271,94,270,-1,96,271,272,-1,96,272,148,-1,148,272,273,-1,148,273,139,-1,139,273,274,-1,139,274,150,-1,150,274,275,-1,150,275,142,-1,142,275,276,-1,142,276,143,-1,143,276,277,-1,143,277,151,-1,151,277,278,-1,151,278,152,-1,152,278,279,-1,152,279,153,-1,153,279,280,-1,153,280,144,-1,144,280,281,-1,144,281,145,-1,145,281,282,-1,145,282,146,-1,146,282,283,-1,146,283,147,-1,147,283,284,-1,147,284,140,-1,140,284,285,-1,140,285,141,-1,141,285,286,-1,141,286,149,-1,149,286,287,-1,149,287,97,-1,97,287,288,-1,97,288,95,-1,93,95,289,-1,289,95,288,-1,93,289,290,-1,93,290,91,-1,91,290,291,-1,91,291,89,-1,89,291,292,-1,89,292,51,-1,51,292,293,-1,51,293,49,-1,49,293,294,-1,49,294,12,-1,12,294,295,-1,12,295,86,-1,86,295,158,-1,86,158,85,-1,131,296,297,-1,131,297,133,-1,133,297,298,-1,133,298,135,-1,135,298,299,-1,135,299,137,-1,137,299,300,-1,137,300,138,-1,138,300,301,-1,138,301,75,-1,75,301,302,-1,75,302,76,-1,76,302,303,-1,76,303,77,-1,77,303,304,-1,77,304,78,-1,78,304,305,-1,78,305,48,-1,48,305,306,-1,48,306,47,-1,47,306,307,-1,47,307,46,-1,46,307,308,-1,46,308,44,-1,44,308,309,-1,44,309,42,-1,42,309,310,-1,42,310,9,-1,9,310,311,-1,9,311,7,-1,7,311,312,-1,7,312,6,-1,6,312,313,-1,6,313,72,-1,72,313,314,-1,72,314,73,-1,73,314,315,-1,73,315,74,-1,74,315,316,-1,74,316,120,-1,120,316,317,-1,120,317,121,-1,121,317,318,-1,121,318,123,-1,123,318,319,-1,123,319,125,-1,125,319,320,-1,125,320,127,-1,127,320,321,-1,127,321,129,-1,129,321,296,-1,129,296,131,-1,
        ]
    }
}
Shape{
    appearance Appearance {
        material  Material 	{
            diffuseColor 0.25098039215686274 0.25098039215686274 0.25098039215686274
            specularColor 0.12549019607843137 0.12549019607843137 0.12549019607843137
            ambientIntensity 0.251
            transparency 0.0
            shininess 0.5
        }
    }
    geometry IndexedFaceSet {
        ccw TRUE
        solid FALSE
        coord DEF co Coordinate {
            point [
                -0.173 -0.8051 0.2158, -0.1698 -0.8051 0.1866, -0.1698 -0.8051 0.2162, -0.1666 -0.8051 0.1869, -0.1667 -0.8051 0.2158, -0.1845 -0.8051 0.1997, -0.1845 -0.8051 0.203, -0.1763 -0.8051 0.2147, -0.1603 -0.8051 0.19, -0.1577 -0.8051 0.2098, -0.1601 -0.8051 0.2125, -0.1793 -0.8051 0.2127, -0.1818 -0.8051 0.21, -0.1836 -0.8051 0.2067, -0.1837 -0.8051 0.1962, -0.1821 -0.8051 0.1931, -0.1796 -0.8051 0.1903, -0.1633 -0.8051 0.1881, -0.1632 -0.8051 0.2146, -0.1766 -0.8051 0.1882, -0.1731 -0.8051 0.1869, -0.156 -0.8051 0.196, -0.1551 -0.8051 0.1996, -0.1578 -0.8051 0.1927, -0.1551 -0.8051 0.2032, -0.156 -0.8051 0.2067
            ]
        }
        coordIndex [
            0,1,2,-1,2,1,3,-1,2,3,4,-1,5,0,6,-1,6,0,7,-1,8,9,10,-1,7,11,6,-1,6,11,12,-1,6,12,13,-1,5,14,0,-1,0,14,15,-1,0,15,16,-1,3,17,4,-1,4,17,8,-1,4,8,18,-1,18,8,10,-1,16,19,0,-1,0,19,20,-1,0,20,1,-1,21,22,23,-1,23,22,24,-1,23,24,8,-1,8,24,25,-1,8,25,9,-1,
        ]
    }
}