#VRML V2.0 utf8
# 3D model generated by easyeda2kicad.py (https://github.com/uPesy/easyeda2kicad.py)

Shape{
    appearance Appearance {
        material  Material 	{
            diffuseColor 0.7529411764705882 0.7529411764705882 0.7529411764705882
            specularColor 0.3764705882352941 0.3764705882352941 0.3764705882352941
            ambientIntensity 0.7529
            transparency 0.0
            shininess 0.5
        }
    }
    geometry IndexedFaceSet {
        ccw TRUE
        solid FALSE
        coord DEF co Coordinate {
            point [
                0.2756 -0.2343 0.0, 0.2756 0.2382 0.0, 0.2756 -0.2343 0.0197, 0.2756 0.2382 0.0197, 0.1181 -0.2343 0.0, 0.1181 -0.2343 0.0197, 0.1181 0.2382 0.0, 0.1181 0.2382 0.0197, -0.1181 0.2382 0.0, -0.2756 0.2382 0.0, -0.1181 0.2382 0.0197, -0.2756 0.2382 0.0197, -0.1181 -0.2343 0.0, -0.1181 -0.2343 0.0197, -0.2756 -0.2343 0.0, -0.2756 -0.2343 0.0197
            ]
        }
        coordIndex [
            0,1,2,-1,2,1,3,-1,4,0,5,-1,5,0,2,-1,6,4,7,-1,7,4,5,-1,1,6,3,-1,3,6,7,-1,4,6,0,-1,0,6,1,-1,7,5,3,-1,3,5,2,-1,8,9,10,-1,10,9,11,-1,12,8,13,-1,13,8,10,-1,14,12,15,-1,15,12,13,-1,9,14,11,-1,11,14,15,-1,12,14,8,-1,8,14,9,-1,15,13,11,-1,11,13,10,-1,
        ]
    }
}
Shape{
    appearance Appearance {
        material  Material 	{
            diffuseColor 0.25098039215686274 0.25098039215686274 0.25098039215686274
            specularColor 0.12549019607843137 0.12549019607843137 0.12549019607843137
            ambientIntensity 0.251
            transparency 0.0
            shininess 0.5
        }
    }
    geometry IndexedFaceSet {
        ccw TRUE
        solid FALSE
        coord DEF co Coordinate {
            point [
                -0.179 -0.2343 0.1714, -0.179 -0.2343 0.1651, -0.1636 -0.2343 0.1651, -0.179 -0.2343 0.1968, -0.179 -0.2343 0.1922, -0.1636 -0.2343 0.1922, -0.1575 -0.2343 0.213, -0.1563 -0.2343 0.2131, -0.1627 -0.2343 0.2131, -0.1534 -0.2343 0.1969, -0.1544 -0.2343 0.1968, -0.1491 -0.2343 0.1968, -0.1461 -0.2343 0.2112, -0.1461 -0.2343 0.206, -0.1418 -0.2343 0.206, -0.1451 -0.2343 0.1715, -0.1458 -0.2343 0.1714, -0.1418 -0.2343 0.1714, -0.1486 -0.2343 0.1715, -0.1491 -0.2343 0.1717, -0.1491 -0.2343 0.1714, -0.1261 -0.2343 0.1788, -0.1261 -0.2343 0.1734, -0.1231 -0.2343 0.1734, -0.2582 -0.2343 0.1909, -0.2579 -0.2343 0.1922, -0.2669 -0.2343 0.1922, -0.1929 -0.2343 0.2005, -0.1898 -0.2343 0.1979, -0.179 -0.2343 0.2131, -0.2056 -0.2343 0.2131, -0.203 -0.2343 0.2114, -0.1993 -0.2343 0.2071, -0.1969 -0.2343 0.2024, -0.1963 -0.2343 0.2022, -0.2138 -0.2343 0.2168, -0.2081 -0.2343 0.2148, -0.179 -0.2343 0.2559, -0.2294 -0.2343 0.2146, -0.2242 -0.2343 0.2166, -0.2669 -0.2343 0.2559, -0.2185 -0.2343 0.2173, -0.2529 -0.2343 0.2026, -0.2519 -0.2343 0.2035, -0.2669 -0.2343 0.2131, -0.2481 -0.2343 0.2061, -0.2439 -0.2343 0.2076, -0.2398 -0.2343 0.2081, -0.2317 -0.2343 0.2131, -0.2322 -0.2343 0.2129, -0.2348 -0.2343 0.2106, -0.2385 -0.2343 0.208, -0.2372 -0.2343 0.2078, -0.2669 -0.2343 0.1968, -0.2573 -0.2343 0.1954, -0.2566 -0.2343 0.1968, -0.2554 -0.2343 0.1994, -0.2443 -0.2343 0.1718, -0.2462 -0.2343 0.1723, -0.2669 -0.2343 0.1714, -0.2503 -0.2343 0.1744, -0.2535 -0.2343 0.1772, -0.2538 -0.2343 0.1776, -0.2562 -0.2343 0.1813, -0.2578 -0.2343 0.1856, -0.2582 -0.2343 0.1896, -0.2393 -0.2343 0.1655, -0.2415 -0.2343 0.1672, -0.2669 -0.2343 0.1651, -0.2432 -0.2343 0.1693, -0.2442 -0.2343 0.1714, -0.2335 -0.2343 0.164, -0.2669 -0.2343 0.0197, -0.2308 -0.2343 0.1643, -0.179 -0.2343 0.0197, -0.2288 -0.2343 0.1651, -0.234 -0.2343 0.164, -0.2367 -0.2343 0.1644, -0.2382 -0.2343 0.1651, -0.2229 -0.2343 0.1714, -0.2229 -0.2343 0.1714, -0.2242 -0.2343 0.1689, -0.226 -0.2343 0.1669, -0.2282 -0.2343 0.1653, -0.1861 -0.2343 0.1911, -0.1856 -0.2343 0.1875, -0.2083 -0.2343 0.1782, -0.2075 -0.2343 0.1785, -0.2062 -0.2343 0.185, -0.1898 -0.2343 0.1766, -0.193 -0.2343 0.174, -0.225 -0.2343 0.183, -0.2097 -0.2343 0.191, -0.227 -0.2343 0.1848, -0.2294 -0.2343 0.1861, -0.1876 -0.2343 0.1797, -0.1927 -0.2343 0.1883, -0.1932 -0.2343 0.1905, -0.1941 -0.2343 0.1922, -0.2508 -0.2343 0.1922, -0.209 -0.2343 0.1777, -0.1861 -0.2343 0.1833, -0.2067 -0.2343 0.1786, -0.2065 -0.2343 0.1786, -0.2062 -0.2343 0.1785, -0.2501 -0.2343 0.1853, -0.2488 -0.2343 0.183, -0.243 -0.2343 0.1818, -0.2467 -0.2343 0.1809, -0.2442 -0.2343 0.1794, -0.2388 -0.2343 0.1856, -0.2411 -0.2343 0.184, -0.2511 -0.2343 0.1899, -0.2509 -0.2343 0.1881, -0.2362 -0.2343 0.1866, -0.2335 -0.2343 0.1869, -0.2321 -0.2343 0.1868, -0.195 -0.2343 0.1813, -0.1937 -0.2343 0.1831, -0.1929 -0.2343 0.1851, -0.1927 -0.2343 0.1873, -0.1965 -0.2343 0.1723, -0.2002 -0.2343 0.1715, -0.2069 -0.2343 0.1715, -0.2075 -0.2343 0.1716, -0.2083 -0.2343 0.1719, -0.209 -0.2343 0.1724, -0.2093 -0.2343 0.1727, -0.2102 -0.2343 0.1751, -0.2102 -0.2343 0.1754, -0.2221 -0.2343 0.1765, -0.21 -0.2343 0.1763, -0.2095 -0.2343 0.1771, -0.206 -0.2343 0.1785, -0.2009 -0.2343 0.1785, -0.1988 -0.2343 0.1789, -0.2098 -0.2343 0.1734, -0.2101 -0.2343 0.1742, -0.2222 -0.2343 0.1742, -0.2221 -0.2343 0.1754, -0.1968 -0.2343 0.1798, -0.1951 -0.2343 0.1812, -0.2024 -0.2343 0.1962, -0.2498 -0.2343 0.1951, -0.2507 -0.2343 0.1926, -0.2015 -0.2343 0.1962, -0.1943 -0.2343 0.1925, -0.1956 -0.2343 0.194, -0.1974 -0.2343 0.1952, -0.1994 -0.2343 0.196, -0.2072 -0.2343 0.2059, -0.2078 -0.2343 0.2065, -0.2336 -0.2343 0.1995, -0.2047 -0.2343 0.2028, -0.2486 -0.2343 0.1968, -0.2345 -0.2343 0.2, -0.2026 -0.2343 0.1968, -0.203 -0.2343 0.1991, -0.2111 -0.2343 0.2087, -0.2146 -0.2343 0.21, -0.232 -0.2343 0.203, -0.2184 -0.2343 0.2105, -0.237 -0.2343 0.2009, -0.2397 -0.2343 0.2012, -0.2408 -0.2343 0.2012, -0.2226 -0.2343 0.2099, -0.2263 -0.2343 0.2084, -0.2295 -0.2343 0.2061, -0.2437 -0.2343 0.2005, -0.2462 -0.2343 0.1992, -0.2482 -0.2343 0.1974, -0.1891 -0.2343 0.1968, -0.1875 -0.2343 0.1946, -0.1865 -0.2343 0.1922, -0.1195 -0.2343 0.1734, -0.1195 -0.2343 0.1716, -0.118 -0.2343 0.1714, -0.1231 -0.2343 0.1714, -0.118 -0.2343 0.1922, -0.1199 -0.2343 0.1876, -0.1199 -0.2343 0.1858, -0.1203 -0.2343 0.1806, -0.1203 -0.2343 0.1788, -0.1231 -0.2343 0.1788, -0.1231 -0.2343 0.1858, -0.1231 -0.2343 0.1806, -0.1261 -0.2343 0.1858, -0.1261 -0.2343 0.1806, -0.1231 -0.2343 0.1716, -0.1281 -0.2343 0.1716, -0.1292 -0.2343 0.1714, -0.1281 -0.2343 0.1876, -0.1612 -0.2343 0.177, -0.1608 -0.2343 0.1803, -0.1616 -0.2343 0.1763, -0.1619 -0.2343 0.1756, -0.1564 -0.2343 0.1816, -0.1571 -0.2343 0.1816, -0.1582 -0.2343 0.1784, -0.15 -0.2343 0.1741, -0.1528 -0.2343 0.1789, -0.15 -0.2343 0.172, -0.1528 -0.2343 0.1716, -0.1558 -0.2343 0.1722, -0.1565 -0.2343 0.1717, -0.1548 -0.2343 0.1716, -0.1572 -0.2343 0.1714, -0.1606 -0.2343 0.1775, -0.1598 -0.2343 0.1779, -0.1594 -0.2343 0.1811, -0.1582 -0.2343 0.1815, -0.1627 -0.2343 0.1651, -0.1595 -0.2343 0.1714, -0.1627 -0.2343 0.1714, -0.1595 -0.2343 0.1714, -0.1603 -0.2343 0.1717, -0.1589 -0.2343 0.183, -0.1627 -0.2343 0.1922, -0.1604 -0.2343 0.1824, -0.1608 -0.2343 0.1822, -0.161 -0.2343 0.1722, -0.1612 -0.2343 0.1724, -0.1616 -0.2343 0.173, -0.1493 -0.2343 0.1736, -0.1491 -0.2343 0.1735, -0.1491 -0.2343 0.1778, -0.1548 -0.2343 0.1733, -0.1548 -0.2343 0.1733, -0.1551 -0.2343 0.1729, -0.1618 -0.2343 0.1737, -0.1619 -0.2343 0.1746, -0.1499 -0.2343 0.1791, -0.153 -0.2343 0.1806, -0.15 -0.2343 0.1799, -0.1548 -0.2343 0.1788, -0.1548 -0.2343 0.1797, -0.155 -0.2343 0.1804, -0.1553 -0.2343 0.1809, -0.1569 -0.2343 0.1833, -0.1555 -0.2343 0.1831, -0.1547 -0.2343 0.1828, -0.1491 -0.2343 0.1778, -0.1495 -0.2343 0.1781, -0.1497 -0.2343 0.1785, -0.1556 -0.2343 0.1812, -0.1559 -0.2343 0.1814, -0.1499 -0.2343 0.1806, -0.1497 -0.2343 0.1813, -0.1533 -0.2343 0.1815, -0.1493 -0.2343 0.1818, -0.1537 -0.2343 0.1821, -0.1541 -0.2343 0.1824, -0.1482 -0.2343 0.1714, -0.1491 -0.2343 0.1651, -0.1469 -0.2343 0.1713, -0.1429 -0.2343 0.1828, -0.1429 -0.2343 0.1808, -0.1491 -0.2343 0.182, -0.1491 -0.2343 0.1922, -0.1487 -0.2343 0.1824, -0.1483 -0.2343 0.1827, -0.1424 -0.2343 0.1739, -0.1427 -0.2343 0.1733, -0.143 -0.2343 0.1727, -0.1472 -0.2343 0.1831, -0.1456 -0.2343 0.1833, -0.1418 -0.2343 0.1922, -0.1442 -0.2343 0.1832, -0.143 -0.2343 0.1766, -0.1426 -0.2343 0.176, -0.1424 -0.2343 0.1754, -0.1423 -0.2343 0.1747, -0.1436 -0.2343 0.1722, -0.1441 -0.2343 0.1719, -0.1458 -0.2343 0.1816, -0.1464 -0.2343 0.1816, -0.148 -0.2343 0.1801, -0.1469 -0.2343 0.1815, -0.1474 -0.2343 0.1812, -0.1479 -0.2343 0.1798, -0.1479 -0.2343 0.1795, -0.1477 -0.2343 0.1793, -0.1475 -0.2343 0.179, -0.1468 -0.2343 0.1786, -0.1444 -0.2343 0.1815, -0.1456 -0.2343 0.1781, -0.1432 -0.2343 0.181, -0.1448 -0.2343 0.1777, -0.1435 -0.2343 0.177, -0.1477 -0.2343 0.181, -0.1478 -0.2343 0.1807, -0.1479 -0.2343 0.1804, -0.1481 -0.2343 0.1731, -0.147 -0.2343 0.1766, -0.1482 -0.2343 0.1772, -0.1467 -0.2343 0.1729, -0.1467 -0.2343 0.1729, -0.1457 -0.2343 0.1761, -0.1456 -0.2343 0.1731, -0.1444 -0.2343 0.1745, -0.1444 -0.2343 0.1747, -0.1451 -0.2343 0.1733, -0.1449 -0.2343 0.1734, -0.1447 -0.2343 0.1736, -0.1445 -0.2343 0.1738, -0.1444 -0.2343 0.1741, -0.1445 -0.2343 0.1751, -0.1446 -0.2343 0.1753, -0.1449 -0.2343 0.1756, -0.1121 -0.2343 0.2014, -0.118 -0.2343 0.2014, -0.1105 -0.2343 0.197, -0.118 -0.2343 0.1968, -0.1082 -0.2343 0.197, 0.2756 -0.2343 0.1968, 0.2756 -0.2343 0.2131, -0.1143 -0.2343 0.213, -0.118 -0.2343 0.2131, -0.1188 -0.2343 0.2014, -0.1203 -0.2343 0.197, -0.1231 -0.2343 0.1968, -0.1226 -0.2343 0.197, -0.1231 -0.2343 0.2131, -0.118 -0.2343 0.2091, -0.1165 -0.2343 0.213, -0.1292 -0.2343 0.1968, -0.1294 -0.2343 0.1973, -0.1321 -0.2343 0.197, -0.132 -0.2343 0.213, -0.1292 -0.2343 0.2131, -0.1381 -0.2343 0.2131, -0.1381 -0.2343 0.1968, -0.1365 -0.2343 0.197, -0.1365 -0.2343 0.213, -0.1239 -0.2343 0.2023, -0.1247 -0.2343 0.2006, -0.1254 -0.2343 0.2103, -0.1244 -0.2343 0.2089, -0.1259 -0.2343 0.1992, -0.1276 -0.2343 0.198, -0.1292 -0.2343 0.1974, -0.1259 -0.2343 0.2109, -0.1295 -0.2343 0.2127, -0.1292 -0.2343 0.2126, -0.1276 -0.2343 0.212, -0.1238 -0.2343 0.2074, -0.1235 -0.2343 0.2052, -0.1236 -0.2343 0.2042, -0.1418 -0.2343 0.2131, -0.1399 -0.2343 0.213, -0.1418 -0.2343 0.213, -0.1399 -0.2343 0.2112, -0.1396 -0.2343 0.1988, -0.1396 -0.2343 0.197, -0.1418 -0.2343 0.1968, -0.1461 -0.2343 0.1988, -0.1418 -0.2343 0.1988, -0.1461 -0.2343 0.2042, -0.1418 -0.2343 0.2042, -0.1404 -0.2343 0.2042, -0.1404 -0.2343 0.206, -0.1418 -0.2343 0.2112, -0.1482 -0.2343 0.213, -0.1491 -0.2343 0.2131, -0.1482 -0.2343 0.197, -0.1514 -0.2343 0.2126, -0.1531 -0.2343 0.2131, -0.1535 -0.2343 0.2131, -0.1418 -0.2343 0.197, -0.1514 -0.2343 0.2105, -0.1517 -0.2343 0.1975, -0.1548 -0.2343 0.1986, -0.153 -0.2343 0.1989, -0.1514 -0.2343 0.1996, -0.1514 -0.2343 0.1976, -0.1532 -0.2343 0.2112, -0.1552 -0.2343 0.2114, -0.1612 -0.2343 0.2048, -0.1604 -0.2343 0.2013, -0.1596 -0.2343 0.2002, -0.1593 -0.2343 0.1999, -0.1583 -0.2343 0.1992, -0.1571 -0.2343 0.1987, -0.1555 -0.2343 0.1986, -0.1595 -0.2343 0.2096, -0.1604 -0.2343 0.2084, -0.1584 -0.2343 0.2105, -0.1572 -0.2343 0.2111, -0.1558 -0.2343 0.2114, -0.1609 -0.2343 0.207, -0.1516 -0.2343 0.2105, -0.1612 -0.2343 0.2042, -0.1609 -0.2343 0.2026, -0.1552 -0.2343 0.2133, -0.1627 -0.2343 0.2559, -0.1491 -0.2343 0.2559, -0.1552 -0.2343 0.2133, -0.1622 -0.2343 0.2094, -0.1611 -0.2343 0.2109, -0.1607 -0.2343 0.2113, -0.1592 -0.2343 0.2123, -0.1627 -0.2343 0.2011, -0.1631 -0.2343 0.2021, -0.1636 -0.2343 0.1968, -0.1634 -0.2343 0.2047, -0.1634 -0.2343 0.2055, -0.1636 -0.2343 0.2131, -0.163 -0.2343 0.2076, -0.1627 -0.2343 0.2084, -0.16 -0.2343 0.1978, -0.1613 -0.2343 0.1989, -0.1627 -0.2343 0.1968, -0.1624 -0.2343 0.2004, -0.1558 -0.2343 0.1967, -0.1568 -0.2343 0.1968, -0.1572 -0.2343 0.1968, -0.1585 -0.2343 0.1971, -0.1573 -0.2343 0.1714, -0.1583 -0.2343 0.1713, -0.1324 -0.2343 0.183, -0.1303 -0.2343 0.183, -0.1292 -0.2343 0.1922, -0.1231 -0.2343 0.1876, -0.1231 -0.2343 0.1922, -0.1349 -0.2343 0.1714, -0.136 -0.2343 0.1744, -0.1358 -0.2343 0.1735, -0.1357 -0.2343 0.1735, -0.1381 -0.2343 0.1922, -0.1381 -0.2343 0.1802, -0.1355 -0.2343 0.1744, -0.1356 -0.2343 0.1739, -0.1381 -0.2343 0.1714, -0.1381 -0.2343 0.1748, -0.1413 -0.2343 0.183, -0.139 -0.2343 0.183, -0.1368 -0.2343 0.1716, -0.1369 -0.2343 0.1714, -0.1377 -0.2343 0.1695, -0.1418 -0.2343 0.1651, -0.1409 -0.2343 0.1664, -0.1409 -0.2343 0.1681, -0.1404 -0.2343 0.168, -0.1397 -0.2343 0.1679, -0.1397 -0.2343 0.1679, -0.1392 -0.2343 0.168, -0.1387 -0.2343 0.1682, -0.1384 -0.2343 0.1684, -0.1381 -0.2343 0.1688, -0.1381 -0.2343 0.1688, -0.1381 -0.2343 0.1666, -0.1387 -0.2343 0.1663, -0.1381 -0.2343 0.1651, -0.1396 -0.2343 0.1662, -0.14 -0.2343 0.1662, -0.1292 -0.2343 0.1651, -0.1372 -0.2343 0.1671, -0.1379 -0.2343 0.1666, -0.1355 -0.2343 0.1699, -0.1364 -0.2343 0.1681, -0.2756 -0.2343 0.0197, -0.2756 -0.2343 0.1651, -0.2756 -0.2343 0.1714, -0.2756 -0.2343 0.1922, -0.2756 -0.2343 0.1968, -0.2756 -0.2343 0.2131, -0.2756 -0.2343 0.2559, -0.164 -0.2343 0.1988, -0.164 -0.2343 0.197, -0.1725 -0.2343 0.197, -0.1704 -0.2343 0.213, -0.1704 -0.2343 0.1988, -0.1725 -0.2343 0.213, -0.1636 -0.2343 0.1714, -0.1639 -0.2343 0.1716, -0.1725 -0.2343 0.1716, -0.1639 -0.2343 0.1734, -0.1642 -0.2343 0.1858, -0.1704 -0.2343 0.1788, -0.1704 -0.2343 0.1734, -0.1647 -0.2343 0.1788, -0.1647 -0.2343 0.1806, -0.1704 -0.2343 0.1806, -0.1704 -0.2343 0.1858, -0.1725 -0.2343 0.1876, -0.1642 -0.2343 0.1876, -0.1636 -0.2343 0.2559, -0.1418 -0.2343 0.2559, -0.1381 -0.2343 0.2559, -0.1292 -0.2343 0.2559, -0.1231 -0.2343 0.2559, -0.118 -0.2343 0.2559, 0.2756 -0.2343 0.2559, -0.0921 -0.2343 0.176, -0.0987 -0.2343 0.176, -0.1003 -0.2343 0.1716, -0.1165 -0.2343 0.1716, -0.1165 -0.2343 0.1876, -0.1121 -0.2343 0.1716, -0.0904 -0.2343 0.1716, -0.0882 -0.2343 0.1716, 0.2756 -0.2343 0.1714, -0.0943 -0.2343 0.1876, 0.2756 -0.2343 0.1922, -0.1026 -0.2343 0.1716, -0.0965 -0.2343 0.1876, -0.1047 -0.2343 0.1752, -0.1059 -0.2343 0.1738, -0.1075 -0.2343 0.1726, -0.1094 -0.2343 0.1719, -0.1059 -0.2343 0.1855, -0.1053 -0.2343 0.1849, -0.1043 -0.2343 0.1835, -0.1037 -0.2343 0.182, -0.1119 -0.2343 0.1876, -0.1095 -0.2343 0.1873, -0.1075 -0.2343 0.1866, -0.1035 -0.2343 0.1798, -0.1035 -0.2343 0.1788, -0.1039 -0.2343 0.1769, -0.1231 -0.2343 0.1651, -0.118 -0.2343 0.1651, 0.2756 -0.2343 0.1651, -0.1636 -0.2343 0.0197, -0.1627 -0.2343 0.0197, -0.1491 -0.2343 0.0197, -0.1418 -0.2343 0.0197, -0.1381 -0.2343 0.0197, -0.1292 -0.2343 0.0197, -0.1231 -0.2343 0.0197, -0.118 -0.2343 0.0197, 0.2756 -0.2343 0.0197, 0.2756 0.2382 0.2559, 0.2756 0.2382 0.0197, -0.2756 0.2382 0.2559, -0.2756 0.2382 0.0197
            ]
        }
        coordIndex [
            0,1,2,-1,3,4,5,-1,6,7,8,-1,9,10,11,-1,12,13,14,-1,15,16,17,-1,18,19,20,-1,21,22,23,-1,24,25,26,-1,27,28,29,-1,29,28,3,-1,30,31,29,-1,29,31,32,-1,32,33,29,-1,29,33,34,-1,29,34,27,-1,35,36,37,-1,38,39,40,-1,40,39,37,-1,37,39,41,-1,37,41,35,-1,42,43,44,-1,43,45,44,-1,44,45,46,-1,44,46,47,-1,38,40,48,-1,48,40,44,-1,48,44,49,-1,49,44,47,-1,49,47,50,-1,50,47,51,-1,50,51,52,-1,26,25,53,-1,25,54,53,-1,53,54,55,-1,53,55,44,-1,44,55,56,-1,44,56,42,-1,57,58,59,-1,58,60,59,-1,59,60,61,-1,59,61,62,-1,62,63,59,-1,59,63,64,-1,59,64,26,-1,26,64,65,-1,26,65,24,-1,66,67,68,-1,68,67,69,-1,68,69,59,-1,59,69,70,-1,59,70,57,-1,71,72,73,-1,73,72,74,-1,73,74,75,-1,71,76,72,-1,72,76,77,-1,72,77,68,-1,68,77,78,-1,68,78,66,-1,0,79,1,-1,1,79,80,-1,1,80,81,-1,81,82,1,-1,1,82,83,-1,1,83,75,-1,84,85,4,-1,86,87,88,-1,89,90,0,-1,91,92,93,-1,93,92,94,-1,89,0,95,-1,96,97,92,-1,92,97,98,-1,92,98,99,-1,86,88,100,-1,4,85,0,-1,0,85,101,-1,0,101,95,-1,87,102,88,-1,88,102,103,-1,88,103,104,-1,105,106,107,-1,107,106,108,-1,107,108,109,-1,110,99,111,-1,111,99,112,-1,111,112,107,-1,107,112,113,-1,107,113,105,-1,110,114,99,-1,99,114,115,-1,99,115,92,-1,92,115,116,-1,92,116,94,-1,117,118,88,-1,88,118,119,-1,88,119,92,-1,92,119,120,-1,92,120,96,-1,90,121,0,-1,0,121,122,-1,0,122,79,-1,79,122,123,-1,79,123,124,-1,124,125,79,-1,79,125,126,-1,79,126,127,-1,128,129,130,-1,130,129,131,-1,130,131,88,-1,88,131,132,-1,88,132,100,-1,104,133,88,-1,88,133,134,-1,88,134,135,-1,127,136,79,-1,79,136,137,-1,79,137,138,-1,138,137,128,-1,138,128,139,-1,139,128,130,-1,135,140,88,-1,88,140,141,-1,88,141,117,-1,142,143,144,-1,144,99,142,-1,142,99,98,-1,142,98,145,-1,145,98,146,-1,146,147,145,-1,145,147,148,-1,145,148,149,-1,150,151,152,-1,150,152,153,-1,154,152,155,-1,143,142,154,-1,154,142,156,-1,154,156,152,-1,152,156,157,-1,152,157,153,-1,151,158,152,-1,152,158,159,-1,152,159,160,-1,160,159,161,-1,155,162,154,-1,154,162,163,-1,154,163,164,-1,165,166,161,-1,161,166,167,-1,161,167,160,-1,168,169,164,-1,164,169,170,-1,164,170,154,-1,28,171,3,-1,3,171,172,-1,3,172,4,-1,4,172,173,-1,4,173,84,-1,174,175,176,-1,176,175,177,-1,178,179,180,-1,181,182,174,-1,174,182,23,-1,23,182,183,-1,23,183,21,-1,180,184,185,-1,185,184,186,-1,185,186,187,-1,175,188,177,-1,177,188,189,-1,177,189,190,-1,190,189,191,-1,192,193,194,-1,194,193,195,-1,196,197,198,-1,199,200,201,-1,201,200,202,-1,201,202,19,-1,203,204,205,-1,205,204,206,-1,205,206,202,-1,192,207,193,-1,193,207,208,-1,193,208,209,-1,209,208,198,-1,209,198,210,-1,210,198,197,-1,211,212,213,-1,213,212,214,-1,213,214,215,-1,216,217,218,-1,218,217,219,-1,215,220,213,-1,213,220,221,-1,213,221,222,-1,223,224,225,-1,226,227,205,-1,205,227,228,-1,205,228,203,-1,222,229,213,-1,213,229,230,-1,213,230,217,-1,217,230,195,-1,217,195,219,-1,219,195,193,-1,200,231,232,-1,232,231,233,-1,234,235,198,-1,198,235,236,-1,198,236,237,-1,216,238,217,-1,217,238,239,-1,217,239,240,-1,223,225,199,-1,225,241,199,-1,199,241,242,-1,199,242,200,-1,200,242,243,-1,200,243,231,-1,237,244,198,-1,198,244,245,-1,198,245,196,-1,233,246,232,-1,232,246,247,-1,232,247,248,-1,248,247,249,-1,248,249,250,-1,250,249,251,-1,18,20,252,-1,252,20,253,-1,252,253,254,-1,255,256,17,-1,249,257,258,-1,258,257,259,-1,258,259,260,-1,261,262,17,-1,17,262,263,-1,260,264,258,-1,258,264,265,-1,258,265,266,-1,266,265,267,-1,266,267,255,-1,268,269,256,-1,256,269,270,-1,256,270,17,-1,17,270,271,-1,17,271,261,-1,263,272,17,-1,17,272,273,-1,17,273,15,-1,274,275,276,-1,276,275,277,-1,276,277,278,-1,276,279,274,-1,274,279,280,-1,274,280,281,-1,281,282,274,-1,274,282,283,-1,274,283,284,-1,284,283,285,-1,284,285,286,-1,286,285,287,-1,286,287,256,-1,256,287,288,-1,256,288,268,-1,289,290,278,-1,278,290,291,-1,278,291,276,-1,292,293,224,-1,224,293,294,-1,224,294,225,-1,292,295,293,-1,293,295,296,-1,293,296,297,-1,297,296,298,-1,297,299,300,-1,298,301,297,-1,297,301,302,-1,297,302,303,-1,303,304,297,-1,297,304,305,-1,297,305,299,-1,300,306,297,-1,297,306,307,-1,297,307,308,-1,309,310,311,-1,311,310,312,-1,311,312,313,-1,314,315,316,-1,316,315,317,-1,310,318,312,-1,312,318,319,-1,312,319,320,-1,320,319,321,-1,320,321,322,-1,322,321,323,-1,322,323,317,-1,317,323,324,-1,317,324,316,-1,325,326,327,-1,328,329,330,-1,325,327,331,-1,331,327,332,-1,331,332,330,-1,330,332,333,-1,330,333,328,-1,334,335,320,-1,336,337,322,-1,335,338,320,-1,320,338,339,-1,320,339,325,-1,325,339,340,-1,325,340,326,-1,336,322,341,-1,328,342,329,-1,329,342,343,-1,329,343,322,-1,322,343,344,-1,322,344,341,-1,337,345,322,-1,322,345,346,-1,322,346,320,-1,320,346,347,-1,320,347,334,-1,330,348,349,-1,349,348,350,-1,349,351,330,-1,330,351,352,-1,330,352,331,-1,331,352,353,-1,331,353,354,-1,355,356,357,-1,357,356,358,-1,358,356,359,-1,359,356,352,-1,359,352,360,-1,360,352,351,-1,360,351,14,-1,14,351,361,-1,14,361,12,-1,350,348,362,-1,362,348,363,-1,362,363,364,-1,365,363,366,-1,366,363,367,-1,353,368,354,-1,354,368,364,-1,354,364,11,-1,11,364,363,-1,11,363,369,-1,369,363,365,-1,9,11,370,-1,371,372,369,-1,369,372,373,-1,369,373,11,-1,11,373,374,-1,11,374,370,-1,375,376,377,-1,378,379,369,-1,369,379,380,-1,369,380,381,-1,381,382,369,-1,369,382,383,-1,369,383,371,-1,384,385,386,-1,386,385,387,-1,376,388,377,-1,377,388,387,-1,377,387,389,-1,389,387,385,-1,375,377,390,-1,390,377,391,-1,390,391,369,-1,369,391,392,-1,369,392,378,-1,7,393,394,-1,394,393,395,-1,395,393,396,-1,395,396,367,-1,8,397,398,-1,398,399,8,-1,8,399,400,-1,8,400,6,-1,401,402,403,-1,404,405,406,-1,406,405,407,-1,406,407,8,-1,8,407,408,-1,8,408,397,-1,409,410,411,-1,411,410,412,-1,413,414,217,-1,217,414,415,-1,217,415,411,-1,411,415,416,-1,411,416,409,-1,10,413,258,-1,258,413,217,-1,258,217,249,-1,249,217,240,-1,249,240,251,-1,19,202,20,-1,20,202,206,-1,20,206,253,-1,253,206,417,-1,253,417,211,-1,211,417,418,-1,211,418,212,-1,419,420,421,-1,179,178,422,-1,422,178,423,-1,422,423,191,-1,191,423,421,-1,191,421,190,-1,190,421,420,-1,190,420,424,-1,425,426,427,-1,421,428,419,-1,419,428,429,-1,419,429,430,-1,430,429,425,-1,430,425,431,-1,431,425,427,-1,432,433,17,-1,17,433,434,-1,255,17,266,-1,266,17,434,-1,266,434,428,-1,428,434,435,-1,428,435,429,-1,436,433,437,-1,437,433,432,-1,437,432,438,-1,439,440,441,-1,442,443,17,-1,254,253,16,-1,16,253,439,-1,16,439,17,-1,17,439,441,-1,17,441,442,-1,443,444,17,-1,17,444,445,-1,17,445,446,-1,446,447,17,-1,17,447,448,-1,17,448,432,-1,432,448,449,-1,432,449,438,-1,450,451,452,-1,452,451,453,-1,452,453,439,-1,439,453,454,-1,439,454,440,-1,455,456,452,-1,452,456,457,-1,452,457,450,-1,424,458,455,-1,455,458,459,-1,455,459,456,-1,460,72,461,-1,461,72,68,-1,461,68,462,-1,462,68,59,-1,462,59,463,-1,463,59,26,-1,463,26,464,-1,464,26,53,-1,464,53,465,-1,465,53,44,-1,465,44,466,-1,466,44,40,-1,467,468,403,-1,403,468,469,-1,470,406,29,-1,402,404,403,-1,403,404,406,-1,403,406,467,-1,467,406,470,-1,467,470,471,-1,5,403,3,-1,3,403,469,-1,3,469,29,-1,29,469,472,-1,29,472,470,-1,473,474,475,-1,474,473,476,-1,476,473,5,-1,476,5,477,-1,478,479,480,-1,480,479,476,-1,480,476,481,-1,481,476,477,-1,481,477,482,-1,482,477,483,-1,2,473,0,-1,0,473,475,-1,0,475,4,-1,4,475,484,-1,4,484,5,-1,5,484,485,-1,5,485,477,-1,7,394,8,-1,8,394,486,-1,8,486,406,-1,406,486,37,-1,406,37,29,-1,29,37,36,-1,29,36,30,-1,2,211,473,-1,473,211,213,-1,473,213,5,-1,5,213,217,-1,5,217,403,-1,403,217,411,-1,403,411,401,-1,401,411,412,-1,10,258,11,-1,11,258,266,-1,11,266,354,-1,354,266,428,-1,354,428,331,-1,331,428,421,-1,331,421,325,-1,325,421,423,-1,325,423,320,-1,320,423,178,-1,320,178,312,-1,367,363,395,-1,395,363,348,-1,395,348,487,-1,487,348,330,-1,487,330,488,-1,488,330,329,-1,488,329,489,-1,489,329,322,-1,489,322,490,-1,490,322,317,-1,490,317,491,-1,491,317,315,-1,491,315,492,-1,493,494,495,-1,496,497,178,-1,185,181,180,-1,180,181,174,-1,180,174,178,-1,178,174,176,-1,178,176,496,-1,496,176,498,-1,499,176,500,-1,500,176,501,-1,500,501,502,-1,502,501,503,-1,493,495,499,-1,499,495,176,-1,176,495,504,-1,176,504,498,-1,316,313,314,-1,314,313,312,-1,314,312,503,-1,503,312,178,-1,503,178,502,-1,502,178,505,-1,504,506,507,-1,507,508,504,-1,504,508,509,-1,504,509,498,-1,510,511,505,-1,505,511,512,-1,505,512,513,-1,497,514,178,-1,178,514,515,-1,178,515,505,-1,505,515,516,-1,505,516,510,-1,513,517,505,-1,505,517,518,-1,505,518,504,-1,504,518,519,-1,504,519,506,-1,424,455,190,-1,190,455,520,-1,190,520,177,-1,177,520,521,-1,177,521,176,-1,176,521,522,-1,176,522,501,-1,75,74,1,-1,1,74,523,-1,1,523,2,-1,2,523,524,-1,2,524,211,-1,211,524,525,-1,211,525,253,-1,253,525,526,-1,253,526,439,-1,439,526,527,-1,439,527,452,-1,452,527,528,-1,452,528,455,-1,455,528,529,-1,455,529,520,-1,520,529,530,-1,520,530,521,-1,521,530,531,-1,521,531,522,-1,532,492,533,-1,533,492,531,-1,534,532,535,-1,535,532,533,-1,466,534,460,-1,460,534,535,-1,534,466,532,-1,532,466,492,-1,460,535,531,-1,531,535,533,-1,
        ]
    }
}
Shape{
    appearance Appearance {
        material  Material 	{
            diffuseColor 1.0 1.0 1.0
            specularColor 0.5019607843137255 0.5019607843137255 0.5019607843137255
            ambientIntensity 1.0
            transparency 0.0
            shininess 0.5
        }
    }
    geometry IndexedFaceSet {
        ccw TRUE
        solid FALSE
        coord DEF co Coordinate {
            point [
                -0.164 -0.2382 0.1988, -0.164 -0.2382 0.197, -0.164 -0.2343 0.1988, -0.164 -0.2343 0.197, -0.1704 -0.2382 0.1988, -0.1704 -0.2343 0.1988, -0.1704 -0.2382 0.213, -0.1704 -0.2343 0.213, -0.1725 -0.2382 0.213, -0.1725 -0.2343 0.213, -0.1725 -0.2382 0.197, -0.1725 -0.2343 0.197, -0.1558 -0.2343 0.1967, -0.1544 -0.2343 0.1968, -0.1558 -0.2382 0.1967, -0.1534 -0.2382 0.1969, -0.1534 -0.2343 0.1969, -0.1517 -0.2343 0.1975, -0.1517 -0.2382 0.1975, -0.1514 -0.2343 0.1976, -0.1514 -0.2382 0.1976, -0.1514 -0.2382 0.1996, -0.1514 -0.2343 0.1996, -0.153 -0.2343 0.1989, -0.153 -0.2382 0.1989, -0.1548 -0.2343 0.1986, -0.1548 -0.2382 0.1986, -0.1555 -0.2343 0.1986, -0.1555 -0.2382 0.1986, -0.1571 -0.2343 0.1987, -0.1571 -0.2382 0.1987, -0.1583 -0.2343 0.1992, -0.1583 -0.2382 0.1992, -0.1593 -0.2343 0.1999, -0.1593 -0.2382 0.1999, -0.1596 -0.2343 0.2002, -0.1596 -0.2382 0.2002, -0.1604 -0.2343 0.2013, -0.1604 -0.2382 0.2013, -0.1609 -0.2343 0.2026, -0.1609 -0.2382 0.2026, -0.1612 -0.2343 0.2042, -0.1612 -0.2382 0.2042, -0.1612 -0.2343 0.2048, -0.1612 -0.2382 0.2048, -0.1609 -0.2343 0.207, -0.1609 -0.2382 0.207, -0.1604 -0.2343 0.2084, -0.1604 -0.2382 0.2084, -0.1595 -0.2343 0.2096, -0.1595 -0.2382 0.2096, -0.1584 -0.2343 0.2105, -0.1584 -0.2382 0.2105, -0.1572 -0.2343 0.2111, -0.1572 -0.2382 0.2111, -0.1558 -0.2343 0.2114, -0.1558 -0.2382 0.2114, -0.1552 -0.2343 0.2114, -0.1552 -0.2382 0.2114, -0.1532 -0.2343 0.2112, -0.1532 -0.2382 0.2112, -0.1516 -0.2343 0.2105, -0.1516 -0.2382 0.2105, -0.1514 -0.2343 0.2105, -0.1514 -0.2382 0.2105, -0.1514 -0.2382 0.2126, -0.1514 -0.2343 0.2126, -0.1552 -0.2343 0.2133, -0.1552 -0.2382 0.2133, -0.1552 -0.2382 0.2133, -0.1531 -0.2343 0.2131, -0.1531 -0.2382 0.2131, -0.1535 -0.2343 0.2131, -0.1552 -0.2343 0.2133, -0.1563 -0.2343 0.2131, -0.1575 -0.2382 0.213, -0.1575 -0.2343 0.213, -0.1592 -0.2343 0.2123, -0.1592 -0.2382 0.2123, -0.1607 -0.2343 0.2113, -0.1607 -0.2382 0.2113, -0.1611 -0.2343 0.2109, -0.1611 -0.2382 0.2109, -0.1622 -0.2343 0.2094, -0.1622 -0.2382 0.2094, -0.1627 -0.2343 0.2084, -0.163 -0.2382 0.2076, -0.163 -0.2343 0.2076, -0.1634 -0.2343 0.2055, -0.1634 -0.2382 0.2055, -0.1634 -0.2343 0.2047, -0.1634 -0.2382 0.2047, -0.1613 -0.2343 0.1989, -0.1613 -0.2382 0.1989, -0.1624 -0.2382 0.2004, -0.1631 -0.2343 0.2021, -0.1631 -0.2382 0.2021, -0.1627 -0.2343 0.2011, -0.1624 -0.2343 0.2004, -0.1568 -0.2382 0.1968, -0.16 -0.2343 0.1978, -0.16 -0.2382 0.1978, -0.1585 -0.2343 0.1971, -0.1585 -0.2382 0.1971, -0.1572 -0.2343 0.1968, -0.1568 -0.2343 0.1968, -0.1396 -0.2382 0.1988, -0.1396 -0.2382 0.197, -0.1396 -0.2343 0.1988, -0.1396 -0.2343 0.197, -0.1461 -0.2343 0.1988, -0.1461 -0.2382 0.1988, -0.1418 -0.2343 0.1988, -0.1461 -0.2382 0.2042, -0.1461 -0.2343 0.2042, -0.1404 -0.2343 0.2042, -0.1404 -0.2382 0.2042, -0.1418 -0.2343 0.2042, -0.1404 -0.2382 0.206, -0.1404 -0.2343 0.206, -0.1461 -0.2343 0.206, -0.1461 -0.2382 0.206, -0.1418 -0.2343 0.206, -0.1461 -0.2382 0.2112, -0.1461 -0.2343 0.2112, -0.1399 -0.2343 0.2112, -0.1399 -0.2382 0.2112, -0.1418 -0.2343 0.2112, -0.1399 -0.2382 0.213, -0.1399 -0.2343 0.213, -0.1482 -0.2343 0.213, -0.1482 -0.2382 0.213, -0.1418 -0.2343 0.213, -0.1482 -0.2382 0.197, -0.1482 -0.2343 0.197, -0.1418 -0.2343 0.197, -0.1259 -0.2382 0.1992, -0.1276 -0.2382 0.2003, -0.1276 -0.2382 0.198, -0.1286 -0.2382 0.1996, -0.1294 -0.2382 0.1973, -0.1299 -0.2382 0.1991, -0.1321 -0.2382 0.197, -0.1322 -0.2382 0.1988, -0.1365 -0.2382 0.197, -0.1345 -0.2382 0.1988, -0.1365 -0.2382 0.213, -0.1345 -0.2382 0.2112, -0.132 -0.2382 0.213, -0.1321 -0.2382 0.2112, -0.1295 -0.2382 0.2127, -0.13 -0.2382 0.2109, -0.1276 -0.2382 0.212, -0.1286 -0.2382 0.2104, -0.1259 -0.2382 0.2109, -0.1274 -0.2382 0.2096, -0.1254 -0.2382 0.2103, -0.127 -0.2382 0.2092, -0.1244 -0.2382 0.2089, -0.1264 -0.2382 0.2083, -0.1238 -0.2382 0.2074, -0.1259 -0.2382 0.2072, -0.1235 -0.2382 0.2052, -0.1257 -0.2382 0.2051, -0.1236 -0.2382 0.2042, -0.1258 -0.2382 0.2039, -0.1239 -0.2382 0.2023, -0.1261 -0.2382 0.2025, -0.1247 -0.2382 0.2006, -0.1267 -0.2382 0.2013, -0.1274 -0.2382 0.2005, -0.1321 -0.2343 0.197, -0.1365 -0.2343 0.197, -0.1259 -0.2343 0.1992, -0.1294 -0.2343 0.1973, -0.1292 -0.2343 0.1974, -0.1276 -0.2343 0.198, -0.1247 -0.2343 0.2006, -0.1239 -0.2343 0.2023, -0.1236 -0.2343 0.2042, -0.1235 -0.2343 0.2052, -0.1238 -0.2343 0.2074, -0.1244 -0.2343 0.2089, -0.1254 -0.2343 0.2103, -0.1259 -0.2343 0.2109, -0.132 -0.2343 0.213, -0.1276 -0.2343 0.212, -0.1292 -0.2343 0.2126, -0.1295 -0.2343 0.2127, -0.1365 -0.2343 0.213, -0.1321 -0.2343 0.2112, -0.1345 -0.2343 0.2112, -0.1345 -0.2343 0.1988, -0.1322 -0.2343 0.1988, -0.1274 -0.2343 0.2005, -0.1276 -0.2343 0.2003, -0.1286 -0.2343 0.1996, -0.1299 -0.2343 0.1991, -0.1257 -0.2343 0.2051, -0.1258 -0.2343 0.2039, -0.1261 -0.2343 0.2025, -0.1267 -0.2343 0.2013, -0.1274 -0.2343 0.2096, -0.127 -0.2343 0.2092, -0.1264 -0.2343 0.2083, -0.1259 -0.2343 0.2072, -0.13 -0.2343 0.2109, -0.1286 -0.2343 0.2104
            ]
        }
        coordIndex [
            0,1,2,-1,2,1,3,-1,4,0,5,-1,5,0,2,-1,6,4,7,-1,7,4,5,-1,8,6,9,-1,9,6,7,-1,10,8,11,-1,11,8,9,-1,1,10,3,-1,3,10,11,-1,6,8,4,-1,4,8,10,-1,4,10,0,-1,0,10,1,-1,12,13,14,-1,14,13,15,-1,13,16,15,-1,15,16,17,-1,15,17,18,-1,18,17,19,-1,18,19,20,-1,21,20,22,-1,22,20,19,-1,21,22,23,-1,21,23,24,-1,24,23,25,-1,24,25,26,-1,26,25,27,-1,26,27,28,-1,28,27,29,-1,28,29,30,-1,30,29,31,-1,30,31,32,-1,32,31,33,-1,32,33,34,-1,34,33,35,-1,34,35,36,-1,36,35,37,-1,36,37,38,-1,38,37,39,-1,38,39,40,-1,40,39,41,-1,40,41,42,-1,42,41,43,-1,42,43,44,-1,44,43,45,-1,44,45,46,-1,46,45,47,-1,46,47,48,-1,48,47,49,-1,48,49,50,-1,50,49,51,-1,50,51,52,-1,52,51,53,-1,52,53,54,-1,54,53,55,-1,54,55,56,-1,56,55,57,-1,56,57,58,-1,58,57,59,-1,58,59,60,-1,60,59,61,-1,60,61,62,-1,62,61,63,-1,62,63,64,-1,65,64,66,-1,66,64,63,-1,67,68,69,-1,65,66,70,-1,65,70,71,-1,71,70,72,-1,71,72,69,-1,69,72,73,-1,69,73,67,-1,68,67,74,-1,68,74,75,-1,74,76,75,-1,75,76,77,-1,75,77,78,-1,78,77,79,-1,78,79,80,-1,80,79,81,-1,80,81,82,-1,82,81,83,-1,82,83,84,-1,84,83,85,-1,84,85,86,-1,85,87,86,-1,86,87,88,-1,86,88,89,-1,89,88,90,-1,89,90,91,-1,92,93,94,-1,91,90,95,-1,91,95,96,-1,96,95,97,-1,96,97,94,-1,94,97,98,-1,94,98,92,-1,12,14,99,-1,93,92,100,-1,93,100,101,-1,101,100,102,-1,101,102,103,-1,103,102,104,-1,103,104,99,-1,99,104,105,-1,99,105,12,-1,62,64,65,-1,52,80,50,-1,50,80,82,-1,50,82,48,-1,48,82,84,-1,48,84,46,-1,62,65,60,-1,60,65,71,-1,60,71,58,-1,58,71,69,-1,58,69,56,-1,56,69,68,-1,56,68,54,-1,54,68,75,-1,54,75,52,-1,52,75,78,-1,52,78,80,-1,91,44,89,-1,89,44,46,-1,89,46,86,-1,86,46,84,-1,20,21,18,-1,18,21,24,-1,18,24,15,-1,15,24,26,-1,15,26,14,-1,14,26,28,-1,14,28,99,-1,99,28,30,-1,99,30,103,-1,103,30,32,-1,103,32,101,-1,101,32,34,-1,101,34,93,-1,93,34,36,-1,93,36,94,-1,94,36,38,-1,94,38,96,-1,96,38,40,-1,96,40,91,-1,91,40,42,-1,91,42,44,-1,106,107,108,-1,108,107,109,-1,110,111,112,-1,112,111,106,-1,112,106,108,-1,113,111,114,-1,114,111,110,-1,115,116,117,-1,117,116,113,-1,117,113,114,-1,118,116,119,-1,119,116,115,-1,120,121,122,-1,122,121,118,-1,122,118,119,-1,123,121,124,-1,124,121,120,-1,125,126,127,-1,127,126,123,-1,127,123,124,-1,128,126,129,-1,129,126,125,-1,130,131,132,-1,132,131,128,-1,132,128,129,-1,133,131,134,-1,134,131,130,-1,109,107,135,-1,135,107,133,-1,135,133,134,-1,133,107,106,-1,106,111,133,-1,133,111,113,-1,133,113,131,-1,126,128,123,-1,123,128,131,-1,123,131,121,-1,121,131,113,-1,121,113,118,-1,118,113,116,-1,136,137,138,-1,138,137,139,-1,138,139,140,-1,140,139,141,-1,140,141,142,-1,142,141,143,-1,142,143,144,-1,144,143,145,-1,144,145,146,-1,146,145,147,-1,146,147,148,-1,148,147,149,-1,148,149,150,-1,150,149,151,-1,150,151,152,-1,152,151,153,-1,152,153,154,-1,154,153,155,-1,154,155,156,-1,156,155,157,-1,156,157,158,-1,158,157,159,-1,158,159,160,-1,160,159,161,-1,160,161,162,-1,162,161,163,-1,162,163,164,-1,164,163,165,-1,164,165,166,-1,166,165,167,-1,166,167,168,-1,168,167,169,-1,168,169,136,-1,136,169,170,-1,136,170,137,-1,142,144,171,-1,171,144,172,-1,173,136,138,-1,142,171,174,-1,142,174,140,-1,140,174,175,-1,140,175,138,-1,138,175,176,-1,138,176,173,-1,136,173,177,-1,136,177,168,-1,168,177,178,-1,168,178,166,-1,166,178,179,-1,166,179,164,-1,164,179,180,-1,164,180,162,-1,162,180,181,-1,162,181,160,-1,160,181,182,-1,160,182,158,-1,158,182,183,-1,158,183,156,-1,156,183,184,-1,156,184,154,-1,185,148,150,-1,154,184,186,-1,154,186,152,-1,152,186,187,-1,152,187,150,-1,150,187,188,-1,150,188,185,-1,146,148,189,-1,189,148,185,-1,144,146,172,-1,172,146,189,-1,149,147,190,-1,190,147,191,-1,147,145,191,-1,191,145,192,-1,145,143,192,-1,192,143,193,-1,170,194,195,-1,170,195,137,-1,137,195,196,-1,137,196,139,-1,139,196,197,-1,139,197,141,-1,141,197,193,-1,141,193,143,-1,163,198,199,-1,163,199,165,-1,165,199,200,-1,165,200,167,-1,167,200,201,-1,167,201,169,-1,169,201,194,-1,169,194,170,-1,155,202,203,-1,155,203,157,-1,157,203,204,-1,157,204,159,-1,159,204,205,-1,159,205,161,-1,161,205,198,-1,161,198,163,-1,149,190,206,-1,149,206,151,-1,151,206,207,-1,151,207,153,-1,153,207,202,-1,153,202,155,-1,
        ]
    }
}
Shape{
    appearance Appearance {
        material  Material 	{
            diffuseColor 0.25098039215686274 0.25098039215686274 0.25098039215686274
            specularColor 0.12549019607843137 0.12549019607843137 0.12549019607843137
            ambientIntensity 0.251
            transparency 0.0
            shininess 0.5
        }
    }
    geometry IndexedFaceSet {
        ccw TRUE
        solid FALSE
        coord DEF co Coordinate {
            point [
                -0.1276 -0.2343 0.2003, -0.1274 -0.2343 0.2005, -0.1321 -0.2343 0.2112, -0.1345 -0.2343 0.2112, -0.1345 -0.2343 0.1988, -0.1322 -0.2343 0.1988, -0.1299 -0.2343 0.1991, -0.1286 -0.2343 0.1996, -0.1267 -0.2343 0.2013, -0.1261 -0.2343 0.2025, -0.1258 -0.2343 0.2039, -0.1257 -0.2343 0.2051, -0.1259 -0.2343 0.2072, -0.1264 -0.2343 0.2083, -0.127 -0.2343 0.2092, -0.1274 -0.2343 0.2096, -0.13 -0.2343 0.2109, -0.1286 -0.2343 0.2104
            ]
        }
        coordIndex [
            0,1,2,-1,3,4,2,-1,2,4,5,-1,5,6,2,-1,2,6,7,-1,2,7,0,-1,1,8,2,-1,2,8,9,-1,2,9,10,-1,10,11,2,-1,2,11,12,-1,2,12,13,-1,13,14,2,-1,2,14,15,-1,2,15,16,-1,16,15,17,-1,
        ]
    }
}
Shape{
    appearance Appearance {
        material  Material 	{
            diffuseColor 1.0 1.0 1.0
            specularColor 0.5019607843137255 0.5019607843137255 0.5019607843137255
            ambientIntensity 1.0
            transparency 0.0
            shininess 0.5
        }
    }
    geometry IndexedFaceSet {
        ccw TRUE
        solid FALSE
        coord DEF co Coordinate {
            point [
                -0.1181 -0.2382 0.2032, -0.1188 -0.2382 0.2014, -0.1128 -0.2382 0.2032, -0.1121 -0.2382 0.2014, -0.1157 -0.2382 0.2098, -0.1165 -0.2382 0.213, -0.1226 -0.2382 0.197, -0.1203 -0.2382 0.197, -0.1156 -0.2382 0.2103, -0.1155 -0.2382 0.211, -0.1143 -0.2382 0.213, -0.1154 -0.2382 0.211, -0.1153 -0.2382 0.2103, -0.1152 -0.2382 0.2098, -0.1082 -0.2382 0.197, -0.1105 -0.2382 0.197, -0.1143 -0.2343 0.213, -0.1082 -0.2343 0.197, -0.1165 -0.2343 0.213, -0.1226 -0.2343 0.197, -0.118 -0.2343 0.2091, -0.1203 -0.2343 0.197, -0.1188 -0.2343 0.2014, -0.1121 -0.2343 0.2014, -0.118 -0.2343 0.2014, -0.1105 -0.2343 0.197, -0.1181 -0.2343 0.2032, -0.1128 -0.2343 0.2032, -0.1152 -0.2343 0.2098, -0.1154 -0.2343 0.211, -0.1153 -0.2343 0.2103, -0.1155 -0.2343 0.211, -0.1157 -0.2343 0.2098, -0.1156 -0.2343 0.2103
            ]
        }
        coordIndex [
            0,1,2,-1,2,1,3,-1,4,5,0,-1,0,5,6,-1,0,6,1,-1,1,6,7,-1,4,8,5,-1,5,8,9,-1,5,9,10,-1,10,9,11,-1,10,11,12,-1,12,13,10,-1,10,13,2,-1,10,2,14,-1,14,2,3,-1,14,3,15,-1,10,14,16,-1,16,14,17,-1,5,10,18,-1,18,10,16,-1,19,6,20,-1,20,6,5,-1,20,5,18,-1,7,6,21,-1,21,6,19,-1,1,7,22,-1,22,7,21,-1,23,3,24,-1,24,3,1,-1,24,1,22,-1,15,3,25,-1,25,3,23,-1,14,15,17,-1,17,15,25,-1,0,2,26,-1,26,2,27,-1,2,13,27,-1,27,13,28,-1,11,29,30,-1,11,30,12,-1,12,30,28,-1,12,28,13,-1,11,9,29,-1,29,9,31,-1,4,32,33,-1,4,33,8,-1,8,33,31,-1,8,31,9,-1,4,0,32,-1,32,0,26,-1,
        ]
    }
}
Shape{
    appearance Appearance {
        material  Material 	{
            diffuseColor 0.25098039215686274 0.25098039215686274 0.25098039215686274
            specularColor 0.12549019607843137 0.12549019607843137 0.12549019607843137
            ambientIntensity 0.251
            transparency 0.0
            shininess 0.5
        }
    }
    geometry IndexedFaceSet {
        ccw TRUE
        solid FALSE
        coord DEF co Coordinate {
            point [
                -0.1154 -0.2343 0.211, -0.1155 -0.2343 0.211, -0.1153 -0.2343 0.2103, -0.1156 -0.2343 0.2103, -0.1152 -0.2343 0.2098, -0.1157 -0.2343 0.2098, -0.1128 -0.2343 0.2032, -0.1181 -0.2343 0.2032
            ]
        }
        coordIndex [
            0,1,2,-1,2,1,3,-1,2,3,4,-1,4,3,5,-1,4,5,6,-1,6,5,7,-1,
        ]
    }
}
Shape{
    appearance Appearance {
        material  Material 	{
            diffuseColor 1.0 1.0 1.0
            specularColor 0.5019607843137255 0.5019607843137255 0.5019607843137255
            ambientIntensity 1.0
            transparency 0.0
            shininess 0.5
        }
    }
    geometry IndexedFaceSet {
        ccw TRUE
        solid FALSE
        coord DEF co Coordinate {
            point [
                -0.1639 -0.2382 0.1734, -0.1639 -0.2382 0.1716, -0.1639 -0.2343 0.1734, -0.1639 -0.2343 0.1716, -0.1704 -0.2382 0.1734, -0.1704 -0.2343 0.1734, -0.1704 -0.2382 0.1788, -0.1704 -0.2343 0.1788, -0.1647 -0.2382 0.1788, -0.1647 -0.2343 0.1788, -0.1647 -0.2382 0.1806, -0.1647 -0.2343 0.1806, -0.1704 -0.2382 0.1806, -0.1704 -0.2343 0.1806, -0.1704 -0.2382 0.1858, -0.1704 -0.2343 0.1858, -0.1642 -0.2382 0.1858, -0.1642 -0.2343 0.1858, -0.1642 -0.2382 0.1876, -0.1642 -0.2343 0.1876, -0.1725 -0.2382 0.1876, -0.1725 -0.2343 0.1876, -0.1725 -0.2382 0.1716, -0.1725 -0.2343 0.1716, -0.1548 -0.2382 0.1733, -0.1548 -0.2382 0.1733, -0.1549 -0.2382 0.1752, -0.1548 -0.2382 0.1761, -0.1528 -0.2382 0.1789, -0.1548 -0.2382 0.1762, -0.1548 -0.2382 0.1773, -0.1548 -0.2382 0.1716, -0.1528 -0.2382 0.1716, -0.1555 -0.2382 0.1831, -0.1559 -0.2382 0.1814, -0.1547 -0.2382 0.1828, -0.1556 -0.2382 0.1812, -0.1591 -0.2382 0.1764, -0.1587 -0.2382 0.1767, -0.1598 -0.2382 0.1779, -0.1552 -0.2382 0.1745, -0.1556 -0.2382 0.1739, -0.1551 -0.2382 0.1729, -0.1559 -0.2382 0.1736, -0.1558 -0.2382 0.1722, -0.1564 -0.2382 0.1733, -0.1565 -0.2382 0.1717, -0.157 -0.2382 0.173, -0.1573 -0.2382 0.1714, -0.1578 -0.2382 0.173, -0.1583 -0.2382 0.1713, -0.1585 -0.2382 0.173, -0.1595 -0.2382 0.1714, -0.1589 -0.2382 0.1732, -0.1603 -0.2382 0.1717, -0.1593 -0.2382 0.1735, -0.161 -0.2382 0.1722, -0.1595 -0.2382 0.1736, -0.1608 -0.2382 0.1822, -0.1608 -0.2382 0.1803, -0.1604 -0.2382 0.1824, -0.1594 -0.2382 0.1811, -0.1589 -0.2382 0.183, -0.1582 -0.2382 0.1815, -0.1569 -0.2382 0.1833, -0.1571 -0.2382 0.1816, -0.1564 -0.2382 0.1816, -0.1582 -0.2382 0.1784, -0.1574 -0.2382 0.177, -0.1548 -0.2382 0.1788, -0.1594 -0.2382 0.1763, -0.1606 -0.2382 0.1775, -0.1596 -0.2382 0.176, -0.1612 -0.2382 0.177, -0.1598 -0.2382 0.1756, -0.1616 -0.2382 0.1763, -0.1599 -0.2382 0.1751, -0.1619 -0.2382 0.1756, -0.1599 -0.2382 0.1748, -0.1619 -0.2382 0.1746, -0.1599 -0.2382 0.1743, -0.1618 -0.2382 0.1737, -0.1597 -0.2382 0.174, -0.1616 -0.2382 0.173, -0.1612 -0.2382 0.1724, -0.1548 -0.2382 0.1797, -0.153 -0.2382 0.1806, -0.155 -0.2382 0.1804, -0.1533 -0.2382 0.1815, -0.1553 -0.2382 0.1809, -0.1537 -0.2382 0.1821, -0.1541 -0.2382 0.1824, -0.1569 -0.2343 0.1833, -0.1589 -0.2343 0.183, -0.1604 -0.2343 0.1824, -0.1608 -0.2343 0.1822, -0.1608 -0.2343 0.1803, -0.1594 -0.2343 0.1811, -0.1582 -0.2343 0.1815, -0.1571 -0.2343 0.1816, -0.1564 -0.2343 0.1816, -0.1559 -0.2343 0.1814, -0.1556 -0.2343 0.1812, -0.1553 -0.2343 0.1809, -0.155 -0.2343 0.1804, -0.1548 -0.2343 0.1797, -0.1548 -0.2343 0.1788, -0.1582 -0.2343 0.1784, -0.1598 -0.2343 0.1779, -0.1606 -0.2343 0.1775, -0.1612 -0.2343 0.177, -0.1616 -0.2343 0.1763, -0.1619 -0.2343 0.1756, -0.1619 -0.2343 0.1746, -0.1618 -0.2343 0.1737, -0.1616 -0.2343 0.173, -0.1612 -0.2343 0.1724, -0.161 -0.2343 0.1722, -0.1583 -0.2343 0.1713, -0.1595 -0.2343 0.1714, -0.1595 -0.2343 0.1714, -0.1603 -0.2343 0.1717, -0.1573 -0.2343 0.1714, -0.1572 -0.2343 0.1714, -0.1565 -0.2343 0.1717, -0.1558 -0.2343 0.1722, -0.1551 -0.2343 0.1729, -0.1548 -0.2343 0.1733, -0.1548 -0.2343 0.1733, -0.1548 -0.2343 0.1716, -0.1528 -0.2343 0.1716, -0.1528 -0.2343 0.1789, -0.153 -0.2343 0.1806, -0.1533 -0.2343 0.1815, -0.1537 -0.2343 0.1821, -0.1541 -0.2343 0.1824, -0.1547 -0.2343 0.1828, -0.1555 -0.2343 0.1831, -0.1594 -0.2343 0.1763, -0.1591 -0.2343 0.1764, -0.1587 -0.2343 0.1767, -0.1574 -0.2343 0.177, -0.1599 -0.2343 0.1748, -0.1599 -0.2343 0.1751, -0.1598 -0.2343 0.1756, -0.1596 -0.2343 0.176, -0.1593 -0.2343 0.1735, -0.1595 -0.2343 0.1736, -0.1597 -0.2343 0.174, -0.1599 -0.2343 0.1743, -0.1578 -0.2343 0.173, -0.1585 -0.2343 0.173, -0.1589 -0.2343 0.1732, -0.1556 -0.2343 0.1739, -0.1559 -0.2343 0.1736, -0.1564 -0.2343 0.1733, -0.157 -0.2343 0.173, -0.1548 -0.2343 0.1762, -0.1548 -0.2343 0.1761, -0.1549 -0.2343 0.1752, -0.1552 -0.2343 0.1745, -0.1548 -0.2343 0.1773
            ]
        }
        coordIndex [
            0,1,2,-1,2,1,3,-1,4,0,5,-1,5,0,2,-1,6,4,7,-1,7,4,5,-1,8,6,9,-1,9,6,7,-1,10,8,11,-1,11,8,9,-1,12,10,13,-1,13,10,11,-1,14,12,15,-1,15,12,13,-1,16,14,17,-1,17,14,15,-1,18,16,19,-1,19,16,17,-1,20,18,21,-1,21,18,19,-1,22,20,23,-1,23,20,21,-1,1,22,3,-1,3,22,23,-1,22,1,0,-1,0,4,22,-1,22,4,6,-1,22,6,20,-1,16,18,14,-1,14,18,20,-1,14,20,12,-1,12,20,6,-1,12,6,10,-1,10,6,8,-1,24,25,26,-1,27,28,29,-1,29,28,30,-1,31,32,25,-1,25,32,28,-1,25,28,26,-1,26,28,27,-1,33,34,35,-1,35,34,36,-1,37,38,39,-1,26,40,24,-1,24,40,41,-1,24,41,42,-1,42,41,43,-1,42,43,44,-1,44,43,45,-1,44,45,46,-1,46,45,47,-1,46,47,48,-1,48,47,49,-1,48,49,50,-1,50,49,51,-1,50,51,52,-1,52,51,53,-1,52,53,54,-1,54,53,55,-1,54,55,56,-1,56,55,57,-1,58,59,60,-1,60,59,61,-1,60,61,62,-1,62,61,63,-1,62,63,64,-1,64,63,65,-1,64,65,33,-1,33,65,66,-1,33,66,34,-1,39,38,67,-1,67,38,68,-1,67,68,69,-1,37,39,70,-1,70,39,71,-1,70,71,72,-1,72,71,73,-1,72,73,74,-1,74,73,75,-1,74,75,76,-1,76,75,77,-1,76,77,78,-1,78,77,79,-1,78,79,80,-1,80,79,81,-1,80,81,82,-1,82,81,83,-1,82,83,57,-1,57,83,84,-1,57,84,56,-1,68,30,69,-1,69,30,28,-1,69,28,85,-1,85,28,86,-1,85,86,87,-1,87,86,88,-1,87,88,89,-1,89,88,90,-1,89,90,36,-1,36,90,91,-1,36,91,35,-1,64,92,93,-1,64,93,62,-1,62,93,94,-1,62,94,60,-1,60,94,95,-1,60,95,58,-1,59,58,96,-1,96,58,95,-1,59,96,97,-1,59,97,61,-1,61,97,98,-1,61,98,63,-1,63,98,99,-1,63,99,65,-1,65,99,100,-1,65,100,66,-1,66,100,101,-1,66,101,34,-1,34,101,102,-1,34,102,36,-1,36,102,103,-1,36,103,89,-1,89,103,104,-1,89,104,87,-1,87,104,105,-1,87,105,85,-1,85,105,106,-1,85,106,69,-1,67,69,107,-1,107,69,106,-1,67,107,108,-1,67,108,39,-1,39,108,109,-1,39,109,71,-1,71,109,110,-1,71,110,73,-1,73,110,111,-1,73,111,75,-1,75,111,112,-1,75,112,77,-1,77,112,113,-1,77,113,79,-1,79,113,114,-1,79,114,81,-1,81,114,115,-1,81,115,83,-1,83,115,116,-1,83,116,84,-1,84,116,117,-1,84,117,56,-1,118,50,119,-1,119,50,52,-1,119,52,120,-1,120,52,54,-1,120,54,121,-1,121,54,56,-1,121,56,117,-1,50,118,122,-1,50,122,48,-1,48,122,123,-1,48,123,46,-1,123,124,46,-1,46,124,125,-1,46,125,44,-1,44,125,126,-1,44,126,42,-1,42,126,127,-1,42,127,24,-1,25,24,128,-1,128,24,127,-1,31,25,129,-1,129,25,128,-1,32,31,130,-1,130,31,129,-1,28,32,131,-1,131,32,130,-1,28,131,132,-1,28,132,86,-1,86,132,133,-1,86,133,88,-1,88,133,134,-1,88,134,90,-1,90,134,135,-1,90,135,91,-1,91,135,136,-1,91,136,35,-1,35,136,137,-1,35,137,33,-1,33,137,92,-1,33,92,64,-1,70,138,139,-1,70,139,37,-1,37,139,140,-1,37,140,38,-1,38,140,141,-1,38,141,68,-1,78,142,143,-1,78,143,76,-1,76,143,144,-1,76,144,74,-1,74,144,145,-1,74,145,72,-1,72,145,138,-1,72,138,70,-1,55,146,147,-1,55,147,57,-1,57,147,148,-1,57,148,82,-1,82,148,149,-1,82,149,80,-1,80,149,142,-1,80,142,78,-1,49,150,151,-1,49,151,51,-1,51,151,152,-1,51,152,53,-1,53,152,146,-1,53,146,55,-1,41,153,154,-1,41,154,43,-1,43,154,155,-1,43,155,45,-1,45,155,156,-1,45,156,47,-1,47,156,150,-1,47,150,49,-1,29,157,158,-1,29,158,27,-1,27,158,159,-1,27,159,26,-1,26,159,160,-1,26,160,40,-1,40,160,153,-1,40,153,41,-1,29,30,157,-1,157,30,161,-1,30,68,161,-1,161,68,141,-1,
        ]
    }
}
Shape{
    appearance Appearance {
        material  Material 	{
            diffuseColor 0.25098039215686274 0.25098039215686274 0.25098039215686274
            specularColor 0.12549019607843137 0.12549019607843137 0.12549019607843137
            ambientIntensity 0.251
            transparency 0.0
            shininess 0.5
        }
    }
    geometry IndexedFaceSet {
        ccw TRUE
        solid FALSE
        coord DEF co Coordinate {
            point [
                -0.1548 -0.2343 0.1761, -0.1548 -0.2343 0.1762, -0.1594 -0.2343 0.1763, -0.1548 -0.2343 0.1773, -0.1574 -0.2343 0.177, -0.1587 -0.2343 0.1767, -0.1591 -0.2343 0.1764, -0.1549 -0.2343 0.1752, -0.1596 -0.2343 0.176, -0.1552 -0.2343 0.1745, -0.1595 -0.2343 0.1736, -0.1593 -0.2343 0.1735, -0.1559 -0.2343 0.1736, -0.1597 -0.2343 0.174, -0.1564 -0.2343 0.1733, -0.157 -0.2343 0.173, -0.1578 -0.2343 0.173, -0.1598 -0.2343 0.1756, -0.1599 -0.2343 0.1751, -0.1556 -0.2343 0.1739, -0.1599 -0.2343 0.1748, -0.1599 -0.2343 0.1743, -0.1589 -0.2343 0.1732, -0.1585 -0.2343 0.173
            ]
        }
        coordIndex [
            0,1,2,-1,1,3,4,-1,4,5,1,-1,1,5,6,-1,1,6,2,-1,0,2,7,-1,7,2,8,-1,7,8,9,-1,10,11,12,-1,10,12,13,-1,14,12,15,-1,15,12,16,-1,8,17,9,-1,9,17,18,-1,9,18,19,-1,19,18,20,-1,19,20,12,-1,12,20,21,-1,12,21,13,-1,11,22,12,-1,12,22,23,-1,12,23,16,-1,
        ]
    }
}
Shape{
    appearance Appearance {
        material  Material 	{
            diffuseColor 1.0 1.0 1.0
            specularColor 0.5019607843137255 0.5019607843137255 0.5019607843137255
            ambientIntensity 1.0
            transparency 0.0
            shininess 0.5
        }
    }
    geometry IndexedFaceSet {
        ccw TRUE
        solid FALSE
        coord DEF co Coordinate {
            point [
                -0.15 -0.2343 0.1741, -0.15 -0.2382 0.1741, -0.1493 -0.2382 0.1736, -0.1467 -0.2382 0.1729, -0.1467 -0.2343 0.1729, -0.1481 -0.2343 0.1731, -0.1481 -0.2382 0.1731, -0.1491 -0.2343 0.1735, -0.1493 -0.2343 0.1736, -0.15 -0.2382 0.172, -0.15 -0.2343 0.172, -0.1491 -0.2343 0.1717, -0.1486 -0.2382 0.1715, -0.1469 -0.2343 0.1713, -0.1469 -0.2382 0.1713, -0.1482 -0.2343 0.1714, -0.1486 -0.2343 0.1715, -0.1458 -0.2343 0.1714, -0.1451 -0.2382 0.1715, -0.1451 -0.2343 0.1715, -0.1441 -0.2343 0.1719, -0.1441 -0.2382 0.1719, -0.1436 -0.2343 0.1722, -0.1436 -0.2382 0.1722, -0.143 -0.2343 0.1727, -0.143 -0.2382 0.1727, -0.1427 -0.2343 0.1733, -0.1427 -0.2382 0.1733, -0.1424 -0.2343 0.1739, -0.1424 -0.2382 0.1739, -0.1423 -0.2343 0.1747, -0.1423 -0.2382 0.1747, -0.1424 -0.2343 0.1754, -0.1424 -0.2382 0.1754, -0.1426 -0.2343 0.176, -0.1426 -0.2382 0.176, -0.143 -0.2343 0.1766, -0.143 -0.2382 0.1766, -0.1435 -0.2343 0.177, -0.1435 -0.2382 0.177, -0.1448 -0.2343 0.1777, -0.1448 -0.2382 0.1777, -0.1456 -0.2343 0.1781, -0.1456 -0.2382 0.1781, -0.1468 -0.2343 0.1786, -0.1468 -0.2382 0.1786, -0.1475 -0.2343 0.179, -0.1475 -0.2382 0.179, -0.1477 -0.2343 0.1793, -0.1477 -0.2382 0.1793, -0.1479 -0.2343 0.1795, -0.1479 -0.2382 0.1795, -0.1479 -0.2343 0.1798, -0.1479 -0.2382 0.1798, -0.148 -0.2343 0.1801, -0.148 -0.2382 0.1801, -0.1479 -0.2343 0.1804, -0.1479 -0.2382 0.1804, -0.1478 -0.2343 0.1807, -0.1478 -0.2382 0.1807, -0.1477 -0.2343 0.181, -0.1477 -0.2382 0.181, -0.1474 -0.2343 0.1812, -0.1474 -0.2382 0.1812, -0.1469 -0.2343 0.1815, -0.1469 -0.2382 0.1815, -0.1464 -0.2343 0.1816, -0.1464 -0.2382 0.1816, -0.1458 -0.2343 0.1816, -0.1458 -0.2382 0.1816, -0.1444 -0.2343 0.1815, -0.1444 -0.2382 0.1815, -0.1432 -0.2343 0.181, -0.1432 -0.2382 0.181, -0.1429 -0.2343 0.1808, -0.1429 -0.2382 0.1808, -0.1429 -0.2382 0.1828, -0.1429 -0.2343 0.1828, -0.1442 -0.2343 0.1832, -0.1442 -0.2382 0.1832, -0.1456 -0.2343 0.1833, -0.1456 -0.2382 0.1833, -0.1472 -0.2343 0.1831, -0.1472 -0.2382 0.1831, -0.1483 -0.2343 0.1827, -0.1483 -0.2382 0.1827, -0.1487 -0.2343 0.1824, -0.1487 -0.2382 0.1824, -0.1491 -0.2343 0.182, -0.1493 -0.2382 0.1818, -0.1493 -0.2343 0.1818, -0.1497 -0.2343 0.1813, -0.1497 -0.2382 0.1813, -0.1499 -0.2343 0.1806, -0.1499 -0.2382 0.1806, -0.15 -0.2343 0.1799, -0.15 -0.2382 0.1799, -0.1499 -0.2343 0.1791, -0.1499 -0.2382 0.1791, -0.1497 -0.2343 0.1785, -0.1497 -0.2382 0.1785, -0.1495 -0.2343 0.1781, -0.1495 -0.2382 0.1781, -0.147 -0.2343 0.1766, -0.147 -0.2382 0.1766, -0.1482 -0.2382 0.1772, -0.1491 -0.2343 0.1778, -0.1491 -0.2382 0.1778, -0.1491 -0.2343 0.1778, -0.1482 -0.2343 0.1772, -0.1457 -0.2343 0.1761, -0.1457 -0.2382 0.1761, -0.1449 -0.2343 0.1756, -0.1449 -0.2382 0.1756, -0.1446 -0.2343 0.1753, -0.1446 -0.2382 0.1753, -0.1445 -0.2343 0.1751, -0.1445 -0.2382 0.1751, -0.1444 -0.2343 0.1747, -0.1444 -0.2382 0.1747, -0.1444 -0.2343 0.1745, -0.1444 -0.2382 0.1745, -0.1444 -0.2343 0.1741, -0.1444 -0.2382 0.1741, -0.1445 -0.2343 0.1738, -0.1445 -0.2382 0.1738, -0.1447 -0.2343 0.1736, -0.1447 -0.2382 0.1736, -0.1449 -0.2343 0.1734, -0.1449 -0.2382 0.1734, -0.1451 -0.2343 0.1733, -0.1451 -0.2382 0.1733, -0.1456 -0.2343 0.1731, -0.1456 -0.2382 0.1731, -0.1467 -0.2343 0.1729, -0.1467 -0.2382 0.1729, -0.1324 -0.2382 0.183, -0.1303 -0.2382 0.183, -0.1324 -0.2343 0.183, -0.1303 -0.2343 0.183, -0.1355 -0.2382 0.1744, -0.1355 -0.2343 0.1744, -0.1356 -0.2343 0.1739, -0.1356 -0.2382 0.1739, -0.1357 -0.2343 0.1735, -0.1357 -0.2382 0.1735, -0.1358 -0.2382 0.1735, -0.1358 -0.2343 0.1735, -0.136 -0.2382 0.1744, -0.136 -0.2343 0.1744, -0.139 -0.2382 0.183, -0.1381 -0.2343 0.1802, -0.139 -0.2343 0.183, -0.1413 -0.2382 0.183, -0.1413 -0.2343 0.183, -0.1368 -0.2382 0.1716, -0.1381 -0.2343 0.1748, -0.1368 -0.2343 0.1716, -0.1377 -0.2343 0.1695, -0.1377 -0.2382 0.1695, -0.1369 -0.2343 0.1714, -0.1381 -0.2343 0.1688, -0.1381 -0.2382 0.1688, -0.1381 -0.2343 0.1688, -0.1384 -0.2343 0.1684, -0.1384 -0.2382 0.1684, -0.1387 -0.2343 0.1682, -0.1387 -0.2382 0.1682, -0.1392 -0.2343 0.168, -0.1392 -0.2382 0.168, -0.1397 -0.2343 0.1679, -0.1397 -0.2382 0.1679, -0.1397 -0.2343 0.1679, -0.1397 -0.2382 0.1679, -0.1404 -0.2343 0.168, -0.1404 -0.2382 0.168, -0.1409 -0.2343 0.1681, -0.1409 -0.2382 0.1681, -0.1409 -0.2382 0.1664, -0.1409 -0.2343 0.1664, -0.14 -0.2343 0.1662, -0.14 -0.2382 0.1662, -0.1396 -0.2343 0.1662, -0.1396 -0.2382 0.1662, -0.1387 -0.2343 0.1663, -0.1387 -0.2382 0.1663, -0.1381 -0.2343 0.1666, -0.1379 -0.2382 0.1666, -0.1379 -0.2343 0.1666, -0.1372 -0.2343 0.1671, -0.1372 -0.2382 0.1671, -0.1364 -0.2343 0.1681, -0.1364 -0.2382 0.1681, -0.1355 -0.2343 0.1699, -0.1355 -0.2382 0.1699, -0.1349 -0.2343 0.1714, -0.1195 -0.2382 0.1734, -0.1195 -0.2382 0.1716, -0.1195 -0.2343 0.1734, -0.1195 -0.2343 0.1716, -0.1261 -0.2382 0.1734, -0.1231 -0.2343 0.1734, -0.1261 -0.2343 0.1734, -0.1261 -0.2382 0.1788, -0.1261 -0.2343 0.1788, -0.1203 -0.2382 0.1788, -0.1231 -0.2343 0.1788, -0.1203 -0.2343 0.1788, -0.1203 -0.2382 0.1806, -0.1203 -0.2343 0.1806, -0.1261 -0.2343 0.1806, -0.1261 -0.2382 0.1806, -0.1231 -0.2343 0.1806, -0.1261 -0.2382 0.1858, -0.1261 -0.2343 0.1858, -0.1199 -0.2343 0.1858, -0.1199 -0.2382 0.1858, -0.1231 -0.2343 0.1858, -0.1199 -0.2382 0.1876, -0.1199 -0.2343 0.1876, -0.1281 -0.2343 0.1876, -0.1281 -0.2382 0.1876, -0.1231 -0.2343 0.1876, -0.1281 -0.2382 0.1716, -0.1281 -0.2343 0.1716, -0.1231 -0.2343 0.1716, -0.1059 -0.2382 0.1738, -0.1075 -0.2382 0.1749, -0.1075 -0.2382 0.1726, -0.1085 -0.2382 0.1742, -0.1094 -0.2382 0.1719, -0.1099 -0.2382 0.1737, -0.1121 -0.2382 0.1716, -0.1121 -0.2382 0.1734, -0.1165 -0.2382 0.1716, -0.1144 -0.2382 0.1734, -0.1165 -0.2382 0.1876, -0.1144 -0.2382 0.1858, -0.1119 -0.2382 0.1876, -0.112 -0.2382 0.1858, -0.1095 -0.2382 0.1873, -0.1099 -0.2382 0.1855, -0.1075 -0.2382 0.1866, -0.1086 -0.2382 0.185, -0.1059 -0.2382 0.1855, -0.1074 -0.2382 0.1842, -0.1053 -0.2382 0.1849, -0.1069 -0.2382 0.1838, -0.1043 -0.2382 0.1835, -0.1063 -0.2382 0.1829, -0.1037 -0.2382 0.182, -0.1059 -0.2382 0.1818, -0.1035 -0.2382 0.1798, -0.1056 -0.2382 0.1797, -0.1035 -0.2382 0.1788, -0.1057 -0.2382 0.1785, -0.1039 -0.2382 0.1769, -0.1061 -0.2382 0.1771, -0.1047 -0.2382 0.1752, -0.1066 -0.2382 0.1759, -0.1073 -0.2382 0.1751, -0.1121 -0.2343 0.1716, -0.1165 -0.2343 0.1716, -0.1094 -0.2343 0.1719, -0.1075 -0.2343 0.1726, -0.1059 -0.2343 0.1738, -0.1047 -0.2343 0.1752, -0.1039 -0.2343 0.1769, -0.1035 -0.2343 0.1788, -0.1035 -0.2343 0.1798, -0.1037 -0.2343 0.182, -0.1043 -0.2343 0.1835, -0.1053 -0.2343 0.1849, -0.1059 -0.2343 0.1855, -0.1075 -0.2343 0.1866, -0.1095 -0.2343 0.1873, -0.1119 -0.2343 0.1876, -0.1165 -0.2343 0.1876, -0.112 -0.2343 0.1858, -0.1144 -0.2343 0.1858, -0.1144 -0.2343 0.1734, -0.1121 -0.2343 0.1734, -0.1073 -0.2343 0.1751, -0.1075 -0.2343 0.1749, -0.1085 -0.2343 0.1742, -0.1099 -0.2343 0.1737, -0.1056 -0.2343 0.1797, -0.1057 -0.2343 0.1785, -0.1061 -0.2343 0.1771, -0.1066 -0.2343 0.1759, -0.1074 -0.2343 0.1842, -0.1069 -0.2343 0.1838, -0.1063 -0.2343 0.1829, -0.1059 -0.2343 0.1818, -0.1099 -0.2343 0.1855, -0.1086 -0.2343 0.185
            ]
        }
        coordIndex [
            0,1,2,-1,3,4,5,-1,3,5,6,-1,6,5,7,-1,6,7,2,-1,2,7,8,-1,2,8,0,-1,9,1,10,-1,10,1,0,-1,10,11,9,-1,9,11,12,-1,13,14,15,-1,15,14,12,-1,15,12,16,-1,16,12,11,-1,13,17,14,-1,14,17,18,-1,17,19,18,-1,18,19,20,-1,18,20,21,-1,21,20,22,-1,21,22,23,-1,23,22,24,-1,23,24,25,-1,25,24,26,-1,25,26,27,-1,27,26,28,-1,27,28,29,-1,29,28,30,-1,29,30,31,-1,31,30,32,-1,31,32,33,-1,33,32,34,-1,33,34,35,-1,35,34,36,-1,35,36,37,-1,37,36,38,-1,37,38,39,-1,39,38,40,-1,39,40,41,-1,41,40,42,-1,41,42,43,-1,43,42,44,-1,43,44,45,-1,45,44,46,-1,45,46,47,-1,47,46,48,-1,47,48,49,-1,49,48,50,-1,49,50,51,-1,51,50,52,-1,51,52,53,-1,53,52,54,-1,53,54,55,-1,55,54,56,-1,55,56,57,-1,57,56,58,-1,57,58,59,-1,59,58,60,-1,59,60,61,-1,61,60,62,-1,61,62,63,-1,63,62,64,-1,63,64,65,-1,65,64,66,-1,65,66,67,-1,67,66,68,-1,67,68,69,-1,69,68,70,-1,69,70,71,-1,71,70,72,-1,71,72,73,-1,73,72,74,-1,73,74,75,-1,76,75,77,-1,77,75,74,-1,76,77,78,-1,76,78,79,-1,79,78,80,-1,79,80,81,-1,81,80,82,-1,81,82,83,-1,83,82,84,-1,83,84,85,-1,85,84,86,-1,85,86,87,-1,86,88,87,-1,87,88,89,-1,88,90,89,-1,89,90,91,-1,89,91,92,-1,92,91,93,-1,92,93,94,-1,94,93,95,-1,94,95,96,-1,96,95,97,-1,96,97,98,-1,98,97,99,-1,98,99,100,-1,100,99,101,-1,100,101,102,-1,103,104,105,-1,102,101,106,-1,102,106,107,-1,107,106,108,-1,107,108,105,-1,105,108,109,-1,105,109,103,-1,104,103,110,-1,104,110,111,-1,111,110,112,-1,111,112,113,-1,113,112,114,-1,113,114,115,-1,115,114,116,-1,115,116,117,-1,117,116,118,-1,117,118,119,-1,119,118,120,-1,119,120,121,-1,121,120,122,-1,121,122,123,-1,123,122,124,-1,123,124,125,-1,125,124,126,-1,125,126,127,-1,127,126,128,-1,127,128,129,-1,129,128,130,-1,129,130,131,-1,131,130,132,-1,131,132,133,-1,133,132,134,-1,133,134,135,-1,135,134,4,-1,135,4,3,-1,59,61,87,-1,87,61,85,-1,85,61,63,-1,85,63,83,-1,125,25,27,-1,111,43,104,-1,104,43,45,-1,125,27,123,-1,123,27,29,-1,123,29,121,-1,121,29,31,-1,121,31,119,-1,119,31,33,-1,119,33,117,-1,117,33,35,-1,117,35,115,-1,115,35,37,-1,115,37,113,-1,113,37,39,-1,113,39,111,-1,111,39,41,-1,111,41,43,-1,25,125,23,-1,23,125,127,-1,23,127,21,-1,14,3,12,-1,12,3,6,-1,12,6,9,-1,9,6,2,-1,9,2,1,-1,63,65,83,-1,83,65,67,-1,83,67,81,-1,81,67,69,-1,81,69,79,-1,79,69,71,-1,79,71,76,-1,76,71,73,-1,76,73,75,-1,127,129,21,-1,21,129,131,-1,21,131,18,-1,18,131,133,-1,18,133,14,-1,14,133,135,-1,14,135,3,-1,87,89,59,-1,59,89,92,-1,59,92,57,-1,57,92,94,-1,57,94,55,-1,55,94,96,-1,55,96,53,-1,53,96,98,-1,53,98,51,-1,51,98,100,-1,51,100,49,-1,49,100,102,-1,49,102,47,-1,47,102,107,-1,47,107,45,-1,45,107,105,-1,45,105,104,-1,136,137,138,-1,138,137,139,-1,140,136,141,-1,141,136,138,-1,140,141,142,-1,140,142,143,-1,143,142,144,-1,143,144,145,-1,146,145,147,-1,147,145,144,-1,148,146,149,-1,149,146,147,-1,148,149,150,-1,150,149,151,-1,150,151,152,-1,153,150,154,-1,154,150,152,-1,153,154,155,-1,155,154,156,-1,155,156,157,-1,158,159,160,-1,160,159,155,-1,160,155,157,-1,158,161,159,-1,159,161,162,-1,161,163,162,-1,162,163,164,-1,162,164,165,-1,165,164,166,-1,165,166,167,-1,167,166,168,-1,167,168,169,-1,169,168,170,-1,169,170,171,-1,171,170,172,-1,171,172,173,-1,173,172,174,-1,173,174,175,-1,175,174,176,-1,175,176,177,-1,178,177,179,-1,179,177,176,-1,178,179,180,-1,178,180,181,-1,181,180,182,-1,181,182,183,-1,183,182,184,-1,183,184,185,-1,185,184,186,-1,185,186,187,-1,186,188,187,-1,187,188,189,-1,187,189,190,-1,190,189,191,-1,190,191,192,-1,192,191,193,-1,192,193,194,-1,139,137,195,-1,195,137,194,-1,195,194,193,-1,143,145,194,-1,137,136,194,-1,194,136,140,-1,194,140,143,-1,150,153,148,-1,148,153,155,-1,148,155,146,-1,145,146,194,-1,194,146,155,-1,194,155,192,-1,155,159,192,-1,192,159,162,-1,192,162,190,-1,190,162,165,-1,190,165,187,-1,187,165,167,-1,187,167,185,-1,185,167,169,-1,185,169,183,-1,183,169,171,-1,183,171,181,-1,181,171,173,-1,181,173,178,-1,178,173,175,-1,178,175,177,-1,196,197,198,-1,198,197,199,-1,196,198,200,-1,200,198,201,-1,200,201,202,-1,203,200,204,-1,204,200,202,-1,203,204,205,-1,205,204,206,-1,205,206,207,-1,208,205,209,-1,209,205,207,-1,210,211,212,-1,212,211,208,-1,212,208,209,-1,213,211,214,-1,214,211,210,-1,215,216,217,-1,217,216,213,-1,217,213,214,-1,218,216,219,-1,219,216,215,-1,220,221,222,-1,222,221,218,-1,222,218,219,-1,223,221,224,-1,224,221,220,-1,223,224,197,-1,197,224,225,-1,197,225,199,-1,223,197,196,-1,196,200,223,-1,223,200,203,-1,223,203,221,-1,216,218,213,-1,213,218,221,-1,213,221,211,-1,211,221,203,-1,211,203,208,-1,208,203,205,-1,226,227,228,-1,228,227,229,-1,228,229,230,-1,230,229,231,-1,230,231,232,-1,232,231,233,-1,232,233,234,-1,234,233,235,-1,234,235,236,-1,236,235,237,-1,236,237,238,-1,238,237,239,-1,238,239,240,-1,240,239,241,-1,240,241,242,-1,242,241,243,-1,242,243,244,-1,244,243,245,-1,244,245,246,-1,246,245,247,-1,246,247,248,-1,248,247,249,-1,248,249,250,-1,250,249,251,-1,250,251,252,-1,252,251,253,-1,252,253,254,-1,254,253,255,-1,254,255,256,-1,256,255,257,-1,256,257,258,-1,258,257,259,-1,258,259,226,-1,226,259,260,-1,226,260,227,-1,232,234,261,-1,261,234,262,-1,232,261,263,-1,232,263,230,-1,230,263,264,-1,230,264,228,-1,228,264,265,-1,228,265,226,-1,226,265,266,-1,226,266,258,-1,258,266,267,-1,258,267,256,-1,256,267,268,-1,256,268,254,-1,254,268,269,-1,254,269,252,-1,252,269,270,-1,252,270,250,-1,250,270,271,-1,250,271,248,-1,248,271,272,-1,248,272,246,-1,246,272,273,-1,246,273,244,-1,244,273,274,-1,244,274,242,-1,242,274,275,-1,242,275,240,-1,240,275,276,-1,240,276,238,-1,236,238,277,-1,277,238,276,-1,234,236,262,-1,262,236,277,-1,239,237,278,-1,278,237,279,-1,237,235,279,-1,279,235,280,-1,235,233,280,-1,280,233,281,-1,260,282,283,-1,260,283,227,-1,227,283,284,-1,227,284,229,-1,229,284,285,-1,229,285,231,-1,231,285,281,-1,231,281,233,-1,253,286,287,-1,253,287,255,-1,255,287,288,-1,255,288,257,-1,257,288,289,-1,257,289,259,-1,259,289,282,-1,259,282,260,-1,245,290,291,-1,245,291,247,-1,247,291,292,-1,247,292,249,-1,249,292,293,-1,249,293,251,-1,251,293,286,-1,251,286,253,-1,239,278,294,-1,239,294,241,-1,241,294,295,-1,241,295,243,-1,243,295,290,-1,243,290,245,-1,
        ]
    }
}
Shape{
    appearance Appearance {
        material  Material 	{
            diffuseColor 0.25098039215686274 0.25098039215686274 0.25098039215686274
            specularColor 0.12549019607843137 0.12549019607843137 0.12549019607843137
            ambientIntensity 0.251
            transparency 0.0
            shininess 0.5
        }
    }
    geometry IndexedFaceSet {
        ccw TRUE
        solid FALSE
        coord DEF co Coordinate {
            point [
                -0.1075 -0.2343 0.1749, -0.1073 -0.2343 0.1751, -0.112 -0.2343 0.1858, -0.1144 -0.2343 0.1858, -0.1144 -0.2343 0.1734, -0.1121 -0.2343 0.1734, -0.1099 -0.2343 0.1737, -0.1085 -0.2343 0.1742, -0.1066 -0.2343 0.1759, -0.1061 -0.2343 0.1771, -0.1057 -0.2343 0.1785, -0.1056 -0.2343 0.1797, -0.1059 -0.2343 0.1818, -0.1063 -0.2343 0.1829, -0.1069 -0.2343 0.1838, -0.1074 -0.2343 0.1842, -0.1099 -0.2343 0.1855, -0.1086 -0.2343 0.185
            ]
        }
        coordIndex [
            0,1,2,-1,3,4,2,-1,2,4,5,-1,5,6,2,-1,2,6,7,-1,2,7,0,-1,1,8,2,-1,2,8,9,-1,2,9,10,-1,10,11,2,-1,2,11,12,-1,2,12,13,-1,13,14,2,-1,2,14,15,-1,2,15,16,-1,16,15,17,-1,
        ]
    }
}
Shape{
    appearance Appearance {
        material  Material 	{
            diffuseColor 1.0 1.0 1.0
            specularColor 0.5019607843137255 0.5019607843137255 0.5019607843137255
            ambientIntensity 1.0
            transparency 0.0
            shininess 0.5
        }
    }
    geometry IndexedFaceSet {
        ccw TRUE
        solid FALSE
        coord DEF co Coordinate {
            point [
                -0.0981 -0.2382 0.1778, -0.0987 -0.2382 0.176, -0.0927 -0.2382 0.1778, -0.0921 -0.2382 0.176, -0.0957 -0.2382 0.1844, -0.0965 -0.2382 0.1876, -0.1026 -0.2382 0.1716, -0.1003 -0.2382 0.1716, -0.0956 -0.2382 0.1849, -0.0954 -0.2382 0.1855, -0.0943 -0.2382 0.1876, -0.0954 -0.2382 0.1855, -0.0953 -0.2382 0.1849, -0.0951 -0.2382 0.1844, -0.0882 -0.2382 0.1716, -0.0904 -0.2382 0.1716, -0.0943 -0.2343 0.1876, -0.0882 -0.2343 0.1716, -0.0965 -0.2343 0.1876, -0.1026 -0.2343 0.1716, -0.1003 -0.2343 0.1716, -0.0987 -0.2343 0.176, -0.0921 -0.2343 0.176, -0.0904 -0.2343 0.1716, -0.0981 -0.2343 0.1778, -0.0927 -0.2343 0.1778, -0.0951 -0.2343 0.1844, -0.0954 -0.2343 0.1855, -0.0953 -0.2343 0.1849, -0.0954 -0.2343 0.1855, -0.0957 -0.2343 0.1844, -0.0956 -0.2343 0.1849
            ]
        }
        coordIndex [
            0,1,2,-1,2,1,3,-1,4,5,0,-1,0,5,6,-1,0,6,1,-1,1,6,7,-1,4,8,5,-1,5,8,9,-1,5,9,10,-1,10,9,11,-1,10,11,12,-1,12,13,10,-1,10,13,2,-1,10,2,14,-1,14,2,3,-1,14,3,15,-1,10,14,16,-1,16,14,17,-1,5,10,18,-1,18,10,16,-1,6,5,19,-1,19,5,18,-1,7,6,20,-1,20,6,19,-1,1,7,21,-1,21,7,20,-1,3,1,22,-1,22,1,21,-1,15,3,23,-1,23,3,22,-1,14,15,17,-1,17,15,23,-1,0,2,24,-1,24,2,25,-1,2,13,25,-1,25,13,26,-1,11,27,28,-1,11,28,12,-1,12,28,26,-1,12,26,13,-1,11,9,27,-1,27,9,29,-1,4,30,31,-1,4,31,8,-1,8,31,29,-1,8,29,9,-1,4,0,30,-1,30,0,24,-1,
        ]
    }
}
Shape{
    appearance Appearance {
        material  Material 	{
            diffuseColor 0.25098039215686274 0.25098039215686274 0.25098039215686274
            specularColor 0.12549019607843137 0.12549019607843137 0.12549019607843137
            ambientIntensity 0.251
            transparency 0.0
            shininess 0.5
        }
    }
    geometry IndexedFaceSet {
        ccw TRUE
        solid FALSE
        coord DEF co Coordinate {
            point [
                -0.0954 -0.2343 0.1855, -0.0954 -0.2343 0.1855, -0.0953 -0.2343 0.1849, -0.0956 -0.2343 0.1849, -0.0951 -0.2343 0.1844, -0.0957 -0.2343 0.1844, -0.0927 -0.2343 0.1778, -0.0981 -0.2343 0.1778
            ]
        }
        coordIndex [
            0,1,2,-1,2,1,3,-1,2,3,4,-1,4,3,5,-1,4,5,6,-1,6,5,7,-1,
        ]
    }
}
Shape{
    appearance Appearance {
        material  Material 	{
            diffuseColor 1.0 1.0 1.0
            specularColor 0.5019607843137255 0.5019607843137255 0.5019607843137255
            ambientIntensity 1.0
            transparency 0.0
            shininess 0.5
        }
    }
    geometry IndexedFaceSet {
        ccw TRUE
        solid FALSE
        coord DEF co Coordinate {
            point [
                -0.2432 -0.2382 0.1693, -0.2415 -0.2382 0.1672, -0.2442 -0.2382 0.1794, -0.2242 -0.2382 0.1689, -0.2229 -0.2382 0.1714, -0.2222 -0.2382 0.1742, -0.2366 -0.2382 0.172, -0.2357 -0.2382 0.1714, -0.2393 -0.2382 0.1655, -0.2347 -0.2382 0.171, -0.2062 -0.2382 0.185, -0.2097 -0.2382 0.191, -0.2221 -0.2382 0.1765, -0.225 -0.2382 0.183, -0.2221 -0.2382 0.1754, -0.2282 -0.2382 0.1653, -0.226 -0.2382 0.1669, -0.2467 -0.2382 0.1809, -0.2462 -0.2382 0.1723, -0.2443 -0.2382 0.1718, -0.2024 -0.2382 0.1962, -0.2015 -0.2382 0.1962, -0.1969 -0.2382 0.2024, -0.1994 -0.2382 0.196, -0.1963 -0.2382 0.2022, -0.1974 -0.2382 0.1952, -0.1929 -0.2382 0.2005, -0.1898 -0.2382 0.1979, -0.2345 -0.2382 0.2, -0.2336 -0.2382 0.1995, -0.2372 -0.2382 0.2078, -0.232 -0.2382 0.203, -0.2348 -0.2382 0.2106, -0.2295 -0.2382 0.2061, -0.2322 -0.2382 0.2129, -0.2263 -0.2382 0.2084, -0.2294 -0.2382 0.2146, -0.2367 -0.2382 0.1644, -0.234 -0.2382 0.164, -0.2336 -0.2382 0.1708, -0.2335 -0.2382 0.164, -0.2327 -0.2382 0.1709, -0.2308 -0.2382 0.1643, -0.2317 -0.2382 0.1713, -0.2308 -0.2382 0.1719, -0.23 -0.2382 0.1727, -0.1898 -0.2382 0.1766, -0.1951 -0.2382 0.1812, -0.193 -0.2382 0.174, -0.1968 -0.2382 0.1798, -0.1965 -0.2382 0.1723, -0.1988 -0.2382 0.1789, -0.2002 -0.2382 0.1715, -0.2009 -0.2382 0.1785, -0.2069 -0.2382 0.1715, -0.206 -0.2382 0.1785, -0.2075 -0.2382 0.1716, -0.203 -0.2382 0.2114, -0.2072 -0.2382 0.2059, -0.1993 -0.2382 0.2071, -0.2047 -0.2382 0.2028, -0.203 -0.2382 0.1991, -0.2488 -0.2382 0.183, -0.2535 -0.2382 0.1772, -0.2503 -0.2382 0.1744, -0.2507 -0.2382 0.1926, -0.2582 -0.2382 0.1909, -0.2511 -0.2382 0.1899, -0.2582 -0.2382 0.1896, -0.2509 -0.2382 0.1881, -0.2578 -0.2382 0.1856, -0.2501 -0.2382 0.1853, -0.2562 -0.2382 0.1813, -0.2538 -0.2382 0.1776, -0.2373 -0.2382 0.1728, -0.2378 -0.2382 0.1738, -0.2381 -0.2382 0.1748, -0.2295 -0.2382 0.1769, -0.2292 -0.2382 0.1758, -0.2292 -0.2382 0.1748, -0.2295 -0.2382 0.1737, -0.1956 -0.2382 0.194, -0.1943 -0.2382 0.1925, -0.1875 -0.2382 0.1946, -0.1932 -0.2382 0.1905, -0.1861 -0.2382 0.1911, -0.1927 -0.2382 0.1883, -0.1856 -0.2382 0.1875, -0.1927 -0.2382 0.1873, -0.1861 -0.2382 0.1833, -0.1929 -0.2382 0.1851, -0.1876 -0.2382 0.1797, -0.1937 -0.2382 0.1831, -0.195 -0.2382 0.1813, -0.2242 -0.2382 0.2166, -0.2226 -0.2382 0.2099, -0.2185 -0.2382 0.2173, -0.2184 -0.2382 0.2105, -0.2138 -0.2382 0.2168, -0.2146 -0.2382 0.21, -0.2081 -0.2382 0.2148, -0.2111 -0.2382 0.2087, -0.2078 -0.2382 0.2065, -0.237 -0.2382 0.2009, -0.2385 -0.2382 0.208, -0.2397 -0.2382 0.2012, -0.2398 -0.2382 0.2081, -0.2408 -0.2382 0.2012, -0.2439 -0.2382 0.2076, -0.2437 -0.2382 0.2005, -0.2481 -0.2382 0.2061, -0.2462 -0.2382 0.1992, -0.2519 -0.2382 0.2035, -0.2482 -0.2382 0.1974, -0.2529 -0.2382 0.2026, -0.2498 -0.2382 0.1951, -0.2554 -0.2382 0.1994, -0.2573 -0.2382 0.1954, -0.2381 -0.2382 0.1758, -0.2378 -0.2382 0.1768, -0.243 -0.2382 0.1818, -0.2373 -0.2382 0.1778, -0.2411 -0.2382 0.184, -0.2365 -0.2382 0.1787, -0.2388 -0.2382 0.1856, -0.2356 -0.2382 0.1793, -0.2362 -0.2382 0.1866, -0.2346 -0.2382 0.1796, -0.2335 -0.2382 0.1869, -0.2336 -0.2382 0.1797, -0.2321 -0.2382 0.1868, -0.2327 -0.2382 0.1796, -0.2294 -0.2382 0.1861, -0.2316 -0.2382 0.1792, -0.227 -0.2382 0.1848, -0.2307 -0.2382 0.1786, -0.23 -0.2382 0.1778, -0.2065 -0.2382 0.1786, -0.2093 -0.2382 0.1727, -0.209 -0.2382 0.1724, -0.2102 -0.2382 0.1751, -0.2101 -0.2382 0.1742, -0.2098 -0.2382 0.1734, -0.2062 -0.2382 0.1785, -0.2083 -0.2382 0.1719, -0.2075 -0.2382 0.1785, -0.2083 -0.2382 0.1782, -0.2102 -0.2382 0.1754, -0.209 -0.2382 0.1777, -0.2095 -0.2382 0.1771, -0.21 -0.2382 0.1763, -0.2067 -0.2382 0.1786, -0.1856 -0.2343 0.1875, -0.1861 -0.2343 0.1911, -0.1865 -0.2343 0.1922, -0.1875 -0.2343 0.1946, -0.1891 -0.2343 0.1968, -0.1898 -0.2343 0.1979, -0.1929 -0.2343 0.2005, -0.1963 -0.2343 0.2022, -0.1969 -0.2343 0.2024, -0.1993 -0.2343 0.2071, -0.203 -0.2343 0.2114, -0.2056 -0.2343 0.2131, -0.2081 -0.2343 0.2148, -0.2138 -0.2343 0.2168, -0.2185 -0.2343 0.2173, -0.2322 -0.2343 0.2129, -0.2317 -0.2343 0.2131, -0.2294 -0.2343 0.2146, -0.2242 -0.2343 0.2166, -0.2348 -0.2343 0.2106, -0.2372 -0.2343 0.2078, -0.2385 -0.2343 0.208, -0.2398 -0.2343 0.2081, -0.2439 -0.2343 0.2076, -0.2481 -0.2343 0.2061, -0.2519 -0.2343 0.2035, -0.2529 -0.2343 0.2026, -0.2582 -0.2343 0.1896, -0.2554 -0.2343 0.1994, -0.2566 -0.2343 0.1968, -0.2573 -0.2343 0.1954, -0.2579 -0.2343 0.1922, -0.2582 -0.2343 0.1909, -0.2578 -0.2343 0.1856, -0.2562 -0.2343 0.1813, -0.2538 -0.2343 0.1776, -0.2535 -0.2343 0.1772, -0.2503 -0.2343 0.1744, -0.2462 -0.2343 0.1723, -0.2443 -0.2343 0.1718, -0.2442 -0.2343 0.1714, -0.2432 -0.2343 0.1693, -0.2415 -0.2343 0.1672, -0.2393 -0.2343 0.1655, -0.2382 -0.2343 0.1651, -0.2367 -0.2343 0.1644, -0.234 -0.2343 0.164, -0.2335 -0.2343 0.164, -0.2221 -0.2343 0.1754, -0.2308 -0.2343 0.1643, -0.2288 -0.2343 0.1651, -0.2282 -0.2343 0.1653, -0.226 -0.2343 0.1669, -0.2242 -0.2343 0.1689, -0.2229 -0.2343 0.1714, -0.2229 -0.2343 0.1714, -0.2222 -0.2343 0.1742, -0.2221 -0.2343 0.1765, -0.2062 -0.2343 0.185, -0.2097 -0.2343 0.191, -0.225 -0.2343 0.183, -0.227 -0.2343 0.1848, -0.2294 -0.2343 0.1861, -0.2321 -0.2343 0.1868, -0.2335 -0.2343 0.1869, -0.2362 -0.2343 0.1866, -0.2388 -0.2343 0.1856, -0.2411 -0.2343 0.184, -0.243 -0.2343 0.1818, -0.2442 -0.2343 0.1794, -0.2467 -0.2343 0.1809, -0.2488 -0.2343 0.183, -0.2501 -0.2343 0.1853, -0.2509 -0.2343 0.1881, -0.2511 -0.2343 0.1899, -0.2508 -0.2343 0.1922, -0.2507 -0.2343 0.1926, -0.2498 -0.2343 0.1951, -0.2486 -0.2343 0.1968, -0.2482 -0.2343 0.1974, -0.2462 -0.2343 0.1992, -0.2437 -0.2343 0.2005, -0.2408 -0.2343 0.2012, -0.2397 -0.2343 0.2012, -0.237 -0.2343 0.2009, -0.2345 -0.2343 0.2, -0.2336 -0.2343 0.1995, -0.232 -0.2343 0.203, -0.2295 -0.2343 0.2061, -0.2263 -0.2343 0.2084, -0.2226 -0.2343 0.2099, -0.2184 -0.2343 0.2105, -0.2024 -0.2343 0.1962, -0.2026 -0.2343 0.1968, -0.203 -0.2343 0.1991, -0.2047 -0.2343 0.2028, -0.2072 -0.2343 0.2059, -0.2078 -0.2343 0.2065, -0.2111 -0.2343 0.2087, -0.2146 -0.2343 0.21, -0.2015 -0.2343 0.1962, -0.1994 -0.2343 0.196, -0.1974 -0.2343 0.1952, -0.1956 -0.2343 0.194, -0.1943 -0.2343 0.1925, -0.1941 -0.2343 0.1922, -0.1932 -0.2343 0.1905, -0.1927 -0.2343 0.1883, -0.1927 -0.2343 0.1873, -0.1929 -0.2343 0.1851, -0.1937 -0.2343 0.1831, -0.195 -0.2343 0.1813, -0.1951 -0.2343 0.1812, -0.1968 -0.2343 0.1798, -0.1988 -0.2343 0.1789, -0.2009 -0.2343 0.1785, -0.206 -0.2343 0.1785, -0.2062 -0.2343 0.1785, -0.2065 -0.2343 0.1786, -0.2067 -0.2343 0.1786, -0.2075 -0.2343 0.1785, -0.2083 -0.2343 0.1782, -0.209 -0.2343 0.1777, -0.2095 -0.2343 0.1771, -0.21 -0.2343 0.1763, -0.2102 -0.2343 0.1754, -0.2102 -0.2343 0.1751, -0.2101 -0.2343 0.1742, -0.2098 -0.2343 0.1734, -0.2093 -0.2343 0.1727, -0.209 -0.2343 0.1724, -0.2083 -0.2343 0.1719, -0.2075 -0.2343 0.1716, -0.2069 -0.2343 0.1715, -0.2002 -0.2343 0.1715, -0.1965 -0.2343 0.1723, -0.193 -0.2343 0.174, -0.1898 -0.2343 0.1766, -0.1876 -0.2343 0.1797, -0.1861 -0.2343 0.1833, -0.2336 -0.2343 0.1797, -0.2327 -0.2343 0.1796, -0.2316 -0.2343 0.1792, -0.2307 -0.2343 0.1786, -0.23 -0.2343 0.1778, -0.2295 -0.2343 0.1769, -0.2292 -0.2343 0.1758, -0.2292 -0.2343 0.1748, -0.2295 -0.2343 0.1737, -0.23 -0.2343 0.1727, -0.2308 -0.2343 0.1719, -0.2317 -0.2343 0.1713, -0.2327 -0.2343 0.1709, -0.2336 -0.2343 0.1708, -0.2347 -0.2343 0.171, -0.2357 -0.2343 0.1714, -0.2366 -0.2343 0.172, -0.2373 -0.2343 0.1728, -0.2378 -0.2343 0.1738, -0.2381 -0.2343 0.1748, -0.2381 -0.2343 0.1758, -0.2378 -0.2343 0.1768, -0.2373 -0.2343 0.1778, -0.2365 -0.2343 0.1787, -0.2356 -0.2343 0.1793, -0.2346 -0.2343 0.1796
            ]
        }
        coordIndex [
            0,1,2,-1,3,4,5,-1,6,1,7,-1,7,1,8,-1,7,8,9,-1,10,11,12,-1,12,11,13,-1,12,13,14,-1,14,13,15,-1,14,15,5,-1,5,15,16,-1,5,16,3,-1,17,18,2,-1,2,18,19,-1,2,19,0,-1,20,21,22,-1,22,21,23,-1,22,23,24,-1,24,23,25,-1,24,25,26,-1,26,25,27,-1,28,29,30,-1,30,29,31,-1,30,31,32,-1,32,31,33,-1,32,33,34,-1,34,33,35,-1,34,35,36,-1,8,37,9,-1,9,37,38,-1,9,38,39,-1,39,38,40,-1,39,40,41,-1,41,40,42,-1,41,42,43,-1,43,42,15,-1,43,15,44,-1,44,15,45,-1,46,47,48,-1,48,47,49,-1,48,49,50,-1,50,49,51,-1,50,51,52,-1,52,51,53,-1,52,53,54,-1,54,53,55,-1,54,55,56,-1,57,58,59,-1,59,58,60,-1,59,60,22,-1,22,60,61,-1,22,61,20,-1,62,63,17,-1,17,63,64,-1,17,64,18,-1,65,66,67,-1,67,66,68,-1,67,68,69,-1,69,68,70,-1,69,70,71,-1,71,70,72,-1,71,72,62,-1,62,72,73,-1,62,73,63,-1,6,74,1,-1,1,74,75,-1,1,75,2,-1,2,75,76,-1,77,78,13,-1,13,78,79,-1,13,79,15,-1,15,79,80,-1,15,80,45,-1,25,81,27,-1,27,81,82,-1,27,82,83,-1,83,82,84,-1,83,84,85,-1,85,84,86,-1,85,86,87,-1,87,86,88,-1,87,88,89,-1,89,88,90,-1,89,90,91,-1,91,90,92,-1,91,92,46,-1,46,92,93,-1,46,93,47,-1,36,35,94,-1,94,35,95,-1,94,95,96,-1,96,95,97,-1,96,97,98,-1,98,97,99,-1,98,99,100,-1,100,99,101,-1,100,101,57,-1,57,101,102,-1,57,102,58,-1,28,30,103,-1,103,30,104,-1,103,104,105,-1,105,104,106,-1,105,106,107,-1,107,106,108,-1,107,108,109,-1,109,108,110,-1,109,110,111,-1,111,110,112,-1,111,112,113,-1,113,112,114,-1,113,114,115,-1,115,114,116,-1,115,116,65,-1,65,116,117,-1,65,117,66,-1,76,118,2,-1,2,118,119,-1,2,119,120,-1,120,119,121,-1,120,121,122,-1,122,121,123,-1,122,123,124,-1,124,123,125,-1,124,125,126,-1,126,125,127,-1,126,127,128,-1,128,127,129,-1,128,129,130,-1,130,129,131,-1,130,131,132,-1,132,131,133,-1,132,133,134,-1,134,133,135,-1,134,135,13,-1,13,135,136,-1,13,136,77,-1,137,138,139,-1,140,141,137,-1,137,141,142,-1,137,142,138,-1,55,143,56,-1,56,143,137,-1,56,137,144,-1,144,137,139,-1,145,146,147,-1,146,148,147,-1,147,148,149,-1,147,149,150,-1,140,137,147,-1,147,137,151,-1,147,151,145,-1,87,152,153,-1,87,153,85,-1,85,153,154,-1,85,154,83,-1,154,155,83,-1,83,155,156,-1,83,156,27,-1,156,157,27,-1,27,157,158,-1,27,158,26,-1,26,158,159,-1,26,159,24,-1,24,159,160,-1,24,160,22,-1,22,160,161,-1,22,161,59,-1,59,161,162,-1,59,162,57,-1,57,162,100,-1,100,162,163,-1,163,164,100,-1,100,164,165,-1,100,165,98,-1,98,165,166,-1,98,166,96,-1,167,34,168,-1,168,34,36,-1,168,36,169,-1,169,36,94,-1,169,94,170,-1,170,94,96,-1,170,96,166,-1,34,167,171,-1,34,171,32,-1,32,171,172,-1,32,172,30,-1,30,172,173,-1,30,173,104,-1,104,173,174,-1,104,174,106,-1,106,174,175,-1,106,175,108,-1,108,175,176,-1,108,176,110,-1,110,176,177,-1,110,177,112,-1,112,177,178,-1,112,178,114,-1,179,68,66,-1,114,178,180,-1,114,180,116,-1,116,180,181,-1,116,181,117,-1,181,182,117,-1,117,182,183,-1,117,183,66,-1,66,183,184,-1,66,184,179,-1,68,179,185,-1,68,185,70,-1,70,185,186,-1,70,186,72,-1,72,186,187,-1,72,187,73,-1,73,187,188,-1,73,188,63,-1,63,188,189,-1,63,189,64,-1,64,189,190,-1,64,190,18,-1,18,190,191,-1,18,191,19,-1,19,191,192,-1,19,192,0,-1,192,193,0,-1,0,193,194,-1,0,194,1,-1,1,194,195,-1,1,195,8,-1,8,195,196,-1,8,196,37,-1,196,197,37,-1,37,197,198,-1,37,198,38,-1,38,198,199,-1,38,199,40,-1,200,14,5,-1,40,199,201,-1,40,201,42,-1,42,201,202,-1,42,202,15,-1,202,203,15,-1,15,203,204,-1,15,204,16,-1,16,204,205,-1,16,205,3,-1,3,205,206,-1,3,206,4,-1,4,206,207,-1,4,207,5,-1,5,207,208,-1,5,208,200,-1,12,14,209,-1,209,14,200,-1,10,12,210,-1,210,12,209,-1,11,10,211,-1,211,10,210,-1,13,11,212,-1,212,11,211,-1,13,212,213,-1,13,213,134,-1,134,213,214,-1,134,214,132,-1,132,214,215,-1,132,215,130,-1,130,215,216,-1,130,216,128,-1,128,216,217,-1,128,217,126,-1,126,217,218,-1,126,218,124,-1,124,218,219,-1,124,219,122,-1,122,219,220,-1,122,220,120,-1,120,220,221,-1,120,221,2,-1,2,221,222,-1,2,222,17,-1,17,222,223,-1,17,223,62,-1,62,223,224,-1,62,224,71,-1,71,224,225,-1,71,225,69,-1,69,225,226,-1,69,226,67,-1,226,227,67,-1,67,227,65,-1,227,228,65,-1,65,228,229,-1,65,229,115,-1,115,229,230,-1,115,230,113,-1,230,231,113,-1,113,231,232,-1,113,232,111,-1,111,232,233,-1,111,233,109,-1,109,233,234,-1,109,234,107,-1,107,234,235,-1,107,235,105,-1,105,235,236,-1,105,236,103,-1,103,236,237,-1,103,237,28,-1,28,237,238,-1,28,238,29,-1,29,238,239,-1,29,239,31,-1,31,239,240,-1,31,240,33,-1,33,240,241,-1,33,241,35,-1,35,241,242,-1,35,242,95,-1,95,242,243,-1,95,243,97,-1,244,20,245,-1,245,20,61,-1,245,61,246,-1,246,61,60,-1,246,60,247,-1,247,60,58,-1,247,58,248,-1,248,58,102,-1,248,102,249,-1,249,102,101,-1,249,101,250,-1,250,101,99,-1,250,99,251,-1,251,99,97,-1,251,97,243,-1,21,20,252,-1,252,20,244,-1,21,252,253,-1,21,253,23,-1,23,253,254,-1,23,254,25,-1,25,254,255,-1,25,255,81,-1,81,255,256,-1,81,256,82,-1,82,256,257,-1,82,257,84,-1,257,258,84,-1,84,258,259,-1,84,259,86,-1,86,259,260,-1,86,260,88,-1,88,260,261,-1,88,261,90,-1,90,261,262,-1,90,262,92,-1,92,262,263,-1,92,263,93,-1,93,263,264,-1,93,264,47,-1,47,264,265,-1,47,265,49,-1,49,265,266,-1,49,266,51,-1,51,266,267,-1,51,267,53,-1,55,53,268,-1,268,53,267,-1,55,268,269,-1,55,269,143,-1,143,269,270,-1,143,270,137,-1,137,270,271,-1,137,271,151,-1,151,271,272,-1,151,272,145,-1,145,272,273,-1,145,273,146,-1,146,273,274,-1,146,274,148,-1,148,274,275,-1,148,275,149,-1,149,275,276,-1,149,276,150,-1,150,276,277,-1,150,277,147,-1,147,277,278,-1,147,278,140,-1,140,278,279,-1,140,279,141,-1,141,279,280,-1,141,280,142,-1,142,280,281,-1,142,281,138,-1,138,281,282,-1,138,282,139,-1,139,282,283,-1,139,283,144,-1,144,283,284,-1,144,284,56,-1,56,284,285,-1,56,285,54,-1,52,54,286,-1,286,54,285,-1,52,286,287,-1,52,287,50,-1,50,287,288,-1,50,288,48,-1,48,288,289,-1,48,289,46,-1,46,289,290,-1,46,290,91,-1,91,290,291,-1,91,291,89,-1,89,291,152,-1,89,152,87,-1,129,292,293,-1,129,293,131,-1,131,293,294,-1,131,294,133,-1,133,294,295,-1,133,295,135,-1,135,295,296,-1,135,296,136,-1,136,296,297,-1,136,297,77,-1,77,297,298,-1,77,298,78,-1,78,298,299,-1,78,299,79,-1,79,299,300,-1,79,300,80,-1,80,300,301,-1,80,301,45,-1,45,301,302,-1,45,302,44,-1,44,302,303,-1,44,303,43,-1,43,303,304,-1,43,304,41,-1,41,304,305,-1,41,305,39,-1,39,305,306,-1,39,306,9,-1,9,306,307,-1,9,307,7,-1,7,307,308,-1,7,308,6,-1,6,308,309,-1,6,309,74,-1,74,309,310,-1,74,310,75,-1,75,310,311,-1,75,311,76,-1,76,311,312,-1,76,312,118,-1,118,312,313,-1,118,313,119,-1,119,313,314,-1,119,314,121,-1,121,314,315,-1,121,315,123,-1,123,315,316,-1,123,316,125,-1,125,316,317,-1,125,317,127,-1,127,317,292,-1,127,292,129,-1,
        ]
    }
}
Shape{
    appearance Appearance {
        material  Material 	{
            diffuseColor 0.25098039215686274 0.25098039215686274 0.25098039215686274
            specularColor 0.12549019607843137 0.12549019607843137 0.12549019607843137
            ambientIntensity 0.251
            transparency 0.0
            shininess 0.5
        }
    }
    geometry IndexedFaceSet {
        ccw TRUE
        solid FALSE
        coord DEF co Coordinate {
            point [
                -0.2336 -0.2343 0.1797, -0.2336 -0.2343 0.1708, -0.2327 -0.2343 0.1709, -0.2356 -0.2343 0.1793, -0.2381 -0.2343 0.1758, -0.2346 -0.2343 0.1796, -0.2381 -0.2343 0.1748, -0.23 -0.2343 0.1727, -0.2295 -0.2343 0.1737, -0.2292 -0.2343 0.1748, -0.2295 -0.2343 0.1769, -0.23 -0.2343 0.1778, -0.2307 -0.2343 0.1786, -0.2378 -0.2343 0.1738, -0.2373 -0.2343 0.1728, -0.2366 -0.2343 0.172, -0.2316 -0.2343 0.1792, -0.2327 -0.2343 0.1796, -0.2365 -0.2343 0.1787, -0.2373 -0.2343 0.1778, -0.2378 -0.2343 0.1768, -0.2357 -0.2343 0.1714, -0.2347 -0.2343 0.171, -0.2292 -0.2343 0.1758, -0.2317 -0.2343 0.1713, -0.2308 -0.2343 0.1719
            ]
        }
        coordIndex [
            0,1,2,-1,3,4,5,-1,5,4,6,-1,5,6,0,-1,7,8,9,-1,10,11,2,-1,2,11,12,-1,6,13,0,-1,0,13,14,-1,0,14,15,-1,12,16,2,-1,2,16,17,-1,2,17,0,-1,3,18,4,-1,4,18,19,-1,4,19,20,-1,15,21,0,-1,0,21,22,-1,0,22,1,-1,10,2,23,-1,23,2,24,-1,23,24,9,-1,9,24,25,-1,9,25,7,-1,
        ]
    }
}