#VRML V2.0 utf8
# 3D model generated by easyeda2kicad.py (https://github.com/uPesy/easyeda2kicad.py)

Shape{
    appearance Appearance {
        material  Material 	{
            diffuseColor 0.7529411764705882 0.7529411764705882 0.7529411764705882
            specularColor 0.3764705882352941 0.3764705882352941 0.3764705882352941
            ambientIntensity 0.7529
            transparency 0.0
            shininess 0.5
        }
    }
    geometry IndexedFaceSet {
        ccw TRUE
        solid FALSE
        coord DEF co Coordinate {
            point [
                -0.2559 -0.8051 0.0, -0.2559 0.8091 0.0, -0.2559 -0.8051 0.0394, -0.2559 0.8091 0.0394, -0.7283 -0.8051 0.0, -0.7283 -0.8051 0.0394, -0.7487 -0.8024 0.0394, -0.7487 -0.8024 0.0, -0.7677 -0.7946 0.0394, -0.7677 -0.7946 0.0, -0.784 -0.7821 0.0394, -0.784 -0.7821 0.0, -0.7965 -0.7657 0.0394, -0.7965 -0.7657 0.0, -0.8044 -0.7468 0.0394, -0.8044 -0.7468 0.0, -0.8071 -0.7264 0.0394, -0.8071 -0.7264 0.0, -0.8071 0.7303 0.0, -0.8071 0.7303 0.0394, -0.8044 0.7507 0.0394, -0.8044 0.7507 0.0, -0.7965 0.7697 0.0394, -0.7965 0.7697 0.0, -0.784 0.786 0.0394, -0.784 0.786 0.0, -0.7677 0.7985 0.0394, -0.7677 0.7985 0.0, -0.7487 0.8064 0.0394, -0.7487 0.8064 0.0, -0.7283 0.8091 0.0394, -0.7283 0.8091 0.0, 0.2559 0.8091 0.0, 0.2559 -0.8051 0.0, 0.2559 0.8091 0.0394, 0.2559 -0.8051 0.0394, 0.7283 -0.8051 0.0, 0.7283 -0.8051 0.0394, 0.8071 -0.7264 0.0, 0.8071 -0.7264 0.0394, 0.8044 -0.7468 0.0394, 0.8044 -0.7468 0.0, 0.7965 -0.7657 0.0394, 0.7965 -0.7657 0.0, 0.784 -0.7821 0.0394, 0.784 -0.7821 0.0, 0.7677 -0.7946 0.0394, 0.7677 -0.7946 0.0, 0.7487 -0.8024 0.0394, 0.7487 -0.8024 0.0, 0.8071 0.7303 0.0, 0.8071 0.7303 0.0394, 0.7283 0.8091 0.0, 0.7283 0.8091 0.0394, 0.7487 0.8064 0.0394, 0.7487 0.8064 0.0, 0.7677 0.7985 0.0394, 0.7677 0.7985 0.0, 0.784 0.786 0.0394, 0.784 0.786 0.0, 0.7965 0.7697 0.0394, 0.7965 0.7697 0.0, 0.8044 0.7507 0.0394, 0.8044 0.7507 0.0
            ]
        }
        coordIndex [
            0,1,2,-1,2,1,3,-1,4,0,5,-1,5,0,2,-1,4,5,6,-1,4,6,7,-1,7,6,8,-1,7,8,9,-1,9,8,10,-1,9,10,11,-1,11,10,12,-1,11,12,13,-1,13,12,14,-1,13,14,15,-1,15,14,16,-1,15,16,17,-1,18,17,19,-1,19,17,16,-1,18,19,20,-1,18,20,21,-1,21,20,22,-1,21,22,23,-1,23,22,24,-1,23,24,25,-1,25,24,26,-1,25,26,27,-1,27,26,28,-1,27,28,29,-1,29,28,30,-1,29,30,31,-1,1,31,3,-1,3,31,30,-1,31,1,0,-1,9,11,13,-1,0,4,31,-1,31,4,17,-1,31,17,18,-1,4,7,17,-1,17,7,9,-1,17,9,15,-1,15,9,13,-1,23,25,27,-1,18,21,31,-1,31,21,23,-1,31,23,29,-1,29,23,27,-1,20,19,30,-1,26,24,22,-1,6,5,16,-1,16,5,2,-1,16,2,19,-1,19,2,3,-1,19,3,30,-1,12,10,8,-1,20,30,22,-1,22,30,28,-1,22,28,26,-1,6,16,8,-1,8,16,14,-1,8,14,12,-1,32,33,34,-1,34,33,35,-1,33,36,35,-1,35,36,37,-1,38,39,40,-1,38,40,41,-1,41,40,42,-1,41,42,43,-1,43,42,44,-1,43,44,45,-1,45,44,46,-1,45,46,47,-1,47,46,48,-1,47,48,49,-1,49,48,37,-1,49,37,36,-1,38,50,39,-1,39,50,51,-1,52,53,54,-1,52,54,55,-1,55,54,56,-1,55,56,57,-1,57,56,58,-1,57,58,59,-1,59,58,60,-1,59,60,61,-1,61,60,62,-1,61,62,63,-1,63,62,51,-1,63,51,50,-1,52,32,53,-1,53,32,34,-1,36,33,38,-1,33,32,38,-1,38,32,52,-1,38,52,50,-1,43,45,47,-1,57,59,61,-1,38,41,36,-1,36,41,43,-1,36,43,49,-1,49,43,47,-1,52,55,50,-1,50,55,57,-1,50,57,63,-1,63,57,61,-1,40,39,37,-1,46,44,42,-1,54,53,51,-1,51,53,39,-1,37,39,35,-1,35,39,53,-1,35,53,34,-1,60,58,56,-1,40,37,42,-1,42,37,48,-1,42,48,46,-1,54,51,56,-1,56,51,62,-1,56,62,60,-1,
        ]
    }
}
Shape{
    appearance Appearance {
        material  Material 	{
            diffuseColor 0.5019607843137255 0.5019607843137255 0.5019607843137255
            specularColor 0.25098039215686274 0.25098039215686274 0.25098039215686274
            ambientIntensity 0.502
            transparency 0.0
            shininess 0.5
        }
    }
    geometry IndexedFaceSet {
        ccw TRUE
        solid FALSE
        coord DEF co Coordinate {
            point [
                -0.062 -0.8051 0.1989, -0.062 -0.8051 0.1778, -0.0106 -0.8051 0.1778, -0.062 -0.8051 0.2836, -0.062 -0.8051 0.2679, -0.0106 -0.8051 0.2679, 0.0098 -0.8051 0.3374, 0.0138 -0.8051 0.3379, -0.0074 -0.8051 0.3379, 0.0235 -0.8051 0.2839, 0.0201 -0.8051 0.2836, 0.0378 -0.8051 0.2836, 0.0477 -0.8051 0.3313, 0.0477 -0.8051 0.3142, 0.0621 -0.8051 0.3142, 0.0511 -0.8051 0.1992, 0.0488 -0.8051 0.1989, 0.0621 -0.8051 0.1989, 0.0394 -0.8051 0.199, 0.0378 -0.8051 0.1996, 0.0378 -0.8051 0.1989, 0.1146 -0.8051 0.2234, 0.1146 -0.8051 0.2054, 0.1246 -0.8051 0.2054, -0.3259 -0.8051 0.2637, -0.325 -0.8051 0.2679, -0.5272 -0.8051 0.2679, -0.1082 -0.8051 0.2957, -0.0979 -0.8051 0.287, -0.062 -0.8051 0.3379, -0.1506 -0.8051 0.3379, -0.1419 -0.8051 0.332, -0.1295 -0.8051 0.3177, -0.1214 -0.8051 0.302, -0.1194 -0.8051 0.3013, -0.1779 -0.8051 0.3501, -0.1589 -0.8051 0.3434, -0.062 -0.8051 1.1417, -0.2299 -0.8051 0.3426, -0.2124 -0.8051 0.3494, -0.5272 -0.8051 1.1417, -0.1935 -0.8051 0.3517, -0.3082 -0.8051 0.3028, -0.305 -0.8051 0.3057, -0.5272 -0.8051 0.3379, -0.2376 -0.8051 0.3379, -0.2391 -0.8051 0.3369, -0.2923 -0.8051 0.3143, -0.2781 -0.8051 0.3195, -0.2645 -0.8051 0.321, -0.248 -0.8051 0.3293, -0.2601 -0.8051 0.3208, -0.2558 -0.8051 0.3202, -0.5272 -0.8051 0.2836, -0.3229 -0.8051 0.2787, -0.3206 -0.8051 0.2836, -0.3166 -0.8051 0.2921, -0.2797 -0.8051 0.1999, -0.286 -0.8051 0.2019, -0.5272 -0.8051 0.1989, -0.2995 -0.8051 0.2089, -0.3101 -0.8051 0.2181, -0.3113 -0.8051 0.2196, -0.3194 -0.8051 0.2317, -0.3245 -0.8051 0.2459, -0.326 -0.8051 0.2595, -0.2628 -0.8051 0.1792, -0.2703 -0.8051 0.1848, -0.5272 -0.8051 0.1778, -0.2759 -0.8051 0.1918, -0.2792 -0.8051 0.1989, -0.5272 -0.8051 0.0394, -0.2541 -0.8051 0.1755, -0.2593 -0.8051 0.1778, -0.2279 -0.8051 0.1778, -0.2345 -0.8051 0.1752, -0.062 -0.8051 0.0394, -0.2436 -0.8051 0.1741, -0.2451 -0.8051 0.1741, -0.2081 -0.8051 0.1989, -0.2081 -0.8051 0.1988, -0.2126 -0.8051 0.1903, -0.2184 -0.8051 0.1837, -0.226 -0.8051 0.1785, -0.0856 -0.8051 0.2646, -0.0839 -0.8051 0.2523, -0.1595 -0.8051 0.2213, -0.1569 -0.8051 0.2223, -0.1526 -0.8051 0.2439, -0.0979 -0.8051 0.2162, -0.1084 -0.8051 0.2074, -0.2152 -0.8051 0.2375, -0.1643 -0.8051 0.2641, -0.2218 -0.8051 0.2435, -0.2298 -0.8051 0.2478, -0.0905 -0.8051 0.2265, -0.1076 -0.8051 0.2552, -0.1093 -0.8051 0.2625, -0.1123 -0.8051 0.2679, -0.3011 -0.8051 0.2679, -0.1619 -0.8051 0.2197, -0.0857 -0.8051 0.2385, -0.1541 -0.8051 0.2227, -0.1537 -0.8051 0.2227, -0.1526 -0.8051 0.2224, -0.2989 -0.8051 0.2452, -0.2944 -0.8051 0.2374, -0.2751 -0.8051 0.2335, -0.2876 -0.8051 0.2304, -0.2793 -0.8051 0.2254, -0.2611 -0.8051 0.2461, -0.2688 -0.8051 0.2407, -0.3021 -0.8051 0.2603, -0.3016 -0.8051 0.2545, -0.2527 -0.8051 0.2493, -0.2436 -0.8051 0.2504, -0.239 -0.8051 0.2501, -0.1151 -0.8051 0.2319, -0.1109 -0.8051 0.2378, -0.1083 -0.8051 0.2445, -0.1074 -0.8051 0.2519, -0.12 -0.8051 0.2018, -0.1324 -0.8051 0.1992, -0.1548 -0.8051 0.1992, -0.1569 -0.8051 0.1995, -0.1594 -0.8051 0.2004, -0.1619 -0.8051 0.2022, -0.1628 -0.8051 0.2032, -0.1658 -0.8051 0.2109, -0.1658 -0.8051 0.2121, -0.2057 -0.8051 0.2159, -0.1651 -0.8051 0.215, -0.1637 -0.8051 0.2177, -0.1518 -0.8051 0.2223, -0.1347 -0.8051 0.2223, -0.1279 -0.8051 0.2236, -0.1645 -0.8051 0.2056, -0.1655 -0.8051 0.2081, -0.2059 -0.8051 0.2082, -0.2057 -0.8051 0.2121, -0.1212 -0.8051 0.2267, -0.1156 -0.8051 0.2313, -0.14 -0.8051 0.2815, -0.2977 -0.8051 0.2779, -0.301 -0.8051 0.2694, -0.137 -0.8051 0.2815, -0.1129 -0.8051 0.269, -0.1173 -0.8051 0.274, -0.1232 -0.8051 0.2781, -0.1298 -0.8051 0.2806, -0.1559 -0.8051 0.3138, -0.158 -0.8051 0.3157, -0.244 -0.8051 0.2925, -0.1476 -0.8051 0.3033, -0.2938 -0.8051 0.2836, -0.2468 -0.8051 0.294, -0.1405 -0.8051 0.2836, -0.142 -0.8051 0.291, -0.1687 -0.8051 0.323, -0.1806 -0.8051 0.3275, -0.2385 -0.8051 0.3041, -0.1932 -0.8051 0.329, -0.2553 -0.8051 0.2971, -0.2641 -0.8051 0.2982, -0.268 -0.8051 0.298, -0.2071 -0.8051 0.3272, -0.2195 -0.8051 0.3222, -0.2301 -0.8051 0.3144, -0.2774 -0.8051 0.2958, -0.2859 -0.8051 0.2913, -0.2925 -0.8051 0.2855, -0.0955 -0.8051 0.2836, -0.0902 -0.8051 0.2762, -0.0869 -0.8051 0.2679, 0.1364 -0.8051 0.2054, 0.1364 -0.8051 0.1993, 0.1414 -0.8051 0.1989, 0.1246 -0.8051 0.1989, 0.1414 -0.8051 0.2679, 0.1352 -0.8051 0.2527, 0.1352 -0.8051 0.2466, 0.1337 -0.8051 0.2295, 0.1337 -0.8051 0.2234, 0.1246 -0.8051 0.2234, 0.1246 -0.8051 0.2466, 0.1246 -0.8051 0.2295, 0.1146 -0.8051 0.2466, 0.1146 -0.8051 0.2295, 0.1246 -0.8051 0.1993, 0.1077 -0.8051 0.1993, 0.1041 -0.8051 0.1989, 0.1077 -0.8051 0.2527, -0.0026 -0.8051 0.2173, -0.0013 -0.8051 0.2283, -0.0039 -0.8051 0.2151, -0.0047 -0.8051 0.2126, 0.0135 -0.8051 0.2327, 0.0112 -0.8051 0.2329, 0.0076 -0.8051 0.222, 0.0347 -0.8051 0.2076, 0.0256 -0.8051 0.2239, 0.0347 -0.8051 0.2007, 0.0256 -0.8051 0.1993, 0.0156 -0.8051 0.2014, 0.0132 -0.8051 0.1998, 0.0189 -0.8051 0.1993, 0.0107 -0.8051 0.1989, -0.0006 -0.8051 0.2191, 0.0021 -0.8051 0.2206, 0.0033 -0.8051 0.2312, 0.0075 -0.8051 0.2326, -0.0074 -0.8051 0.1778, 0.0032 -0.8051 0.1989, -0.0074 -0.8051 0.1989, 0.0031 -0.8051 0.1989, 0.0005 -0.8051 0.1999, 0.005 -0.8051 0.2375, -0.0074 -0.8051 0.2679, 0.0 -0.8051 0.2356, -0.0013 -0.8051 0.2348, -0.0018 -0.8051 0.2015, -0.0024 -0.8051 0.2021, -0.0038 -0.8051 0.2041, 0.0371 -0.8051 0.2061, 0.0378 -0.8051 0.2058, 0.0378 -0.8051 0.22, 0.0189 -0.8051 0.2052, 0.0187 -0.8051 0.2052, 0.0177 -0.8051 0.2037, -0.0047 -0.8051 0.2063, -0.005 -0.8051 0.2096, 0.035 -0.8051 0.2246, 0.0249 -0.8051 0.2295, 0.0347 -0.8051 0.2272, 0.0189 -0.8051 0.2236, 0.0187 -0.8051 0.2265, 0.018 -0.8051 0.2289, 0.0172 -0.8051 0.2303, 0.0118 -0.8051 0.2383, 0.0165 -0.8051 0.2378, 0.0192 -0.8051 0.2369, 0.0377 -0.8051 0.22, 0.0366 -0.8051 0.2212, 0.0357 -0.8051 0.2225, 0.0162 -0.8051 0.2314, 0.015 -0.8051 0.2321, 0.035 -0.8051 0.2296, 0.0358 -0.8051 0.2317, 0.0238 -0.8051 0.2324, 0.037 -0.8051 0.2335, 0.0224 -0.8051 0.2344, 0.0213 -0.8051 0.2355, 0.0407 -0.8051 0.1989, 0.0378 -0.8051 0.1778, 0.045 -0.8051 0.1984, 0.0586 -0.8051 0.2367, 0.0586 -0.8051 0.2302, 0.0378 -0.8051 0.2342, 0.0378 -0.8051 0.2679, 0.039 -0.8051 0.2353, 0.0406 -0.8051 0.2363, 0.0601 -0.8051 0.207, 0.0593 -0.8051 0.2049, 0.058 -0.8051 0.2032, 0.0442 -0.8051 0.2377, 0.0495 -0.8051 0.2383, 0.0621 -0.8051 0.2679, 0.0542 -0.8051 0.2379, 0.0582 -0.8051 0.216, 0.0594 -0.8051 0.2142, 0.0601 -0.8051 0.2122, 0.0604 -0.8051 0.2097, 0.0561 -0.8051 0.2015, 0.0546 -0.8051 0.2005, 0.0489 -0.8051 0.2329, 0.0469 -0.8051 0.2328, 0.0416 -0.8051 0.2278, 0.0451 -0.8051 0.2323, 0.0436 -0.8051 0.2315, 0.0417 -0.8051 0.2269, 0.0419 -0.8051 0.2259, 0.0424 -0.8051 0.225, 0.0431 -0.8051 0.2242, 0.0454 -0.8051 0.2228, 0.0536 -0.8051 0.2323, 0.0495 -0.8051 0.221, 0.0573 -0.8051 0.2309, 0.0521 -0.8051 0.2199, 0.0566 -0.8051 0.2174, 0.0426 -0.8051 0.2306, 0.042 -0.8051 0.2298, 0.0417 -0.8051 0.2289, 0.0412 -0.8051 0.2045, 0.0448 -0.8051 0.2161, 0.0408 -0.8051 0.2179, 0.0457 -0.8051 0.2039, 0.046 -0.8051 0.2039, 0.0492 -0.8051 0.2143, 0.0494 -0.8051 0.2043, 0.0535 -0.8051 0.2091, 0.0535 -0.8051 0.2099, 0.0511 -0.8051 0.2049, 0.0517 -0.8051 0.2053, 0.0525 -0.8051 0.206, 0.0531 -0.8051 0.2068, 0.0534 -0.8051 0.2078, 0.0532 -0.8051 0.2109, 0.0527 -0.8051 0.2118, 0.0518 -0.8051 0.2127, 0.161 -0.8051 0.2986, 0.1414 -0.8051 0.2986, 0.1665 -0.8051 0.284, 0.1414 -0.8051 0.2836, 0.1741 -0.8051 0.284, 0.7283 -0.8051 0.2836, 0.7283 -0.8051 0.3379, 0.1538 -0.8051 0.3374, 0.1414 -0.8051 0.3379, 0.1388 -0.8051 0.2986, 0.1337 -0.8051 0.284, 0.1246 -0.8051 0.2836, 0.1261 -0.8051 0.284, 0.1246 -0.8051 0.3379, 0.1414 -0.8051 0.3244, 0.1464 -0.8051 0.3374, 0.1041 -0.8051 0.2836, 0.1034 -0.8051 0.2851, 0.0943 -0.8051 0.284, 0.0746 -0.8051 0.2836, 0.0796 -0.8051 0.284, 0.0796 -0.8051 0.3374, 0.0746 -0.8051 0.3379, 0.0949 -0.8051 0.3374, 0.1041 -0.8051 0.3379, 0.1216 -0.8051 0.3018, 0.119 -0.8051 0.2962, 0.1169 -0.8051 0.3285, 0.1202 -0.8051 0.3239, 0.115 -0.8051 0.2915, 0.1095 -0.8051 0.2875, 0.1041 -0.8051 0.2854, 0.115 -0.8051 0.3303, 0.103 -0.8051 0.3365, 0.1041 -0.8051 0.3361, 0.1095 -0.8051 0.3342, 0.1222 -0.8051 0.3188, 0.1231 -0.8051 0.3114, 0.1229 -0.8051 0.308, 0.0696 -0.8051 0.2901, 0.0696 -0.8051 0.284, 0.0621 -0.8051 0.2836, 0.0621 -0.8051 0.3379, 0.0683 -0.8051 0.3374, 0.0621 -0.8051 0.3374, 0.0683 -0.8051 0.3313, 0.0668 -0.8051 0.3081, 0.0621 -0.8051 0.3081, 0.0621 -0.8051 0.2901, 0.0477 -0.8051 0.3081, 0.0477 -0.8051 0.2901, 0.0668 -0.8051 0.3142, 0.0621 -0.8051 0.3313, 0.0408 -0.8051 0.3374, 0.0378 -0.8051 0.3379, 0.0408 -0.8051 0.284, 0.0302 -0.8051 0.3361, 0.0246 -0.8051 0.3378, 0.0232 -0.8051 0.3379, 0.0621 -0.8051 0.284, 0.0302 -0.8051 0.3289, 0.0292 -0.8051 0.2858, 0.0189 -0.8051 0.2894, 0.0249 -0.8051 0.2905, 0.0302 -0.8051 0.2928, 0.0302 -0.8051 0.2862, 0.0241 -0.8051 0.3313, 0.0176 -0.8051 0.3321, -0.0026 -0.8051 0.3101, 0.0001 -0.8051 0.2985, 0.0027 -0.8051 0.2949, 0.0037 -0.8051 0.2939, 0.0072 -0.8051 0.2914, 0.011 -0.8051 0.2899, 0.0164 -0.8051 0.2893, 0.003 -0.8051 0.3262, 0.0001 -0.8051 0.3221, 0.0067 -0.8051 0.3292, 0.0109 -0.8051 0.3311, 0.0155 -0.8051 0.332, -0.0017 -0.8051 0.3175, 0.0296 -0.8051 0.3292, -0.0025 -0.8051 0.3082, -0.0017 -0.8051 0.3028, 0.0175 -0.8051 0.3383, -0.0074 -0.8051 1.1417, 0.0378 -0.8051 1.1417, 0.0176 -0.8051 0.3383, -0.006 -0.8051 0.3254, -0.0021 -0.8051 0.3305, -0.0008 -0.8051 0.3317, 0.0042 -0.8051 0.3352, -0.0074 -0.8051 0.2976, -0.0087 -0.8051 0.301, -0.0106 -0.8051 0.2836, -0.0098 -0.8051 0.3097, -0.0097 -0.8051 0.3125, -0.0106 -0.8051 0.3379, -0.0085 -0.8051 0.3195, -0.0074 -0.8051 0.322, 0.0013 -0.8051 0.2868, -0.003 -0.8051 0.2904, -0.0074 -0.8051 0.2836, -0.0066 -0.8051 0.2954, 0.0154 -0.8051 0.2831, 0.0122 -0.8051 0.2833, 0.0107 -0.8051 0.2836, 0.0064 -0.8051 0.2845, 0.0105 -0.8051 0.1988, 0.0071 -0.8051 0.1984, 0.0936 -0.8051 0.2375, 0.1005 -0.8051 0.2375, 0.1041 -0.8051 0.2679, 0.1246 -0.8051 0.2527, 0.1246 -0.8051 0.2679, 0.0853 -0.8051 0.1989, 0.0813 -0.8051 0.2088, 0.0821 -0.8051 0.2057, 0.0823 -0.8051 0.2057, 0.0746 -0.8051 0.2679, 0.0746 -0.8051 0.2282, 0.0831 -0.8051 0.2088, 0.0826 -0.8051 0.207, 0.0746 -0.8051 0.1989, 0.0746 -0.8051 0.2102, 0.0639 -0.8051 0.2375, 0.0714 -0.8051 0.2375, 0.0788 -0.8051 0.1994, 0.0786 -0.8051 0.1989, 0.0759 -0.8051 0.1925, 0.0621 -0.8051 0.1778, 0.0653 -0.8051 0.1819, 0.0653 -0.8051 0.1879, 0.0666 -0.8051 0.1874, 0.0691 -0.8051 0.1871, 0.0693 -0.8051 0.1871, 0.0709 -0.8051 0.1874, 0.0723 -0.8051 0.1879, 0.0733 -0.8051 0.1887, 0.0746 -0.8051 0.19, 0.0746 -0.8051 0.1901, 0.0746 -0.8051 0.1826, 0.0725 -0.8051 0.1818, 0.0746 -0.8051 0.1778, 0.0696 -0.8051 0.1814, 0.0681 -0.8051 0.1814, 0.1041 -0.8051 0.1778, 0.0774 -0.8051 0.1844, 0.0751 -0.8051 0.1828, 0.0832 -0.8051 0.1936, 0.0801 -0.8051 0.1876, -0.7283 -0.8051 0.0394, -0.7283 -0.8051 0.1778, -0.7283 -0.8051 0.1989, -0.7283 -0.8051 0.2679, -0.7283 -0.8051 0.2836, -0.7283 -0.8051 0.3379, -0.7283 -0.8051 1.1417, -0.012 -0.8051 0.2901, -0.012 -0.8051 0.284, -0.0401 -0.8051 0.284, -0.0333 -0.8051 0.3374, -0.0333 -0.8051 0.2901, -0.0401 -0.8051 0.3374, -0.0106 -0.8051 0.1989, -0.0114 -0.8051 0.1993, -0.0401 -0.8051 0.1993, -0.0114 -0.8051 0.2054, -0.0126 -0.8051 0.2466, -0.0333 -0.8051 0.2234, -0.0333 -0.8051 0.2054, -0.0142 -0.8051 0.2234, -0.0142 -0.8051 0.2295, -0.0333 -0.8051 0.2295, -0.0333 -0.8051 0.2466, -0.0401 -0.8051 0.2527, -0.0126 -0.8051 0.2527, -0.0106 -0.8051 1.1417, 0.0621 -0.8051 1.1417, 0.0746 -0.8051 1.1417, 0.1041 -0.8051 1.1417, 0.1246 -0.8051 1.1417, 0.1414 -0.8051 1.1417, 0.7283 -0.8051 1.1417, 0.1465 -0.8051 0.1993, 0.1465 -0.8051 0.2527, 0.1612 -0.8051 0.1993, 0.2333 -0.8051 0.1993, 0.2409 -0.8051 0.1993, 0.7283 -0.8051 0.1989, 0.2206 -0.8051 0.2527, 0.7283 -0.8051 0.2679, 0.2279 -0.8051 0.2139, 0.2056 -0.8051 0.2139, 0.2005 -0.8051 0.1993, 0.1929 -0.8051 0.1993, 0.2132 -0.8051 0.2527, 0.1859 -0.8051 0.2116, 0.1819 -0.8051 0.2068, 0.1764 -0.8051 0.2029, 0.1703 -0.8051 0.2005, 0.1819 -0.8051 0.2457, 0.1837 -0.8051 0.2438, 0.1871 -0.8051 0.2392, 0.189 -0.8051 0.2341, 0.1617 -0.8051 0.2527, 0.1699 -0.8051 0.2518, 0.1763 -0.8051 0.2495, 0.1899 -0.8051 0.2267, 0.1898 -0.8051 0.2233, 0.1885 -0.8051 0.2171, 0.1246 -0.8051 0.1778, 0.1414 -0.8051 0.1778, 0.7283 -0.8051 0.1778, -0.0106 -0.8051 0.0394, -0.0074 -0.8051 0.0394, 0.0378 -0.8051 0.0394, 0.0621 -0.8051 0.0394, 0.0746 -0.8051 0.0394, 0.1041 -0.8051 0.0394, 0.1246 -0.8051 0.0394, 0.1414 -0.8051 0.0394, 0.7283 -0.8051 0.0394, 0.8071 -0.7264 1.1417, 0.8071 -0.7264 0.0394, 0.8071 0.7303 1.1417, 0.8071 0.7303 0.0394, 0.7283 0.8091 1.1417, 0.7283 0.8091 0.0394, -0.7283 0.8091 1.1417, -0.7283 0.8091 0.0394, -0.8071 0.7303 1.1417, -0.8071 0.7303 0.0394, -0.8071 -0.7264 1.1417, -0.8071 -0.7264 0.0394, 0.7624 -0.7461 1.1811, 0.7385 -0.7644 1.1811, 0.7562 -0.7542 1.1811, 0.748 -0.7605 1.1811, -0.7283 -0.7657 1.1811, 0.7283 -0.7657 1.1811, 0.7677 -0.7264 1.1811, 0.7664 -0.7366 1.1811, -0.7562 -0.7542 1.1811, -0.748 -0.7605 1.1811, -0.7624 -0.7461 1.1811, -0.7385 -0.7644 1.1811, -0.7664 -0.7366 1.1811, -0.7677 -0.7264 1.1811, -0.7677 0.7303 1.1811, 0.7677 0.7303 1.1811, 0.7283 0.7697 1.1811, 0.7664 0.7405 1.1811, 0.7385 0.7683 1.1811, 0.7624 0.75 1.1811, 0.748 0.7644 1.1811, 0.7562 0.7582 1.1811, -0.7283 0.7697 1.1811, -0.7385 0.7683 1.1811, -0.7664 0.7405 1.1811, -0.748 0.7644 1.1811, -0.7624 0.75 1.1811, -0.7562 0.7582 1.1811, 0.7487 -0.8024 0.0394, 0.7965 -0.7657 0.0394, 0.784 -0.7821 0.0394, 0.7677 -0.7946 0.0394, -0.7487 0.8064 0.0394, -0.8044 -0.7468 0.0394, -0.7677 -0.7946 0.0394, -0.784 -0.7821 0.0394, -0.7965 -0.7657 0.0394, -0.7965 0.7697 0.0394, -0.784 0.786 0.0394, -0.7677 0.7985 0.0394, 0.8044 -0.7468 0.0394, 0.8044 0.7507 0.0394, 0.7677 0.7985 0.0394, 0.784 0.786 0.0394, 0.7965 0.7697 0.0394, -0.7487 -0.8024 0.0394, -0.8044 0.7507 0.0394, 0.7487 0.8064 0.0394, -0.8044 -0.7468 1.1417, -0.7965 -0.7657 1.1417, -0.784 -0.7821 1.1417, -0.7677 -0.7946 1.1417, -0.7487 -0.8024 1.1417, 0.7487 -0.8024 1.1417, 0.7677 -0.7946 1.1417, 0.784 -0.7821 1.1417, 0.7965 -0.7657 1.1417, 0.8044 -0.7468 1.1417, 0.8044 0.7507 1.1417, 0.7965 0.7697 1.1417, 0.784 0.786 1.1417, 0.7677 0.7985 1.1417, 0.7487 0.8064 1.1417, -0.7487 0.8064 1.1417, -0.7677 0.7985 1.1417, -0.784 0.786 1.1417, -0.7965 0.7697 1.1417, -0.8044 0.7507 1.1417, 0.7779 -0.7264 1.1798, 0.7762 -0.7392 1.1798, 0.7874 -0.7264 1.1758, 0.7854 -0.7417 1.1758, 0.7956 -0.7264 1.1696, 0.7933 -0.7438 1.1696, 0.8018 -0.7264 1.1614, 0.7993 -0.7454 1.1614, 0.8057 -0.7264 1.1519, 0.8031 -0.7464 1.1519, 0.7713 -0.7512 1.1798, 0.7795 -0.7559 1.1758, 0.7866 -0.76 1.1696, 0.792 -0.7631 1.1614, 0.7954 -0.7651 1.1519, 0.7634 -0.7614 1.1798, 0.7701 -0.7681 1.1758, 0.7759 -0.7739 1.1696, 0.7803 -0.7783 1.1614, 0.7831 -0.7811 1.1519, 0.7531 -0.7693 1.1798, 0.7579 -0.7775 1.1758, 0.762 -0.7846 1.1696, 0.7651 -0.79 1.1614, 0.767 -0.7934 1.1519, 0.7412 -0.7742 1.1798, 0.7436 -0.7834 1.1758, 0.7457 -0.7913 1.1696, 0.7474 -0.7973 1.1614, 0.7484 -0.8011 1.1519, 0.7283 -0.7759 1.1798, 0.7283 -0.7854 1.1758, 0.7283 -0.7936 1.1696, 0.7283 -0.7998 1.1614, 0.7283 -0.8038 1.1519, 0.7779 0.7303 1.1798, 0.7874 0.7303 1.1758, 0.7956 0.7303 1.1696, 0.8018 0.7303 1.1614, 0.8057 0.7303 1.1519, -0.7283 -0.7759 1.1798, -0.7283 -0.7854 1.1758, -0.7283 -0.7936 1.1696, -0.7283 -0.7998 1.1614, -0.7283 -0.8038 1.1519, 0.7283 0.7799 1.1798, 0.7412 0.7782 1.1798, 0.7283 0.7894 1.1758, 0.7436 0.7874 1.1758, 0.7283 0.7975 1.1696, 0.7457 0.7952 1.1696, 0.7283 0.8038 1.1614, 0.7474 0.8013 1.1614, 0.7283 0.8077 1.1519, 0.7484 0.8051 1.1519, 0.7531 0.7732 1.1798, 0.7579 0.7815 1.1758, 0.762 0.7885 1.1696, 0.7651 0.7939 1.1614, 0.767 0.7973 1.1519, 0.7634 0.7654 1.1798, 0.7701 0.7721 1.1758, 0.7759 0.7778 1.1696, 0.7803 0.7823 1.1614, 0.7831 0.785 1.1519, 0.7713 0.7551 1.1798, 0.7795 0.7598 1.1758, 0.7866 0.7639 1.1696, 0.792 0.767 1.1614, 0.7954 0.769 1.1519, 0.7762 0.7431 1.1798, 0.7854 0.7456 1.1758, 0.7933 0.7477 1.1696, 0.7993 0.7493 1.1614, 0.8031 0.7503 1.1519, -0.7412 -0.7742 1.1798, -0.7436 -0.7834 1.1758, -0.7457 -0.7913 1.1696, -0.7474 -0.7973 1.1614, -0.7484 -0.8011 1.1519, -0.7531 -0.7693 1.1798, -0.7579 -0.7775 1.1758, -0.762 -0.7846 1.1696, -0.7651 -0.79 1.1614, -0.767 -0.7934 1.1519, -0.7634 -0.7614 1.1798, -0.7701 -0.7681 1.1758, -0.7759 -0.7739 1.1696, -0.7803 -0.7783 1.1614, -0.7831 -0.7811 1.1519, -0.7713 -0.7512 1.1798, -0.7795 -0.7559 1.1758, -0.7866 -0.76 1.1696, -0.792 -0.7631 1.1614, -0.7954 -0.7651 1.1519, -0.7762 -0.7392 1.1798, -0.7854 -0.7417 1.1758, -0.7933 -0.7438 1.1696, -0.7993 -0.7454 1.1614, -0.8031 -0.7464 1.1519, -0.7779 -0.7264 1.1798, -0.7874 -0.7264 1.1758, -0.7956 -0.7264 1.1696, -0.8018 -0.7264 1.1614, -0.8057 -0.7264 1.1519, -0.7283 0.7799 1.1798, -0.7283 0.7894 1.1758, -0.7283 0.7975 1.1696, -0.7283 0.8038 1.1614, -0.7283 0.8077 1.1519, -0.7779 0.7303 1.1798, -0.7874 0.7303 1.1758, -0.7956 0.7303 1.1696, -0.8018 0.7303 1.1614, -0.8057 0.7303 1.1519, -0.7762 0.7431 1.1798, -0.7854 0.7456 1.1758, -0.7933 0.7477 1.1696, -0.7993 0.7493 1.1614, -0.8031 0.7503 1.1519, -0.7713 0.7551 1.1798, -0.7795 0.7598 1.1758, -0.7866 0.7639 1.1696, -0.792 0.767 1.1614, -0.7954 0.769 1.1519, -0.7634 0.7654 1.1798, -0.7701 0.7721 1.1758, -0.7759 0.7778 1.1696, -0.7803 0.7823 1.1614, -0.7831 0.785 1.1519, -0.7531 0.7732 1.1798, -0.7579 0.7815 1.1758, -0.762 0.7885 1.1696, -0.7651 0.7939 1.1614, -0.767 0.7973 1.1519, -0.7412 0.7782 1.1798, -0.7436 0.7874 1.1758, -0.7457 0.7952 1.1696, -0.7474 0.8013 1.1614, -0.7484 0.8051 1.1519
            ]
        }
        coordIndex [
            0,1,2,-1,3,4,5,-1,6,7,8,-1,9,10,11,-1,12,13,14,-1,15,16,17,-1,18,19,20,-1,21,22,23,-1,24,25,26,-1,27,28,29,-1,29,28,3,-1,30,31,29,-1,29,31,32,-1,32,33,29,-1,29,33,34,-1,29,34,27,-1,35,36,37,-1,38,39,40,-1,40,39,37,-1,37,39,41,-1,37,41,35,-1,42,43,44,-1,38,40,45,-1,45,40,44,-1,45,44,46,-1,43,47,44,-1,44,47,48,-1,44,48,46,-1,46,48,49,-1,46,49,50,-1,50,49,51,-1,50,51,52,-1,26,25,53,-1,25,54,53,-1,53,54,55,-1,53,55,44,-1,44,55,56,-1,44,56,42,-1,57,58,59,-1,58,60,59,-1,59,60,61,-1,59,61,62,-1,62,63,59,-1,59,63,64,-1,59,64,26,-1,26,64,65,-1,26,65,24,-1,66,67,68,-1,68,67,69,-1,68,69,59,-1,59,69,70,-1,59,70,57,-1,71,72,68,-1,68,72,73,-1,68,73,66,-1,74,75,76,-1,76,75,77,-1,76,77,71,-1,71,77,78,-1,71,78,72,-1,0,79,1,-1,1,79,80,-1,1,80,81,-1,81,82,1,-1,1,82,83,-1,1,83,74,-1,84,85,4,-1,86,87,88,-1,89,90,0,-1,91,92,93,-1,93,92,94,-1,89,0,95,-1,96,97,92,-1,92,97,98,-1,92,98,99,-1,86,88,100,-1,4,85,0,-1,0,85,101,-1,0,101,95,-1,87,102,88,-1,88,102,103,-1,88,103,104,-1,105,106,107,-1,107,106,108,-1,107,108,109,-1,110,99,111,-1,111,99,112,-1,111,112,107,-1,107,112,113,-1,107,113,105,-1,110,114,99,-1,99,114,115,-1,99,115,92,-1,92,115,116,-1,92,116,94,-1,117,118,88,-1,88,118,119,-1,88,119,92,-1,92,119,120,-1,92,120,96,-1,90,121,0,-1,0,121,122,-1,0,122,79,-1,79,122,123,-1,79,123,124,-1,124,125,79,-1,79,125,126,-1,79,126,127,-1,128,129,130,-1,130,129,131,-1,130,131,88,-1,88,131,132,-1,88,132,100,-1,104,133,88,-1,88,133,134,-1,88,134,135,-1,127,136,79,-1,79,136,137,-1,79,137,138,-1,138,137,128,-1,138,128,139,-1,139,128,130,-1,135,140,88,-1,88,140,141,-1,88,141,117,-1,142,143,144,-1,144,99,142,-1,142,99,98,-1,142,98,145,-1,145,98,146,-1,146,147,145,-1,145,147,148,-1,145,148,149,-1,150,151,152,-1,150,152,153,-1,154,152,155,-1,143,142,154,-1,154,142,156,-1,154,156,152,-1,152,156,157,-1,152,157,153,-1,151,158,152,-1,152,158,159,-1,152,159,160,-1,160,159,161,-1,155,162,154,-1,154,162,163,-1,154,163,164,-1,165,166,161,-1,161,166,167,-1,161,167,160,-1,168,169,164,-1,164,169,170,-1,164,170,154,-1,28,171,3,-1,3,171,172,-1,3,172,4,-1,4,172,173,-1,4,173,84,-1,174,175,176,-1,176,175,177,-1,178,179,180,-1,181,182,174,-1,174,182,23,-1,23,182,183,-1,23,183,21,-1,180,184,185,-1,185,184,186,-1,185,186,187,-1,175,188,177,-1,177,188,189,-1,177,189,190,-1,190,189,191,-1,192,193,194,-1,194,193,195,-1,196,197,198,-1,199,200,201,-1,201,200,202,-1,201,202,19,-1,203,204,205,-1,205,204,206,-1,205,206,202,-1,192,207,193,-1,193,207,208,-1,193,208,209,-1,209,208,198,-1,209,198,210,-1,210,198,197,-1,211,212,213,-1,213,212,214,-1,213,214,215,-1,216,217,218,-1,218,217,219,-1,215,220,213,-1,213,220,221,-1,213,221,222,-1,223,224,225,-1,226,227,205,-1,205,227,228,-1,205,228,203,-1,222,229,213,-1,213,229,230,-1,213,230,217,-1,217,230,195,-1,217,195,219,-1,219,195,193,-1,200,231,232,-1,232,231,233,-1,234,235,198,-1,198,235,236,-1,198,236,237,-1,216,238,217,-1,217,238,239,-1,217,239,240,-1,223,225,199,-1,225,241,199,-1,199,241,242,-1,199,242,200,-1,200,242,243,-1,200,243,231,-1,237,244,198,-1,198,244,245,-1,198,245,196,-1,233,246,232,-1,232,246,247,-1,232,247,248,-1,248,247,249,-1,248,249,250,-1,250,249,251,-1,18,20,252,-1,252,20,253,-1,252,253,254,-1,255,256,17,-1,249,257,258,-1,258,257,259,-1,258,259,260,-1,261,262,17,-1,17,262,263,-1,260,264,258,-1,258,264,265,-1,258,265,266,-1,266,265,267,-1,266,267,255,-1,268,269,256,-1,256,269,270,-1,256,270,17,-1,17,270,271,-1,17,271,261,-1,263,272,17,-1,17,272,273,-1,17,273,15,-1,274,275,276,-1,276,275,277,-1,276,277,278,-1,276,279,274,-1,274,279,280,-1,274,280,281,-1,281,282,274,-1,274,282,283,-1,274,283,284,-1,284,283,285,-1,284,285,286,-1,286,285,287,-1,286,287,256,-1,256,287,288,-1,256,288,268,-1,289,290,278,-1,278,290,291,-1,278,291,276,-1,292,293,224,-1,224,293,294,-1,224,294,225,-1,292,295,293,-1,293,295,296,-1,293,296,297,-1,297,296,298,-1,297,299,300,-1,298,301,297,-1,297,301,302,-1,297,302,303,-1,303,304,297,-1,297,304,305,-1,297,305,299,-1,300,306,297,-1,297,306,307,-1,297,307,308,-1,309,310,311,-1,311,310,312,-1,311,312,313,-1,314,315,316,-1,316,315,317,-1,310,318,312,-1,312,318,319,-1,312,319,320,-1,320,319,321,-1,320,321,322,-1,322,321,323,-1,322,323,317,-1,317,323,324,-1,317,324,316,-1,325,326,327,-1,325,327,328,-1,329,330,331,-1,331,330,332,-1,331,332,333,-1,334,335,320,-1,336,337,322,-1,335,338,320,-1,320,338,339,-1,320,339,325,-1,325,339,340,-1,325,340,326,-1,336,322,341,-1,332,342,333,-1,333,342,343,-1,333,343,322,-1,322,343,344,-1,322,344,341,-1,337,345,322,-1,322,345,346,-1,322,346,320,-1,320,346,347,-1,320,347,334,-1,348,349,328,-1,328,349,350,-1,331,351,352,-1,352,351,353,-1,327,329,328,-1,328,329,331,-1,328,331,354,-1,354,331,352,-1,355,356,357,-1,357,356,358,-1,357,358,359,-1,357,348,355,-1,355,348,328,-1,355,328,360,-1,360,328,354,-1,360,354,14,-1,14,354,361,-1,14,361,12,-1,353,351,362,-1,362,351,363,-1,362,363,364,-1,365,363,366,-1,366,363,367,-1,349,368,350,-1,350,368,364,-1,350,364,11,-1,11,364,363,-1,11,363,369,-1,369,363,365,-1,9,11,370,-1,371,372,369,-1,369,372,373,-1,369,373,11,-1,11,373,374,-1,11,374,370,-1,375,376,377,-1,378,379,369,-1,369,379,380,-1,369,380,381,-1,381,382,369,-1,369,382,383,-1,369,383,371,-1,384,385,386,-1,386,385,387,-1,376,388,377,-1,377,388,387,-1,377,387,389,-1,389,387,385,-1,375,377,390,-1,390,377,391,-1,390,391,369,-1,369,391,392,-1,369,392,378,-1,7,393,394,-1,394,393,395,-1,395,393,396,-1,395,396,367,-1,8,397,398,-1,398,399,8,-1,8,399,400,-1,8,400,6,-1,401,402,403,-1,404,405,406,-1,406,405,407,-1,406,407,8,-1,8,407,408,-1,8,408,397,-1,409,410,411,-1,411,410,412,-1,413,414,217,-1,217,414,415,-1,217,415,411,-1,411,415,416,-1,411,416,409,-1,10,413,258,-1,258,413,217,-1,258,217,249,-1,249,217,240,-1,249,240,251,-1,19,202,20,-1,20,202,206,-1,20,206,253,-1,253,206,417,-1,253,417,211,-1,211,417,418,-1,211,418,212,-1,419,420,421,-1,179,178,422,-1,422,178,423,-1,422,423,191,-1,191,423,421,-1,191,421,190,-1,190,421,420,-1,190,420,424,-1,425,426,427,-1,421,428,419,-1,419,428,429,-1,419,429,430,-1,430,429,425,-1,430,425,431,-1,431,425,427,-1,432,433,17,-1,17,433,434,-1,255,17,266,-1,266,17,434,-1,266,434,428,-1,428,434,435,-1,428,435,429,-1,436,433,437,-1,437,433,432,-1,437,432,438,-1,439,440,441,-1,442,443,17,-1,254,253,16,-1,16,253,439,-1,16,439,17,-1,17,439,441,-1,17,441,442,-1,443,444,17,-1,17,444,445,-1,17,445,446,-1,446,447,17,-1,17,447,448,-1,17,448,432,-1,432,448,449,-1,432,449,438,-1,450,451,452,-1,452,451,453,-1,452,453,439,-1,439,453,454,-1,439,454,440,-1,455,456,452,-1,452,456,457,-1,452,457,450,-1,424,458,455,-1,455,458,459,-1,455,459,456,-1,460,71,461,-1,461,71,68,-1,461,68,462,-1,462,68,59,-1,462,59,463,-1,463,59,26,-1,463,26,464,-1,464,26,53,-1,464,53,465,-1,465,53,44,-1,465,44,466,-1,466,44,40,-1,467,468,403,-1,403,468,469,-1,470,406,29,-1,402,404,403,-1,403,404,406,-1,403,406,467,-1,467,406,470,-1,467,470,471,-1,5,403,3,-1,3,403,469,-1,3,469,29,-1,29,469,472,-1,29,472,470,-1,473,474,475,-1,474,473,476,-1,476,473,5,-1,476,5,477,-1,478,479,480,-1,480,479,476,-1,480,476,481,-1,481,476,477,-1,481,477,482,-1,482,477,483,-1,2,473,0,-1,0,473,475,-1,0,475,4,-1,4,475,484,-1,4,484,5,-1,5,484,485,-1,5,485,477,-1,7,394,8,-1,8,394,486,-1,8,486,406,-1,406,486,37,-1,406,37,29,-1,29,37,36,-1,29,36,30,-1,2,211,473,-1,473,211,213,-1,473,213,5,-1,5,213,217,-1,5,217,403,-1,403,217,411,-1,403,411,401,-1,401,411,412,-1,10,258,11,-1,11,258,266,-1,11,266,350,-1,350,266,428,-1,350,428,328,-1,328,428,421,-1,328,421,325,-1,325,421,423,-1,325,423,320,-1,320,423,178,-1,320,178,312,-1,367,363,395,-1,395,363,351,-1,395,351,487,-1,487,351,331,-1,487,331,488,-1,488,331,333,-1,488,333,489,-1,489,333,322,-1,489,322,490,-1,490,322,317,-1,490,317,491,-1,491,317,315,-1,491,315,492,-1,493,494,178,-1,185,181,180,-1,180,181,174,-1,180,174,178,-1,178,174,176,-1,178,176,493,-1,493,176,495,-1,496,176,497,-1,497,176,498,-1,497,498,499,-1,499,498,500,-1,501,502,496,-1,496,502,503,-1,496,503,176,-1,176,503,504,-1,176,504,495,-1,316,313,314,-1,314,313,312,-1,314,312,500,-1,500,312,178,-1,500,178,499,-1,499,178,505,-1,504,506,507,-1,507,508,504,-1,504,508,509,-1,504,509,495,-1,510,511,505,-1,505,511,512,-1,505,512,513,-1,494,514,178,-1,178,514,515,-1,178,515,505,-1,505,515,516,-1,505,516,510,-1,513,517,505,-1,505,517,518,-1,505,518,504,-1,504,518,519,-1,504,519,506,-1,424,455,190,-1,190,455,520,-1,190,520,177,-1,177,520,521,-1,177,521,176,-1,176,521,522,-1,176,522,498,-1,74,76,1,-1,1,76,523,-1,1,523,2,-1,2,523,524,-1,2,524,211,-1,211,524,525,-1,211,525,253,-1,253,525,526,-1,253,526,439,-1,439,526,527,-1,439,527,452,-1,452,527,528,-1,452,528,455,-1,455,528,529,-1,455,529,520,-1,520,529,530,-1,520,530,521,-1,521,530,531,-1,521,531,522,-1,532,533,534,-1,534,533,535,-1,536,537,538,-1,538,537,539,-1,540,541,542,-1,542,541,543,-1,544,545,546,-1,546,545,547,-1,548,549,550,-1,550,549,545,-1,550,545,551,-1,551,545,544,-1,552,553,554,-1,554,553,555,-1,554,555,556,-1,556,555,548,-1,556,548,557,-1,557,548,550,-1,557,550,558,-1,558,550,559,-1,558,559,560,-1,560,559,561,-1,560,561,562,-1,562,561,563,-1,562,563,564,-1,564,563,565,-1,560,566,558,-1,558,566,567,-1,558,567,568,-1,568,567,569,-1,568,569,570,-1,570,569,571,-1,572,531,533,-1,573,574,575,-1,576,539,541,-1,533,543,535,-1,535,543,541,-1,533,531,543,-1,543,531,460,-1,543,460,577,-1,578,579,580,-1,581,582,583,-1,572,533,575,-1,575,533,584,-1,575,584,573,-1,541,539,535,-1,535,539,537,-1,535,537,585,-1,586,587,588,-1,577,460,580,-1,580,460,589,-1,580,589,578,-1,576,541,583,-1,583,541,590,-1,583,590,581,-1,585,537,588,-1,588,537,591,-1,588,591,586,-1,542,543,577,-1,542,577,592,-1,592,577,580,-1,592,580,593,-1,593,580,579,-1,593,579,594,-1,594,579,578,-1,594,578,595,-1,595,578,589,-1,595,589,596,-1,596,589,460,-1,596,460,466,-1,492,531,572,-1,492,572,597,-1,597,572,575,-1,597,575,598,-1,598,575,574,-1,598,574,599,-1,599,574,573,-1,599,573,600,-1,600,573,584,-1,600,584,601,-1,601,584,533,-1,601,533,532,-1,534,535,585,-1,534,585,602,-1,602,585,588,-1,602,588,603,-1,603,588,587,-1,603,587,604,-1,604,587,586,-1,604,586,605,-1,605,586,591,-1,605,591,606,-1,606,591,537,-1,606,537,536,-1,538,539,576,-1,538,576,607,-1,607,576,583,-1,607,583,608,-1,608,583,582,-1,608,582,609,-1,609,582,581,-1,609,581,610,-1,610,581,590,-1,610,590,611,-1,611,590,541,-1,611,541,540,-1,550,551,612,-1,612,551,613,-1,612,613,614,-1,614,613,615,-1,614,615,616,-1,616,615,617,-1,616,617,618,-1,618,617,619,-1,618,619,620,-1,620,619,621,-1,620,621,532,-1,532,621,601,-1,551,544,613,-1,613,544,622,-1,613,622,615,-1,615,622,623,-1,615,623,617,-1,617,623,624,-1,617,624,619,-1,619,624,625,-1,619,625,621,-1,621,625,626,-1,621,626,601,-1,601,626,600,-1,544,546,622,-1,622,546,627,-1,622,627,623,-1,623,627,628,-1,623,628,624,-1,624,628,629,-1,624,629,625,-1,625,629,630,-1,625,630,626,-1,626,630,631,-1,626,631,600,-1,600,631,599,-1,546,547,627,-1,627,547,632,-1,627,632,628,-1,628,632,633,-1,628,633,629,-1,629,633,634,-1,629,634,630,-1,630,634,635,-1,630,635,631,-1,631,635,636,-1,631,636,599,-1,599,636,598,-1,547,545,632,-1,632,545,637,-1,632,637,633,-1,633,637,638,-1,633,638,634,-1,634,638,639,-1,634,639,635,-1,635,639,640,-1,635,640,636,-1,636,640,641,-1,636,641,598,-1,598,641,597,-1,545,549,637,-1,637,549,642,-1,637,642,638,-1,638,642,643,-1,638,643,639,-1,639,643,644,-1,639,644,640,-1,640,644,645,-1,640,645,641,-1,641,645,646,-1,641,646,597,-1,597,646,492,-1,559,550,612,-1,559,612,647,-1,647,612,614,-1,647,614,648,-1,648,614,616,-1,648,616,649,-1,649,616,618,-1,649,618,650,-1,650,618,620,-1,650,620,651,-1,651,620,532,-1,651,532,534,-1,549,548,652,-1,549,652,642,-1,642,652,653,-1,642,653,643,-1,643,653,654,-1,643,654,644,-1,644,654,655,-1,644,655,645,-1,645,655,656,-1,645,656,646,-1,646,656,466,-1,646,466,492,-1,560,562,657,-1,657,562,658,-1,657,658,659,-1,659,658,660,-1,659,660,661,-1,661,660,662,-1,661,662,663,-1,663,662,664,-1,663,664,665,-1,665,664,666,-1,665,666,536,-1,536,666,606,-1,562,564,658,-1,658,564,667,-1,658,667,660,-1,660,667,668,-1,660,668,662,-1,662,668,669,-1,662,669,664,-1,664,669,670,-1,664,670,666,-1,666,670,671,-1,666,671,606,-1,606,671,605,-1,564,565,667,-1,667,565,672,-1,667,672,668,-1,668,672,673,-1,668,673,669,-1,669,673,674,-1,669,674,670,-1,670,674,675,-1,670,675,671,-1,671,675,676,-1,671,676,605,-1,605,676,604,-1,565,563,672,-1,672,563,677,-1,672,677,673,-1,673,677,678,-1,673,678,674,-1,674,678,679,-1,674,679,675,-1,675,679,680,-1,675,680,676,-1,676,680,681,-1,676,681,604,-1,604,681,603,-1,563,561,677,-1,677,561,682,-1,677,682,678,-1,678,682,683,-1,678,683,679,-1,679,683,684,-1,679,684,680,-1,680,684,685,-1,680,685,681,-1,681,685,686,-1,681,686,603,-1,603,686,602,-1,561,559,682,-1,682,559,647,-1,682,647,683,-1,683,647,648,-1,683,648,684,-1,684,648,649,-1,684,649,685,-1,685,649,650,-1,685,650,686,-1,686,650,651,-1,686,651,602,-1,602,651,534,-1,548,555,652,-1,652,555,687,-1,652,687,653,-1,653,687,688,-1,653,688,654,-1,654,688,689,-1,654,689,655,-1,655,689,690,-1,655,690,656,-1,656,690,691,-1,656,691,466,-1,466,691,596,-1,555,553,687,-1,687,553,692,-1,687,692,688,-1,688,692,693,-1,688,693,689,-1,689,693,694,-1,689,694,690,-1,690,694,695,-1,690,695,691,-1,691,695,696,-1,691,696,596,-1,596,696,595,-1,553,552,692,-1,692,552,697,-1,692,697,693,-1,693,697,698,-1,693,698,694,-1,694,698,699,-1,694,699,695,-1,695,699,700,-1,695,700,696,-1,696,700,701,-1,696,701,595,-1,595,701,594,-1,552,554,697,-1,697,554,702,-1,697,702,698,-1,698,702,703,-1,698,703,699,-1,699,703,704,-1,699,704,700,-1,700,704,705,-1,700,705,701,-1,701,705,706,-1,701,706,594,-1,594,706,593,-1,554,556,702,-1,702,556,707,-1,702,707,703,-1,703,707,708,-1,703,708,704,-1,704,708,709,-1,704,709,705,-1,705,709,710,-1,705,710,706,-1,706,710,711,-1,706,711,593,-1,593,711,592,-1,556,557,707,-1,707,557,712,-1,707,712,708,-1,708,712,713,-1,708,713,709,-1,709,713,714,-1,709,714,710,-1,710,714,715,-1,710,715,711,-1,711,715,716,-1,711,716,592,-1,592,716,542,-1,566,560,657,-1,566,657,717,-1,717,657,659,-1,717,659,718,-1,718,659,661,-1,718,661,719,-1,719,661,663,-1,719,663,720,-1,720,663,665,-1,720,665,721,-1,721,665,536,-1,721,536,538,-1,557,558,722,-1,557,722,712,-1,712,722,723,-1,712,723,713,-1,713,723,724,-1,713,724,714,-1,714,724,725,-1,714,725,715,-1,715,725,726,-1,715,726,716,-1,716,726,540,-1,716,540,542,-1,558,568,722,-1,722,568,727,-1,722,727,723,-1,723,727,728,-1,723,728,724,-1,724,728,729,-1,724,729,725,-1,725,729,730,-1,725,730,726,-1,726,730,731,-1,726,731,540,-1,540,731,611,-1,568,570,727,-1,727,570,732,-1,727,732,728,-1,728,732,733,-1,728,733,729,-1,729,733,734,-1,729,734,730,-1,730,734,735,-1,730,735,731,-1,731,735,736,-1,731,736,611,-1,611,736,610,-1,570,571,732,-1,732,571,737,-1,732,737,733,-1,733,737,738,-1,733,738,734,-1,734,738,739,-1,734,739,735,-1,735,739,740,-1,735,740,736,-1,736,740,741,-1,736,741,610,-1,610,741,609,-1,571,569,737,-1,737,569,742,-1,737,742,738,-1,738,742,743,-1,738,743,739,-1,739,743,744,-1,739,744,740,-1,740,744,745,-1,740,745,741,-1,741,745,746,-1,741,746,609,-1,609,746,608,-1,569,567,742,-1,742,567,747,-1,742,747,743,-1,743,747,748,-1,743,748,744,-1,744,748,749,-1,744,749,745,-1,745,749,750,-1,745,750,746,-1,746,750,751,-1,746,751,608,-1,608,751,607,-1,567,566,747,-1,747,566,717,-1,747,717,748,-1,748,717,718,-1,748,718,749,-1,749,718,719,-1,749,719,750,-1,750,719,720,-1,750,720,751,-1,751,720,721,-1,751,721,607,-1,607,721,538,-1,
        ]
    }
}
Shape{
    appearance Appearance {
        material  Material 	{
            diffuseColor 0.0 0.0 0.0
            specularColor 0.0 0.0 0.0
            ambientIntensity 0.0
            transparency 0.0
            shininess 0.5
        }
    }
    geometry IndexedFaceSet {
        ccw TRUE
        solid FALSE
        coord DEF co Coordinate {
            point [
                -0.012 -0.8091 0.2901, -0.012 -0.8091 0.284, -0.012 -0.8051 0.2901, -0.012 -0.8051 0.284, -0.0333 -0.8091 0.2901, -0.0333 -0.8051 0.2901, -0.0333 -0.8091 0.3374, -0.0333 -0.8051 0.3374, -0.0401 -0.8091 0.3374, -0.0401 -0.8051 0.3374, -0.0401 -0.8091 0.284, -0.0401 -0.8051 0.284, 0.0154 -0.8091 0.2831, 0.0154 -0.8051 0.2831, 0.0235 -0.8091 0.2839, 0.0201 -0.8051 0.2836, 0.0235 -0.8051 0.2839, 0.0292 -0.8051 0.2858, 0.0292 -0.8091 0.2858, 0.0302 -0.8051 0.2862, 0.0302 -0.8091 0.2862, 0.0302 -0.8091 0.2928, 0.0302 -0.8051 0.2928, 0.0249 -0.8051 0.2905, 0.0249 -0.8091 0.2905, 0.0189 -0.8051 0.2894, 0.0189 -0.8091 0.2894, 0.0164 -0.8051 0.2893, 0.0164 -0.8091 0.2893, 0.011 -0.8051 0.2899, 0.011 -0.8091 0.2899, 0.0072 -0.8051 0.2914, 0.0072 -0.8091 0.2914, 0.0037 -0.8051 0.2939, 0.0037 -0.8091 0.2939, 0.0027 -0.8051 0.2949, 0.0027 -0.8091 0.2949, 0.0001 -0.8051 0.2985, 0.0001 -0.8091 0.2985, -0.0017 -0.8051 0.3028, -0.0017 -0.8091 0.3028, -0.0025 -0.8051 0.3082, -0.0025 -0.8091 0.3082, -0.0026 -0.8051 0.3101, -0.0026 -0.8091 0.3101, -0.0017 -0.8051 0.3175, -0.0017 -0.8091 0.3175, 0.0001 -0.8051 0.3221, 0.0001 -0.8091 0.3221, 0.003 -0.8051 0.3262, 0.003 -0.8091 0.3262, 0.0067 -0.8051 0.3292, 0.0067 -0.8091 0.3292, 0.0109 -0.8051 0.3311, 0.0109 -0.8091 0.3311, 0.0155 -0.8051 0.332, 0.0155 -0.8091 0.332, 0.0176 -0.8051 0.3321, 0.0176 -0.8091 0.3321, 0.0241 -0.8051 0.3313, 0.0241 -0.8091 0.3313, 0.0296 -0.8051 0.3292, 0.0296 -0.8091 0.3292, 0.0302 -0.8051 0.3289, 0.0302 -0.8091 0.3289, 0.0302 -0.8091 0.3361, 0.0302 -0.8051 0.3361, 0.0175 -0.8051 0.3383, 0.0175 -0.8091 0.3383, 0.0176 -0.8091 0.3383, 0.0246 -0.8051 0.3378, 0.0246 -0.8091 0.3378, 0.0232 -0.8051 0.3379, 0.0176 -0.8051 0.3383, 0.0138 -0.8051 0.3379, 0.0098 -0.8091 0.3374, 0.0098 -0.8051 0.3374, 0.0042 -0.8051 0.3352, 0.0042 -0.8091 0.3352, -0.0008 -0.8051 0.3317, -0.0008 -0.8091 0.3317, -0.0021 -0.8051 0.3305, -0.0021 -0.8091 0.3305, -0.006 -0.8051 0.3254, -0.0074 -0.8051 0.322, -0.0085 -0.8091 0.3195, -0.006 -0.8091 0.3254, -0.0085 -0.8051 0.3195, -0.0097 -0.8051 0.3125, -0.0097 -0.8091 0.3125, -0.0098 -0.8051 0.3097, -0.0098 -0.8091 0.3097, -0.0087 -0.8051 0.301, -0.0074 -0.8051 0.2976, -0.0066 -0.8091 0.2954, -0.0087 -0.8091 0.301, -0.0066 -0.8051 0.2954, -0.003 -0.8051 0.2904, -0.003 -0.8091 0.2904, 0.0122 -0.8091 0.2833, 0.0013 -0.8051 0.2868, 0.0013 -0.8091 0.2868, 0.0064 -0.8051 0.2845, 0.0064 -0.8091 0.2845, 0.0107 -0.8051 0.2836, 0.0122 -0.8051 0.2833, 0.0696 -0.8091 0.2901, 0.0696 -0.8091 0.284, 0.0696 -0.8051 0.2901, 0.0696 -0.8051 0.284, 0.0477 -0.8051 0.2901, 0.0477 -0.8091 0.2901, 0.0621 -0.8051 0.2901, 0.0477 -0.8091 0.3081, 0.0477 -0.8051 0.3081, 0.0668 -0.8091 0.3081, 0.0621 -0.8051 0.3081, 0.0668 -0.8051 0.3081, 0.0668 -0.8091 0.3142, 0.0668 -0.8051 0.3142, 0.0477 -0.8051 0.3142, 0.0477 -0.8091 0.3142, 0.0621 -0.8051 0.3142, 0.0477 -0.8091 0.3313, 0.0477 -0.8051 0.3313, 0.0683 -0.8091 0.3313, 0.0621 -0.8051 0.3313, 0.0683 -0.8051 0.3313, 0.0683 -0.8091 0.3374, 0.0683 -0.8051 0.3374, 0.0408 -0.8051 0.3374, 0.0408 -0.8091 0.3374, 0.0621 -0.8051 0.3374, 0.0408 -0.8091 0.284, 0.0408 -0.8051 0.284, 0.0621 -0.8051 0.284, 0.115 -0.8091 0.2915, 0.1096 -0.8091 0.2951, 0.1095 -0.8091 0.2875, 0.1061 -0.8091 0.2927, 0.1034 -0.8091 0.2851, 0.1017 -0.8091 0.291, 0.0943 -0.8091 0.284, 0.0943 -0.8091 0.2901, 0.0796 -0.8091 0.284, 0.0865 -0.8091 0.2901, 0.0796 -0.8091 0.3374, 0.0865 -0.8091 0.3313, 0.0949 -0.8091 0.3374, 0.0946 -0.8091 0.3313, 0.103 -0.8091 0.3365, 0.1015 -0.8091 0.3305, 0.1095 -0.8091 0.3342, 0.1061 -0.8091 0.3288, 0.115 -0.8091 0.3303, 0.11 -0.8091 0.3262, 0.1169 -0.8091 0.3285, 0.1114 -0.8091 0.3248, 0.1202 -0.8091 0.3239, 0.1135 -0.8091 0.3218, 0.1222 -0.8091 0.3188, 0.115 -0.8091 0.318, 0.1231 -0.8091 0.3114, 0.1158 -0.8091 0.3112, 0.1229 -0.8091 0.308, 0.1156 -0.8091 0.307, 0.1216 -0.8091 0.3018, 0.1144 -0.8091 0.3023, 0.119 -0.8091 0.2962, 0.1125 -0.8091 0.2984, 0.1101 -0.8091 0.2957, 0.0943 -0.8051 0.284, 0.0796 -0.8051 0.284, 0.115 -0.8051 0.2915, 0.1034 -0.8051 0.2851, 0.1041 -0.8051 0.2854, 0.1095 -0.8051 0.2875, 0.119 -0.8051 0.2962, 0.1216 -0.8051 0.3018, 0.1229 -0.8051 0.308, 0.1231 -0.8051 0.3114, 0.1222 -0.8051 0.3188, 0.1202 -0.8051 0.3239, 0.1169 -0.8051 0.3285, 0.115 -0.8051 0.3303, 0.0949 -0.8051 0.3374, 0.1095 -0.8051 0.3342, 0.1041 -0.8051 0.3361, 0.103 -0.8051 0.3365, 0.0796 -0.8051 0.3374, 0.0946 -0.8051 0.3313, 0.0865 -0.8051 0.3313, 0.0865 -0.8051 0.2901, 0.0943 -0.8051 0.2901, 0.1101 -0.8051 0.2957, 0.1096 -0.8051 0.2951, 0.1061 -0.8051 0.2927, 0.1017 -0.8051 0.291, 0.1158 -0.8051 0.3112, 0.1156 -0.8051 0.307, 0.1144 -0.8051 0.3023, 0.1125 -0.8051 0.2984, 0.11 -0.8051 0.3262, 0.1114 -0.8051 0.3248, 0.1135 -0.8051 0.3218, 0.115 -0.8051 0.318, 0.1015 -0.8051 0.3305, 0.1061 -0.8051 0.3288
            ]
        }
        coordIndex [
            0,1,2,-1,2,1,3,-1,4,0,5,-1,5,0,2,-1,6,4,7,-1,7,4,5,-1,8,6,9,-1,9,6,7,-1,10,8,11,-1,11,8,9,-1,1,10,3,-1,3,10,11,-1,6,8,4,-1,4,8,10,-1,4,10,0,-1,0,10,1,-1,12,13,14,-1,14,13,15,-1,15,16,14,-1,14,16,17,-1,14,17,18,-1,18,17,19,-1,18,19,20,-1,21,20,22,-1,22,20,19,-1,21,22,23,-1,21,23,24,-1,24,23,25,-1,24,25,26,-1,26,25,27,-1,26,27,28,-1,28,27,29,-1,28,29,30,-1,30,29,31,-1,30,31,32,-1,32,31,33,-1,32,33,34,-1,34,33,35,-1,34,35,36,-1,36,35,37,-1,36,37,38,-1,38,37,39,-1,38,39,40,-1,40,39,41,-1,40,41,42,-1,42,41,43,-1,42,43,44,-1,44,43,45,-1,44,45,46,-1,46,45,47,-1,46,47,48,-1,48,47,49,-1,48,49,50,-1,50,49,51,-1,50,51,52,-1,52,51,53,-1,52,53,54,-1,54,53,55,-1,54,55,56,-1,56,55,57,-1,56,57,58,-1,58,57,59,-1,58,59,60,-1,60,59,61,-1,60,61,62,-1,62,61,63,-1,62,63,64,-1,65,64,66,-1,66,64,63,-1,67,68,69,-1,65,66,70,-1,65,70,71,-1,71,70,72,-1,71,72,69,-1,69,72,73,-1,69,73,67,-1,68,67,74,-1,68,74,75,-1,74,76,75,-1,75,76,77,-1,75,77,78,-1,78,77,79,-1,78,79,80,-1,80,79,81,-1,80,81,82,-1,82,81,83,-1,84,85,83,-1,83,85,86,-1,83,86,82,-1,84,87,85,-1,85,87,88,-1,85,88,89,-1,89,88,90,-1,89,90,91,-1,91,90,92,-1,93,94,92,-1,92,94,95,-1,92,95,91,-1,93,96,94,-1,94,96,97,-1,94,97,98,-1,13,12,99,-1,98,97,100,-1,98,100,101,-1,101,100,102,-1,101,102,103,-1,103,102,104,-1,103,104,99,-1,99,104,105,-1,99,105,13,-1,62,64,65,-1,52,80,50,-1,50,80,82,-1,50,82,48,-1,48,82,86,-1,48,86,46,-1,62,65,60,-1,60,65,71,-1,60,71,58,-1,58,71,69,-1,58,69,56,-1,56,69,68,-1,56,68,54,-1,54,68,75,-1,54,75,52,-1,52,75,78,-1,52,78,80,-1,91,44,89,-1,89,44,46,-1,89,46,85,-1,85,46,86,-1,20,21,18,-1,18,21,24,-1,18,24,14,-1,14,24,26,-1,14,26,12,-1,12,26,28,-1,12,28,99,-1,99,28,30,-1,99,30,103,-1,103,30,32,-1,103,32,101,-1,101,32,34,-1,101,34,98,-1,98,34,36,-1,98,36,94,-1,94,36,38,-1,94,38,95,-1,95,38,40,-1,95,40,91,-1,91,40,42,-1,91,42,44,-1,106,107,108,-1,108,107,109,-1,110,111,112,-1,112,111,106,-1,112,106,108,-1,113,111,114,-1,114,111,110,-1,113,114,115,-1,115,114,116,-1,115,116,117,-1,118,115,119,-1,119,115,117,-1,120,121,122,-1,122,121,118,-1,122,118,119,-1,123,121,124,-1,124,121,120,-1,123,124,125,-1,125,124,126,-1,125,126,127,-1,128,125,129,-1,129,125,127,-1,130,131,132,-1,132,131,128,-1,132,128,129,-1,133,131,134,-1,134,131,130,-1,133,134,107,-1,107,134,135,-1,107,135,109,-1,133,107,106,-1,106,111,133,-1,133,111,113,-1,133,113,131,-1,125,128,123,-1,123,128,131,-1,123,131,121,-1,121,131,113,-1,121,113,118,-1,118,113,115,-1,136,137,138,-1,138,137,139,-1,138,139,140,-1,140,139,141,-1,140,141,142,-1,142,141,143,-1,142,143,144,-1,144,143,145,-1,144,145,146,-1,146,145,147,-1,146,147,148,-1,148,147,149,-1,148,149,150,-1,150,149,151,-1,150,151,152,-1,152,151,153,-1,152,153,154,-1,154,153,155,-1,154,155,156,-1,156,155,157,-1,156,157,158,-1,158,157,159,-1,158,159,160,-1,160,159,161,-1,160,161,162,-1,162,161,163,-1,162,163,164,-1,164,163,165,-1,164,165,166,-1,166,165,167,-1,166,167,168,-1,168,167,169,-1,168,169,136,-1,136,169,170,-1,136,170,137,-1,142,144,171,-1,171,144,172,-1,173,136,138,-1,142,171,174,-1,142,174,140,-1,140,174,175,-1,140,175,138,-1,138,175,176,-1,138,176,173,-1,136,173,177,-1,136,177,168,-1,168,177,178,-1,168,178,166,-1,166,178,179,-1,166,179,164,-1,164,179,180,-1,164,180,162,-1,162,180,181,-1,162,181,160,-1,160,181,182,-1,160,182,158,-1,158,182,183,-1,158,183,156,-1,156,183,184,-1,156,184,154,-1,185,148,150,-1,154,184,186,-1,154,186,152,-1,152,186,187,-1,152,187,150,-1,150,187,188,-1,150,188,185,-1,146,148,189,-1,189,148,185,-1,144,146,172,-1,172,146,189,-1,149,147,190,-1,190,147,191,-1,147,145,191,-1,191,145,192,-1,145,143,192,-1,192,143,193,-1,170,194,195,-1,170,195,137,-1,137,195,196,-1,137,196,139,-1,139,196,197,-1,139,197,141,-1,141,197,193,-1,141,193,143,-1,163,198,199,-1,163,199,165,-1,165,199,200,-1,165,200,167,-1,167,200,201,-1,167,201,169,-1,169,201,194,-1,169,194,170,-1,155,202,203,-1,155,203,157,-1,157,203,204,-1,157,204,159,-1,159,204,205,-1,159,205,161,-1,161,205,198,-1,161,198,163,-1,149,190,206,-1,149,206,151,-1,151,206,207,-1,151,207,153,-1,153,207,202,-1,153,202,155,-1,
        ]
    }
}
Shape{
    appearance Appearance {
        material  Material 	{
            diffuseColor 0.5019607843137255 0.5019607843137255 0.5019607843137255
            specularColor 0.25098039215686274 0.25098039215686274 0.25098039215686274
            ambientIntensity 0.502
            transparency 0.0
            shininess 0.5
        }
    }
    geometry IndexedFaceSet {
        ccw TRUE
        solid FALSE
        coord DEF co Coordinate {
            point [
                0.1096 -0.8051 0.2951, 0.1101 -0.8051 0.2957, 0.0946 -0.8051 0.3313, 0.0865 -0.8051 0.3313, 0.0865 -0.8051 0.2901, 0.0943 -0.8051 0.2901, 0.1017 -0.8051 0.291, 0.1061 -0.8051 0.2927, 0.1125 -0.8051 0.2984, 0.1144 -0.8051 0.3023, 0.1156 -0.8051 0.307, 0.1158 -0.8051 0.3112, 0.115 -0.8051 0.318, 0.1135 -0.8051 0.3218, 0.1114 -0.8051 0.3248, 0.11 -0.8051 0.3262, 0.1015 -0.8051 0.3305, 0.1061 -0.8051 0.3288
            ]
        }
        coordIndex [
            0,1,2,-1,3,4,2,-1,2,4,5,-1,5,6,2,-1,2,6,7,-1,2,7,0,-1,1,8,2,-1,2,8,9,-1,2,9,10,-1,10,11,2,-1,2,11,12,-1,2,12,13,-1,13,14,2,-1,2,14,15,-1,2,15,16,-1,16,15,17,-1,
        ]
    }
}
Shape{
    appearance Appearance {
        material  Material 	{
            diffuseColor 0.0 0.0 0.0
            specularColor 0.0 0.0 0.0
            ambientIntensity 0.0
            transparency 0.0
            shininess 0.5
        }
    }
    geometry IndexedFaceSet {
        ccw TRUE
        solid FALSE
        coord DEF co Coordinate {
            point [
                0.141 -0.8091 0.3047, 0.1388 -0.8091 0.2986, 0.1589 -0.8091 0.3047, 0.161 -0.8091 0.2986, 0.149 -0.8091 0.3268, 0.1464 -0.8091 0.3374, 0.1261 -0.8091 0.284, 0.1337 -0.8091 0.284, 0.1494 -0.8091 0.3284, 0.1498 -0.8091 0.3306, 0.1538 -0.8091 0.3374, 0.15 -0.8091 0.3306, 0.1504 -0.8091 0.3283, 0.1508 -0.8091 0.3268, 0.1741 -0.8091 0.284, 0.1665 -0.8091 0.284, 0.1538 -0.8051 0.3374, 0.1741 -0.8051 0.284, 0.1464 -0.8051 0.3374, 0.1261 -0.8051 0.284, 0.1414 -0.8051 0.3244, 0.1337 -0.8051 0.284, 0.1388 -0.8051 0.2986, 0.161 -0.8051 0.2986, 0.1414 -0.8051 0.2986, 0.1665 -0.8051 0.284, 0.141 -0.8051 0.3047, 0.1589 -0.8051 0.3047, 0.1508 -0.8051 0.3268, 0.15 -0.8051 0.3306, 0.1504 -0.8051 0.3283, 0.1498 -0.8051 0.3306, 0.149 -0.8051 0.3268, 0.1494 -0.8051 0.3284
            ]
        }
        coordIndex [
            0,1,2,-1,2,1,3,-1,4,5,0,-1,0,5,6,-1,0,6,1,-1,1,6,7,-1,4,8,5,-1,5,8,9,-1,5,9,10,-1,10,9,11,-1,10,11,12,-1,12,13,10,-1,10,13,2,-1,10,2,14,-1,14,2,3,-1,14,3,15,-1,10,14,16,-1,16,14,17,-1,5,10,18,-1,18,10,16,-1,19,6,20,-1,20,6,5,-1,20,5,18,-1,7,6,21,-1,21,6,19,-1,1,7,22,-1,22,7,21,-1,23,3,24,-1,24,3,1,-1,24,1,22,-1,15,3,25,-1,25,3,23,-1,14,15,17,-1,17,15,25,-1,0,2,26,-1,26,2,27,-1,2,13,27,-1,27,13,28,-1,11,29,30,-1,11,30,12,-1,12,30,28,-1,12,28,13,-1,11,9,29,-1,29,9,31,-1,4,32,33,-1,4,33,8,-1,8,33,31,-1,8,31,9,-1,4,0,32,-1,32,0,26,-1,
        ]
    }
}
Shape{
    appearance Appearance {
        material  Material 	{
            diffuseColor 0.5019607843137255 0.5019607843137255 0.5019607843137255
            specularColor 0.25098039215686274 0.25098039215686274 0.25098039215686274
            ambientIntensity 0.502
            transparency 0.0
            shininess 0.5
        }
    }
    geometry IndexedFaceSet {
        ccw TRUE
        solid FALSE
        coord DEF co Coordinate {
            point [
                0.15 -0.8051 0.3306, 0.1498 -0.8051 0.3306, 0.1504 -0.8051 0.3283, 0.1494 -0.8051 0.3284, 0.1508 -0.8051 0.3268, 0.149 -0.8051 0.3268, 0.1589 -0.8051 0.3047, 0.141 -0.8051 0.3047
            ]
        }
        coordIndex [
            0,1,2,-1,2,1,3,-1,2,3,4,-1,4,3,5,-1,4,5,6,-1,6,5,7,-1,
        ]
    }
}
Shape{
    appearance Appearance {
        material  Material 	{
            diffuseColor 0.0 0.0 0.0
            specularColor 0.0 0.0 0.0
            ambientIntensity 0.0
            transparency 0.0
            shininess 0.5
        }
    }
    geometry IndexedFaceSet {
        ccw TRUE
        solid FALSE
        coord DEF co Coordinate {
            point [
                -0.0114 -0.8091 0.2054, -0.0114 -0.8091 0.1993, -0.0114 -0.8051 0.2054, -0.0114 -0.8051 0.1993, -0.0333 -0.8091 0.2054, -0.0333 -0.8051 0.2054, -0.0333 -0.8091 0.2234, -0.0333 -0.8051 0.2234, -0.0142 -0.8091 0.2234, -0.0142 -0.8051 0.2234, -0.0142 -0.8091 0.2295, -0.0142 -0.8051 0.2295, -0.0333 -0.8091 0.2295, -0.0333 -0.8051 0.2295, -0.0333 -0.8091 0.2466, -0.0333 -0.8051 0.2466, -0.0126 -0.8091 0.2466, -0.0126 -0.8051 0.2466, -0.0126 -0.8091 0.2527, -0.0126 -0.8051 0.2527, -0.0401 -0.8091 0.2527, -0.0401 -0.8051 0.2527, -0.0401 -0.8091 0.1993, -0.0401 -0.8051 0.1993, 0.0187 -0.8091 0.2052, 0.0189 -0.8091 0.2052, 0.0185 -0.8091 0.2114, 0.0189 -0.8091 0.2144, 0.0256 -0.8091 0.2239, 0.0189 -0.8091 0.2148, 0.0189 -0.8091 0.2185, 0.0189 -0.8091 0.1993, 0.0256 -0.8091 0.1993, 0.0165 -0.8091 0.2378, 0.015 -0.8091 0.2321, 0.0192 -0.8091 0.2369, 0.0162 -0.8091 0.2314, 0.0043 -0.8091 0.2156, 0.0058 -0.8091 0.2163, 0.0021 -0.8091 0.2206, 0.0175 -0.8091 0.209, 0.016 -0.8091 0.207, 0.0177 -0.8091 0.2037, 0.0152 -0.8091 0.2062, 0.0156 -0.8091 0.2014, 0.0133 -0.8091 0.205, 0.0132 -0.8091 0.1998, 0.0113 -0.8091 0.2042, 0.0105 -0.8091 0.1988, 0.0088 -0.8091 0.2039, 0.0071 -0.8091 0.1984, 0.0065 -0.8091 0.2042, 0.0031 -0.8091 0.1989, 0.005 -0.8091 0.2047, 0.0005 -0.8091 0.1999, 0.0037 -0.8091 0.2057, -0.0018 -0.8091 0.2015, 0.0031 -0.8091 0.2062, -0.0013 -0.8091 0.2348, -0.0013 -0.8091 0.2283, 0.0 -0.8091 0.2356, 0.0033 -0.8091 0.2312, 0.005 -0.8091 0.2375, 0.0075 -0.8091 0.2326, 0.0118 -0.8091 0.2383, 0.0112 -0.8091 0.2329, 0.0135 -0.8091 0.2327, 0.0076 -0.8091 0.222, 0.01 -0.8091 0.2173, 0.0189 -0.8091 0.2236, 0.0035 -0.8091 0.2149, -0.0006 -0.8091 0.2191, 0.0027 -0.8091 0.2139, -0.0026 -0.8091 0.2173, 0.0021 -0.8091 0.2127, -0.0039 -0.8091 0.2151, 0.0018 -0.8091 0.2112, -0.0047 -0.8091 0.2126, 0.0017 -0.8091 0.2101, -0.005 -0.8091 0.2096, 0.0019 -0.8091 0.2086, -0.0047 -0.8091 0.2063, 0.0024 -0.8091 0.2074, -0.0038 -0.8091 0.2041, -0.0024 -0.8091 0.2021, 0.0187 -0.8091 0.2265, 0.0249 -0.8091 0.2295, 0.018 -0.8091 0.2289, 0.0238 -0.8091 0.2324, 0.0172 -0.8091 0.2303, 0.0224 -0.8091 0.2344, 0.0213 -0.8091 0.2355, 0.0118 -0.8051 0.2383, 0.005 -0.8051 0.2375, 0.0 -0.8051 0.2356, -0.0013 -0.8051 0.2348, -0.0013 -0.8051 0.2283, 0.0033 -0.8051 0.2312, 0.0075 -0.8051 0.2326, 0.0112 -0.8051 0.2329, 0.0135 -0.8051 0.2327, 0.015 -0.8051 0.2321, 0.0162 -0.8051 0.2314, 0.0172 -0.8051 0.2303, 0.018 -0.8051 0.2289, 0.0187 -0.8051 0.2265, 0.0189 -0.8051 0.2236, 0.0076 -0.8051 0.222, 0.0021 -0.8051 0.2206, -0.0006 -0.8051 0.2191, -0.0026 -0.8051 0.2173, -0.0039 -0.8051 0.2151, -0.0047 -0.8051 0.2126, -0.005 -0.8051 0.2096, -0.0047 -0.8051 0.2063, -0.0038 -0.8051 0.2041, -0.0024 -0.8051 0.2021, -0.0018 -0.8051 0.2015, 0.0071 -0.8051 0.1984, 0.0032 -0.8051 0.1989, 0.0031 -0.8051 0.1989, 0.0005 -0.8051 0.1999, 0.0105 -0.8051 0.1988, 0.0107 -0.8051 0.1989, 0.0132 -0.8051 0.1998, 0.0156 -0.8051 0.2014, 0.0177 -0.8051 0.2037, 0.0187 -0.8051 0.2052, 0.0189 -0.8051 0.2052, 0.0189 -0.8051 0.1993, 0.0256 -0.8051 0.1993, 0.0256 -0.8051 0.2239, 0.0249 -0.8051 0.2295, 0.0238 -0.8051 0.2324, 0.0224 -0.8051 0.2344, 0.0213 -0.8051 0.2355, 0.0192 -0.8051 0.2369, 0.0165 -0.8051 0.2378, 0.0035 -0.8051 0.2149, 0.0043 -0.8051 0.2156, 0.0058 -0.8051 0.2163, 0.01 -0.8051 0.2173, 0.0017 -0.8051 0.2101, 0.0018 -0.8051 0.2112, 0.0021 -0.8051 0.2127, 0.0027 -0.8051 0.2139, 0.0037 -0.8051 0.2057, 0.0031 -0.8051 0.2062, 0.0024 -0.8051 0.2074, 0.0019 -0.8051 0.2086, 0.0088 -0.8051 0.2039, 0.0065 -0.8051 0.2042, 0.005 -0.8051 0.2047, 0.016 -0.8051 0.207, 0.0152 -0.8051 0.2062, 0.0133 -0.8051 0.205, 0.0113 -0.8051 0.2042, 0.0189 -0.8051 0.2148, 0.0189 -0.8051 0.2144, 0.0185 -0.8051 0.2114, 0.0175 -0.8051 0.209, 0.0189 -0.8051 0.2185
            ]
        }
        coordIndex [
            0,1,2,-1,2,1,3,-1,4,0,5,-1,5,0,2,-1,6,4,7,-1,7,4,5,-1,8,6,9,-1,9,6,7,-1,10,8,11,-1,11,8,9,-1,12,10,13,-1,13,10,11,-1,14,12,15,-1,15,12,13,-1,16,14,17,-1,17,14,15,-1,18,16,19,-1,19,16,17,-1,20,18,21,-1,21,18,19,-1,22,20,23,-1,23,20,21,-1,1,22,3,-1,3,22,23,-1,22,1,0,-1,0,4,22,-1,22,4,6,-1,22,6,20,-1,16,18,14,-1,14,18,20,-1,14,20,12,-1,12,20,6,-1,12,6,10,-1,10,6,8,-1,24,25,26,-1,27,28,29,-1,29,28,30,-1,31,32,25,-1,25,32,28,-1,25,28,26,-1,26,28,27,-1,33,34,35,-1,35,34,36,-1,37,38,39,-1,26,40,24,-1,24,40,41,-1,24,41,42,-1,42,41,43,-1,42,43,44,-1,44,43,45,-1,44,45,46,-1,46,45,47,-1,46,47,48,-1,48,47,49,-1,48,49,50,-1,50,49,51,-1,50,51,52,-1,52,51,53,-1,52,53,54,-1,54,53,55,-1,54,55,56,-1,56,55,57,-1,58,59,60,-1,60,59,61,-1,60,61,62,-1,62,61,63,-1,62,63,64,-1,64,63,65,-1,64,65,33,-1,33,65,66,-1,33,66,34,-1,39,38,67,-1,67,38,68,-1,67,68,69,-1,37,39,70,-1,70,39,71,-1,70,71,72,-1,72,71,73,-1,72,73,74,-1,74,73,75,-1,74,75,76,-1,76,75,77,-1,76,77,78,-1,78,77,79,-1,78,79,80,-1,80,79,81,-1,80,81,82,-1,82,81,83,-1,82,83,57,-1,57,83,84,-1,57,84,56,-1,68,30,69,-1,69,30,28,-1,69,28,85,-1,85,28,86,-1,85,86,87,-1,87,86,88,-1,87,88,89,-1,89,88,90,-1,89,90,36,-1,36,90,91,-1,36,91,35,-1,64,92,93,-1,64,93,62,-1,62,93,94,-1,62,94,60,-1,60,94,95,-1,60,95,58,-1,59,58,96,-1,96,58,95,-1,59,96,97,-1,59,97,61,-1,61,97,98,-1,61,98,63,-1,63,98,99,-1,63,99,65,-1,65,99,100,-1,65,100,66,-1,66,100,101,-1,66,101,34,-1,34,101,102,-1,34,102,36,-1,36,102,103,-1,36,103,89,-1,89,103,104,-1,89,104,87,-1,87,104,105,-1,87,105,85,-1,85,105,106,-1,85,106,69,-1,67,69,107,-1,107,69,106,-1,67,107,108,-1,67,108,39,-1,39,108,109,-1,39,109,71,-1,71,109,110,-1,71,110,73,-1,73,110,111,-1,73,111,75,-1,75,111,112,-1,75,112,77,-1,77,112,113,-1,77,113,79,-1,79,113,114,-1,79,114,81,-1,81,114,115,-1,81,115,83,-1,83,115,116,-1,83,116,84,-1,84,116,117,-1,84,117,56,-1,118,50,119,-1,119,50,52,-1,119,52,120,-1,120,52,54,-1,120,54,121,-1,121,54,56,-1,121,56,117,-1,50,118,122,-1,50,122,48,-1,48,122,123,-1,48,123,46,-1,123,124,46,-1,46,124,125,-1,46,125,44,-1,44,125,126,-1,44,126,42,-1,42,126,127,-1,42,127,24,-1,25,24,128,-1,128,24,127,-1,31,25,129,-1,129,25,128,-1,32,31,130,-1,130,31,129,-1,28,32,131,-1,131,32,130,-1,28,131,132,-1,28,132,86,-1,86,132,133,-1,86,133,88,-1,88,133,134,-1,88,134,90,-1,90,134,135,-1,90,135,91,-1,91,135,136,-1,91,136,35,-1,35,136,137,-1,35,137,33,-1,33,137,92,-1,33,92,64,-1,70,138,139,-1,70,139,37,-1,37,139,140,-1,37,140,38,-1,38,140,141,-1,38,141,68,-1,78,142,143,-1,78,143,76,-1,76,143,144,-1,76,144,74,-1,74,144,145,-1,74,145,72,-1,72,145,138,-1,72,138,70,-1,55,146,147,-1,55,147,57,-1,57,147,148,-1,57,148,82,-1,82,148,149,-1,82,149,80,-1,80,149,142,-1,80,142,78,-1,49,150,151,-1,49,151,51,-1,51,151,152,-1,51,152,53,-1,53,152,146,-1,53,146,55,-1,41,153,154,-1,41,154,43,-1,43,154,155,-1,43,155,45,-1,45,155,156,-1,45,156,47,-1,47,156,150,-1,47,150,49,-1,29,157,158,-1,29,158,27,-1,27,158,159,-1,27,159,26,-1,26,159,160,-1,26,160,40,-1,40,160,153,-1,40,153,41,-1,29,30,157,-1,157,30,161,-1,30,68,161,-1,161,68,141,-1,
        ]
    }
}
Shape{
    appearance Appearance {
        material  Material 	{
            diffuseColor 0.5019607843137255 0.5019607843137255 0.5019607843137255
            specularColor 0.25098039215686274 0.25098039215686274 0.25098039215686274
            ambientIntensity 0.502
            transparency 0.0
            shininess 0.5
        }
    }
    geometry IndexedFaceSet {
        ccw TRUE
        solid FALSE
        coord DEF co Coordinate {
            point [
                0.0189 -0.8051 0.2144, 0.0189 -0.8051 0.2148, 0.0035 -0.8051 0.2149, 0.0189 -0.8051 0.2185, 0.01 -0.8051 0.2173, 0.0058 -0.8051 0.2163, 0.0043 -0.8051 0.2156, 0.0185 -0.8051 0.2114, 0.0027 -0.8051 0.2139, 0.0175 -0.8051 0.209, 0.0031 -0.8051 0.2062, 0.0037 -0.8051 0.2057, 0.0152 -0.8051 0.2062, 0.0024 -0.8051 0.2074, 0.0133 -0.8051 0.205, 0.0113 -0.8051 0.2042, 0.0088 -0.8051 0.2039, 0.0021 -0.8051 0.2127, 0.0018 -0.8051 0.2112, 0.016 -0.8051 0.207, 0.0017 -0.8051 0.2101, 0.0019 -0.8051 0.2086, 0.005 -0.8051 0.2047, 0.0065 -0.8051 0.2042
            ]
        }
        coordIndex [
            0,1,2,-1,1,3,4,-1,4,5,1,-1,1,5,6,-1,1,6,2,-1,0,2,7,-1,7,2,8,-1,7,8,9,-1,10,11,12,-1,10,12,13,-1,14,12,15,-1,15,12,16,-1,8,17,9,-1,9,17,18,-1,9,18,19,-1,19,18,20,-1,19,20,12,-1,12,20,21,-1,12,21,13,-1,11,22,12,-1,12,22,23,-1,12,23,16,-1,
        ]
    }
}
Shape{
    appearance Appearance {
        material  Material 	{
            diffuseColor 0.0 0.0 0.0
            specularColor 0.0 0.0 0.0
            ambientIntensity 0.0
            transparency 0.0
            shininess 0.5
        }
    }
    geometry IndexedFaceSet {
        ccw TRUE
        solid FALSE
        coord DEF co Coordinate {
            point [
                0.0347 -0.8051 0.2076, 0.0347 -0.8091 0.2076, 0.0371 -0.8091 0.2061, 0.0457 -0.8091 0.2039, 0.0457 -0.8051 0.2039, 0.0412 -0.8051 0.2045, 0.0412 -0.8091 0.2045, 0.0378 -0.8051 0.2058, 0.0371 -0.8051 0.2061, 0.0347 -0.8091 0.2007, 0.0347 -0.8051 0.2007, 0.0378 -0.8051 0.1996, 0.0394 -0.8091 0.199, 0.045 -0.8051 0.1984, 0.045 -0.8091 0.1984, 0.0407 -0.8051 0.1989, 0.0394 -0.8051 0.199, 0.0511 -0.8091 0.1992, 0.0488 -0.8051 0.1989, 0.0511 -0.8051 0.1992, 0.0546 -0.8051 0.2005, 0.0546 -0.8091 0.2005, 0.0561 -0.8051 0.2015, 0.0561 -0.8091 0.2015, 0.058 -0.8051 0.2032, 0.058 -0.8091 0.2032, 0.0593 -0.8051 0.2049, 0.0593 -0.8091 0.2049, 0.0601 -0.8051 0.207, 0.0601 -0.8091 0.207, 0.0604 -0.8051 0.2097, 0.0604 -0.8091 0.2097, 0.0601 -0.8051 0.2122, 0.0601 -0.8091 0.2122, 0.0594 -0.8051 0.2142, 0.0594 -0.8091 0.2142, 0.0582 -0.8051 0.216, 0.0582 -0.8091 0.216, 0.0566 -0.8051 0.2174, 0.0566 -0.8091 0.2174, 0.0521 -0.8051 0.2199, 0.0521 -0.8091 0.2199, 0.0495 -0.8051 0.221, 0.0495 -0.8091 0.221, 0.0454 -0.8051 0.2228, 0.0454 -0.8091 0.2228, 0.0431 -0.8051 0.2242, 0.0431 -0.8091 0.2242, 0.0424 -0.8051 0.225, 0.0424 -0.8091 0.225, 0.0419 -0.8051 0.2259, 0.0419 -0.8091 0.2259, 0.0417 -0.8051 0.2269, 0.0417 -0.8091 0.2269, 0.0416 -0.8051 0.2278, 0.0416 -0.8091 0.2278, 0.0417 -0.8051 0.2289, 0.0417 -0.8091 0.2289, 0.042 -0.8051 0.2298, 0.042 -0.8091 0.2298, 0.0426 -0.8051 0.2306, 0.0426 -0.8091 0.2306, 0.0436 -0.8051 0.2315, 0.0436 -0.8091 0.2315, 0.0451 -0.8051 0.2323, 0.0451 -0.8091 0.2323, 0.0469 -0.8051 0.2328, 0.0469 -0.8091 0.2328, 0.0489 -0.8051 0.2329, 0.0489 -0.8091 0.2329, 0.0536 -0.8051 0.2323, 0.0536 -0.8091 0.2323, 0.0573 -0.8051 0.2309, 0.0573 -0.8091 0.2309, 0.0586 -0.8051 0.2302, 0.0586 -0.8091 0.2302, 0.0586 -0.8091 0.2367, 0.0586 -0.8051 0.2367, 0.0542 -0.8051 0.2379, 0.0542 -0.8091 0.2379, 0.0495 -0.8051 0.2383, 0.0495 -0.8091 0.2383, 0.0442 -0.8051 0.2377, 0.0442 -0.8091 0.2377, 0.0406 -0.8051 0.2363, 0.0406 -0.8091 0.2363, 0.039 -0.8051 0.2353, 0.039 -0.8091 0.2353, 0.0378 -0.8051 0.2342, 0.037 -0.8091 0.2335, 0.037 -0.8051 0.2335, 0.0358 -0.8051 0.2317, 0.0358 -0.8091 0.2317, 0.035 -0.8051 0.2296, 0.035 -0.8091 0.2296, 0.0347 -0.8051 0.2272, 0.0347 -0.8091 0.2272, 0.035 -0.8051 0.2246, 0.035 -0.8091 0.2246, 0.0357 -0.8051 0.2225, 0.0357 -0.8091 0.2225, 0.0366 -0.8051 0.2212, 0.0366 -0.8091 0.2212, 0.0448 -0.8051 0.2161, 0.0448 -0.8091 0.2161, 0.0408 -0.8091 0.2179, 0.0377 -0.8051 0.22, 0.0377 -0.8091 0.22, 0.0378 -0.8051 0.22, 0.0408 -0.8051 0.2179, 0.0492 -0.8051 0.2143, 0.0492 -0.8091 0.2143, 0.0518 -0.8051 0.2127, 0.0518 -0.8091 0.2127, 0.0527 -0.8051 0.2118, 0.0527 -0.8091 0.2118, 0.0532 -0.8051 0.2109, 0.0532 -0.8091 0.2109, 0.0535 -0.8051 0.2099, 0.0535 -0.8091 0.2099, 0.0535 -0.8051 0.2091, 0.0535 -0.8091 0.2091, 0.0534 -0.8051 0.2078, 0.0534 -0.8091 0.2078, 0.0531 -0.8051 0.2068, 0.0531 -0.8091 0.2068, 0.0525 -0.8051 0.206, 0.0525 -0.8091 0.206, 0.0517 -0.8051 0.2053, 0.0517 -0.8091 0.2053, 0.0511 -0.8051 0.2049, 0.0511 -0.8091 0.2049, 0.0494 -0.8051 0.2043, 0.0494 -0.8091 0.2043, 0.046 -0.8051 0.2039, 0.046 -0.8091 0.2039, 0.0936 -0.8091 0.2375, 0.1005 -0.8091 0.2375, 0.0936 -0.8051 0.2375, 0.1005 -0.8051 0.2375, 0.0831 -0.8091 0.2088, 0.0831 -0.8051 0.2088, 0.0826 -0.8051 0.207, 0.0826 -0.8091 0.207, 0.0823 -0.8051 0.2057, 0.0823 -0.8091 0.2057, 0.0821 -0.8091 0.2057, 0.0821 -0.8051 0.2057, 0.0813 -0.8091 0.2088, 0.0813 -0.8051 0.2088, 0.0714 -0.8091 0.2375, 0.0746 -0.8051 0.2282, 0.0714 -0.8051 0.2375, 0.0639 -0.8091 0.2375, 0.0639 -0.8051 0.2375, 0.0788 -0.8091 0.1994, 0.0746 -0.8051 0.2102, 0.0788 -0.8051 0.1994, 0.0759 -0.8051 0.1925, 0.0759 -0.8091 0.1925, 0.0786 -0.8051 0.1989, 0.0746 -0.8051 0.1901, 0.0746 -0.8091 0.19, 0.0746 -0.8051 0.19, 0.0733 -0.8051 0.1887, 0.0733 -0.8091 0.1887, 0.0723 -0.8051 0.1879, 0.0723 -0.8091 0.1879, 0.0709 -0.8051 0.1874, 0.0709 -0.8091 0.1874, 0.0693 -0.8051 0.1871, 0.0693 -0.8091 0.1871, 0.0691 -0.8051 0.1871, 0.0691 -0.8091 0.1871, 0.0666 -0.8051 0.1874, 0.0666 -0.8091 0.1874, 0.0653 -0.8051 0.1879, 0.0653 -0.8091 0.1879, 0.0653 -0.8091 0.1819, 0.0653 -0.8051 0.1819, 0.0681 -0.8051 0.1814, 0.0681 -0.8091 0.1814, 0.0696 -0.8051 0.1814, 0.0696 -0.8091 0.1814, 0.0725 -0.8051 0.1818, 0.0725 -0.8091 0.1818, 0.0746 -0.8051 0.1826, 0.0751 -0.8091 0.1828, 0.0751 -0.8051 0.1828, 0.0774 -0.8051 0.1844, 0.0774 -0.8091 0.1844, 0.0801 -0.8051 0.1876, 0.0801 -0.8091 0.1876, 0.0832 -0.8051 0.1936, 0.0832 -0.8091 0.1936, 0.0853 -0.8051 0.1989, 0.1364 -0.8091 0.2054, 0.1364 -0.8091 0.1993, 0.1364 -0.8051 0.2054, 0.1364 -0.8051 0.1993, 0.1146 -0.8091 0.2054, 0.1246 -0.8051 0.2054, 0.1146 -0.8051 0.2054, 0.1146 -0.8091 0.2234, 0.1146 -0.8051 0.2234, 0.1337 -0.8091 0.2234, 0.1246 -0.8051 0.2234, 0.1337 -0.8051 0.2234, 0.1337 -0.8091 0.2295, 0.1337 -0.8051 0.2295, 0.1146 -0.8051 0.2295, 0.1146 -0.8091 0.2295, 0.1246 -0.8051 0.2295, 0.1146 -0.8091 0.2466, 0.1146 -0.8051 0.2466, 0.1352 -0.8051 0.2466, 0.1352 -0.8091 0.2466, 0.1246 -0.8051 0.2466, 0.1352 -0.8091 0.2527, 0.1352 -0.8051 0.2527, 0.1077 -0.8051 0.2527, 0.1077 -0.8091 0.2527, 0.1246 -0.8051 0.2527, 0.1077 -0.8091 0.1993, 0.1077 -0.8051 0.1993, 0.1246 -0.8051 0.1993, 0.1819 -0.8091 0.2068, 0.1764 -0.8091 0.2105, 0.1764 -0.8091 0.2029, 0.173 -0.8091 0.2081, 0.1703 -0.8091 0.2005, 0.1686 -0.8091 0.2063, 0.1612 -0.8091 0.1993, 0.1611 -0.8091 0.2054, 0.1465 -0.8091 0.1993, 0.1534 -0.8091 0.2054, 0.1465 -0.8091 0.2527, 0.1534 -0.8091 0.2466, 0.1617 -0.8091 0.2527, 0.1614 -0.8091 0.2466, 0.1699 -0.8091 0.2518, 0.1683 -0.8091 0.2458, 0.1763 -0.8091 0.2495, 0.1729 -0.8091 0.2442, 0.1819 -0.8091 0.2457, 0.1768 -0.8091 0.2416, 0.1837 -0.8091 0.2438, 0.1783 -0.8091 0.2401, 0.1871 -0.8091 0.2392, 0.1804 -0.8091 0.2372, 0.189 -0.8091 0.2341, 0.1819 -0.8091 0.2333, 0.1899 -0.8091 0.2267, 0.1827 -0.8091 0.2265, 0.1898 -0.8091 0.2233, 0.1824 -0.8091 0.2223, 0.1885 -0.8091 0.2171, 0.1813 -0.8091 0.2176, 0.1859 -0.8091 0.2116, 0.1793 -0.8091 0.2138, 0.177 -0.8091 0.211, 0.1612 -0.8051 0.1993, 0.1465 -0.8051 0.1993, 0.1703 -0.8051 0.2005, 0.1764 -0.8051 0.2029, 0.1819 -0.8051 0.2068, 0.1859 -0.8051 0.2116, 0.1885 -0.8051 0.2171, 0.1898 -0.8051 0.2233, 0.1899 -0.8051 0.2267, 0.189 -0.8051 0.2341, 0.1871 -0.8051 0.2392, 0.1837 -0.8051 0.2438, 0.1819 -0.8051 0.2457, 0.1763 -0.8051 0.2495, 0.1699 -0.8051 0.2518, 0.1617 -0.8051 0.2527, 0.1465 -0.8051 0.2527, 0.1614 -0.8051 0.2466, 0.1534 -0.8051 0.2466, 0.1534 -0.8051 0.2054, 0.1611 -0.8051 0.2054, 0.177 -0.8051 0.211, 0.1764 -0.8051 0.2105, 0.173 -0.8051 0.2081, 0.1686 -0.8051 0.2063, 0.1827 -0.8051 0.2265, 0.1824 -0.8051 0.2223, 0.1813 -0.8051 0.2176, 0.1793 -0.8051 0.2138, 0.1768 -0.8051 0.2416, 0.1783 -0.8051 0.2401, 0.1804 -0.8051 0.2372, 0.1819 -0.8051 0.2333, 0.1683 -0.8051 0.2458, 0.1729 -0.8051 0.2442
            ]
        }
        coordIndex [
            0,1,2,-1,3,4,5,-1,3,5,6,-1,6,5,7,-1,6,7,2,-1,2,7,8,-1,2,8,0,-1,9,1,10,-1,10,1,0,-1,10,11,9,-1,9,11,12,-1,13,14,15,-1,15,14,12,-1,15,12,16,-1,16,12,11,-1,14,13,17,-1,17,13,18,-1,18,19,17,-1,17,19,20,-1,17,20,21,-1,21,20,22,-1,21,22,23,-1,23,22,24,-1,23,24,25,-1,25,24,26,-1,25,26,27,-1,27,26,28,-1,27,28,29,-1,29,28,30,-1,29,30,31,-1,31,30,32,-1,31,32,33,-1,33,32,34,-1,33,34,35,-1,35,34,36,-1,35,36,37,-1,37,36,38,-1,37,38,39,-1,39,38,40,-1,39,40,41,-1,41,40,42,-1,41,42,43,-1,43,42,44,-1,43,44,45,-1,45,44,46,-1,45,46,47,-1,47,46,48,-1,47,48,49,-1,49,48,50,-1,49,50,51,-1,51,50,52,-1,51,52,53,-1,53,52,54,-1,53,54,55,-1,55,54,56,-1,55,56,57,-1,57,56,58,-1,57,58,59,-1,59,58,60,-1,59,60,61,-1,61,60,62,-1,61,62,63,-1,63,62,64,-1,63,64,65,-1,65,64,66,-1,65,66,67,-1,67,66,68,-1,67,68,69,-1,69,68,70,-1,69,70,71,-1,71,70,72,-1,71,72,73,-1,73,72,74,-1,73,74,75,-1,76,75,77,-1,77,75,74,-1,76,77,78,-1,76,78,79,-1,79,78,80,-1,79,80,81,-1,81,80,82,-1,81,82,83,-1,83,82,84,-1,83,84,85,-1,85,84,86,-1,85,86,87,-1,86,88,87,-1,87,88,89,-1,88,90,89,-1,89,90,91,-1,89,91,92,-1,92,91,93,-1,92,93,94,-1,94,93,95,-1,94,95,96,-1,96,95,97,-1,96,97,98,-1,98,97,99,-1,98,99,100,-1,100,99,101,-1,100,101,102,-1,103,104,105,-1,102,101,106,-1,102,106,107,-1,107,106,108,-1,107,108,105,-1,105,108,109,-1,105,109,103,-1,104,103,110,-1,104,110,111,-1,111,110,112,-1,111,112,113,-1,113,112,114,-1,113,114,115,-1,115,114,116,-1,115,116,117,-1,117,116,118,-1,117,118,119,-1,119,118,120,-1,119,120,121,-1,121,120,122,-1,121,122,123,-1,123,122,124,-1,123,124,125,-1,125,124,126,-1,125,126,127,-1,127,126,128,-1,127,128,129,-1,129,128,130,-1,129,130,131,-1,131,130,132,-1,131,132,133,-1,133,132,134,-1,133,134,135,-1,135,134,4,-1,135,4,3,-1,59,61,87,-1,87,61,85,-1,85,61,63,-1,85,63,83,-1,125,25,27,-1,111,43,104,-1,104,43,45,-1,125,27,123,-1,123,27,29,-1,123,29,121,-1,121,29,31,-1,121,31,119,-1,119,31,33,-1,119,33,117,-1,117,33,35,-1,117,35,115,-1,115,35,37,-1,115,37,113,-1,113,37,39,-1,113,39,111,-1,111,39,41,-1,111,41,43,-1,25,125,23,-1,23,125,127,-1,23,127,21,-1,14,3,12,-1,12,3,6,-1,12,6,9,-1,9,6,2,-1,9,2,1,-1,63,65,83,-1,83,65,67,-1,83,67,81,-1,81,67,69,-1,81,69,79,-1,79,69,71,-1,79,71,76,-1,76,71,73,-1,76,73,75,-1,127,129,21,-1,21,129,131,-1,21,131,17,-1,17,131,133,-1,17,133,14,-1,14,133,135,-1,14,135,3,-1,87,89,59,-1,59,89,92,-1,59,92,57,-1,57,92,94,-1,57,94,55,-1,55,94,96,-1,55,96,53,-1,53,96,98,-1,53,98,51,-1,51,98,100,-1,51,100,49,-1,49,100,102,-1,49,102,47,-1,47,102,107,-1,47,107,45,-1,45,107,105,-1,45,105,104,-1,136,137,138,-1,138,137,139,-1,140,136,141,-1,141,136,138,-1,140,141,142,-1,140,142,143,-1,143,142,144,-1,143,144,145,-1,146,145,147,-1,147,145,144,-1,148,146,149,-1,149,146,147,-1,148,149,150,-1,150,149,151,-1,150,151,152,-1,153,150,154,-1,154,150,152,-1,153,154,155,-1,155,154,156,-1,155,156,157,-1,158,159,160,-1,160,159,155,-1,160,155,157,-1,158,161,159,-1,159,161,162,-1,161,163,162,-1,162,163,164,-1,162,164,165,-1,165,164,166,-1,165,166,167,-1,167,166,168,-1,167,168,169,-1,169,168,170,-1,169,170,171,-1,171,170,172,-1,171,172,173,-1,173,172,174,-1,173,174,175,-1,175,174,176,-1,175,176,177,-1,178,177,179,-1,179,177,176,-1,178,179,180,-1,178,180,181,-1,181,180,182,-1,181,182,183,-1,183,182,184,-1,183,184,185,-1,185,184,186,-1,185,186,187,-1,186,188,187,-1,187,188,189,-1,187,189,190,-1,190,189,191,-1,190,191,192,-1,192,191,193,-1,192,193,194,-1,139,137,195,-1,195,137,194,-1,195,194,193,-1,143,145,194,-1,137,136,194,-1,194,136,140,-1,194,140,143,-1,150,153,148,-1,148,153,155,-1,148,155,146,-1,145,146,194,-1,194,146,155,-1,194,155,192,-1,155,159,192,-1,192,159,162,-1,192,162,190,-1,190,162,165,-1,190,165,187,-1,187,165,167,-1,187,167,185,-1,185,167,169,-1,185,169,183,-1,183,169,171,-1,183,171,181,-1,181,171,173,-1,181,173,178,-1,178,173,175,-1,178,175,177,-1,196,197,198,-1,198,197,199,-1,196,198,200,-1,200,198,201,-1,200,201,202,-1,203,200,204,-1,204,200,202,-1,203,204,205,-1,205,204,206,-1,205,206,207,-1,208,205,209,-1,209,205,207,-1,210,211,212,-1,212,211,208,-1,212,208,209,-1,213,211,214,-1,214,211,210,-1,215,216,217,-1,217,216,213,-1,217,213,214,-1,218,216,219,-1,219,216,215,-1,220,221,222,-1,222,221,218,-1,222,218,219,-1,223,221,224,-1,224,221,220,-1,223,224,197,-1,197,224,225,-1,197,225,199,-1,223,197,196,-1,196,200,223,-1,223,200,203,-1,223,203,221,-1,216,218,213,-1,213,218,221,-1,213,221,211,-1,211,221,203,-1,211,203,208,-1,208,203,205,-1,226,227,228,-1,228,227,229,-1,228,229,230,-1,230,229,231,-1,230,231,232,-1,232,231,233,-1,232,233,234,-1,234,233,235,-1,234,235,236,-1,236,235,237,-1,236,237,238,-1,238,237,239,-1,238,239,240,-1,240,239,241,-1,240,241,242,-1,242,241,243,-1,242,243,244,-1,244,243,245,-1,244,245,246,-1,246,245,247,-1,246,247,248,-1,248,247,249,-1,248,249,250,-1,250,249,251,-1,250,251,252,-1,252,251,253,-1,252,253,254,-1,254,253,255,-1,254,255,256,-1,256,255,257,-1,256,257,258,-1,258,257,259,-1,258,259,226,-1,226,259,260,-1,226,260,227,-1,232,234,261,-1,261,234,262,-1,232,261,263,-1,232,263,230,-1,230,263,264,-1,230,264,228,-1,228,264,265,-1,228,265,226,-1,226,265,266,-1,226,266,258,-1,258,266,267,-1,258,267,256,-1,256,267,268,-1,256,268,254,-1,254,268,269,-1,254,269,252,-1,252,269,270,-1,252,270,250,-1,250,270,271,-1,250,271,248,-1,248,271,272,-1,248,272,246,-1,246,272,273,-1,246,273,244,-1,244,273,274,-1,244,274,242,-1,242,274,275,-1,242,275,240,-1,240,275,276,-1,240,276,238,-1,236,238,277,-1,277,238,276,-1,234,236,262,-1,262,236,277,-1,239,237,278,-1,278,237,279,-1,237,235,279,-1,279,235,280,-1,235,233,280,-1,280,233,281,-1,260,282,283,-1,260,283,227,-1,227,283,284,-1,227,284,229,-1,229,284,285,-1,229,285,231,-1,231,285,281,-1,231,281,233,-1,253,286,287,-1,253,287,255,-1,255,287,288,-1,255,288,257,-1,257,288,289,-1,257,289,259,-1,259,289,282,-1,259,282,260,-1,245,290,291,-1,245,291,247,-1,247,291,292,-1,247,292,249,-1,249,292,293,-1,249,293,251,-1,251,293,286,-1,251,286,253,-1,239,278,294,-1,239,294,241,-1,241,294,295,-1,241,295,243,-1,243,295,290,-1,243,290,245,-1,
        ]
    }
}
Shape{
    appearance Appearance {
        material  Material 	{
            diffuseColor 0.5019607843137255 0.5019607843137255 0.5019607843137255
            specularColor 0.25098039215686274 0.25098039215686274 0.25098039215686274
            ambientIntensity 0.502
            transparency 0.0
            shininess 0.5
        }
    }
    geometry IndexedFaceSet {
        ccw TRUE
        solid FALSE
        coord DEF co Coordinate {
            point [
                0.1764 -0.8051 0.2105, 0.177 -0.8051 0.211, 0.1614 -0.8051 0.2466, 0.1534 -0.8051 0.2466, 0.1534 -0.8051 0.2054, 0.1611 -0.8051 0.2054, 0.1686 -0.8051 0.2063, 0.173 -0.8051 0.2081, 0.1793 -0.8051 0.2138, 0.1813 -0.8051 0.2176, 0.1824 -0.8051 0.2223, 0.1827 -0.8051 0.2265, 0.1819 -0.8051 0.2333, 0.1804 -0.8051 0.2372, 0.1783 -0.8051 0.2401, 0.1768 -0.8051 0.2416, 0.1683 -0.8051 0.2458, 0.1729 -0.8051 0.2442
            ]
        }
        coordIndex [
            0,1,2,-1,3,4,2,-1,2,4,5,-1,5,6,2,-1,2,6,7,-1,2,7,0,-1,1,8,2,-1,2,8,9,-1,2,9,10,-1,10,11,2,-1,2,11,12,-1,2,12,13,-1,13,14,2,-1,2,14,15,-1,2,15,16,-1,16,15,17,-1,
        ]
    }
}
Shape{
    appearance Appearance {
        material  Material 	{
            diffuseColor 0.0 0.0 0.0
            specularColor 0.0 0.0 0.0
            ambientIntensity 0.0
            transparency 0.0
            shininess 0.5
        }
    }
    geometry IndexedFaceSet {
        ccw TRUE
        solid FALSE
        coord DEF co Coordinate {
            point [
                0.2078 -0.8091 0.22, 0.2056 -0.8091 0.2139, 0.2257 -0.8091 0.22, 0.2279 -0.8091 0.2139, 0.2158 -0.8091 0.2422, 0.2132 -0.8091 0.2527, 0.1929 -0.8091 0.1993, 0.2005 -0.8091 0.1993, 0.2163 -0.8091 0.2438, 0.2167 -0.8091 0.2459, 0.2206 -0.8091 0.2527, 0.2169 -0.8091 0.2459, 0.2173 -0.8091 0.2436, 0.2177 -0.8091 0.2422, 0.2409 -0.8091 0.1993, 0.2333 -0.8091 0.1993, 0.2206 -0.8051 0.2527, 0.2409 -0.8051 0.1993, 0.2132 -0.8051 0.2527, 0.1929 -0.8051 0.1993, 0.2005 -0.8051 0.1993, 0.2056 -0.8051 0.2139, 0.2279 -0.8051 0.2139, 0.2333 -0.8051 0.1993, 0.2078 -0.8051 0.22, 0.2257 -0.8051 0.22, 0.2177 -0.8051 0.2422, 0.2169 -0.8051 0.2459, 0.2173 -0.8051 0.2436, 0.2167 -0.8051 0.2459, 0.2158 -0.8051 0.2422, 0.2163 -0.8051 0.2438
            ]
        }
        coordIndex [
            0,1,2,-1,2,1,3,-1,4,5,0,-1,0,5,6,-1,0,6,1,-1,1,6,7,-1,4,8,5,-1,5,8,9,-1,5,9,10,-1,10,9,11,-1,10,11,12,-1,12,13,10,-1,10,13,2,-1,10,2,14,-1,14,2,3,-1,14,3,15,-1,10,14,16,-1,16,14,17,-1,5,10,18,-1,18,10,16,-1,6,5,19,-1,19,5,18,-1,7,6,20,-1,20,6,19,-1,1,7,21,-1,21,7,20,-1,3,1,22,-1,22,1,21,-1,15,3,23,-1,23,3,22,-1,14,15,17,-1,17,15,23,-1,0,2,24,-1,24,2,25,-1,2,13,25,-1,25,13,26,-1,11,27,28,-1,11,28,12,-1,12,28,26,-1,12,26,13,-1,11,9,27,-1,27,9,29,-1,4,30,31,-1,4,31,8,-1,8,31,29,-1,8,29,9,-1,4,0,30,-1,30,0,24,-1,
        ]
    }
}
Shape{
    appearance Appearance {
        material  Material 	{
            diffuseColor 0.5019607843137255 0.5019607843137255 0.5019607843137255
            specularColor 0.25098039215686274 0.25098039215686274 0.25098039215686274
            ambientIntensity 0.502
            transparency 0.0
            shininess 0.5
        }
    }
    geometry IndexedFaceSet {
        ccw TRUE
        solid FALSE
        coord DEF co Coordinate {
            point [
                0.2169 -0.8051 0.2459, 0.2167 -0.8051 0.2459, 0.2173 -0.8051 0.2436, 0.2163 -0.8051 0.2438, 0.2177 -0.8051 0.2422, 0.2158 -0.8051 0.2422, 0.2257 -0.8051 0.22, 0.2078 -0.8051 0.22
            ]
        }
        coordIndex [
            0,1,2,-1,2,1,3,-1,2,3,4,-1,4,3,5,-1,4,5,6,-1,6,5,7,-1,
        ]
    }
}
Shape{
    appearance Appearance {
        material  Material 	{
            diffuseColor 0.0 0.0 0.0
            specularColor 0.0 0.0 0.0
            ambientIntensity 0.0
            transparency 0.0
            shininess 0.5
        }
    }
    geometry IndexedFaceSet {
        ccw TRUE
        solid FALSE
        coord DEF co Coordinate {
            point [
                -0.2759 -0.8091 0.1918, -0.2703 -0.8091 0.1848, -0.2793 -0.8091 0.2254, -0.2126 -0.8091 0.1903, -0.2081 -0.8091 0.1988, -0.2059 -0.8091 0.2082, -0.2539 -0.8091 0.2007, -0.2509 -0.8091 0.1986, -0.2628 -0.8091 0.1792, -0.2474 -0.8091 0.1973, -0.1526 -0.8091 0.2439, -0.1643 -0.8091 0.2641, -0.2057 -0.8091 0.2159, -0.2152 -0.8091 0.2375, -0.2057 -0.8091 0.2121, -0.226 -0.8091 0.1785, -0.2184 -0.8091 0.1837, -0.2876 -0.8091 0.2304, -0.286 -0.8091 0.2019, -0.2797 -0.8091 0.1999, -0.14 -0.8091 0.2815, -0.137 -0.8091 0.2815, -0.1214 -0.8091 0.302, -0.1298 -0.8091 0.2806, -0.1194 -0.8091 0.3013, -0.1232 -0.8091 0.2781, -0.1082 -0.8091 0.2957, -0.0979 -0.8091 0.287, -0.2468 -0.8091 0.294, -0.244 -0.8091 0.2925, -0.2558 -0.8091 0.3202, -0.2385 -0.8091 0.3041, -0.248 -0.8091 0.3293, -0.2301 -0.8091 0.3144, -0.2391 -0.8091 0.3369, -0.2195 -0.8091 0.3222, -0.2299 -0.8091 0.3426, -0.2541 -0.8091 0.1755, -0.2451 -0.8091 0.1741, -0.244 -0.8091 0.1969, -0.2436 -0.8091 0.1741, -0.2407 -0.8091 0.1972, -0.2345 -0.8091 0.1752, -0.2374 -0.8091 0.1984, -0.2345 -0.8091 0.2004, -0.232 -0.8091 0.2031, -0.0979 -0.8091 0.2162, -0.1156 -0.8091 0.2313, -0.1084 -0.8091 0.2074, -0.1212 -0.8091 0.2267, -0.12 -0.8091 0.2018, -0.1279 -0.8091 0.2236, -0.1324 -0.8091 0.1992, -0.1347 -0.8091 0.2223, -0.1548 -0.8091 0.1992, -0.1518 -0.8091 0.2223, -0.1569 -0.8091 0.1995, -0.1419 -0.8091 0.332, -0.1559 -0.8091 0.3138, -0.1295 -0.8091 0.3177, -0.1476 -0.8091 0.3033, -0.142 -0.8091 0.291, -0.2944 -0.8091 0.2374, -0.3101 -0.8091 0.2181, -0.2995 -0.8091 0.2089, -0.301 -0.8091 0.2694, -0.3259 -0.8091 0.2637, -0.3021 -0.8091 0.2603, -0.326 -0.8091 0.2595, -0.3016 -0.8091 0.2545, -0.3245 -0.8091 0.2459, -0.2989 -0.8091 0.2452, -0.3194 -0.8091 0.2317, -0.3113 -0.8091 0.2196, -0.2563 -0.8091 0.2035, -0.2579 -0.8091 0.2066, -0.2587 -0.8091 0.2101, -0.2302 -0.8091 0.217, -0.2293 -0.8091 0.2134, -0.2293 -0.8091 0.21, -0.2302 -0.8091 0.2064, -0.1173 -0.8091 0.274, -0.1129 -0.8091 0.269, -0.0902 -0.8091 0.2762, -0.1093 -0.8091 0.2625, -0.0856 -0.8091 0.2646, -0.1076 -0.8091 0.2552, -0.0839 -0.8091 0.2523, -0.1074 -0.8091 0.2519, -0.0857 -0.8091 0.2385, -0.1083 -0.8091 0.2445, -0.0905 -0.8091 0.2265, -0.1109 -0.8091 0.2378, -0.1151 -0.8091 0.2319, -0.2124 -0.8091 0.3494, -0.2071 -0.8091 0.3272, -0.1935 -0.8091 0.3517, -0.1932 -0.8091 0.329, -0.1779 -0.8091 0.3501, -0.1806 -0.8091 0.3275, -0.1589 -0.8091 0.3434, -0.1687 -0.8091 0.323, -0.158 -0.8091 0.3157, -0.2553 -0.8091 0.2971, -0.2601 -0.8091 0.3208, -0.2641 -0.8091 0.2982, -0.2645 -0.8091 0.321, -0.268 -0.8091 0.298, -0.2781 -0.8091 0.3195, -0.2774 -0.8091 0.2958, -0.2923 -0.8091 0.3143, -0.2859 -0.8091 0.2913, -0.305 -0.8091 0.3057, -0.2925 -0.8091 0.2855, -0.3082 -0.8091 0.3028, -0.2977 -0.8091 0.2779, -0.3166 -0.8091 0.2921, -0.3229 -0.8091 0.2787, -0.2587 -0.8091 0.2133, -0.2579 -0.8091 0.2169, -0.2751 -0.8091 0.2335, -0.2561 -0.8091 0.2202, -0.2688 -0.8091 0.2407, -0.2536 -0.8091 0.2229, -0.2611 -0.8091 0.2461, -0.2506 -0.8091 0.2249, -0.2527 -0.8091 0.2493, -0.2473 -0.8091 0.2261, -0.2436 -0.8091 0.2504, -0.244 -0.8091 0.2265, -0.239 -0.8091 0.2501, -0.2408 -0.8091 0.2261, -0.2298 -0.8091 0.2478, -0.2373 -0.8091 0.2249, -0.2218 -0.8091 0.2435, -0.2343 -0.8091 0.2228, -0.2318 -0.8091 0.2201, -0.1537 -0.8091 0.2227, -0.1628 -0.8091 0.2032, -0.1619 -0.8091 0.2022, -0.1526 -0.8091 0.2224, -0.1594 -0.8091 0.2004, -0.1658 -0.8091 0.2109, -0.1655 -0.8091 0.2081, -0.1645 -0.8091 0.2056, -0.1569 -0.8091 0.2223, -0.1595 -0.8091 0.2213, -0.1658 -0.8091 0.2121, -0.1619 -0.8091 0.2197, -0.1637 -0.8091 0.2177, -0.1651 -0.8091 0.215, -0.1541 -0.8091 0.2227, -0.0955 -0.8051 0.2836, -0.0902 -0.8051 0.2762, -0.0869 -0.8051 0.2679, -0.0856 -0.8051 0.2646, -0.0839 -0.8051 0.2523, -0.0979 -0.8051 0.287, -0.1082 -0.8051 0.2957, -0.1194 -0.8051 0.3013, -0.1214 -0.8051 0.302, -0.1295 -0.8051 0.3177, -0.1419 -0.8051 0.332, -0.1506 -0.8051 0.3379, -0.1589 -0.8051 0.3434, -0.1779 -0.8051 0.3501, -0.1935 -0.8051 0.3517, -0.2391 -0.8051 0.3369, -0.2376 -0.8051 0.3379, -0.2299 -0.8051 0.3426, -0.2124 -0.8051 0.3494, -0.248 -0.8051 0.3293, -0.2558 -0.8051 0.3202, -0.2601 -0.8051 0.3208, -0.2645 -0.8051 0.321, -0.2781 -0.8051 0.3195, -0.2923 -0.8051 0.3143, -0.305 -0.8051 0.3057, -0.3082 -0.8051 0.3028, -0.3166 -0.8051 0.2921, -0.3206 -0.8051 0.2836, -0.3229 -0.8051 0.2787, -0.325 -0.8051 0.2679, -0.3259 -0.8051 0.2637, -0.326 -0.8051 0.2595, -0.3245 -0.8051 0.2459, -0.3194 -0.8051 0.2317, -0.3113 -0.8051 0.2196, -0.3101 -0.8051 0.2181, -0.2995 -0.8051 0.2089, -0.286 -0.8051 0.2019, -0.2797 -0.8051 0.1999, -0.2792 -0.8051 0.1989, -0.2759 -0.8051 0.1918, -0.2703 -0.8051 0.1848, -0.2628 -0.8051 0.1792, -0.2593 -0.8051 0.1778, -0.2541 -0.8051 0.1755, -0.2451 -0.8051 0.1741, -0.2436 -0.8051 0.1741, -0.2057 -0.8051 0.2121, -0.2345 -0.8051 0.1752, -0.2279 -0.8051 0.1778, -0.226 -0.8051 0.1785, -0.2184 -0.8051 0.1837, -0.2126 -0.8051 0.1903, -0.2081 -0.8051 0.1988, -0.2081 -0.8051 0.1989, -0.2059 -0.8051 0.2082, -0.2057 -0.8051 0.2159, -0.1526 -0.8051 0.2439, -0.1643 -0.8051 0.2641, -0.2152 -0.8051 0.2375, -0.2218 -0.8051 0.2435, -0.2298 -0.8051 0.2478, -0.239 -0.8051 0.2501, -0.2436 -0.8051 0.2504, -0.2527 -0.8051 0.2493, -0.2611 -0.8051 0.2461, -0.2688 -0.8051 0.2407, -0.2751 -0.8051 0.2335, -0.2793 -0.8051 0.2254, -0.2876 -0.8051 0.2304, -0.2944 -0.8051 0.2374, -0.2989 -0.8051 0.2452, -0.3016 -0.8051 0.2545, -0.3021 -0.8051 0.2603, -0.3011 -0.8051 0.2679, -0.301 -0.8051 0.2694, -0.2977 -0.8051 0.2779, -0.2938 -0.8051 0.2836, -0.2925 -0.8051 0.2855, -0.2859 -0.8051 0.2913, -0.2774 -0.8051 0.2958, -0.268 -0.8051 0.298, -0.2641 -0.8051 0.2982, -0.2553 -0.8051 0.2971, -0.2468 -0.8051 0.294, -0.244 -0.8051 0.2925, -0.2385 -0.8051 0.3041, -0.2301 -0.8051 0.3144, -0.2195 -0.8051 0.3222, -0.2071 -0.8051 0.3272, -0.1932 -0.8051 0.329, -0.14 -0.8051 0.2815, -0.1405 -0.8051 0.2836, -0.142 -0.8051 0.291, -0.1476 -0.8051 0.3033, -0.1559 -0.8051 0.3138, -0.158 -0.8051 0.3157, -0.1687 -0.8051 0.323, -0.1806 -0.8051 0.3275, -0.137 -0.8051 0.2815, -0.1298 -0.8051 0.2806, -0.1232 -0.8051 0.2781, -0.1173 -0.8051 0.274, -0.1129 -0.8051 0.269, -0.1123 -0.8051 0.2679, -0.1093 -0.8051 0.2625, -0.1076 -0.8051 0.2552, -0.1074 -0.8051 0.2519, -0.1083 -0.8051 0.2445, -0.1109 -0.8051 0.2378, -0.1151 -0.8051 0.2319, -0.1156 -0.8051 0.2313, -0.1212 -0.8051 0.2267, -0.1279 -0.8051 0.2236, -0.1347 -0.8051 0.2223, -0.1518 -0.8051 0.2223, -0.1526 -0.8051 0.2224, -0.1537 -0.8051 0.2227, -0.1541 -0.8051 0.2227, -0.1569 -0.8051 0.2223, -0.1595 -0.8051 0.2213, -0.1619 -0.8051 0.2197, -0.1637 -0.8051 0.2177, -0.1651 -0.8051 0.215, -0.1658 -0.8051 0.2121, -0.1658 -0.8051 0.2109, -0.1655 -0.8051 0.2081, -0.1645 -0.8051 0.2056, -0.1628 -0.8051 0.2032, -0.1619 -0.8051 0.2022, -0.1594 -0.8051 0.2004, -0.1569 -0.8051 0.1995, -0.1548 -0.8051 0.1992, -0.1324 -0.8051 0.1992, -0.12 -0.8051 0.2018, -0.1084 -0.8051 0.2074, -0.0979 -0.8051 0.2162, -0.0905 -0.8051 0.2265, -0.0857 -0.8051 0.2385, -0.244 -0.8051 0.2265, -0.2408 -0.8051 0.2261, -0.2373 -0.8051 0.2249, -0.2343 -0.8051 0.2228, -0.2318 -0.8051 0.2201, -0.2302 -0.8051 0.217, -0.2293 -0.8051 0.2134, -0.2293 -0.8051 0.21, -0.2302 -0.8051 0.2064, -0.232 -0.8051 0.2031, -0.2345 -0.8051 0.2004, -0.2374 -0.8051 0.1984, -0.2407 -0.8051 0.1972, -0.244 -0.8051 0.1969, -0.2474 -0.8051 0.1973, -0.2509 -0.8051 0.1986, -0.2539 -0.8051 0.2007, -0.2563 -0.8051 0.2035, -0.2579 -0.8051 0.2066, -0.2587 -0.8051 0.2101, -0.2587 -0.8051 0.2133, -0.2579 -0.8051 0.2169, -0.2561 -0.8051 0.2202, -0.2536 -0.8051 0.2229, -0.2506 -0.8051 0.2249, -0.2473 -0.8051 0.2261
            ]
        }
        coordIndex [
            0,1,2,-1,3,4,5,-1,6,1,7,-1,7,1,8,-1,7,8,9,-1,10,11,12,-1,12,11,13,-1,12,13,14,-1,14,13,15,-1,14,15,5,-1,5,15,16,-1,5,16,3,-1,17,18,2,-1,2,18,19,-1,2,19,0,-1,20,21,22,-1,22,21,23,-1,22,23,24,-1,24,23,25,-1,24,25,26,-1,26,25,27,-1,28,29,30,-1,30,29,31,-1,30,31,32,-1,32,31,33,-1,32,33,34,-1,34,33,35,-1,34,35,36,-1,8,37,9,-1,9,37,38,-1,9,38,39,-1,39,38,40,-1,39,40,41,-1,41,40,42,-1,41,42,43,-1,43,42,15,-1,43,15,44,-1,44,15,45,-1,46,47,48,-1,48,47,49,-1,48,49,50,-1,50,49,51,-1,50,51,52,-1,52,51,53,-1,52,53,54,-1,54,53,55,-1,54,55,56,-1,57,58,59,-1,59,58,60,-1,59,60,22,-1,22,60,61,-1,22,61,20,-1,62,63,17,-1,17,63,64,-1,17,64,18,-1,65,66,67,-1,67,66,68,-1,67,68,69,-1,69,68,70,-1,69,70,71,-1,71,70,72,-1,71,72,62,-1,62,72,73,-1,62,73,63,-1,6,74,1,-1,1,74,75,-1,1,75,2,-1,2,75,76,-1,77,78,13,-1,13,78,79,-1,13,79,15,-1,15,79,80,-1,15,80,45,-1,25,81,27,-1,27,81,82,-1,27,82,83,-1,83,82,84,-1,83,84,85,-1,85,84,86,-1,85,86,87,-1,87,86,88,-1,87,88,89,-1,89,88,90,-1,89,90,91,-1,91,90,92,-1,91,92,46,-1,46,92,93,-1,46,93,47,-1,36,35,94,-1,94,35,95,-1,94,95,96,-1,96,95,97,-1,96,97,98,-1,98,97,99,-1,98,99,100,-1,100,99,101,-1,100,101,57,-1,57,101,102,-1,57,102,58,-1,28,30,103,-1,103,30,104,-1,103,104,105,-1,105,104,106,-1,105,106,107,-1,107,106,108,-1,107,108,109,-1,109,108,110,-1,109,110,111,-1,111,110,112,-1,111,112,113,-1,113,112,114,-1,113,114,115,-1,115,114,116,-1,115,116,65,-1,65,116,117,-1,65,117,66,-1,76,118,2,-1,2,118,119,-1,2,119,120,-1,120,119,121,-1,120,121,122,-1,122,121,123,-1,122,123,124,-1,124,123,125,-1,124,125,126,-1,126,125,127,-1,126,127,128,-1,128,127,129,-1,128,129,130,-1,130,129,131,-1,130,131,132,-1,132,131,133,-1,132,133,134,-1,134,133,135,-1,134,135,13,-1,13,135,136,-1,13,136,77,-1,137,138,139,-1,55,140,56,-1,56,140,137,-1,56,137,141,-1,141,137,139,-1,142,143,137,-1,137,143,144,-1,137,144,138,-1,145,146,147,-1,146,148,147,-1,147,148,149,-1,147,149,150,-1,142,137,147,-1,147,137,151,-1,147,151,145,-1,152,27,153,-1,153,27,83,-1,153,83,154,-1,154,83,85,-1,154,85,155,-1,155,85,87,-1,155,87,156,-1,152,157,27,-1,27,157,158,-1,27,158,26,-1,26,158,159,-1,26,159,24,-1,24,159,160,-1,24,160,22,-1,22,160,161,-1,22,161,59,-1,59,161,162,-1,59,162,57,-1,57,162,100,-1,100,162,163,-1,163,164,100,-1,100,164,165,-1,100,165,98,-1,98,165,166,-1,98,166,96,-1,167,34,168,-1,168,34,36,-1,168,36,169,-1,169,36,94,-1,169,94,170,-1,170,94,96,-1,170,96,166,-1,34,167,171,-1,34,171,32,-1,32,171,172,-1,32,172,30,-1,30,172,173,-1,30,173,104,-1,104,173,174,-1,104,174,106,-1,106,174,175,-1,106,175,108,-1,108,175,176,-1,108,176,110,-1,110,176,177,-1,110,177,112,-1,112,177,178,-1,112,178,114,-1,117,116,179,-1,179,116,114,-1,179,114,178,-1,179,180,117,-1,117,180,181,-1,117,181,66,-1,66,181,182,-1,182,183,66,-1,66,183,184,-1,66,184,68,-1,68,184,185,-1,68,185,70,-1,70,185,186,-1,70,186,72,-1,72,186,187,-1,72,187,73,-1,73,187,188,-1,73,188,63,-1,63,188,189,-1,63,189,64,-1,64,189,190,-1,64,190,18,-1,18,190,191,-1,18,191,19,-1,19,191,192,-1,19,192,0,-1,192,193,0,-1,0,193,194,-1,0,194,1,-1,1,194,195,-1,1,195,8,-1,8,195,196,-1,8,196,37,-1,196,197,37,-1,37,197,198,-1,37,198,38,-1,38,198,199,-1,38,199,40,-1,200,14,5,-1,40,199,201,-1,40,201,42,-1,42,201,202,-1,42,202,15,-1,202,203,15,-1,15,203,204,-1,15,204,16,-1,16,204,205,-1,16,205,3,-1,3,205,206,-1,3,206,4,-1,4,206,207,-1,4,207,5,-1,5,207,208,-1,5,208,200,-1,12,14,209,-1,209,14,200,-1,10,12,210,-1,210,12,209,-1,11,10,211,-1,211,10,210,-1,13,11,212,-1,212,11,211,-1,13,212,213,-1,13,213,134,-1,134,213,214,-1,134,214,132,-1,132,214,215,-1,132,215,130,-1,130,215,216,-1,130,216,128,-1,128,216,217,-1,128,217,126,-1,126,217,218,-1,126,218,124,-1,124,218,219,-1,124,219,122,-1,122,219,220,-1,122,220,120,-1,120,220,221,-1,120,221,2,-1,2,221,222,-1,2,222,17,-1,17,222,223,-1,17,223,62,-1,62,223,224,-1,62,224,71,-1,71,224,225,-1,71,225,69,-1,69,225,226,-1,69,226,67,-1,67,226,227,-1,67,227,65,-1,65,227,228,-1,65,228,229,-1,230,113,229,-1,229,113,115,-1,229,115,65,-1,230,231,113,-1,113,231,232,-1,113,232,111,-1,111,232,233,-1,111,233,109,-1,109,233,234,-1,109,234,107,-1,107,234,235,-1,107,235,105,-1,105,235,236,-1,105,236,103,-1,103,236,237,-1,103,237,28,-1,28,237,238,-1,28,238,29,-1,29,238,239,-1,29,239,31,-1,31,239,240,-1,31,240,33,-1,33,240,241,-1,33,241,35,-1,35,241,242,-1,35,242,95,-1,95,242,243,-1,95,243,97,-1,244,20,245,-1,245,20,61,-1,245,61,246,-1,246,61,60,-1,246,60,247,-1,247,60,58,-1,247,58,248,-1,248,58,102,-1,248,102,249,-1,249,102,101,-1,249,101,250,-1,250,101,99,-1,250,99,251,-1,251,99,97,-1,251,97,243,-1,21,20,252,-1,252,20,244,-1,21,252,253,-1,21,253,23,-1,23,253,254,-1,23,254,25,-1,25,254,255,-1,25,255,81,-1,81,255,256,-1,81,256,82,-1,82,256,257,-1,82,257,84,-1,257,258,84,-1,84,258,259,-1,84,259,86,-1,86,259,260,-1,86,260,88,-1,88,260,261,-1,88,261,90,-1,90,261,262,-1,90,262,92,-1,92,262,263,-1,92,263,93,-1,93,263,264,-1,93,264,47,-1,47,264,265,-1,47,265,49,-1,49,265,266,-1,49,266,51,-1,51,266,267,-1,51,267,53,-1,55,53,268,-1,268,53,267,-1,55,268,269,-1,55,269,140,-1,140,269,270,-1,140,270,137,-1,137,270,271,-1,137,271,151,-1,151,271,272,-1,151,272,145,-1,145,272,273,-1,145,273,146,-1,146,273,274,-1,146,274,148,-1,148,274,275,-1,148,275,149,-1,149,275,276,-1,149,276,150,-1,150,276,277,-1,150,277,147,-1,147,277,278,-1,147,278,142,-1,142,278,279,-1,142,279,143,-1,143,279,280,-1,143,280,144,-1,144,280,281,-1,144,281,138,-1,138,281,282,-1,138,282,139,-1,139,282,283,-1,139,283,141,-1,141,283,284,-1,141,284,56,-1,56,284,285,-1,56,285,54,-1,52,54,286,-1,286,54,285,-1,52,286,287,-1,52,287,50,-1,50,287,288,-1,50,288,48,-1,48,288,289,-1,48,289,46,-1,46,289,290,-1,46,290,91,-1,91,290,291,-1,91,291,89,-1,89,291,156,-1,89,156,87,-1,129,292,293,-1,129,293,131,-1,131,293,294,-1,131,294,133,-1,133,294,295,-1,133,295,135,-1,135,295,296,-1,135,296,136,-1,136,296,297,-1,136,297,77,-1,77,297,298,-1,77,298,78,-1,78,298,299,-1,78,299,79,-1,79,299,300,-1,79,300,80,-1,80,300,301,-1,80,301,45,-1,45,301,302,-1,45,302,44,-1,44,302,303,-1,44,303,43,-1,43,303,304,-1,43,304,41,-1,41,304,305,-1,41,305,39,-1,39,305,306,-1,39,306,9,-1,9,306,307,-1,9,307,7,-1,7,307,308,-1,7,308,6,-1,6,308,309,-1,6,309,74,-1,74,309,310,-1,74,310,75,-1,75,310,311,-1,75,311,76,-1,76,311,312,-1,76,312,118,-1,118,312,313,-1,118,313,119,-1,119,313,314,-1,119,314,121,-1,121,314,315,-1,121,315,123,-1,123,315,316,-1,123,316,125,-1,125,316,317,-1,125,317,127,-1,127,317,292,-1,127,292,129,-1,
        ]
    }
}
Shape{
    appearance Appearance {
        material  Material 	{
            diffuseColor 0.5019607843137255 0.5019607843137255 0.5019607843137255
            specularColor 0.25098039215686274 0.25098039215686274 0.25098039215686274
            ambientIntensity 0.502
            transparency 0.0
            shininess 0.5
        }
    }
    geometry IndexedFaceSet {
        ccw TRUE
        solid FALSE
        coord DEF co Coordinate {
            point [
                -0.244 -0.8051 0.2265, -0.244 -0.8051 0.1969, -0.2407 -0.8051 0.1972, -0.2506 -0.8051 0.2249, -0.2587 -0.8051 0.2133, -0.2473 -0.8051 0.2261, -0.2587 -0.8051 0.2101, -0.232 -0.8051 0.2031, -0.2302 -0.8051 0.2064, -0.2293 -0.8051 0.21, -0.2302 -0.8051 0.217, -0.2318 -0.8051 0.2201, -0.2343 -0.8051 0.2228, -0.2579 -0.8051 0.2066, -0.2563 -0.8051 0.2035, -0.2539 -0.8051 0.2007, -0.2373 -0.8051 0.2249, -0.2408 -0.8051 0.2261, -0.2536 -0.8051 0.2229, -0.2561 -0.8051 0.2202, -0.2579 -0.8051 0.2169, -0.2509 -0.8051 0.1986, -0.2474 -0.8051 0.1973, -0.2293 -0.8051 0.2134, -0.2374 -0.8051 0.1984, -0.2345 -0.8051 0.2004
            ]
        }
        coordIndex [
            0,1,2,-1,3,4,5,-1,5,4,6,-1,5,6,0,-1,7,8,9,-1,10,11,2,-1,2,11,12,-1,6,13,0,-1,0,13,14,-1,0,14,15,-1,12,16,2,-1,2,16,17,-1,2,17,0,-1,3,18,4,-1,4,18,19,-1,4,19,20,-1,15,21,0,-1,0,21,22,-1,0,22,1,-1,10,2,23,-1,23,2,24,-1,23,24,9,-1,9,24,25,-1,9,25,7,-1,
        ]
    }
}